<svg xmlns="http://www.w3.org/2000/svg" xmlns:xlink="http://www.w3.org/1999/xlink" width="110" height="110" viewBox="0 0 110 110">
  <defs>
    <filter id="Trazado_982547" x="0" y="0" width="110" height="110" filterUnits="userSpaceOnUse">
      <feOffset dy="3" input="SourceAlpha"/>
      <feGaussianBlur stdDeviation="3" result="blur"/>
      <feFlood flood-opacity="0.161"/>
      <feComposite operator="in" in2="blur"/>
      <feComposite in="SourceGraphic"/>
    </filter>
  </defs>
  <g id="Grupo_1200239" data-name="Grupo 1200239" transform="translate(792 -1083)">
    <g id="Grupo_1199820" data-name="Grupo 1199820" transform="translate(-1155.301 -6667)">
      <g id="Grupo_1173080" data-name="Grupo 1173080" transform="translate(372.301 7756)">
        <g id="Grupo_1172181" data-name="Grupo 1172181" transform="translate(0)">
          <g id="Grupo_1171414" data-name="Grupo 1171414">
            <g id="Grupo_1163801" data-name="Grupo 1163801">
              <g id="Grupo_1163014" data-name="Grupo 1163014">
                <g id="Grupo_1157015" data-name="Grupo 1157015" transform="translate(0 0)">
                  <g id="Grupo_1155792" data-name="Grupo 1155792">
                    <g id="Grupo_1154703" data-name="Grupo 1154703">
                      <g id="Grupo_1150789" data-name="Grupo 1150789">
                        <g id="Grupo_1154212" data-name="Grupo 1154212">
                          <g id="Grupo_1152583" data-name="Grupo 1152583">
                            <g id="Grupo_1146973" data-name="Grupo 1146973" transform="translate(0 0)">
                              <g id="Grupo_1146954" data-name="Grupo 1146954">
                                <g transform="matrix(1, 0, 0, 1, -9, -6)" filter="url(#Trazado_982547)">
                                  <g id="Trazado_982547-2" data-name="Trazado 982547" transform="translate(9 6)" fill="#f2f7f5">
                                    <path d="M 46 90.49987030029297 C 39.99187850952148 90.49987030029297 34.16426849365234 89.32350921630859 28.67905426025391 87.00345611572266 C 23.38019943237305 84.76224517822266 18.62104034423828 81.55341339111328 14.53374671936035 77.46613311767578 C 10.44646644592285 73.37885284423828 7.237639904022217 68.61969757080078 4.996413230895996 63.32085418701172 C 2.676359891891479 57.83565521240234 1.5 52.008056640625 1.5 45.99993515014648 C 1.5 39.99181365966797 2.676359891891479 34.16421508789062 4.996413230895996 28.67901420593262 C 7.237639904022217 23.38017463684082 10.44646644592285 18.62101554870605 14.53374671936035 14.53373527526855 C 18.62104034423828 10.44645500183105 23.38019943237305 7.23762845993042 28.67905426025391 4.996415138244629 C 34.16426849365234 2.676361799240112 39.99187850952148 1.500001788139343 46 1.500001788139343 C 52.00812149047852 1.500001788139343 57.83573150634766 2.676361799240112 63.32094573974609 4.996415138244629 C 68.61979675292969 7.23762845993042 73.37895965576172 10.44645500183105 77.46625518798828 14.53373527526855 C 81.55353546142578 18.62101554870605 84.76235961914062 23.38017463684082 87.00358581542969 28.67901420593262 C 89.32363891601562 34.16421508789062 90.5 39.99181365966797 90.5 45.99993515014648 C 90.5 52.008056640625 89.32363891601562 57.83565521240234 87.00358581542969 63.32085418701172 C 84.76235961914062 68.61969757080078 81.55353546142578 73.37885284423828 77.46625518798828 77.46613311767578 C 73.37895965576172 81.55341339111328 68.61979675292969 84.76224517822266 63.32094573974609 87.00345611572266 C 57.83573150634766 89.32350921630859 52.00812149047852 90.49987030029297 46 90.49987030029297 Z" stroke="none"/>
                                    <path d="M 46 2.999992370605469 C 40.1937141418457 2.999992370605469 34.56269836425781 4.136489868164062 29.26337051391602 6.377906799316406 C 24.14332580566406 8.543502807617188 19.54441070556641 11.64437866210938 15.59439849853516 15.59437561035156 C 11.64440155029297 19.54439544677734 8.54351806640625 24.14329528808594 6.377914428710938 29.26333618164062 C 4.136497497558594 34.56264877319336 3 40.19366455078125 3 45.99993515014648 C 3 51.80620574951172 4.136497497558594 57.43720626831055 6.377914428710938 62.73651885986328 C 8.54351806640625 67.8565673828125 11.64440155029297 72.45545959472656 15.59439849853516 76.40547943115234 C 19.54441070556641 80.35547637939453 24.14332580566406 83.45635223388672 29.26337051391602 85.6219482421875 C 34.56269836425781 87.86336517333984 40.1937141418457 88.99986267089844 46 88.99986267089844 C 51.8062858581543 88.99986267089844 57.43730163574219 87.86336517333984 62.73661422729492 85.6219482421875 C 67.85667419433594 83.45635223388672 72.45557403564453 80.35547637939453 76.40558624267578 76.40547943115234 C 80.35559844970703 72.45545959472656 83.45647430419922 67.8565673828125 85.6220703125 62.73651885986328 C 87.86350250244141 57.43720626831055 89 51.80620574951172 89 45.99993515014648 C 89 40.19366455078125 87.86350250244141 34.56264877319336 85.6220703125 29.26333618164062 C 83.45647430419922 24.14329528808594 80.35559844970703 19.54439544677734 76.40558624267578 15.59437561035156 C 72.45557403564453 11.64437866210938 67.85667419433594 8.543502807617188 62.73661422729492 6.377906799316406 C 57.43730163574219 4.136489868164062 51.8062858581543 2.999992370605469 46 2.999992370605469 M 46 -7.62939453125e-06 C 71.40509033203125 -7.62939453125e-06 92 20.59486389160156 92 45.99993515014648 C 92 71.40499114990234 71.40509033203125 91.99986267089844 46 91.99986267089844 C 20.59490203857422 91.99986267089844 0 71.40499114990234 0 45.99993515014648 C 0 20.59486389160156 20.59490203857422 -7.62939453125e-06 46 -7.62939453125e-06 Z" stroke="none" fill="#88bba9"/>
                                  </g>
                                </g>
                              </g>
                            </g>
                          </g>
                        </g>
                      </g>
                    </g>
                  </g>
                </g>
              </g>
            </g>
          </g>
        </g>
      </g>
    </g>
    <g id="la-mejora-de-procesos" transform="translate(-777.008 1095)">
      <g id="Grupo_1200238" data-name="Grupo 1200238" transform="translate(9.887 10.059)">
        <path id="Trazado_1043977" data-name="Trazado 1043977" d="M71.361,153.143l3.01,3.01a.629.629,0,0,1-.437,1.073l-8.15.1a.629.629,0,0,1-.636-.636l.1-8.15a.629.629,0,0,1,1.073-.437l2.094,2.094a25.96,25.96,0,0,0-3.326-31.534.629.629,0,0,1,.01-.878l2-2a.629.629,0,0,1,.9.009,30.057,30.057,0,0,1,3.362,37.353ZM20.979,119.521l-3.01-3.01a.629.629,0,0,1,.437-1.073l8.15-.1a.629.629,0,0,1,.636.636l-.1,8.15a.629.629,0,0,1-1.073.437l-2.094-2.094A25.96,25.96,0,0,0,27.253,154a.629.629,0,0,1-.01.878l-2,2a.629.629,0,0,1-.9-.009,30.057,30.057,0,0,1-3.363-37.353Z" transform="translate(-16 -103.029)" fill="#c6ea94" fill-rule="evenodd"/>
        <path id="Trazado_1043978" data-name="Trazado 1043978" d="M144.495,149.228a4.075,4.075,0,0,0-2.88,6.953,1.209,1.209,0,0,1,0,1.71l-2.6,2.6a1.209,1.209,0,0,1-1.71,0,4.075,4.075,0,0,0-6.953,2.88,1.209,1.209,0,0,1-1.209,1.209H125.46a1.209,1.209,0,0,1-1.209-1.209,4.073,4.073,0,0,0-6.953-2.88,1.209,1.209,0,0,1-1.71,0l-2.6-2.6a1.209,1.209,0,0,1,0-1.71,4.075,4.075,0,0,0-2.88-6.953,1.209,1.209,0,0,1-1.209-1.209v-3.681a1.209,1.209,0,0,1,1.209-1.209,4.075,4.075,0,0,0,2.88-6.953,1.209,1.209,0,0,1,0-1.71l2.6-2.6a1.209,1.209,0,0,1,1.71,0,4.075,4.075,0,0,0,6.953-2.88,1.209,1.209,0,0,1,1.209-1.209h3.681a1.209,1.209,0,0,1,1.209,1.209,4.075,4.075,0,0,0,6.953,2.88,1.209,1.209,0,0,1,1.71,0l2.6,2.6a1.209,1.209,0,0,1,0,1.71,4.075,4.075,0,0,0,2.88,6.953,1.209,1.209,0,0,1,1.209,1.209v3.681A1.209,1.209,0,0,1,144.495,149.228Z" transform="translate(-97.218 -113.902)" fill="#636c77" fill-rule="evenodd"/>
        <g id="Grupo_1200235" data-name="Grupo 1200235" transform="translate(33.3 0)">
          <path id="Trazado_1043979" data-name="Trazado 1043979" d="M294.413,20.895a1.684,1.684,0,0,0,1.19,2.874.5.5,0,0,1,.5.5V25.79a.5.5,0,0,1-.5.5,1.684,1.684,0,0,0-1.19,2.874.5.5,0,0,1,0,.707l-1.076,1.076a.5.5,0,0,1-.707,0,1.684,1.684,0,0,0-2.874,1.19.5.5,0,0,1-.5.5h-1.521a.5.5,0,0,1-.5-.5,1.684,1.684,0,0,0-2.874-1.19.5.5,0,0,1-.707,0l-1.076-1.076a.5.5,0,0,1,0-.707,1.684,1.684,0,0,0-1.19-2.874.5.5,0,0,1-.5-.5V24.269a.5.5,0,0,1,.5-.5,1.684,1.684,0,0,0,1.19-2.874.5.5,0,0,1,0-.707l1.076-1.076a.5.5,0,0,1,.707,0,1.684,1.684,0,0,0,2.874-1.19.5.5,0,0,1,.5-.5h1.521a.5.5,0,0,1,.5.5,1.684,1.684,0,0,0,2.874,1.19.5.5,0,0,1,.707,0l1.076,1.076A.5.5,0,0,1,294.413,20.895Z" transform="translate(-280.889 -17.422)" fill="#fdcd56" fill-rule="evenodd"/>
          <path id="Trazado_1043980" data-name="Trazado 1043980" d="M313.4,49.931a3.655,3.655,0,1,1,0,5.169A3.655,3.655,0,0,1,313.4,49.931Z" transform="translate(-308.375 -44.909)" fill="#f4f6f8" fill-rule="evenodd"/>
        </g>
        <g id="Grupo_1200236" data-name="Grupo 1200236" transform="translate(11.827 0)">
          <path id="Trazado_1043981" data-name="Trazado 1043981" d="M123.608,20.895a1.684,1.684,0,0,0,1.19,2.874.5.5,0,0,1,.5.5V25.79a.5.5,0,0,1-.5.5,1.684,1.684,0,0,0-1.19,2.874.5.5,0,0,1,0,.707l-1.076,1.076a.5.5,0,0,1-.707,0,1.684,1.684,0,0,0-2.874,1.19.5.5,0,0,1-.5.5h-1.521a.5.5,0,0,1-.5-.5,1.684,1.684,0,0,0-2.874-1.19.5.5,0,0,1-.707,0l-1.076-1.076a.5.5,0,0,1,0-.707,1.684,1.684,0,0,0-1.19-2.874.5.5,0,0,1-.5-.5V24.269a.5.5,0,0,1,.5-.5,1.684,1.684,0,0,0,1.19-2.874.5.5,0,0,1,0-.707l1.076-1.076a.5.5,0,0,1,.707,0,1.684,1.684,0,0,0,2.874-1.19.5.5,0,0,1,.5-.5h1.521a.5.5,0,0,1,.5.5,1.684,1.684,0,0,0,2.874,1.19.5.5,0,0,1,.707,0l1.076,1.076A.5.5,0,0,1,123.608,20.895Z" transform="translate(-110.084 -17.422)" fill="#fdcd56" fill-rule="evenodd"/>
          <path id="Trazado_1043982" data-name="Trazado 1043982" d="M142.592,49.931a3.655,3.655,0,1,1,0,5.169A3.655,3.655,0,0,1,142.592,49.931Z" transform="translate(-137.57 -44.909)" fill="#f4f6f8" fill-rule="evenodd"/>
        </g>
        <g id="Grupo_1200237" data-name="Grupo 1200237" transform="translate(19.457 23.434)">
          <path id="Trazado_1043983" data-name="Trazado 1043983" d="M181.5,203.832a10.73,10.73,0,0,1,10.73,10.73c0,6.977-5.019,5.344-5.019,18H175.794c0-12.655-5.019-11.022-5.019-18A10.73,10.73,0,0,1,181.5,203.832Z" transform="translate(-170.775 -203.832)" fill="#fdcd56" fill-rule="evenodd"/>
          <path id="Trazado_1043984" data-name="Trazado 1043984" d="M196.63,408.443h11.858a1.779,1.779,0,0,1,1.774,1.774v3.828a1.779,1.779,0,0,1-1.774,1.774h-1.823V417.6a1.678,1.678,0,0,1-1.673,1.673h-4.864a1.678,1.678,0,0,1-1.673-1.673v-1.779H196.63a1.779,1.779,0,0,1-1.774-1.774v-3.828A1.779,1.779,0,0,1,196.63,408.443Z" transform="translate(-191.829 -382.721)" fill="#e4e8eb" fill-rule="evenodd"/>
        </g>
      </g>
      <path id="Trazado_1043985" data-name="Trazado 1043985" d="M53.662,52.782a.33.33,0,0,1,0,.466l-2.6,2.6a.329.329,0,0,1-.465,0,4.894,4.894,0,0,0-2.941-1.424,15.765,15.765,0,0,1,1.914-3.737,10.481,10.481,0,0,0,2.116-6.538,11.715,11.715,0,0,0-23.43,0,10.481,10.481,0,0,0,2.116,6.538,15.711,15.711,0,0,1,1.915,3.734,4.91,4.91,0,0,0-2.941,1.427.329.329,0,0,1-.465,0l-2.6-2.6a.33.33,0,0,1,0-.466,4.955,4.955,0,0,0-3.5-8.455A.329.329,0,0,1,22.445,44V40.317a.329.329,0,0,1,.328-.329,4.955,4.955,0,0,0,3.5-8.455.33.33,0,0,1,0-.466l2.6-2.6a.329.329,0,0,1,.465,0,4.955,4.955,0,0,0,8.455-3.5.329.329,0,0,1,.329-.329h3.679a.329.329,0,0,1,.329.329,4.955,4.955,0,0,0,8.455,3.5.329.329,0,0,1,.465,0l2.6,2.6a.33.33,0,0,1,0,.466,4.955,4.955,0,0,0,3.5,8.455.329.329,0,0,1,.328.329V44a.329.329,0,0,1-.328.329,4.955,4.955,0,0,0-3.5,8.455ZM46.868,64.944a.912.912,0,0,1-.912.912H44.115a.881.881,0,0,0-.88.88v1.8a.81.81,0,0,1-.809.81H37.514a.811.811,0,0,1-.81-.81v-1.8a.881.881,0,0,0-.88-.88H33.982a.912.912,0,0,1-.912-.912V61.078a.913.913,0,0,1,.912-.912H45.956a.913.913,0,0,1,.912.912Zm-1.824-6.537a17.269,17.269,0,0,1,3.045-8.675,8.788,8.788,0,0,0,1.835-5.582,9.955,9.955,0,0,0-19.91,0,8.8,8.8,0,0,0,1.836,5.582,17.252,17.252,0,0,1,3.046,8.675h4.194V46.673l-4.206-2.428a.88.88,0,0,1,.88-1.524l4.206,2.429,4.206-2.429a.88.88,0,1,1,.88,1.524l-4.206,2.428V58.407Zm12.121-12.32A2.091,2.091,0,0,0,59.253,44V40.317a2.091,2.091,0,0,0-2.088-2.089,3.194,3.194,0,0,1-2.257-5.451,2.094,2.094,0,0,0,0-2.954l-2.6-2.6a2.091,2.091,0,0,0-2.954,0A3.2,3.2,0,0,1,43.9,24.961a2.091,2.091,0,0,0-2.089-2.089H38.129a2.091,2.091,0,0,0-2.089,2.089,3.2,3.2,0,0,1-5.451,2.258,2.091,2.091,0,0,0-2.954,0l-2.6,2.6a2.093,2.093,0,0,0,0,2.954,3.194,3.194,0,0,1-2.258,5.451,2.091,2.091,0,0,0-2.088,2.089V44a2.092,2.092,0,0,0,2.088,2.089,3.194,3.194,0,0,1,2.258,5.45,2.093,2.093,0,0,0,0,2.955l2.6,2.6a2.09,2.09,0,0,0,2.954,0,3.1,3.1,0,0,1,2.173-.942,22.214,22.214,0,0,1,.378,2.395,2.676,2.676,0,0,0-1.829,2.533v3.866a2.674,2.674,0,0,0,2.671,2.671h.962v.916a2.573,2.573,0,0,0,2.57,2.57h4.912a2.573,2.573,0,0,0,2.57-2.57v-.916h.961a2.674,2.674,0,0,0,2.671-2.671V61.078A2.675,2.675,0,0,0,46.8,58.545a21.966,21.966,0,0,1,.379-2.393,3.1,3.1,0,0,1,2.172.941,2.091,2.091,0,0,0,2.954,0l2.6-2.6a2.1,2.1,0,0,0,0-2.955,3.194,3.194,0,0,1,2.257-5.45ZM29.322,14.712a2.775,2.775,0,1,1-2.775,2.775A2.778,2.778,0,0,1,29.322,14.712Zm0,7.31a4.535,4.535,0,1,0-4.536-4.535A4.54,4.54,0,0,0,29.322,22.023ZM22.594,17.08a2.569,2.569,0,0,0,1.684-4.062l.576-.576a2.568,2.568,0,0,0,4.061-1.683h.815a2.569,2.569,0,0,0,4.061,1.683l.576.576a2.569,2.569,0,0,0,1.682,4.062v.814a2.569,2.569,0,0,0-1.682,4.061l-.576.576a2.566,2.566,0,0,0-4.061,1.682h-.815a2.568,2.568,0,0,0-4.061-1.682l-.576-.576a2.568,2.568,0,0,0-1.684-4.061Zm-.38,2.547A.8.8,0,0,1,22.783,21a1.381,1.381,0,0,0,0,1.951l1.076,1.076a1.38,1.38,0,0,0,1.951,0,.8.8,0,0,1,1.371.568,1.381,1.381,0,0,0,1.379,1.38h1.523a1.381,1.381,0,0,0,1.38-1.38.8.8,0,0,1,1.372-.568,1.381,1.381,0,0,0,1.951,0l1.076-1.076a1.381,1.381,0,0,0,0-1.951.8.8,0,0,1,.568-1.372,1.38,1.38,0,0,0,1.379-1.38V16.727a1.38,1.38,0,0,0-1.379-1.379.8.8,0,0,1-.568-1.372,1.382,1.382,0,0,0,0-1.951l-1.076-1.076a1.381,1.381,0,0,0-1.951,0,.8.8,0,0,1-1.372-.568A1.382,1.382,0,0,0,30.082,9H28.562a1.383,1.383,0,0,0-1.381,1.38.8.8,0,0,1-1.371.568,1.38,1.38,0,0,0-1.951,0l-1.076,1.076a1.382,1.382,0,0,0,0,1.951.8.8,0,0,1-.568,1.372,1.382,1.382,0,0,0-1.38,1.379v1.521a1.383,1.383,0,0,0,1.38,1.38Zm28.58-4.915a2.775,2.775,0,1,1-2.775,2.775A2.778,2.778,0,0,1,50.794,14.712Zm0,7.31a4.535,4.535,0,1,0-4.535-4.535A4.54,4.54,0,0,0,50.794,22.023ZM44.067,17.08a2.568,2.568,0,0,0,1.682-4.062l.576-.576a2.568,2.568,0,0,0,4.061-1.683H51.2a2.569,2.569,0,0,0,4.062,1.683l.576.576a2.569,2.569,0,0,0,1.684,4.062v.814a2.568,2.568,0,0,0-1.684,4.061l-.576.576A2.567,2.567,0,0,0,51.2,24.215h-.815a2.568,2.568,0,0,0-4.061-1.682l-.576-.576a2.567,2.567,0,0,0-1.682-4.061Zm-.38,2.547A.805.805,0,0,1,44.255,21a1.378,1.378,0,0,0,0,1.951l1.075,1.076a1.38,1.38,0,0,0,1.951,0,.805.805,0,0,1,1.373.568,1.378,1.378,0,0,0,1.379,1.38h1.523a1.378,1.378,0,0,0,1.379-1.38.8.8,0,0,1,1.372-.568,1.381,1.381,0,0,0,1.951,0l1.076-1.076a1.378,1.378,0,0,0,0-1.951.805.805,0,0,1,.569-1.372,1.382,1.382,0,0,0,1.38-1.38V16.727a1.382,1.382,0,0,0-1.38-1.379.805.805,0,0,1-.569-1.372,1.379,1.379,0,0,0,0-1.951l-1.076-1.076a1.381,1.381,0,0,0-1.951,0,.8.8,0,0,1-1.372-.568A1.381,1.381,0,0,0,51.555,9H50.033a1.381,1.381,0,0,0-1.379,1.38.8.8,0,0,1-1.373.568,1.381,1.381,0,0,0-1.951,0l-1.075,1.076a1.379,1.379,0,0,0,0,1.951.805.805,0,0,1-.568,1.372,1.381,1.381,0,0,0-1.38,1.379v1.521a1.381,1.381,0,0,0,1.38,1.38ZM59.919,63.293l.088-7.3,1.672,1.672a.881.881,0,0,0,1.371-.16,26.842,26.842,0,0,0-3.269-32.426l1.647-1.647a29.176,29.176,0,0,1,3.087,36.071.88.88,0,0,0,.112,1.109L67.215,63.2Zm6.454-3.42,3.563,3.563a.879.879,0,0,1-.611,1.5l-10.286.125h-.011a.881.881,0,0,1-.88-.891l.126-10.286a.88.88,0,0,1,1.5-.612l2.343,2.345a25.085,25.085,0,0,0-4.195-29.924.88.88,0,0,1,0-1.245l2.891-2.891a.879.879,0,0,1,1.244,0,30.936,30.936,0,0,1,4.314,38.313ZM18.688,62.929A29.176,29.176,0,0,1,15.6,26.857a.88.88,0,0,0-.112-1.109L12.9,23.161l7.3-.089-.088,7.3L18.437,28.7a.881.881,0,0,0-1.372.16,26.842,26.842,0,0,0,3.269,32.426ZM14.894,44.575A24.93,24.93,0,0,1,18,30.746l2.345,2.344a.88.88,0,0,0,1.5-.612l.125-10.286a.881.881,0,0,0-.891-.891l-10.286.125a.88.88,0,0,0-.611,1.5l3.563,3.562a30.938,30.938,0,0,0,4.313,38.314.88.88,0,0,0,1.245,0l2.891-2.891a.88.88,0,0,0,0-1.245A25.06,25.06,0,0,1,14.894,44.575Z" fill-rule="evenodd"/>
    </g>
  </g>
</svg>
