<svg xmlns="http://www.w3.org/2000/svg" xmlns:xlink="http://www.w3.org/1999/xlink" width="110" height="110" viewBox="0 0 110 110">
  <defs>
    <filter id="Trazado_982547" x="0" y="0" width="110" height="110" filterUnits="userSpaceOnUse">
      <feOffset dy="3" input="SourceAlpha"/>
      <feGaussianBlur stdDeviation="3" result="blur"/>
      <feFlood flood-opacity="0.161"/>
      <feComposite operator="in" in2="blur"/>
      <feComposite in="SourceGraphic"/>
    </filter>
  </defs>
  <g id="Grupo_1200234" data-name="Grupo 1200234" transform="translate(477 -738)">
    <g id="Grupo_1199819" data-name="Grupo 1199819" transform="translate(-1155.301 -7013)">
      <g id="Grupo_1173087" data-name="Grupo 1173087" transform="translate(687.301 7757)">
        <g id="Grupo_1172182" data-name="Grupo 1172182" transform="translate(0)">
          <g id="Grupo_1171416" data-name="Grupo 1171416">
            <g id="Grupo_1163803" data-name="Grupo 1163803">
              <g id="Grupo_1163015" data-name="Grupo 1163015">
                <g id="Grupo_1157017" data-name="Grupo 1157017" transform="translate(0 0)">
                  <g id="Grupo_1155793" data-name="Grupo 1155793">
                    <g id="Grupo_1154704" data-name="Grupo 1154704">
                      <g id="Grupo_1150790" data-name="Grupo 1150790">
                        <g id="Grupo_1154214" data-name="Grupo 1154214">
                          <g id="Grupo_1152583" data-name="Grupo 1152583">
                            <g id="Grupo_1146973" data-name="Grupo 1146973" transform="translate(0 0)">
                              <g id="Grupo_1146954" data-name="Grupo 1146954">
                                <g transform="matrix(1, 0, 0, 1, -9, -6)" filter="url(#Trazado_982547)">
                                  <g id="Trazado_982547-2" data-name="Trazado 982547" transform="translate(9 6)" fill="#f2f7f5">
                                    <path d="M 46 90.49987030029297 C 39.99187850952148 90.49987030029297 34.16426849365234 89.32350921630859 28.67905426025391 87.00345611572266 C 23.38019943237305 84.76224517822266 18.62104034423828 81.55341339111328 14.53374671936035 77.46613311767578 C 10.44646644592285 73.37885284423828 7.237639904022217 68.61969757080078 4.996413230895996 63.32085418701172 C 2.676359891891479 57.83565521240234 1.5 52.008056640625 1.5 45.99993515014648 C 1.5 39.99181365966797 2.676359891891479 34.16421508789062 4.996413230895996 28.67901420593262 C 7.237639904022217 23.38017463684082 10.44646644592285 18.62101554870605 14.53374671936035 14.53373527526855 C 18.62104034423828 10.44645500183105 23.38019943237305 7.23762845993042 28.67905426025391 4.996415138244629 C 34.16426849365234 2.676361799240112 39.99187850952148 1.500001788139343 46 1.500001788139343 C 52.00812149047852 1.500001788139343 57.83573150634766 2.676361799240112 63.32094573974609 4.996415138244629 C 68.61979675292969 7.23762845993042 73.37895965576172 10.44645500183105 77.46625518798828 14.53373527526855 C 81.55353546142578 18.62101554870605 84.76235961914062 23.38017463684082 87.00358581542969 28.67901420593262 C 89.32363891601562 34.16421508789062 90.5 39.99181365966797 90.5 45.99993515014648 C 90.5 52.008056640625 89.32363891601562 57.83565521240234 87.00358581542969 63.32085418701172 C 84.76235961914062 68.61969757080078 81.55353546142578 73.37885284423828 77.46625518798828 77.46613311767578 C 73.37895965576172 81.55341339111328 68.61979675292969 84.76224517822266 63.32094573974609 87.00345611572266 C 57.83573150634766 89.32350921630859 52.00812149047852 90.49987030029297 46 90.49987030029297 Z" stroke="none"/>
                                    <path d="M 46 2.999992370605469 C 40.1937141418457 2.999992370605469 34.56269836425781 4.136489868164062 29.26337051391602 6.377906799316406 C 24.14332580566406 8.543502807617188 19.54441070556641 11.64437866210938 15.59439849853516 15.59437561035156 C 11.64440155029297 19.54439544677734 8.54351806640625 24.14329528808594 6.377914428710938 29.26333618164062 C 4.136497497558594 34.56264877319336 3 40.19366455078125 3 45.99993515014648 C 3 51.80620574951172 4.136497497558594 57.43720626831055 6.377914428710938 62.73651885986328 C 8.54351806640625 67.8565673828125 11.64440155029297 72.45545959472656 15.59439849853516 76.40547943115234 C 19.54441070556641 80.35547637939453 24.14332580566406 83.45635223388672 29.26337051391602 85.6219482421875 C 34.56269836425781 87.86336517333984 40.1937141418457 88.99986267089844 46 88.99986267089844 C 51.8062858581543 88.99986267089844 57.43730163574219 87.86336517333984 62.73661422729492 85.6219482421875 C 67.85667419433594 83.45635223388672 72.45557403564453 80.35547637939453 76.40558624267578 76.40547943115234 C 80.35559844970703 72.45545959472656 83.45647430419922 67.8565673828125 85.6220703125 62.73651885986328 C 87.86350250244141 57.43720626831055 89 51.80620574951172 89 45.99993515014648 C 89 40.19366455078125 87.86350250244141 34.56264877319336 85.6220703125 29.26333618164062 C 83.45647430419922 24.14329528808594 80.35559844970703 19.54439544677734 76.40558624267578 15.59437561035156 C 72.45557403564453 11.64437866210938 67.85667419433594 8.543502807617188 62.73661422729492 6.377906799316406 C 57.43730163574219 4.136489868164062 51.8062858581543 2.999992370605469 46 2.999992370605469 M 46 -7.62939453125e-06 C 71.40509033203125 -7.62939453125e-06 92 20.59486389160156 92 45.99993515014648 C 92 71.40499114990234 71.40509033203125 91.99986267089844 46 91.99986267089844 C 20.59490203857422 91.99986267089844 0 71.40499114990234 0 45.99993515014648 C 0 20.59486389160156 20.59490203857422 -7.62939453125e-06 46 -7.62939453125e-06 Z" stroke="none" fill="#88bba9"/>
                                  </g>
                                </g>
                              </g>
                            </g>
                          </g>
                        </g>
                      </g>
                    </g>
                  </g>
                </g>
              </g>
            </g>
          </g>
        </g>
      </g>
    </g>
    <g id="productividad_1_" data-name="productividad (1)" transform="translate(-451 760)">
      <path id="Trazado_1043968" data-name="Trazado 1043968" d="M382.9,13.53l5.48-5.48a1.879,1.879,0,0,1,2.657,0l5.48,5.48a.939.939,0,0,1,0,1.329l-1.329,1.329a.939.939,0,0,1-1.329,0l-2.273-2.273v31.5a.939.939,0,0,1-.939.939h-1.879a.939.939,0,0,1-.939-.939v-31.5l-2.273,2.273a.939.939,0,0,1-1.329,0L382.9,14.859a.94.94,0,0,1,0-1.329Z" transform="translate(-338.143 -6.628)" fill="#bbec6c"/>
      <path id="Trazado_1043969" data-name="Trazado 1043969" d="M427.4,223.062v12.852a.939.939,0,0,0,.939.939h1.879a.939.939,0,0,0,.939-.939V224.93A18.508,18.508,0,0,0,427.4,223.062Z" transform="translate(-377.714 -197.132)" fill="#a2e62e"/>
      <path id="Trazado_1043970" data-name="Trazado 1043970" d="M55.118,109.376l-4.459-1.037a.986.986,0,0,1-.728-.708,18.768,18.768,0,0,0-1.9-4.575.986.986,0,0,1,.013-1.017l2.424-3.893a.983.983,0,0,0-.139-1.215L47.26,93.864a.983.983,0,0,0-1.215-.14l-3.893,2.424a.986.986,0,0,1-1.017.013,18.769,18.769,0,0,0-4.575-1.9.985.985,0,0,1-.708-.728l-1.037-4.459a.983.983,0,0,0-.958-.761H29.52a.983.983,0,0,0-.958.761l-1.037,4.459a.985.985,0,0,1-.708.728,18.769,18.769,0,0,0-4.575,1.9.986.986,0,0,1-1.017-.013l-3.893-2.424a.983.983,0,0,0-1.215.14L13.05,96.932a.983.983,0,0,0-.139,1.215l2.424,3.893a.986.986,0,0,1,.013,1.017,18.769,18.769,0,0,0-1.9,4.575.985.985,0,0,1-.728.708L8.26,109.376a.983.983,0,0,0-.761.958v4.338a.983.983,0,0,0,.761.958l4.459,1.037a.986.986,0,0,1,.728.708,18.769,18.769,0,0,0,1.9,4.575.986.986,0,0,1-.013,1.017l-2.424,3.893a.984.984,0,0,0,.139,1.215l3.068,3.068a.983.983,0,0,0,1.215.139l3.893-2.424a.986.986,0,0,1,1.017-.013,18.769,18.769,0,0,0,4.575,1.9.985.985,0,0,1,.708.728l1.037,4.46a.983.983,0,0,0,.958.761h4.338a.983.983,0,0,0,.958-.761l1.037-4.46a.985.985,0,0,1,.708-.728,18.769,18.769,0,0,0,4.575-1.9.986.986,0,0,1,1.017.013l3.893,2.424a.983.983,0,0,0,1.215-.139l3.068-3.068a.983.983,0,0,0,.139-1.215l-2.424-3.893a.986.986,0,0,1-.013-1.017,18.764,18.764,0,0,0,1.9-4.575.985.985,0,0,1,.728-.708l4.459-1.037a.983.983,0,0,0,.761-.958v-4.338A.983.983,0,0,0,55.118,109.376Zm-23.429,14.87A11.743,11.743,0,1,1,43.432,112.5a11.743,11.743,0,0,1-11.743,11.743Z" transform="translate(-6.627 -78.047)" fill="#528fd8"/>
      <path id="Trazado_1043971" data-name="Trazado 1043971" d="M90.482,166.874l-2.424-3.893a.984.984,0,0,1-.014-1.014,18.765,18.765,0,0,0,1.9-4.58.983.983,0,0,1,.727-.7l4.46-1.037a.983.983,0,0,0,.761-.958v-4.338a.983.983,0,0,0-.761-.958l-4.459-1.037a.983.983,0,0,1-.727-.7,18.763,18.763,0,0,0-1.9-4.58.984.984,0,0,1,.014-1.014l2.424-3.893a.983.983,0,0,0-.139-1.215l-3.068-3.068a.983.983,0,0,0-1.215-.139l-3.089,1.923a20.529,20.529,0,0,1,.947,1.905,5.9,5.9,0,0,1-2.672,7.532q-.153.082-.3.168A11.743,11.743,0,0,1,71.7,164.261c0,.006-.014,0-.021,0a13.845,13.845,0,0,1-6.715,2.172,20.553,20.553,0,0,1-10.119-2.647l-1.923,3.089a.984.984,0,0,0,.139,1.215l3.068,3.068a.983.983,0,0,0,1.215.139l3.893-2.424a.984.984,0,0,1,1.014-.014,18.766,18.766,0,0,0,4.58,1.9.983.983,0,0,1,.7.727l1.037,4.459a.983.983,0,0,0,.958.761h4.338a.983.983,0,0,0,.958-.761l1.037-4.459a.983.983,0,0,1,.7-.727,18.769,18.769,0,0,0,4.58-1.9.984.984,0,0,1,1.014.014L86.06,171.3a.983.983,0,0,0,1.215-.139l3.068-3.068A.983.983,0,0,0,90.482,166.874Z" transform="translate(-46.643 -118.062)" fill="#0573ce"/>
      <circle id="Elipse_12126" data-name="Elipse 12126" cx="15.265" cy="15.265" r="15.265" transform="translate(28.115 28.115)" fill="#99e6fc"/>
      <path id="Trazado_1043972" data-name="Trazado 1043972" d="M288.82,267.475a15.266,15.266,0,0,1-21.346,21.346,15.266,15.266,0,1,0,21.346-21.346Z" transform="translate(-236.381 -236.382)" fill="#62dbfb"/>
      <circle id="Elipse_12127" data-name="Elipse 12127" cx="11.508" cy="11.508" r="11.508" transform="translate(31.872 31.873)" fill="#f2fbff"/>
      <path id="Trazado_1043973" data-name="Trazado 1043973" d="M144.331,39.947l-2.013,2.013a1.424,1.424,0,0,1-2.013,0L137.044,38.7l-.18-.18V71.3a11.829,11.829,0,0,1-5.693,0V38.517l-.18.18-3.262,3.263a1.424,1.424,0,0,1-2.013,0L123.7,39.947a1.424,1.424,0,0,1,0-2.013l8.3-8.3a2.846,2.846,0,0,1,4.025,0l8.3,8.3A1.424,1.424,0,0,1,144.331,39.947Z" transform="translate(-108.956 -25.452)" fill="#ffe177"/>
      <g id="Grupo_1200233" data-name="Grupo 1200233" transform="translate(0 0)">
        <path id="Trazado_1043974" data-name="Trazado 1043974" d="M54.312,31.522v-9.47a.872.872,0,1,0-1.744,0v8.07a16.151,16.151,0,0,0-2.015-1.194V7.286a.872.872,0,0,0-1.489-.616L46.794,8.942a.066.066,0,0,1-.048.02.063.063,0,0,1-.048-.02L45.372,7.617a.069.069,0,0,1,0-.1l5.48-5.48a1.006,1.006,0,0,1,1.424,0L57.755,7.52a.062.062,0,0,1,.019.046.067.067,0,0,1-.02.048l-1.33,1.329a.066.066,0,0,1-.094,0L54.057,6.67a.872.872,0,0,0-1.488.617v10.7a.872.872,0,0,0,1.744,0V9.39l.785.784a1.81,1.81,0,0,0,2.561,0l1.33-1.329a1.811,1.811,0,0,0,0-2.561L53.508.807a2.749,2.749,0,0,0-3.891,0l-5.48,5.48a1.817,1.817,0,0,0,0,2.562l1.328,1.326a1.8,1.8,0,0,0,1.28.532h0a1.8,1.8,0,0,0,1.281-.531l.783-.783V28.184a16.062,16.062,0,0,0-5.362-.94,19.7,19.7,0,0,0-1.291-2.671.116.116,0,0,1,0-.119l2.424-3.893a1.848,1.848,0,0,0-.262-2.293L41.249,15.2a1.848,1.848,0,0,0-2.293-.262l-3.892,2.423a.116.116,0,0,1-.119,0c-.256-.148-.516-.289-.777-.425l1.825-1.824a2.3,2.3,0,0,0,0-3.246l-8.3-8.3a3.725,3.725,0,0,0-5.258,0l-8.3,8.3a2.3,2.3,0,0,0,0,3.247l1.824,1.823c-.262.136-.521.277-.777.425a.116.116,0,0,1-.119,0l-3.893-2.424a1.847,1.847,0,0,0-2.292.262L5.806,18.269a1.848,1.848,0,0,0-.262,2.293l2.423,3.892a.116.116,0,0,1,0,.119,19.654,19.654,0,0,0-1.989,4.787.114.114,0,0,1-.083.084L1.436,30.48A1.847,1.847,0,0,0,0,32.287v4.338a1.846,1.846,0,0,0,1.435,1.807L5.9,39.47a.114.114,0,0,1,.082.084,19.654,19.654,0,0,0,1.989,4.786.116.116,0,0,1,0,.119L5.544,48.351a1.848,1.848,0,0,0,.262,2.293l3.068,3.068a1.848,1.848,0,0,0,2.293.262l3.892-2.423a.115.115,0,0,1,.119,0,19.656,19.656,0,0,0,4.787,1.989.114.114,0,0,1,.084.083l1.037,4.458a1.847,1.847,0,0,0,1.808,1.436h4.338a1.847,1.847,0,0,0,1.807-1.435l1.037-4.46a.114.114,0,0,1,.084-.082c.187-.05.376-.1.564-.161A16.131,16.131,0,1,0,54.312,31.522ZM35.985,18.842l3.893-2.424a.112.112,0,0,1,.138.015L43.084,19.5a.111.111,0,0,1,.015.138l-2.424,3.893a1.857,1.857,0,0,0-.026,1.915,17.975,17.975,0,0,1,.954,1.894,16.009,16.009,0,0,0-5.239,1.509A12.659,12.659,0,0,0,28.78,22.4V16.476a1.86,1.86,0,0,0,.929.58,17.916,17.916,0,0,1,4.362,1.813,1.857,1.857,0,0,0,1.915-.027ZM28.78,36.512V24.239A10.913,10.913,0,0,1,34.837,29.7,16.246,16.246,0,0,0,28.78,36.512ZM15.364,13.1l8.3-8.3a1.979,1.979,0,0,1,2.793,0l8.3,8.3a.554.554,0,0,1,0,.781l-2.014,2.012a.552.552,0,0,1-.779,0l-3.442-3.443a.872.872,0,0,0-1.488.617V45.148a11.067,11.067,0,0,1-3.949,0V33.936a.872.872,0,0,0-1.744,0V44.673a10.873,10.873,0,0,1,0-20.434v5.628a.872.872,0,0,0,1.744,0v-16.8a.872.872,0,0,0-1.488-.617l-3.441,3.443a.551.551,0,0,1-.391.162.545.545,0,0,1-.389-.162l-2.013-2.012a.552.552,0,0,1,0-.78Zm13.012,40.13-1.037,4.46a.111.111,0,0,1-.109.086H22.893a.111.111,0,0,1-.109-.087L21.747,53.23a1.853,1.853,0,0,0-1.332-1.374,17.918,17.918,0,0,1-4.362-1.813,1.857,1.857,0,0,0-1.915.027l-3.893,2.424a.111.111,0,0,1-.138-.015L7.039,49.41a.111.111,0,0,1-.015-.138l2.424-3.893a1.856,1.856,0,0,0,.026-1.915A17.913,17.913,0,0,1,7.662,39.1a1.852,1.852,0,0,0-1.373-1.333l-4.46-1.037a.11.11,0,0,1-.086-.109V32.287a.111.111,0,0,1,.086-.109l4.457-1.037a1.853,1.853,0,0,0,1.374-1.332,17.914,17.914,0,0,1,1.813-4.362,1.856,1.856,0,0,0-.027-1.915L7.024,19.64a.111.111,0,0,1,.015-.138l3.068-3.068a.111.111,0,0,1,.138-.015l3.894,2.424a1.857,1.857,0,0,0,1.914.027,17.909,17.909,0,0,1,4.361-1.813,1.862,1.862,0,0,0,.929-.581V22.4a12.616,12.616,0,0,0,6.267,24.411,16.04,16.04,0,0,0,2.051,5.059,1.851,1.851,0,0,0-1.286,1.359Zm15,4.545A14.394,14.394,0,1,1,57.774,43.38,14.41,14.41,0,0,1,43.38,57.774Z" transform="translate(0 0)"/>
        <path id="Trazado_1043975" data-name="Trazado 1043975" d="M279.06,266.68a12.376,12.376,0,1,0,12.166,10.091.872.872,0,1,0-1.713.324,10.649,10.649,0,1,1-1.331-3.5.872.872,0,0,0,1.494-.9A12.461,12.461,0,0,0,279.06,266.68Z" transform="translate(-235.68 -235.68)"/>
        <path id="Trazado_1043976" data-name="Trazado 1043976" d="M330.756,312.337a.872.872,0,0,0,1.233,0l3.1-3.1a1.642,1.642,0,0,0,1.24-2.993v-6.358a.872.872,0,1,0-1.744,0v6.358a1.634,1.634,0,0,0-.729,1.76l-3.1,3.1A.872.872,0,0,0,330.756,312.337Z" transform="translate(-292.081 -264.251)"/>
      </g>
    </g>
  </g>
</svg>
