<svg xmlns="http://www.w3.org/2000/svg" xmlns:xlink="http://www.w3.org/1999/xlink" width="113" height="113" viewBox="0 0 113 113">
  <defs>
    <filter id="Trazado_982547" x="0" y="0" width="113" height="113" filterUnits="userSpaceOnUse">
      <feOffset dy="3" input="SourceAlpha"/>
      <feGaussianBlur stdDeviation="3" result="blur"/>
      <feFlood flood-opacity="0.161"/>
      <feComposite operator="in" in2="blur"/>
      <feComposite in="SourceGraphic"/>
    </filter>
  </defs>
  <g id="Grupo_1201810" data-name="Grupo 1201810" transform="translate(-1216.979 -1177.16)">
    <g id="Grupo_1182680" data-name="Grupo 1182680" transform="translate(0.249 -1903)">
      <g id="Grupo_1182339" data-name="Grupo 1182339" transform="translate(1225.73 3086.16)">
        <g id="Grupo_1174057" data-name="Grupo 1174057">
          <g id="Grupo_1172010" data-name="Grupo 1172010">
            <g id="Grupo_1171046" data-name="Grupo 1171046">
              <g id="Grupo_1148525" data-name="Grupo 1148525">
                <g transform="matrix(1, 0, 0, 1, -9, -6)" filter="url(#Trazado_982547)">
                  <g id="Trazado_982547-2" data-name="Trazado 982547" transform="translate(9 6)" fill="#f2f7f5">
                    <path d="M 47.5 93.5 C 41.28937149047852 93.5 35.26533508300781 92.28397369384766 29.59518623352051 89.88570404052734 C 24.11771965026855 87.56893157958984 19.19813346862793 84.25196075439453 14.97309303283691 80.02691650390625 C 10.74804019927979 75.80186462402344 7.431066513061523 70.88229370117188 5.114293098449707 65.40481567382812 C 2.716026782989502 59.73468017578125 1.5 53.71062850952148 1.5 47.5 C 1.5 41.28937149047852 2.716026782989502 35.26533508300781 5.114293098449707 29.59518623352051 C 7.431066513061523 24.11771965026855 10.74804019927979 19.19813346862793 14.97309303283691 14.97309303283691 C 19.19813346862793 10.74804019927979 24.11771965026855 7.431066513061523 29.59518623352051 5.114293098449707 C 35.26533508300781 2.716026782989502 41.28937149047852 1.5 47.5 1.5 C 53.71062850952148 1.5 59.73468017578125 2.716026782989502 65.40481567382812 5.114293098449707 C 70.88229370117188 7.431066513061523 75.80186462402344 10.74804019927979 80.02691650390625 14.97309303283691 C 84.25196075439453 19.19813346862793 87.56893157958984 24.11771965026855 89.88570404052734 29.59518623352051 C 92.28397369384766 35.26533508300781 93.5 41.28937149047852 93.5 47.5 C 93.5 53.71062850952148 92.28397369384766 59.73468017578125 89.88570404052734 65.40481567382812 C 87.56893157958984 70.88229370117188 84.25196075439453 75.80186462402344 80.02691650390625 80.02691650390625 C 75.80186462402344 84.25196075439453 70.88229370117188 87.56893157958984 65.40481567382812 89.88570404052734 C 59.73468017578125 92.28397369384766 53.71062850952148 93.5 47.5 93.5 Z" stroke="none"/>
                    <path d="M 47.5 3 C 41.49121475219727 3 35.66376876831055 4.176155090332031 30.17950439453125 6.495796203613281 C 24.88084411621094 8.736953735351562 20.12152099609375 11.94598388671875 16.03375244140625 16.03375244140625 C 11.94598388671875 20.12152099609375 8.736953735351562 24.88084411621094 6.495796203613281 30.17950439453125 C 4.176155090332031 35.66376876831055 3 41.49121475219727 3 47.5 C 3 53.50878524780273 4.176155090332031 59.33623123168945 6.495796203613281 64.82049560546875 C 8.736953735351562 70.11915588378906 11.94598388671875 74.87847900390625 16.03375244140625 78.96624755859375 C 20.12152099609375 83.05401611328125 24.88084411621094 86.26304626464844 30.17950439453125 88.50419616699219 C 35.66376876831055 90.82384490966797 41.49121475219727 92 47.5 92 C 53.50878524780273 92 59.33623123168945 90.82384490966797 64.82049560546875 88.50419616699219 C 70.11915588378906 86.26304626464844 74.87847900390625 83.05401611328125 78.96624755859375 78.96624755859375 C 83.05401611328125 74.87847900390625 86.26304626464844 70.11915588378906 88.50419616699219 64.82049560546875 C 90.82384490966797 59.33623123168945 92 53.50878524780273 92 47.5 C 92 41.49121475219727 90.82384490966797 35.66376876831055 88.50419616699219 30.17950439453125 C 86.26304626464844 24.88084411621094 83.05401611328125 20.12152099609375 78.96624755859375 16.03375244140625 C 74.87847900390625 11.94598388671875 70.11915588378906 8.736953735351562 64.82049560546875 6.495796203613281 C 59.33623123168945 4.176155090332031 53.50878524780273 3 47.5 3 M 47.5 0 C 73.7335205078125 0 95 21.2664794921875 95 47.5 C 95 73.7335205078125 73.7335205078125 95 47.5 95 C 21.2664794921875 95 0 73.7335205078125 0 47.5 C 0 21.2664794921875 21.2664794921875 0 47.5 0 Z" stroke="none" fill="#88bba9"/>
                  </g>
                </g>
              </g>
            </g>
          </g>
        </g>
      </g>
    </g>
    <g id="Layer_5" transform="translate(1240.77 1193.279)">
      <g id="Grupo_1201809" data-name="Grupo 1201809" transform="translate(0.022 0.011)">
        <g id="Grupo_1201804" data-name="Grupo 1201804" transform="translate(0 0)">
          <g id="Grupo_1201797" data-name="Grupo 1201797" transform="translate(7.861)">
            <path id="Trazado_1045165" data-name="Trazado 1045165" d="M93.2,16.422l-4.462,5.015-4.23,4.753.262-5.073a21.633,21.633,0,0,0-17.239,8.939L66.51,24.01l-6.41-.276A31.213,31.213,0,0,1,85.014,11.393h.276L85.566,6l4.215,5.756Z" transform="translate(-59.229 -5.129)" fill="#d22732"/>
            <path id="Trazado_1045166" data-name="Trazado 1045166" d="M62.4,25.81l-.2-.029a.854.854,0,0,1-.654-.7l-.9-5.349-5.712-.247a.868.868,0,0,1-.741-.509.877.877,0,0,1,.087-.9,32.578,32.578,0,0,1,11.091-9.23A31.977,31.977,0,0,1,79.338,5.4L79.57.838A.89.89,0,0,1,80.2.053a.827.827,0,0,1,.945.32l7.646,10.422a.875.875,0,0,1-.058,1.09l-8.692,9.768a.9.9,0,0,1-.988.233.907.907,0,0,1-.538-.858l.218-4.114A20.808,20.808,0,0,0,63.1,25.446.842.842,0,0,1,62.4,25.81Zm-5.669-7.995,4.695.2a.881.881,0,0,1,.814.727l.7,4.114a22.347,22.347,0,0,1,16.7-7.733.871.871,0,0,1,.872.93l-.131,2.573,6.57-7.384L81.184,3.367l-.16,2.951a.853.853,0,0,1-.858.829H79.89A30.227,30.227,0,0,0,56.735,17.815Z" transform="translate(-54.105 -0.011)" fill="#231f20"/>
          </g>
          <g id="Grupo_1201798" data-name="Grupo 1201798" transform="translate(15.932 8.946)">
            <path id="Trazado_1045167" data-name="Trazado 1045167" d="M188.338,63.756a.869.869,0,0,1-.2-1.715h.029c.93-.2,1.89-.363,2.849-.48a.869.869,0,0,1,.974.756.88.88,0,0,1-.77.974c-.9.1-1.8.262-2.689.451Z" transform="translate(-176.147 -61.555)" fill="#231f20"/>
            <path id="Trazado_1045168" data-name="Trazado 1045168" d="M110.51,77.274a.9.9,0,0,1-.727-.363A.883.883,0,0,1,110,75.69,31.81,31.81,0,0,1,118,71.649a.882.882,0,0,1,1.061.64.865.865,0,0,1-.494,1A30.55,30.55,0,0,0,111,77.115a.87.87,0,0,1-.494.16Z" transform="translate(-109.627 -70.16)" fill="#231f20"/>
          </g>
          <g id="Grupo_1201799" data-name="Grupo 1201799" transform="translate(1.358 17.44)">
            <path id="Trazado_1045169" data-name="Trazado 1045169" d="M27.1,136.451A21.565,21.565,0,0,0,25.953,150.8L18.976,149.5,16.9,154.533a31.43,31.43,0,0,1,2.7-24.783L15.4,126l6.5.291,6.41.276,1.017,6.047,1.148,6.861Z" transform="translate(-14.522 -125.127)" fill="#1f315f"/>
            <path id="Trazado_1045170" data-name="Trazado 1045170" d="M11.737,150.269h-.044a.856.856,0,0,1-.785-.61A32.3,32.3,0,0,1,13.336,124.8l-3.677-3.285a.889.889,0,0,1-.087-1.236.866.866,0,0,1,.712-.291l12.908.567a.881.881,0,0,1,.814.727l2.166,12.908a.829.829,0,0,1-.436.9.881.881,0,0,1-1-.116l-2.457-2.195a20.707,20.707,0,0,0-1.337,7.34,20.451,20.451,0,0,0,.7,5.305A.89.89,0,0,1,21,146.5a1.006,1.006,0,0,1-.363.015l-6.279-1.163-1.817,4.375a.85.85,0,0,1-.8.538Zm.9-28.432,2.384,2.122a.884.884,0,0,1,.174,1.09,30.278,30.278,0,0,0-3.983,15.073,31,31,0,0,0,.7,6.556l1.1-2.645a.871.871,0,0,1,.959-.523l5.654,1.047a22.7,22.7,0,0,1-.436-4.433,22.1,22.1,0,0,1,1.948-9.157.866.866,0,0,1,.625-.494.889.889,0,0,1,.756.189l1.526,1.366-1.643-9.753Z" transform="translate(-9.362 -119.991)" fill="#231f20"/>
          </g>
          <g id="Grupo_1201800" data-name="Grupo 1201800" transform="translate(0 40.946)">
            <path id="Trazado_1045171" data-name="Trazado 1045171" d="M29.838,308.515l3.27,5.742a31.441,31.441,0,0,1-22.5-17.094L6,299.648l2.864-6.919,2.079-5.029,6.977,1.294,5.887,1.076L19.2,292.54a21.644,21.644,0,0,0,15.073,12.021Z" transform="translate(-5.131 -286.828)" fill="#02648e"/>
            <path id="Trazado_1045172" data-name="Trazado 1045172" d="M28,310h-.16a32.265,32.265,0,0,1-22.7-16.774L1.3,295.295a.858.858,0,0,1-.988-.131.852.852,0,0,1-.218-.974l4.942-11.948a.871.871,0,0,1,.959-.523l12.864,2.369a.882.882,0,0,1,.7.727.87.87,0,0,1-.436.9l-3.881,2.079A20.839,20.839,0,0,0,29.351,298.58a.886.886,0,0,1,.654.64.856.856,0,0,1-.262.872l-3.91,3.474,2.922,5.131a.859.859,0,0,1-.044.945A.868.868,0,0,1,28,310ZM5.5,291.166a.913.913,0,0,1,.276.044.863.863,0,0,1,.509.451,30.581,30.581,0,0,0,20,16.207l-2.311-4.041a.884.884,0,0,1,.174-1.09l3.212-2.849A22.622,22.622,0,0,1,13.3,287.794a.861.861,0,0,1,.378-1.134l2.413-1.308-9.724-1.788-3.736,9.027,2.457-1.323a.806.806,0,0,1,.407-.1Z" transform="translate(-0.022 -281.704)" fill="#231f20"/>
          </g>
          <g id="Grupo_1201801" data-name="Grupo 1201801" transform="translate(23.837 50.991)">
            <path id="Trazado_1045173" data-name="Trazado 1045173" d="M203.679,361.713a31.249,31.249,0,0,1-24.74,12.108q-.85,0-1.7-.044l-.843,5.029-3.125-5.494L170,367.571l4.433-3.954,5.335-4.753-.887,5.218h.058A21.473,21.473,0,0,0,195.1,356.8l2.224,5.872Z" transform="translate(-169.129 -355.929)" fill="#89c45e"/>
            <path id="Trazado_1045174" data-name="Trazado 1045174" d="M171.277,374.56a.869.869,0,0,1-.756-.451l-6.4-11.221a.884.884,0,0,1,.174-1.09l9.768-8.707a.855.855,0,0,1,1-.1.87.87,0,0,1,.436.9l-.712,4.186a20.723,20.723,0,0,0,14.536-6.963.858.858,0,0,1,.959-.247.91.91,0,0,1,.523.538l1.962,5.189,5.654-.872a.909.909,0,0,1,.887.422.882.882,0,0,1-.073.974,32.276,32.276,0,0,1-11.047,9.07,31.869,31.869,0,0,1-14.376,3.387h-.959l-.727,4.273a.9.9,0,0,1-.712.712Zm-5.291-11.934,4.84,8.5.436-2.616a.885.885,0,0,1,.916-.727c.538.029,1.09.044,1.643.044a30.213,30.213,0,0,0,22.588-10.03l-4.07.625a.881.881,0,0,1-.945-.552l-1.73-4.579a22.5,22.5,0,0,1-15.844,6.541h-.058a.835.835,0,0,1-.669-.305.91.91,0,0,1-.189-.712l.465-2.762Z" transform="translate(-164.011 -350.811)" fill="#231f20"/>
          </g>
          <g id="Grupo_1201802" data-name="Grupo 1201802" transform="translate(46.527 24.414)">
            <path id="Trazado_1045175" data-name="Trazado 1045175" d="M339.4,201.983l4.114,2.427-6.425.988-6.352.959-2.224-5.872-2.413-6.352,4.913,2.893a21.644,21.644,0,0,0,1.526-18.446l6.294,1.09,2.326-5.771a31.464,31.464,0,0,1-1.759,28.083Z" transform="translate(-325.229 -173.038)" fill="#fdc00f"/>
            <path id="Trazado_1045176" data-name="Trazado 1045176" d="M325.618,202.161a.868.868,0,0,1-.814-.552l-4.637-12.239a.881.881,0,0,1,.247-.974.929.929,0,0,1,1.017-.087l4.128,2.442a20.75,20.75,0,0,0,1.047-16.934.872.872,0,0,1,.509-1.119.791.791,0,0,1,.451-.044l5.611.959,2.05-5.087a.872.872,0,0,1,1.613-.029,32.234,32.234,0,0,1-1.381,28.1l3.372,1.991a.892.892,0,0,1,.422.916.864.864,0,0,1-.727.7l-12.777,1.962Zm-2.936-11.076,3.5,9.245,9.666-1.483-2.02-1.177a.876.876,0,0,1-.305-1.192,30.615,30.615,0,0,0,2.5-25.263l-1.5,3.707a.872.872,0,0,1-.959.538l-4.855-.843a22.549,22.549,0,0,1-2.064,17.791,1.071,1.071,0,0,1-.538.407.9.9,0,0,1-.669-.1Z" transform="translate(-320.111 -167.968)" fill="#231f20"/>
          </g>
          <g id="Grupo_1201803" data-name="Grupo 1201803" transform="translate(36.496 5.747)">
            <path id="Trazado_1045177" data-name="Trazado 1045177" d="M284.688,58.028l-2.5,6.221-2.326,5.771-6.294-1.09-6.585-1.148,4.739-2.6a21.585,21.585,0,0,0-14.623-9.9l4.462-5.015L258.147,45.6a31.256,31.256,0,0,1,22.109,14.87Z" transform="translate(-256.228 -44.721)" fill="#f4841b"/>
            <path id="Trazado_1045178" data-name="Trazado 1045178" d="M274.736,65.722h-.145L261.712,63.5a.9.9,0,0,1-.712-.727.87.87,0,0,1,.436-.9l3.91-2.166A20.661,20.661,0,0,0,251.828,51a.854.854,0,0,1-.712-1,.931.931,0,0,1,.2-.436l4-4.506-3.009-4.114a.909.909,0,0,1-.044-.974.926.926,0,0,1,.887-.407,32.032,32.032,0,0,1,22.283,14.579l3.707-2.05a.882.882,0,0,1,1.192.334.864.864,0,0,1,.044.756L275.55,65.17A.868.868,0,0,1,274.736,65.722Zm-10.277-3.547,9.739,1.686,3.648-9.056-2.3,1.265a.886.886,0,0,1-1.177-.32,30.3,30.3,0,0,0-19.347-14.056l2.122,2.893a.875.875,0,0,1-.058,1.09l-3.459,3.9a22.486,22.486,0,0,1,13.707,9.971.879.879,0,0,1-.291,1.206.051.051,0,0,0-.029.015Z" transform="translate(-251.101 -39.551)" fill="#231f20"/>
          </g>
        </g>
        <g id="Grupo_1201808" data-name="Grupo 1201808" transform="translate(23.144 20.871)">
          <g id="Grupo_1201805" data-name="Grupo 1201805" transform="translate(5.473 18.126)">
            <path id="Trazado_1045179" data-name="Trazado 1045179" d="M202.9,274.3h8.169v14.434H202.9Z" transform="translate(-202.028 -273.428)" fill="#02648e"/>
            <path id="Trazado_1045180" data-name="Trazado 1045180" d="M205.941,284.464h-8.169a.875.875,0,0,1-.872-.872V269.172a.875.875,0,0,1,.872-.872h8.169a.875.875,0,0,1,.872.872v14.419A.875.875,0,0,1,205.941,284.464Zm-7.3-1.744h6.425V270.044h-6.425Z" transform="translate(-196.9 -268.3)" fill="#231f20"/>
          </g>
          <path id="Trazado_1045181" data-name="Trazado 1045181" d="M225.772,306.627a.875.875,0,0,1-.872-.872v-9.782a.872.872,0,0,1,1.744,0v9.782A.875.875,0,0,1,225.772,306.627Z" transform="translate(-215.357 -273.079)" fill="#231f20"/>
          <g id="Grupo_1201806" data-name="Grupo 1201806" transform="translate(0 7.806)">
            <path id="Trazado_1045182" data-name="Trazado 1045182" d="M181.642,211.411,179,206.672v6.948h-8.2V206.5l-2.907,5.305a1.373,1.373,0,0,1-1.817.552,1.357,1.357,0,0,1-.611-1.817.014.014,0,0,1,.015-.015c.887-1.715,2.456-4.739,2.965-5.6.77-1.279,1.134-1.628,2.631-1.628h7.166c1.5,0,1.962.494,2.733,1.773.552.916,2.05,3.561,2.907,5.087a1.3,1.3,0,0,1-.494,1.744A1.276,1.276,0,0,1,181.642,211.411Z" transform="translate(-164.439 -202.428)" fill="#d3d3d3"/>
            <path id="Trazado_1045183" data-name="Trazado 1045183" d="M173.817,209.364H165.6a.932.932,0,0,1-.625-.262.917.917,0,0,1-.247-.625v-3.707l-1.279,2.326A2.237,2.237,0,1,1,159.5,205c.887-1.73,2.457-4.768,2.994-5.654.858-1.424,1.439-2.05,3.372-2.05h7.166c2.006,0,2.675.872,3.489,2.195.552.916,2.064,3.6,2.907,5.117a2.144,2.144,0,0,1-.814,2.922,2.1,2.1,0,0,1-1.643.2,2.164,2.164,0,0,1-1.308-1.032l-.988-1.788v3.561a.832.832,0,0,1-.247.625.845.845,0,0,1-.61.262Zm-7.34-1.744h6.468v-6.076a.867.867,0,0,1,1.628-.422l2.645,4.739a.458.458,0,0,0,.247.189.358.358,0,0,0,.32-.029.405.405,0,0,0,.145-.552c-.843-1.512-2.34-4.172-2.878-5.073-.7-1.148-.916-1.352-1.991-1.352h-7.181c-1.119,0-1.221.116-1.89,1.206-.363.611-1.424,2.631-2.936,5.553a.526.526,0,0,0-.029.363.494.494,0,0,0,.625.32.485.485,0,0,0,.276-.233l2.907-5.305a.872.872,0,0,1,1.643.422Z" transform="translate(-159.245 -197.3)" fill="#231f20"/>
          </g>
          <g id="Grupo_1201807" data-name="Grupo 1201807" transform="translate(6.098)">
            <path id="Trazado_1045184" data-name="Trazado 1045184" d="M210.516,149.6h.174a3.4,3.4,0,0,1,3.387,3.4v1.119a2.959,2.959,0,0,1-2.965,2.965h-1.047a2.959,2.959,0,0,1-2.965-2.965V153a3.406,3.406,0,0,1,3.4-3.4Z" transform="translate(-206.242 -148.728)" fill="#efcdb1"/>
            <path id="Trazado_1045185" data-name="Trazado 1045185" d="M206.084,152.83h-1.047a3.834,3.834,0,0,1-3.837-3.837v-1.119a4.28,4.28,0,0,1,4.273-4.273h.174a4.277,4.277,0,0,1,4.259,4.273v1.119A3.849,3.849,0,0,1,206.084,152.83Zm-.61-7.486a2.531,2.531,0,0,0-2.529,2.529v1.119a2.084,2.084,0,0,0,2.093,2.093h1.047a2.1,2.1,0,0,0,2.079-2.093v-1.119a2.506,2.506,0,0,0-2.5-2.529h-.189Z" transform="translate(-201.2 -143.6)" fill="#231f20"/>
          </g>
        </g>
      </g>
    </g>
  </g>
</svg>
