<svg xmlns="http://www.w3.org/2000/svg" xmlns:xlink="http://www.w3.org/1999/xlink" width="113" height="113" viewBox="0 0 113 113">
  <defs>
    <filter id="Trazado_982547" x="0" y="0" width="113" height="113" filterUnits="userSpaceOnUse">
      <feOffset dy="3" input="SourceAlpha"/>
      <feGaussianBlur stdDeviation="3" result="blur"/>
      <feFlood flood-opacity="0.161"/>
      <feComposite operator="in" in2="blur"/>
      <feComposite in="SourceGraphic"/>
    </filter>
  </defs>
  <g id="Grupo_1201784" data-name="Grupo 1201784" transform="translate(-272 -1177)">
    <g id="Grupo_1182617" data-name="Grupo 1182617" transform="translate(0.249 -1903)">
      <g id="Grupo_1182333" data-name="Grupo 1182333" transform="translate(280.751 3086)">
        <g id="Grupo_1174057" data-name="Grupo 1174057">
          <g id="Grupo_1172010" data-name="Grupo 1172010">
            <g id="Grupo_1171046" data-name="Grupo 1171046">
              <g id="Grupo_1148525" data-name="Grupo 1148525">
                <g transform="matrix(1, 0, 0, 1, -9, -6)" filter="url(#Trazado_982547)">
                  <g id="Trazado_982547-2" data-name="Trazado 982547" transform="translate(9 6)" fill="#f2f7f5">
                    <path d="M 47.5 93.5 C 41.28937149047852 93.5 35.26533508300781 92.28397369384766 29.59518623352051 89.88570404052734 C 24.11771965026855 87.56893157958984 19.19813346862793 84.25196075439453 14.97309303283691 80.02691650390625 C 10.74804019927979 75.80186462402344 7.431066513061523 70.88229370117188 5.114293098449707 65.40481567382812 C 2.716026782989502 59.73468017578125 1.5 53.71062850952148 1.5 47.5 C 1.5 41.28937149047852 2.716026782989502 35.26533508300781 5.114293098449707 29.59518623352051 C 7.431066513061523 24.11771965026855 10.74804019927979 19.19813346862793 14.97309303283691 14.97309303283691 C 19.19813346862793 10.74804019927979 24.11771965026855 7.431066513061523 29.59518623352051 5.114293098449707 C 35.26533508300781 2.716026782989502 41.28937149047852 1.5 47.5 1.5 C 53.71062850952148 1.5 59.73468017578125 2.716026782989502 65.40481567382812 5.114293098449707 C 70.88229370117188 7.431066513061523 75.80186462402344 10.74804019927979 80.02691650390625 14.97309303283691 C 84.25196075439453 19.19813346862793 87.56893157958984 24.11771965026855 89.88570404052734 29.59518623352051 C 92.28397369384766 35.26533508300781 93.5 41.28937149047852 93.5 47.5 C 93.5 53.71062850952148 92.28397369384766 59.73468017578125 89.88570404052734 65.40481567382812 C 87.56893157958984 70.88229370117188 84.25196075439453 75.80186462402344 80.02691650390625 80.02691650390625 C 75.80186462402344 84.25196075439453 70.88229370117188 87.56893157958984 65.40481567382812 89.88570404052734 C 59.73468017578125 92.28397369384766 53.71062850952148 93.5 47.5 93.5 Z" stroke="none"/>
                    <path d="M 47.5 3 C 41.49121475219727 3 35.66376876831055 4.176155090332031 30.17950439453125 6.495796203613281 C 24.88084411621094 8.736953735351562 20.12152099609375 11.94598388671875 16.03375244140625 16.03375244140625 C 11.94598388671875 20.12152099609375 8.736953735351562 24.88084411621094 6.495796203613281 30.17950439453125 C 4.176155090332031 35.66376876831055 3 41.49121475219727 3 47.5 C 3 53.50878524780273 4.176155090332031 59.33623123168945 6.495796203613281 64.82049560546875 C 8.736953735351562 70.11915588378906 11.94598388671875 74.87847900390625 16.03375244140625 78.96624755859375 C 20.12152099609375 83.05401611328125 24.88084411621094 86.26304626464844 30.17950439453125 88.50419616699219 C 35.66376876831055 90.82384490966797 41.49121475219727 92 47.5 92 C 53.50878524780273 92 59.33623123168945 90.82384490966797 64.82049560546875 88.50419616699219 C 70.11915588378906 86.26304626464844 74.87847900390625 83.05401611328125 78.96624755859375 78.96624755859375 C 83.05401611328125 74.87847900390625 86.26304626464844 70.11915588378906 88.50419616699219 64.82049560546875 C 90.82384490966797 59.33623123168945 92 53.50878524780273 92 47.5 C 92 41.49121475219727 90.82384490966797 35.66376876831055 88.50419616699219 30.17950439453125 C 86.26304626464844 24.88084411621094 83.05401611328125 20.12152099609375 78.96624755859375 16.03375244140625 C 74.87847900390625 11.94598388671875 70.11915588378906 8.736953735351562 64.82049560546875 6.495796203613281 C 59.33623123168945 4.176155090332031 53.50878524780273 3 47.5 3 M 47.5 0 C 73.7335205078125 0 95 21.2664794921875 95 47.5 C 95 73.7335205078125 73.7335205078125 95 47.5 95 C 21.2664794921875 95 0 73.7335205078125 0 47.5 C 0 21.2664794921875 21.2664794921875 0 47.5 0 Z" stroke="none" fill="#88bba9"/>
                  </g>
                </g>
              </g>
            </g>
          </g>
        </g>
      </g>
    </g>
    <g id="optimizacion-del-tiempo" transform="translate(296.01 1195.8)">
      <g id="Grupo_1201783" data-name="Grupo 1201783" transform="translate(0.6 3.803)">
        <path id="Trazado_1045120" data-name="Trazado 1045120" d="M22.788,12.475a18.923,18.923,0,0,0-4.7,1.948,1.12,1.12,0,0,1-1.107.031l-2.733-1.393a1.143,1.143,0,0,0-1.345.213l-2.776,2.776A1.136,1.136,0,0,0,9.915,17.4l1.393,2.737a1.13,1.13,0,0,1-.031,1.107,18.77,18.77,0,0,0-1.948,4.7,1.135,1.135,0,0,1-.761.806l-2.919.947a1.139,1.139,0,0,0-.8,1.1v3.927a1.139,1.139,0,0,0,.8,1.1l2.919.949a1.122,1.122,0,0,1,.761.806,18.838,18.838,0,0,0,1.948,4.7,1.134,1.134,0,0,1,.031,1.11L9.915,44.11a1.135,1.135,0,0,0,.213,1.345L12.9,48.23a1.147,1.147,0,0,0,1.345.213l2.733-1.393a1.125,1.125,0,0,1,1.11.031,18.885,18.885,0,0,0,4.7,1.948,1.125,1.125,0,0,1,.806.761l.949,2.915a1.139,1.139,0,0,0,1.1.8h3.924a1.139,1.139,0,0,0,1.1-.8l.949-2.915a1.121,1.121,0,0,1,.806-.761,18.838,18.838,0,0,0,4.7-1.948,1.125,1.125,0,0,1,1.11-.031l2.733,1.393A1.143,1.143,0,0,0,42.3,48.23l2.776-2.776a1.136,1.136,0,0,0,.213-1.345L43.9,41.377a1.134,1.134,0,0,1,.031-1.11,18.885,18.885,0,0,0,1.948-4.7,1.117,1.117,0,0,1,.761-.806l2.919-.949a1.139,1.139,0,0,0,.8-1.1V28.789a1.139,1.139,0,0,0-.8-1.1l-2.919-.947a1.135,1.135,0,0,1-.761-.806,18.771,18.771,0,0,0-1.948-4.7,1.13,1.13,0,0,1-.031-1.107l1.393-2.737a1.135,1.135,0,0,0-.213-1.345L42.3,13.274a1.147,1.147,0,0,0-1.345-.213l-2.733,1.393a1.125,1.125,0,0,1-1.11-.031,18.885,18.885,0,0,0-4.7-1.948,1.125,1.125,0,0,1-.806-.761L30.666,8.8a1.137,1.137,0,0,0-1.1-.8H25.643a1.139,1.139,0,0,0-1.1.8l-.949,2.915a1.123,1.123,0,0,1-.806.761Z" transform="translate(-4.85 -8)" fill="#bec7cf" fill-rule="evenodd"/>
        <path id="Trazado_1045121" data-name="Trazado 1045121" d="M22.788,12.475a18.769,18.769,0,0,0-4.221,1.68l.586.3a1.125,1.125,0,0,0,1.11-.031,18.853,18.853,0,0,1,4.7-1.948,1.125,1.125,0,0,0,.806-.761L26.715,8.8a1.139,1.139,0,0,1,1.1-.8H25.643a1.139,1.139,0,0,0-1.1.8l-.949,2.915a1.123,1.123,0,0,1-.806.761Zm-7.851.939-.688-.353a1.143,1.143,0,0,0-1.345.213l-2.776,2.776A1.136,1.136,0,0,0,9.915,17.4l1.393,2.737a1.13,1.13,0,0,1-.031,1.107,18.771,18.771,0,0,0-1.948,4.7,1.135,1.135,0,0,1-.761.806l-2.919.947a1.139,1.139,0,0,0-.8,1.1v3.927a1.139,1.139,0,0,0,.8,1.1l2.919.949a1.122,1.122,0,0,1,.761.806,18.838,18.838,0,0,0,1.948,4.7,1.134,1.134,0,0,1,.031,1.11L9.915,44.11a1.135,1.135,0,0,0,.213,1.345L12.9,48.23a1.147,1.147,0,0,0,1.345.213l.688-.353L12.3,45.454a1.148,1.148,0,0,1-.213-1.345l1.393-2.733a1.125,1.125,0,0,0-.031-1.11,18.735,18.735,0,0,1-1.945-4.7,1.12,1.12,0,0,0-.765-.806l-2.915-.949a1.139,1.139,0,0,1-.8-1.1V28.789a1.139,1.139,0,0,1,.8-1.1l2.915-.947a1.121,1.121,0,0,0,.761-.806,18.864,18.864,0,0,1,1.948-4.7,1.12,1.12,0,0,0,.031-1.107l-1.393-2.737A1.144,1.144,0,0,1,12.3,16.05Zm3.631,33.937a18.829,18.829,0,0,0,4.221,1.68,1.125,1.125,0,0,1,.806.761l.949,2.915a1.139,1.139,0,0,0,1.1.8h2.172a1.139,1.139,0,0,1-1.1-.8l-.947-2.915a1.121,1.121,0,0,0-.806-.761,18.806,18.806,0,0,1-4.7-1.948,1.125,1.125,0,0,0-1.11-.031Z" transform="translate(-4.85 -8)" fill="#abb3ba" fill-rule="evenodd"/>
        <path id="Trazado_1045122" data-name="Trazado 1045122" d="M133.625,127.978a8.8,8.8,0,1,1-8.8-8.8A8.8,8.8,0,0,1,133.625,127.978Z" transform="translate(-102.073 -105.223)" fill="#eaf6ff" fill-rule="evenodd"/>
        <path id="Trazado_1045123" data-name="Trazado 1045123" d="M125.6,136.74c-.255.021-.51.035-.772.035a8.8,8.8,0,0,1,0-17.6c.262,0,.517.01.772.031a8.8,8.8,0,0,0,0,17.529Z" transform="translate(-102.073 -105.223)" fill="#d3dde6" fill-rule="evenodd"/>
        <path id="Trazado_1045124" data-name="Trazado 1045124" d="M288.654,116.072a11.86,11.86,0,0,0-2.978,1.233.71.71,0,0,1-.7.021l-1.735-.884a.724.724,0,0,0-.852.136l-1.76,1.76a.72.72,0,0,0-.136.852l.884,1.735a.707.707,0,0,1-.018.7,11.828,11.828,0,0,0-1.235,2.978.723.723,0,0,1-.482.513l-1.85.6a.724.724,0,0,0-.51.7v2.489a.721.721,0,0,0,.51.694l1.85.6a.711.711,0,0,1,.482.51,11.948,11.948,0,0,0,1.235,2.978.717.717,0,0,1,.018.706l-.884,1.731a.722.722,0,0,0,.136.852l1.76,1.763a.729.729,0,0,0,.852.133l1.735-.884a.717.717,0,0,1,.7.021,12.009,12.009,0,0,0,2.978,1.235.709.709,0,0,1,.513.482l.6,1.85a.724.724,0,0,0,.7.506h2.489a.727.727,0,0,0,.7-.506l.6-1.85a.71.71,0,0,1,.51-.482,11.891,11.891,0,0,0,2.978-1.235.727.727,0,0,1,.706-.021l1.735.884a.727.727,0,0,0,.852-.133l1.76-1.763a.721.721,0,0,0,.133-.852l-.884-1.731a.724.724,0,0,1,.021-.706,11.946,11.946,0,0,0,1.235-2.978.7.7,0,0,1,.482-.51l1.85-.6a.719.719,0,0,0,.506-.694v-2.489a.721.721,0,0,0-.506-.7l-1.85-.6a.721.721,0,0,1-.482-.513,11.947,11.947,0,0,0-1.235-2.978.72.72,0,0,1-.021-.7l.884-1.735a.719.719,0,0,0-.133-.852l-1.76-1.76a.722.722,0,0,0-.852-.136l-1.735.884a.707.707,0,0,1-.7-.021,11.874,11.874,0,0,0-2.982-1.233.722.722,0,0,1-.51-.486l-.6-1.85a.726.726,0,0,0-.7-.506h-2.489a.723.723,0,0,0-.7.506l-.6,1.85A.719.719,0,0,1,288.654,116.072Z" transform="translate(-243.08 -100.02)" fill="#bec7cf" fill-rule="evenodd"/>
        <path id="Trazado_1045125" data-name="Trazado 1045125" d="M288.654,116.063a11.785,11.785,0,0,0-2.674,1.065l.374.188a.708.708,0,0,0,.7-.021,11.846,11.846,0,0,1,2.978-1.233.728.728,0,0,0,.513-.486l.6-1.85a.721.721,0,0,1,.7-.506h-1.378a.723.723,0,0,0-.7.506l-.6,1.852A.719.719,0,0,1,288.654,116.063Zm-4.975.593-.439-.223a.724.724,0,0,0-.852.136l-1.76,1.76a.72.72,0,0,0-.136.852l.884,1.735a.707.707,0,0,1-.018.7,11.828,11.828,0,0,0-1.235,2.978.723.723,0,0,1-.482.513l-1.85.6a.724.724,0,0,0-.51.7V128.9a.721.721,0,0,0,.51.694l1.85.6a.711.711,0,0,1,.482.51,11.949,11.949,0,0,0,1.235,2.978.717.717,0,0,1,.018.706l-.884,1.731a.722.722,0,0,0,.136.852l1.76,1.763a.729.729,0,0,0,.852.133l.439-.223-1.672-1.672a.72.72,0,0,1-.136-.852l.884-1.731a.705.705,0,0,0-.021-.706A11.85,11.85,0,0,1,281.5,130.7a.716.716,0,0,0-.486-.51l-1.847-.6a.72.72,0,0,1-.51-.694v-2.489a.72.72,0,0,1,.51-.7l1.847-.6a.725.725,0,0,0,.486-.513,11.8,11.8,0,0,1,1.233-2.978.7.7,0,0,0,.021-.7l-.884-1.735a.722.722,0,0,1,.136-.852Zm2.3,21.52a11.922,11.922,0,0,0,2.674,1.065.709.709,0,0,1,.513.482l.6,1.85a.724.724,0,0,0,.7.506h1.378a.721.721,0,0,1-.7-.506l-.6-1.85a.714.714,0,0,0-.513-.482,11.947,11.947,0,0,1-2.978-1.235.72.72,0,0,0-.7-.021Z" transform="translate(-243.08 -100.011)" fill="#abb3ba" fill-rule="evenodd"/>
        <path id="Trazado_1045126" data-name="Trazado 1045126" d="M358.928,189.3a5.579,5.579,0,1,1-5.579-5.579A5.576,5.576,0,0,1,358.928,189.3Z" transform="translate(-304.72 -161.66)" fill="#eaf6ff" fill-rule="evenodd"/>
        <path id="Trazado_1045127" data-name="Trazado 1045127" d="M353.841,194.857c-.161.014-.325.021-.492.021a5.579,5.579,0,1,1,0-11.158c.167,0,.331.008.492.021a5.579,5.579,0,0,0,0,11.115Z" transform="translate(-304.72 -161.66)" fill="#d3dde6" fill-rule="evenodd"/>
        <path id="Trazado_1045128" data-name="Trazado 1045128" d="M174.244,295.109a14.994,14.994,0,1,0-14.994-14.994A15.023,15.023,0,0,0,174.244,295.109Z" transform="translate(-139.867 -232.842)" fill="#ff4155" fill-rule="evenodd"/>
        <path id="Trazado_1045129" data-name="Trazado 1045129" d="M200.434,317.513A11.236,11.236,0,1,0,189.2,306.278,11.258,11.258,0,0,0,200.434,317.513Z" transform="translate(-166.057 -259.005)" fill="#eaf6ff" fill-rule="evenodd"/>
        <path id="Trazado_1045130" data-name="Trazado 1045130" d="M174.244,265.12q.441,0,.876.024a14.994,14.994,0,0,0,0,29.936c-.29.018-.583.028-.876.028a14.994,14.994,0,1,1,0-29.987Z" transform="translate(-139.867 -232.842)" fill="#e63b4d" fill-rule="evenodd"/>
      </g>
      <path id="Trazado_1045131" data-name="Trazado 1045131" d="M33.1,26.644a9.663,9.663,0,1,0-9.663,9.663A9.675,9.675,0,0,0,33.1,26.644ZM23.436,34.3a7.653,7.653,0,1,1,7.653-7.653A7.662,7.662,0,0,1,23.436,34.3Zm39.636-5.7-1.688-.549a12.74,12.74,0,0,0-1.208-2.916l.806-1.581a1.729,1.729,0,0,0-.318-2.009L58.92,19.795a1.728,1.728,0,0,0-2.01-.316l-1.582.8a12.652,12.652,0,0,0-2.914-1.206l-.55-1.692a1.73,1.73,0,0,0-1.645-1.193H47.759a1.722,1.722,0,0,0-1.647,1.2l-.549,1.687a12.8,12.8,0,0,0-2.916,1.208l-.763-.388a19.5,19.5,0,0,0-1.474-3.136.115.115,0,0,1-.005-.134l1.375-2.7a2.142,2.142,0,0,0-.4-2.489L38.647,8.7a2.134,2.134,0,0,0-2.494-.394l-2.69,1.372a.116.116,0,0,1-.137,0,19.667,19.667,0,0,0-4.887-2.026.11.11,0,0,1-.09-.089l-.934-2.87A2.135,2.135,0,0,0,25.37,3.2H21.5a2.142,2.142,0,0,0-2.041,1.485l-.931,2.872a.115.115,0,0,1-.1.092,19.638,19.638,0,0,0-4.886,2.027.107.107,0,0,1-.127,0L10.722,8.307A2.134,2.134,0,0,0,8.228,8.7L5.484,11.439a2.146,2.146,0,0,0-.39,2.488l1.377,2.7a.113.113,0,0,1,0,.132,19.608,19.608,0,0,0-2.027,4.887.11.11,0,0,1-.088.092l-2.877.933A2.145,2.145,0,0,0-.01,24.712V28.58a2.134,2.134,0,0,0,1.484,2.041l2.874.935a.115.115,0,0,1,.092.1,19.724,19.724,0,0,0,2.026,4.882.11.11,0,0,1,0,.129l-1.376,2.7a2.145,2.145,0,0,0,.394,2.493l2.739,2.735a2.142,2.142,0,0,0,2.491.4l2.7-1.373a.112.112,0,0,1,.129.005,19.468,19.468,0,0,0,4.881,2.021.119.119,0,0,1,.1.094l.8,2.463a15.813,15.813,0,1,0,30.859-1.45h.035a1.729,1.729,0,0,0,1.647-1.2l.547-1.685a12.812,12.812,0,0,0,2.918-1.209l1.581.806a1.719,1.719,0,0,0,2.007-.32L60.67,41.4a1.733,1.733,0,0,0,.311-2.006l-.806-1.579a12.7,12.7,0,0,0,1.21-2.92l1.691-.549A1.731,1.731,0,0,0,64.27,32.7V30.235A1.733,1.733,0,0,0,63.072,28.593ZM18.94,43.7a17.506,17.506,0,0,1-4.379-1.812,2.1,2.1,0,0,0-2.058-.062L9.806,43.2a.12.12,0,0,1-.158-.025L6.912,40.439a.127.127,0,0,1-.029-.159l1.38-2.7A2.114,2.114,0,0,0,8.2,35.521a17.667,17.667,0,0,1-1.817-4.374,2.109,2.109,0,0,0-1.414-1.5L2.09,28.707A.119.119,0,0,1,2,28.579V24.711a.125.125,0,0,1,.1-.133l2.877-.933a2.1,2.1,0,0,0,1.41-1.5A17.529,17.529,0,0,1,8.2,17.768a2.113,2.113,0,0,0,.058-2.059L6.885,13.016a.123.123,0,0,1,.024-.157l2.741-2.737a.12.12,0,0,1,.157-.025l2.7,1.373a2.105,2.105,0,0,0,2.055-.059,17.653,17.653,0,0,1,4.378-1.817,2.108,2.108,0,0,0,1.5-1.415l.931-2.874a.124.124,0,0,1,.129-.1H25.37a.122.122,0,0,1,.129.1l.937,2.876a2.1,2.1,0,0,0,1.493,1.41,17.628,17.628,0,0,1,4.38,1.817,2.119,2.119,0,0,0,2.063.062l2.7-1.376a.12.12,0,0,1,.156.028l2.737,2.737a.122.122,0,0,1,.025.157l-1.373,2.7a2.116,2.116,0,0,0,.06,2.06,17.336,17.336,0,0,1,.864,1.687,1.778,1.778,0,0,0-.483.338L37.32,21.534A1.724,1.724,0,0,0,37,23.551l.8,1.578a12.812,12.812,0,0,0-1.209,2.918l-1.685.547a1.727,1.727,0,0,0-1.2,1.646V32.7A1.731,1.731,0,0,0,34.9,34.35l1.686.547c.023.083.049.164.074.247A15.816,15.816,0,0,0,20.31,44.8,2.116,2.116,0,0,0,18.94,43.7ZM34.916,64.662a13.8,13.8,0,1,1,13.8-13.805A13.819,13.819,0,0,1,34.916,64.662ZM62.258,32.5l-1.638.531a1.7,1.7,0,0,0-1.14,1.21,10.746,10.746,0,0,1-1.117,2.694,1.714,1.714,0,0,0-.048,1.66l.783,1.535-1.456,1.454L56.107,40.8a1.706,1.706,0,0,0-1.655.049,10.839,10.839,0,0,1-2.7,1.117A1.72,1.72,0,0,0,50.549,43.1l-.531,1.636H49.5A15.884,15.884,0,0,0,38.94,35.564a10.573,10.573,0,0,1-.442-1.319,1.7,1.7,0,0,0-1.14-1.215L35.722,32.5V30.442l1.636-.531A1.722,1.722,0,0,0,38.5,28.7a10.82,10.82,0,0,1,1.117-2.7,1.7,1.7,0,0,0,.048-1.656l-.782-1.533,1.454-1.456,1.532.778a1.714,1.714,0,0,0,1.661-.043,10.806,10.806,0,0,1,2.7-1.119,1.711,1.711,0,0,0,1.2-1.14l.531-1.636h2.056l.531,1.635a1.711,1.711,0,0,0,1.2,1.14l.013,0a10.7,10.7,0,0,1,2.7,1.117,1.71,1.71,0,0,0,1.655.045l1.537-.781L59.1,22.818l-.785,1.538a1.708,1.708,0,0,0,.05,1.657A10.664,10.664,0,0,1,59.48,28.7a1.725,1.725,0,0,0,1.142,1.208l1.636.53ZM48.99,24.96a6.512,6.512,0,1,0,6.51,6.51A6.52,6.52,0,0,0,48.99,24.96Zm0,11.013a4.5,4.5,0,1,1,4.5-4.5A4.508,4.508,0,0,1,48.99,35.973ZM34.916,38.756a12.1,12.1,0,1,0,12.1,12.1A12.114,12.114,0,0,0,34.916,38.756Zm1,22.145V60a1.006,1.006,0,1,0-2.011,0v.9a10.11,10.11,0,0,1-9.035-9.039h.9a1.006,1.006,0,0,0,0-2.011h-.9a10.108,10.108,0,0,1,9.035-9.035v.9a1.006,1.006,0,1,0,2.011,0v-.9a10.108,10.108,0,0,1,9.035,9.035h-.9a1.006,1.006,0,1,0,0,2.011h.9A10.112,10.112,0,0,1,35.92,60.9Zm5.516-10.044a1,1,0,0,1-1.006,1.006H34.916a1,1,0,0,1-1.006-1.006V45.341a1.006,1.006,0,0,1,2.011,0v4.511h4.511A1,1,0,0,1,41.437,50.857Z"/>
    </g>
  </g>
</svg>
