<svg xmlns="http://www.w3.org/2000/svg" xmlns:xlink="http://www.w3.org/1999/xlink" width="113" height="113" viewBox="0 0 113 113">
  <defs>
    <filter id="Trazado_982547" x="0" y="0" width="113" height="113" filterUnits="userSpaceOnUse">
      <feOffset dy="3" input="SourceAlpha"/>
      <feGaussianBlur stdDeviation="3" result="blur"/>
      <feFlood flood-opacity="0.161"/>
      <feComposite operator="in" in2="blur"/>
      <feComposite in="SourceGraphic"/>
    </filter>
  </defs>
  <g id="Grupo_1200250" data-name="Grupo 1200250" transform="translate(-193 -507)">
    <g id="Grupo_1199826" data-name="Grupo 1199826" transform="translate(0 -1203)">
      <g id="Grupo_1172105" data-name="Grupo 1172105" transform="translate(22 -2155)">
        <g id="Grupo_1171485" data-name="Grupo 1171485" transform="translate(0 584)">
          <g id="Grupo_1167519" data-name="Grupo 1167519" transform="translate(180 3287)">
            <g id="Grupo_1166845" data-name="Grupo 1166845" transform="translate(0)">
              <g id="Grupo_1166720" data-name="Grupo 1166720">
                <g id="Grupo_1164305" data-name="Grupo 1164305">
                  <g id="Grupo_1163948" data-name="Grupo 1163948">
                    <g id="Grupo_1158168" data-name="Grupo 1158168">
                      <g id="Grupo_1152576" data-name="Grupo 1152576">
                        <g id="Grupo_1148633" data-name="Grupo 1148633">
                          <g id="Grupo_1148525" data-name="Grupo 1148525">
                            <g transform="matrix(1, 0, 0, 1, -9, -6)" filter="url(#Trazado_982547)">
                              <g id="Trazado_982547-2" data-name="Trazado 982547" transform="translate(9 6)" fill="#fdf6ea">
                                <path d="M 47.5 93.5 C 41.28937149047852 93.5 35.26533508300781 92.28397369384766 29.59518623352051 89.88570404052734 C 24.11771965026855 87.56893157958984 19.19813346862793 84.25196075439453 14.97309303283691 80.02691650390625 C 10.74804019927979 75.80186462402344 7.431066513061523 70.88229370117188 5.114293098449707 65.40481567382812 C 2.716026782989502 59.73468017578125 1.5 53.71062850952148 1.5 47.5 C 1.5 41.28937149047852 2.716026782989502 35.26533508300781 5.114293098449707 29.59518623352051 C 7.431066513061523 24.11771965026855 10.74804019927979 19.19813346862793 14.97309303283691 14.97309303283691 C 19.19813346862793 10.74804019927979 24.11771965026855 7.431066513061523 29.59518623352051 5.114293098449707 C 35.26533508300781 2.716026782989502 41.28937149047852 1.5 47.5 1.5 C 53.71062850952148 1.5 59.73468017578125 2.716026782989502 65.40481567382812 5.114293098449707 C 70.88229370117188 7.431066513061523 75.80186462402344 10.74804019927979 80.02691650390625 14.97309303283691 C 84.25196075439453 19.19813346862793 87.56893157958984 24.11771965026855 89.88570404052734 29.59518623352051 C 92.28397369384766 35.26533508300781 93.5 41.28937149047852 93.5 47.5 C 93.5 53.71062850952148 92.28397369384766 59.73468017578125 89.88570404052734 65.40481567382812 C 87.56893157958984 70.88229370117188 84.25196075439453 75.80186462402344 80.02691650390625 80.02691650390625 C 75.80186462402344 84.25196075439453 70.88229370117188 87.56893157958984 65.40481567382812 89.88570404052734 C 59.73468017578125 92.28397369384766 53.71062850952148 93.5 47.5 93.5 Z" stroke="none"/>
                                <path d="M 47.5 3 C 41.49121475219727 3 35.66376876831055 4.176155090332031 30.17950439453125 6.495796203613281 C 24.88084411621094 8.736953735351562 20.12152099609375 11.94598388671875 16.03375244140625 16.03375244140625 C 11.94598388671875 20.12152099609375 8.736953735351562 24.88084411621094 6.495796203613281 30.17950439453125 C 4.176155090332031 35.66376876831055 3 41.49121475219727 3 47.5 C 3 53.50878524780273 4.176155090332031 59.33623123168945 6.495796203613281 64.82049560546875 C 8.736953735351562 70.11915588378906 11.94598388671875 74.87847900390625 16.03375244140625 78.96624755859375 C 20.12152099609375 83.05401611328125 24.88084411621094 86.26304626464844 30.17950439453125 88.50419616699219 C 35.66376876831055 90.82384490966797 41.49121475219727 92 47.5 92 C 53.50878524780273 92 59.33623123168945 90.82384490966797 64.82049560546875 88.50419616699219 C 70.11915588378906 86.26304626464844 74.87847900390625 83.05401611328125 78.96624755859375 78.96624755859375 C 83.05401611328125 74.87847900390625 86.26304626464844 70.11915588378906 88.50419616699219 64.82049560546875 C 90.82384490966797 59.33623123168945 92 53.50878524780273 92 47.5 C 92 41.49121475219727 90.82384490966797 35.66376876831055 88.50419616699219 30.17950439453125 C 86.26304626464844 24.88084411621094 83.05401611328125 20.12152099609375 78.96624755859375 16.03375244140625 C 74.87847900390625 11.94598388671875 70.11915588378906 8.736953735351562 64.82049560546875 6.495796203613281 C 59.33623123168945 4.176155090332031 53.50878524780273 3 47.5 3 M 47.5 0 C 73.7335205078125 0 95 21.2664794921875 95 47.5 C 95 73.7335205078125 73.7335205078125 95 47.5 95 C 21.2664794921875 95 0 73.7335205078125 0 47.5 C 0 21.2664794921875 21.2664794921875 0 47.5 0 Z" stroke="none" fill="#edae3b"/>
                              </g>
                            </g>
                          </g>
                        </g>
                      </g>
                    </g>
                  </g>
                </g>
              </g>
            </g>
          </g>
        </g>
      </g>
    </g>
    <g id="mejora-de-procesos" transform="translate(214.614 495.258)">
      <path id="Trazado_1044006" data-name="Trazado 1044006" d="M28.974,48.175a13.824,13.824,0,0,1,3.8,1.575L36.1,47.831A14.866,14.866,0,0,1,39.364,51.1l-1.919,3.328a13.734,13.734,0,0,1,1.575,3.8l3.708.992a14.953,14.953,0,0,1,0,4.617l-3.708,1a13.826,13.826,0,0,1-1.575,3.8l1.919,3.324A14.944,14.944,0,0,1,36.1,75.219L32.773,73.3a13.828,13.828,0,0,1-3.8,1.575l-1,3.708a14.954,14.954,0,0,1-4.617,0l-.992-3.708a13.807,13.807,0,0,1-3.8-1.576l-3.324,1.919a14.949,14.949,0,0,1-3.266-3.266L13.9,68.628a13.605,13.605,0,0,1-1.575-3.8l-3.712-1a14.953,14.953,0,0,1,0-4.617l3.708-.992a13.8,13.8,0,0,1,1.575-3.8L11.976,51.1a14.947,14.947,0,0,1,3.266-3.266l3.324,1.919a13.8,13.8,0,0,1,3.8-1.575l.992-3.708a14.954,14.954,0,0,1,4.617,0Z" transform="translate(-7.357 -6.092)" fill="#ffab02" fill-rule="evenodd"/>
      <path id="Trazado_1044007" data-name="Trazado 1044007" d="M182.983,194.158a1.5,1.5,0,1,1-2-2.231l18.581-14.684a1.5,1.5,0,0,1,1.977-.018l3.038,2.633,9.444-8.524-2.846-3.158,8.028.416-.42,8.028-2.756-3.056-10.426,9.412a1.5,1.5,0,0,1-1.984.018l-3.045-2.64Z" transform="translate(-157.432 -114.152)" fill="#45bf64"/>
      <path id="Trazado_1044008" data-name="Trazado 1044008" d="M432.935,271.612h6.949v25.052h-6.949Z" transform="translate(-377.629 -204.375)" fill="#ffab02"/>
      <path id="Trazado_1044009" data-name="Trazado 1044009" d="M344.806,313.819h6.946v19.66h-6.946Z" transform="translate(-300.758 -241.19)" fill="#69a7ff"/>
      <path id="Trazado_1044010" data-name="Trazado 1044010" d="M256.677,357.9h6.946v14.029h-6.946Z" transform="translate(-223.888 -279.638)" fill="#fb4455"/>
      <path id="Trazado_1044011" data-name="Trazado 1044011" d="M168.519,401.949h6.949v8.4h-6.949Z" transform="translate(-146.992 -318.062)" fill="#69a7ff"/>
      <g id="Grupo_1200249" data-name="Grupo 1200249" transform="translate(1.076 38.198)">
        <path id="Trazado_1044012" data-name="Trazado 1044012" d="M102.717,48.185l.992-3.708c.359-.054.717-.1,1.076-.127a14.915,14.915,0,0,0-3.527.127l-.992,3.708a13.592,13.592,0,0,0-2.528.894l1.177.681a13.8,13.8,0,0,1,3.8-1.575Z" transform="translate(-86.329 -44.3)" fill="#ed9e00" fill-rule="evenodd"/>
        <path id="Trazado_1044013" data-name="Trazado 1044013" d="M14.428,75.29a14.928,14.928,0,0,1,2.238-2.444l-1.423-.822a14.947,14.947,0,0,0-3.266,3.266L13.9,78.615a13.8,13.8,0,0,0-1.575,3.8l-3.708.992a14.953,14.953,0,0,0,0,4.617l3.712,1a13.605,13.605,0,0,0,1.575,3.8l-1.923,3.324a14.95,14.95,0,0,0,3.266,3.266l1.423-.822a15.015,15.015,0,0,1-2.238-2.444l1.923-3.324a13.605,13.605,0,0,1-1.575-3.8l-3.712-1a14.953,14.953,0,0,1,0-4.617l3.708-.992a13.8,13.8,0,0,1,1.575-3.8Z" transform="translate(-8.433 -68.482)" fill="#ed9e00" fill-rule="evenodd"/>
        <path id="Trazado_1044014" data-name="Trazado 1044014" d="M102.717,272.96a13.806,13.806,0,0,1-3.8-1.575l-1.177.681a13.685,13.685,0,0,0,2.528.894l.992,3.708a15.1,15.1,0,0,0,3.542.127c-.362-.029-.724-.072-1.09-.127Z" transform="translate(-86.329 -242.375)" fill="#ed9e00" fill-rule="evenodd"/>
        <path id="Trazado_1044015" data-name="Trazado 1044015" d="M432.935,271.612h2.488v24.157h-2.488Z" transform="translate(-378.705 -242.573)" fill="#ed9e00"/>
      </g>
      <path id="Trazado_1044016" data-name="Trazado 1044016" d="M344.806,313.819h2.484v18.765h-2.484Z" transform="translate(-300.758 -241.19)" fill="#5f96e6"/>
      <path id="Trazado_1044017" data-name="Trazado 1044017" d="M256.677,357.9h2.484v13.134h-2.484Z" transform="translate(-223.888 -279.638)" fill="#e82e41"/>
      <path id="Trazado_1044018" data-name="Trazado 1044018" d="M168.519,401.949h2.488v7.507h-2.488Z" transform="translate(-146.992 -318.062)" fill="#5f96e6"/>
      <path id="Trazado_1044019" data-name="Trazado 1044019" d="M182.618,251.236,201.2,236.551a1.234,1.234,0,0,1,.174-.134,1.5,1.5,0,0,0-1.821.134L180.97,251.236a1.5,1.5,0,0,0,1.821,2.365,1.448,1.448,0,0,1-.29-.25A1.5,1.5,0,0,1,182.618,251.236Z" transform="translate(-157.415 -173.461)" fill="#1ca63e" fill-rule="evenodd"/>
      <path id="Trazado_1044020" data-name="Trazado 1044020" d="M378.543,171.333l-9.444,8.524.84.732,10.252-9.256-2.767-3.067-1.727-.091Z" transform="translate(-321.948 -114.152)" fill="#1ca63e" fill-rule="evenodd"/>
      <path id="Trazado_1044021" data-name="Trazado 1044021" d="M20.577,73.373a.894.894,0,0,0,.725-.652l.862-3.209a14.58,14.58,0,0,0,3.069-1.273L28.109,69.9a.894.894,0,0,0,.977-.053,15.977,15.977,0,0,0,3.459-3.46.894.894,0,0,0,.052-.974l-1.661-2.88a14.62,14.62,0,0,0,1.273-3.069l3.209-.858a.894.894,0,0,0,.653-.728,15.937,15.937,0,0,0,0-4.895.894.894,0,0,0-.652-.726L32.21,51.4a14.691,14.691,0,0,0-1.273-3.069l1.661-2.88a.9.9,0,0,0-.054-.976,15.9,15.9,0,0,0-3.461-3.457.894.894,0,0,0-.973-.051l-2.876,1.661a14.487,14.487,0,0,0-3.07-1.274L21.3,38.144a.894.894,0,0,0-.728-.652,15.925,15.925,0,0,0-4.892,0,.894.894,0,0,0-.725.652L14.1,41.353a14.471,14.471,0,0,0-3.073,1.274L8.149,40.966a.894.894,0,0,0-.975.053,15.866,15.866,0,0,0-3.461,3.458.894.894,0,0,0-.052.974l1.661,2.88A14.621,14.621,0,0,0,4.049,51.4L.84,52.259a.894.894,0,0,0-.653.728,15.941,15.941,0,0,0,0,4.895.894.894,0,0,0,.653.726l3.211.858a14.463,14.463,0,0,0,1.273,3.07L3.661,65.415a.894.894,0,0,0,.054.977,16,16,0,0,0,3.46,3.459.894.894,0,0,0,.976.052l2.876-1.663A14.475,14.475,0,0,0,14.1,69.512l.858,3.208a.894.894,0,0,0,.728.653,16.149,16.149,0,0,0,2.455.189,15.742,15.742,0,0,0,2.439-.19Zm-4.046-1.692-.838-3.132a.894.894,0,0,0-.652-.637A12.683,12.683,0,0,1,11.49,66.44a.894.894,0,0,0-.911-.009L7.77,68.056a14.217,14.217,0,0,1-2.261-2.263l1.624-2.812a.894.894,0,0,0-.009-.911,12.677,12.677,0,0,1-1.472-3.548.894.894,0,0,0-.638-.651l-3.137-.839a14.156,14.156,0,0,1,0-3.2l3.132-.838a.894.894,0,0,0,.637-.649,12.834,12.834,0,0,1,1.473-3.551.894.894,0,0,0,.009-.909L5.508,45.073a14.069,14.069,0,0,1,2.263-2.259l2.809,1.622a.894.894,0,0,0,.911-.01,12.691,12.691,0,0,1,3.552-1.472.9.9,0,0,0,.651-.637l.838-3.133a14.116,14.116,0,0,1,3.2,0l.841,3.133a.894.894,0,0,0,.65.637,12.7,12.7,0,0,1,3.549,1.472.894.894,0,0,0,.911.01l2.81-1.622a14.112,14.112,0,0,1,2.261,2.261L29.13,47.885a.894.894,0,0,0,.009.909,12.9,12.9,0,0,1,1.473,3.552.894.894,0,0,0,.637.649l3.133.838a14.151,14.151,0,0,1,0,3.2l-3.132.838a.894.894,0,0,0-.637.649,12.837,12.837,0,0,1-1.473,3.551.894.894,0,0,0-.009.909l1.622,2.812a14.19,14.19,0,0,1-2.263,2.261L25.68,66.431a.894.894,0,0,0-.909.008,12.8,12.8,0,0,1-3.551,1.473.894.894,0,0,0-.65.637l-.842,3.134a14.124,14.124,0,0,1-3.2,0ZM11.559,59.908a.894.894,0,1,1-1.478,1.008,9.739,9.739,0,0,1,11.477-14.6l-.2-.595a.894.894,0,1,1,1.7-.571l.905,2.687a.894.894,0,0,1-.563,1.134l-2.687.9a.894.894,0,0,1-.569-1.7l.677-.227a7.95,7.95,0,0,0-9.257,11.956Zm13.455,2.411A9.757,9.757,0,0,1,14.7,64.549l.2.6a.894.894,0,1,1-1.7.569l-.9-2.687a.894.894,0,0,1,.562-1.132l2.687-.905a.894.894,0,1,1,.571,1.7l-.682.23A7.951,7.951,0,0,0,24.7,50.958a.894.894,0,0,1,1.478-1.008,9.741,9.741,0,0,1-1.164,12.37Zm39.5,29.073H62.967V67.234a.894.894,0,0,0-.894-.894h-6.95a.894.894,0,0,0-.894.894V91.392H51.7V72.626a.894.894,0,0,0-.894-.894H43.864a.894.894,0,0,0-.894.894V91.392H40.446V78.258a.894.894,0,0,0-.894-.894H32.606a.894.894,0,0,0-.894.894V91.392H29.187v-7.5a.894.894,0,0,0-.894-.894h-6.95a.894.894,0,0,0-.894.894v7.5H18.9a.894.894,0,0,0,0,1.789h45.61a.894.894,0,0,0,0-1.789Zm-37.114,0h-5.16V84.783H27.4Zm11.258,0H33.5V79.152h5.156Zm11.259,0H44.759V73.521h5.157Zm11.262,0h-5.16V68.13h5.16Zm-38.4-14.282a2.391,2.391,0,1,0,3.164,3.586L42.935,67.358l2.487,2.156a2.394,2.394,0,0,0,3.1.031.878.878,0,0,0,.069-.057l9.76-8.815,2.156,2.395a.894.894,0,0,0,1.558-.552l.416-8.028a.894.894,0,0,0-.847-.94l-8.028-.416a.894.894,0,0,0-.71,1.493l2.251,2.494-8.193,7.395-2.44-2.117a.866.866,0,0,0-.069-.054,2.391,2.391,0,0,0-3.068.061L22.817,77.074l-.042.035Zm1.177,1.348L42.507,63.79l.043-.036a.6.6,0,0,1,.792-.006c.018.016.037.031.056.045l2.984,2.589a.894.894,0,0,0,1.186-.012l9.445-8.525a.894.894,0,0,0,.065-1.263l-1.4-1.553,4.977.258-.258,4.977-1.31-1.454a.894.894,0,0,0-1.265-.065L47.446,68.112q-.027.021-.053.044a.6.6,0,0,1-.8.006l-3.045-2.639A.894.894,0,0,0,42.41,65.5L24.814,79.3l-.044.037a.6.6,0,0,1-.818-.883Z" transform="translate(0)"/>
    </g>
  </g>
</svg>
