<svg xmlns="http://www.w3.org/2000/svg" xmlns:xlink="http://www.w3.org/1999/xlink" width="110" height="110" viewBox="0 0 110 110">
  <defs>
    <filter id="Trazado_982547" x="0" y="0" width="110" height="110" filterUnits="userSpaceOnUse">
      <feOffset dy="3" input="SourceAlpha"/>
      <feGaussianBlur stdDeviation="3" result="blur"/>
      <feFlood flood-opacity="0.161"/>
      <feComposite operator="in" in2="blur"/>
      <feComposite in="SourceGraphic"/>
    </filter>
  </defs>
  <g id="Grupo_1200690" data-name="Grupo 1200690" transform="translate(-363.301 -4858.847)">
    <g id="Grupo_1199857" data-name="Grupo 1199857" transform="translate(0 -2891.153)">
      <g id="Grupo_1173080" data-name="Grupo 1173080" transform="translate(372.301 7756)">
        <g id="Grupo_1172181" data-name="Grupo 1172181" transform="translate(0)">
          <g id="Grupo_1171414" data-name="Grupo 1171414">
            <g id="Grupo_1163801" data-name="Grupo 1163801">
              <g id="Grupo_1163014" data-name="Grupo 1163014">
                <g id="Grupo_1157015" data-name="Grupo 1157015" transform="translate(0 0)">
                  <g id="Grupo_1155792" data-name="Grupo 1155792">
                    <g id="Grupo_1154703" data-name="Grupo 1154703">
                      <g id="Grupo_1150789" data-name="Grupo 1150789">
                        <g id="Grupo_1154212" data-name="Grupo 1154212">
                          <g id="Grupo_1152583" data-name="Grupo 1152583">
                            <g id="Grupo_1146973" data-name="Grupo 1146973" transform="translate(0 0)">
                              <g id="Grupo_1146954" data-name="Grupo 1146954">
                                <g transform="matrix(1, 0, 0, 1, -9, -6)" filter="url(#Trazado_982547)">
                                  <g id="Trazado_982547-2" data-name="Trazado 982547" transform="translate(9 6)" fill="#f2f7f5">
                                    <path d="M 46 90.49987030029297 C 39.99187850952148 90.49987030029297 34.16426849365234 89.32350921630859 28.67905426025391 87.00345611572266 C 23.38019943237305 84.76224517822266 18.62104034423828 81.55341339111328 14.53374671936035 77.46613311767578 C 10.44646644592285 73.37885284423828 7.237639904022217 68.61969757080078 4.996413230895996 63.32085418701172 C 2.676359891891479 57.83565521240234 1.5 52.008056640625 1.5 45.99993515014648 C 1.5 39.99181365966797 2.676359891891479 34.16421508789062 4.996413230895996 28.67901420593262 C 7.237639904022217 23.38017463684082 10.44646644592285 18.62101554870605 14.53374671936035 14.53373527526855 C 18.62104034423828 10.44645500183105 23.38019943237305 7.23762845993042 28.67905426025391 4.996415138244629 C 34.16426849365234 2.676361799240112 39.99187850952148 1.500001788139343 46 1.500001788139343 C 52.00812149047852 1.500001788139343 57.83573150634766 2.676361799240112 63.32094573974609 4.996415138244629 C 68.61979675292969 7.23762845993042 73.37895965576172 10.44645500183105 77.46625518798828 14.53373527526855 C 81.55353546142578 18.62101554870605 84.76235961914062 23.38017463684082 87.00358581542969 28.67901420593262 C 89.32363891601562 34.16421508789062 90.5 39.99181365966797 90.5 45.99993515014648 C 90.5 52.008056640625 89.32363891601562 57.83565521240234 87.00358581542969 63.32085418701172 C 84.76235961914062 68.61969757080078 81.55353546142578 73.37885284423828 77.46625518798828 77.46613311767578 C 73.37895965576172 81.55341339111328 68.61979675292969 84.76224517822266 63.32094573974609 87.00345611572266 C 57.83573150634766 89.32350921630859 52.00812149047852 90.49987030029297 46 90.49987030029297 Z" stroke="none"/>
                                    <path d="M 46 2.999992370605469 C 40.1937141418457 2.999992370605469 34.56269836425781 4.136489868164062 29.26337051391602 6.377906799316406 C 24.14332580566406 8.543502807617188 19.54441070556641 11.64437866210938 15.59439849853516 15.59437561035156 C 11.64440155029297 19.54439544677734 8.54351806640625 24.14329528808594 6.377914428710938 29.26333618164062 C 4.136497497558594 34.56264877319336 3 40.19366455078125 3 45.99993515014648 C 3 51.80620574951172 4.136497497558594 57.43720626831055 6.377914428710938 62.73651885986328 C 8.54351806640625 67.8565673828125 11.64440155029297 72.45545959472656 15.59439849853516 76.40547943115234 C 19.54441070556641 80.35547637939453 24.14332580566406 83.45635223388672 29.26337051391602 85.6219482421875 C 34.56269836425781 87.86336517333984 40.1937141418457 88.99986267089844 46 88.99986267089844 C 51.8062858581543 88.99986267089844 57.43730163574219 87.86336517333984 62.73661422729492 85.6219482421875 C 67.85667419433594 83.45635223388672 72.45557403564453 80.35547637939453 76.40558624267578 76.40547943115234 C 80.35559844970703 72.45545959472656 83.45647430419922 67.8565673828125 85.6220703125 62.73651885986328 C 87.86350250244141 57.43720626831055 89 51.80620574951172 89 45.99993515014648 C 89 40.19366455078125 87.86350250244141 34.56264877319336 85.6220703125 29.26333618164062 C 83.45647430419922 24.14329528808594 80.35559844970703 19.54439544677734 76.40558624267578 15.59437561035156 C 72.45557403564453 11.64437866210938 67.85667419433594 8.543502807617188 62.73661422729492 6.377906799316406 C 57.43730163574219 4.136489868164062 51.8062858581543 2.999992370605469 46 2.999992370605469 M 46 -7.62939453125e-06 C 71.40509033203125 -7.62939453125e-06 92 20.59486389160156 92 45.99993515014648 C 92 71.40499114990234 71.40509033203125 91.99986267089844 46 91.99986267089844 C 20.59490203857422 91.99986267089844 0 71.40499114990234 0 45.99993515014648 C 0 20.59486389160156 20.59490203857422 -7.62939453125e-06 46 -7.62939453125e-06 Z" stroke="none" fill="#88bba9"/>
                                  </g>
                                </g>
                              </g>
                            </g>
                          </g>
                        </g>
                      </g>
                    </g>
                  </g>
                </g>
              </g>
            </g>
          </g>
        </g>
      </g>
    </g>
    <g id="Layer_1" data-name="Layer 1" transform="translate(386.295 4861.39)">
      <path id="Trazado_1044714" data-name="Trazado 1044714" d="M59.849,71.755H15.116a3.971,3.971,0,0,1-3.971-3.971V34.8a3.971,3.971,0,0,1,3.971-3.971H59.849A3.971,3.971,0,0,1,63.82,34.8V67.784a3.971,3.971,0,0,1-3.972,3.971Z" transform="translate(-7.693 -4.622)" fill="#393939"/>
      <path id="Trazado_1044715" data-name="Trazado 1044715" d="M17.615,71.755h-2.5a3.971,3.971,0,0,1-3.971-3.971V34.8a3.971,3.971,0,0,1,3.971-3.971h2.5A3.971,3.971,0,0,0,13.644,34.8V67.784A3.971,3.971,0,0,0,17.615,71.755Z" transform="translate(-7.693 -4.622)" fill="#343434"/>
      <path id="Trazado_1044716" data-name="Trazado 1044716" d="M35.415,89.308V56.156A1.056,1.056,0,0,1,36.471,55.1h44.9a1.056,1.056,0,0,1,1.056,1.056V89.308a1.056,1.056,0,0,1-1.056,1.056h-44.9a1.056,1.056,0,0,1-1.056-1.056Z" transform="translate(-29.132 -26.06)" fill="#f5f5f5"/>
      <path id="Trazado_1044717" data-name="Trazado 1044717" d="M38.87,90.363h-2.4a1.056,1.056,0,0,1-1.056-1.056V56.156A1.056,1.056,0,0,1,36.471,55.1h2.4a1.056,1.056,0,0,0-1.056,1.056V89.308a1.056,1.056,0,0,0,1.056,1.056Z" transform="translate(-29.132 -26.06)" fill="#e6e6e6"/>
      <path id="Trazado_1044718" data-name="Trazado 1044718" d="M118.617,115.567a4.534,4.534,0,1,1-4.534-4.534A4.534,4.534,0,0,1,118.617,115.567Zm-4.534,8.616a4.534,4.534,0,1,0,4.534,4.534A4.534,4.534,0,0,0,114.083,124.183Z" transform="translate(-94.621 -75.47)" fill="#52cc7b"/>
      <path id="Trazado_1044719" data-name="Trazado 1044719" d="M109.536,115.567a4.533,4.533,0,0,1,5.189-4.486,4.534,4.534,0,0,0,0,8.972,4.533,4.533,0,0,1-5.189-4.486Zm1.312,13.151a4.534,4.534,0,0,1,3.877-4.486,4.534,4.534,0,1,0,0,8.972,4.534,4.534,0,0,1-3.878-4.486Z" transform="translate(-94.609 -75.471)" fill="#3d997a"/>
      <path id="Trazado_1044720" data-name="Trazado 1044720" d="M351.452,419.513l-.336-1.453a1.612,1.612,0,0,1,1.208-1.933l13.907-3.211a1.612,1.612,0,0,1,1.933,1.208l.336,1.453a1.612,1.612,0,0,1-1.208,1.933l-13.907,3.211A1.612,1.612,0,0,1,351.452,419.513Z" transform="translate(-307.982 -342.113)" fill="#6cf"/>
      <path id="Trazado_1044721" data-name="Trazado 1044721" d="M353.642,443.414l-1.2.277a1.232,1.232,0,0,1-1.477-.923l-.506-2.194a1.232,1.232,0,0,1,.923-1.477l1.374-.317a1.061,1.061,0,0,0-.646,1.243l.556,2.408c.1.454.5,1.095.977.983Z" transform="translate(-307.409 -364.997)" fill="#4da6ff"/>
      <path id="Trazado_1044722" data-name="Trazado 1044722" d="M317.167,235.557a8.57,8.57,0,0,1-.614,4.656L301.9,243.6a13.766,13.766,0,0,1-4.73-5.748c-1.372-2.9-1.646-4.246-2.425-5.343a1.771,1.771,0,0,1,1.16-2.779c1.629-.245,2.613.393,5.556,4.738l-3.343-14.645a1.857,1.857,0,1,1,3.608-.872l1.8,7.8a1.884,1.884,0,1,1,3.672-.848l.154.666a1.884,1.884,0,0,1,1.412-2.26,1.778,1.778,0,0,1,2.26,1.412l.23,1a1.884,1.884,0,0,1,3.672-.848Z" transform="translate(-257.926 -169.496)" fill="#ffd9b3"/>
      <path id="Trazado_1044723" data-name="Trazado 1044723" d="M311.133,226.654v0l.128.558a1.883,1.883,0,0,1,1.148-2.176,2.441,2.441,0,0,0-.2,1.59l1.072,4.641a.526.526,0,1,1-1.025.237l-1.062-4.6Zm-9.676,8.065a.526.526,0,1,0,1.025-.237l-3.37-14.6a2.637,2.637,0,0,1,.333-1.86,1.794,1.794,0,0,0-1.353,2.116l.005.023Zm2.076-7.48,1,4.34a.526.526,0,1,0,1.025-.237l-1.012-4.383a2.742,2.742,0,0,1,.4-1.981,1.884,1.884,0,0,0-1.412,2.26Zm3.821-.176,1,4.34a.526.526,0,1,0,1.025-.237l-1.012-4.383a2.741,2.741,0,0,1,.4-1.981v0a1.884,1.884,0,0,0-1.407,2.258l-.069-.3.007.058ZM298.945,238.9a39.789,39.789,0,0,0-3.094-6.269,4.145,4.145,0,0,1-.726-2.081,1.784,1.784,0,0,0-.375,2.451c.779,1.1,1.053,2.445,2.425,5.343a13.768,13.768,0,0,0,4.73,5.748l1.377-.318A14.042,14.042,0,0,1,298.945,238.9Z" transform="translate(-257.936 -169.987)" fill="#fb9"/>
      <path id="Trazado_1044724" data-name="Trazado 1044724" d="M24.107,35.356l-1.151,1.151a5.293,5.293,0,1,0,.951,1.358l1.354-1.354a.816.816,0,0,0-1.154-1.154Zm-1.3,4.832A3.687,3.687,0,1,1,21.8,37.661l-2.671,2.671L17.8,39a.816.816,0,0,0-1.154,1.154l1.911,1.911a.816.816,0,0,0,1.154,0l2.944-2.944a3.669,3.669,0,0,1,.159,1.069Zm1.3,8.21-1.151,1.151a5.293,5.293,0,1,0,.951,1.358l1.354-1.354A.816.816,0,1,0,24.107,48.4Zm-1.3,4.832A3.687,3.687,0,1,1,21.8,50.7l-2.671,2.672L17.8,52.04a.816.816,0,0,0-1.154,1.154l1.911,1.911a.816.816,0,0,0,1.154,0l2.944-2.944a3.667,3.667,0,0,1,.159,1.068Zm4.783-3.638a.816.816,0,0,1,.816-.816h7.852a.816.816,0,0,1,0,1.633H28.41a.816.816,0,0,1-.816-.817Zm0-9.4a.816.816,0,0,1,.816-.816h15.7a.816.816,0,0,1,0,1.633H28.41a.816.816,0,0,1-.816-.816Zm0-3.638a.816.816,0,0,1,.816-.816h15.7a.816.816,0,0,1,0,1.633H28.41a.816.816,0,0,1-.816-.817Zm16.52,8.093H28.41a.816.816,0,1,1,0-1.633h15.7a.816.816,0,0,1,0,1.633Zm17.4,28.675L61.2,71.893a2.426,2.426,0,0,0-1.459-1.723,8.022,8.022,0,0,0,.583-4.156c0-.017-.006-.034-.01-.051L58.17,56.32a2.69,2.69,0,0,0-1.86-1.994V30.354A4.76,4.76,0,0,0,51.556,25.6H7.192a4.76,4.76,0,0,0-4.755,4.754v32.71a4.76,4.76,0,0,0,4.755,4.755H38.543c.107.243.222.5.346.767a15.553,15.553,0,0,0,4.138,5.5c-.022.031-.046.061-.066.093a2.412,2.412,0,0,0-.323,1.83l.316,1.425a2.424,2.424,0,0,0,2.9,1.845l13.82-3.064a2.428,2.428,0,0,0,1.845-2.9ZM7.192,66.186A3.125,3.125,0,0,1,4.07,63.064V30.354a3.125,3.125,0,0,1,3.122-3.121H51.556a3.125,3.125,0,0,1,3.122,3.122v24a2.666,2.666,0,0,0-.954.569,2.476,2.476,0,0,0-.22-.238V30.278a1.874,1.874,0,0,0-1.872-1.872H7.116a1.874,1.874,0,0,0-1.872,1.872V63.14a1.874,1.874,0,0,0,1.872,1.872H37.4c.062.157.127.323.2.5q.122.315.265.673Zm32.74-15.667,2.357,10.758c-1.372-1.611-2.449-2.134-3.958-1.92a2.535,2.535,0,0,0-1.979,1.511,2.571,2.571,0,0,0,.246,2.511H7.116a.24.24,0,0,1-.239-.239V30.278a.24.24,0,0,1,.239-.239H51.632a.24.24,0,0,1,.239.239V54.024a3.025,3.025,0,0,0-.782.07,2.673,2.673,0,0,0-1.393.8,2.685,2.685,0,0,0-2.409-.655,2.654,2.654,0,0,0-.981.44l-1.188-5.349a2.6,2.6,0,0,0-1.759-2,2.788,2.788,0,0,0-2.679.591A2.644,2.644,0,0,0,39.932,50.519Zm.44,17.381c-.578-1.25-.954-2.21-1.255-2.982a11.43,11.43,0,0,0-1.178-2.47.95.95,0,0,1-.09-.928.907.907,0,0,1,.711-.546c1.058-.15,1.746-.022,4.684,4.4a.816.816,0,0,0,1.477-.627L41.526,50.167a1.018,1.018,0,0,1,.256-1.039,1.144,1.144,0,0,1,1.085-.237.978.978,0,0,1,.657.8l2.6,11.689a.816.816,0,1,0,1.594-.354l-.868-3.912a1.054,1.054,0,1,1,2.055-.471l0,.012,1.144,4.812a.816.816,0,1,0,1.588-.378L50.621,56.82a1.057,1.057,0,0,1,.821-1.132,1.112,1.112,0,0,1,.8.089,1.04,1.04,0,0,1,.454.713l1.134,5.117a.816.816,0,1,0,1.594-.353l-.914-4.123a1.056,1.056,0,1,1,2.061-.456l2.139,9.617a6.849,6.849,0,0,1-.743,3.831L44.484,73.112l-.033.009a13.63,13.63,0,0,1-4.08-5.221Zm19.445,6.371a.79.79,0,0,1-.5.35L45.5,77.684a.8.8,0,0,1-.949-.6l-.316-1.425a.8.8,0,0,1,.6-.949l13.82-3.064a.8.8,0,0,1,.949.6l.316,1.425A.79.79,0,0,1,59.817,74.271ZM38,56.869a.816.816,0,0,1-.816.816H28.41a.816.816,0,1,1,0-1.633h8.777A.816.816,0,0,1,38,56.869Zm-10.41-3.638a.816.816,0,0,1,.816-.816h8.43a.816.816,0,0,1,0,1.633H28.41a.816.816,0,0,1-.816-.817Z" transform="translate(0)"/>
    </g>
  </g>
</svg>
