<svg xmlns="http://www.w3.org/2000/svg" xmlns:xlink="http://www.w3.org/1999/xlink" width="110" height="110" viewBox="0 0 110 110">
  <defs>
    <filter id="Trazado_982547" x="0" y="0" width="110" height="110" filterUnits="userSpaceOnUse">
      <feOffset dy="3" input="SourceAlpha"/>
      <feGaussianBlur stdDeviation="3" result="blur"/>
      <feFlood flood-opacity="0.161"/>
      <feComposite operator="in" in2="blur"/>
      <feComposite in="SourceGraphic"/>
    </filter>
  </defs>
  <g id="Grupo_1200702" data-name="Grupo 1200702" transform="translate(-678.301 -4859.847)">
    <g id="Grupo_1199858" data-name="Grupo 1199858" transform="translate(0 -2891.153)">
      <g id="Grupo_1173087" data-name="Grupo 1173087" transform="translate(687.301 7757)">
        <g id="Grupo_1172182" data-name="Grupo 1172182" transform="translate(0)">
          <g id="Grupo_1171416" data-name="Grupo 1171416">
            <g id="Grupo_1163803" data-name="Grupo 1163803">
              <g id="Grupo_1163015" data-name="Grupo 1163015">
                <g id="Grupo_1157017" data-name="Grupo 1157017" transform="translate(0 0)">
                  <g id="Grupo_1155793" data-name="Grupo 1155793">
                    <g id="Grupo_1154704" data-name="Grupo 1154704">
                      <g id="Grupo_1150790" data-name="Grupo 1150790">
                        <g id="Grupo_1154214" data-name="Grupo 1154214">
                          <g id="Grupo_1152583" data-name="Grupo 1152583">
                            <g id="Grupo_1146973" data-name="Grupo 1146973" transform="translate(0 0)">
                              <g id="Grupo_1146954" data-name="Grupo 1146954">
                                <g transform="matrix(1, 0, 0, 1, -9, -6)" filter="url(#Trazado_982547)">
                                  <g id="Trazado_982547-2" data-name="Trazado 982547" transform="translate(9 6)" fill="#f2f7f5">
                                    <path d="M 46 90.49987030029297 C 39.99187850952148 90.49987030029297 34.16426849365234 89.32350921630859 28.67905426025391 87.00345611572266 C 23.38019943237305 84.76224517822266 18.62104034423828 81.55341339111328 14.53374671936035 77.46613311767578 C 10.44646644592285 73.37885284423828 7.237639904022217 68.61969757080078 4.996413230895996 63.32085418701172 C 2.676359891891479 57.83565521240234 1.5 52.008056640625 1.5 45.99993515014648 C 1.5 39.99181365966797 2.676359891891479 34.16421508789062 4.996413230895996 28.67901420593262 C 7.237639904022217 23.38017463684082 10.44646644592285 18.62101554870605 14.53374671936035 14.53373527526855 C 18.62104034423828 10.44645500183105 23.38019943237305 7.23762845993042 28.67905426025391 4.996415138244629 C 34.16426849365234 2.676361799240112 39.99187850952148 1.500001788139343 46 1.500001788139343 C 52.00812149047852 1.500001788139343 57.83573150634766 2.676361799240112 63.32094573974609 4.996415138244629 C 68.61979675292969 7.23762845993042 73.37895965576172 10.44645500183105 77.46625518798828 14.53373527526855 C 81.55353546142578 18.62101554870605 84.76235961914062 23.38017463684082 87.00358581542969 28.67901420593262 C 89.32363891601562 34.16421508789062 90.5 39.99181365966797 90.5 45.99993515014648 C 90.5 52.008056640625 89.32363891601562 57.83565521240234 87.00358581542969 63.32085418701172 C 84.76235961914062 68.61969757080078 81.55353546142578 73.37885284423828 77.46625518798828 77.46613311767578 C 73.37895965576172 81.55341339111328 68.61979675292969 84.76224517822266 63.32094573974609 87.00345611572266 C 57.83573150634766 89.32350921630859 52.00812149047852 90.49987030029297 46 90.49987030029297 Z" stroke="none"/>
                                    <path d="M 46 2.999992370605469 C 40.1937141418457 2.999992370605469 34.56269836425781 4.136489868164062 29.26337051391602 6.377906799316406 C 24.14332580566406 8.543502807617188 19.54441070556641 11.64437866210938 15.59439849853516 15.59437561035156 C 11.64440155029297 19.54439544677734 8.54351806640625 24.14329528808594 6.377914428710938 29.26333618164062 C 4.136497497558594 34.56264877319336 3 40.19366455078125 3 45.99993515014648 C 3 51.80620574951172 4.136497497558594 57.43720626831055 6.377914428710938 62.73651885986328 C 8.54351806640625 67.8565673828125 11.64440155029297 72.45545959472656 15.59439849853516 76.40547943115234 C 19.54441070556641 80.35547637939453 24.14332580566406 83.45635223388672 29.26337051391602 85.6219482421875 C 34.56269836425781 87.86336517333984 40.1937141418457 88.99986267089844 46 88.99986267089844 C 51.8062858581543 88.99986267089844 57.43730163574219 87.86336517333984 62.73661422729492 85.6219482421875 C 67.85667419433594 83.45635223388672 72.45557403564453 80.35547637939453 76.40558624267578 76.40547943115234 C 80.35559844970703 72.45545959472656 83.45647430419922 67.8565673828125 85.6220703125 62.73651885986328 C 87.86350250244141 57.43720626831055 89 51.80620574951172 89 45.99993515014648 C 89 40.19366455078125 87.86350250244141 34.56264877319336 85.6220703125 29.26333618164062 C 83.45647430419922 24.14329528808594 80.35559844970703 19.54439544677734 76.40558624267578 15.59437561035156 C 72.45557403564453 11.64437866210938 67.85667419433594 8.543502807617188 62.73661422729492 6.377906799316406 C 57.43730163574219 4.136489868164062 51.8062858581543 2.999992370605469 46 2.999992370605469 M 46 -7.62939453125e-06 C 71.40509033203125 -7.62939453125e-06 92 20.59486389160156 92 45.99993515014648 C 92 71.40499114990234 71.40509033203125 91.99986267089844 46 91.99986267089844 C 20.59490203857422 91.99986267089844 0 71.40499114990234 0 45.99993515014648 C 0 20.59486389160156 20.59490203857422 -7.62939453125e-06 46 -7.62939453125e-06 Z" stroke="none" fill="#88bba9"/>
                                  </g>
                                </g>
                              </g>
                            </g>
                          </g>
                        </g>
                      </g>
                    </g>
                  </g>
                </g>
              </g>
            </g>
          </g>
        </g>
      </g>
    </g>
    <g id="Layer_1" transform="translate(691.087 4879.701)">
      <g id="Grupo_1200701" data-name="Grupo 1200701" transform="translate(21.315 4.56)">
        <g id="Grupo_1200700" data-name="Grupo 1200700" transform="translate(0.559 0.559)">
          <g id="Grupo_1200693" data-name="Grupo 1200693">
            <g id="Grupo_1200691" data-name="Grupo 1200691" transform="translate(0 0)">
              <path id="Trazado_1044725" data-name="Trazado 1044725" d="M54.558,47.444a.776.776,0,0,0,0,1.1l7.647,7.647v4.23H23.815V7.73a.671.671,0,0,1,.67-.67H52.4l9.809,9.809V49.654l-4.382-4.382a.773.773,0,0,0-1.093,0Z" transform="translate(-23.815 -7.06)" fill="#efefef"/>
            </g>
            <g id="Grupo_1200692" data-name="Grupo 1200692" transform="translate(28.583)">
              <path id="Trazado_1044726" data-name="Trazado 1044726" d="M161.524,16.869h-9.138a.67.67,0,0,1-.67-.67V7.06Z" transform="translate(-151.716 -7.06)" fill="#7c7b7a"/>
            </g>
          </g>
          <g id="Grupo_1200697" data-name="Grupo 1200697" transform="translate(5.717 13.195)">
            <g id="Grupo_1200696" data-name="Grupo 1200696">
              <g id="Grupo_1200694" data-name="Grupo 1200694">
                <circle id="Elipse_12156" data-name="Elipse 12156" cx="13.684" cy="13.684" r="13.684" fill="#fc5d3d"/>
              </g>
              <g id="Grupo_1200695" data-name="Grupo 1200695" transform="translate(3.276 3.276)">
                <circle id="Elipse_12157" data-name="Elipse 12157" cx="10.408" cy="10.408" r="10.408" fill="#fff"/>
              </g>
            </g>
            <path id="Trazado_1044727" data-name="Trazado 1044727" d="M175.708,189.108l-7.462-7.462-4.382-4.382a.773.773,0,0,0-1.093,0l-2.172,2.172a.776.776,0,0,0,0,1.1l7.647,7.647,4.253,4.253a2.31,2.31,0,0,0,3.312-.049A2.359,2.359,0,0,0,175.708,189.108Z" transform="translate(-135.572 -152.247)" fill="#fc5d3d"/>
          </g>
          <g id="Grupo_1200698" data-name="Grupo 1200698" transform="translate(14.005 21.482)">
            <path id="Trazado_1044728" data-name="Trazado 1044728" d="M96.844,111.46l-2.875-2.874,2.875-2.875a1.477,1.477,0,1,0-2.09-2.088L91.88,106.5l-2.875-2.874a1.476,1.476,0,0,0-2.088,2.088l2.874,2.875-2.874,2.874a1.477,1.477,0,0,0,2.088,2.09l2.875-2.875,2.874,2.875a1.478,1.478,0,1,0,2.09-2.09Z" transform="translate(-86.484 -103.189)" fill="#fc5d3d"/>
          </g>
          <g id="Grupo_1200699" data-name="Grupo 1200699" transform="translate(2.771 2.885)">
            <path id="Trazado_1044729" data-name="Trazado 1044729" d="M68.058,67.558H66.284a.559.559,0,1,1,0-1.117h1.774a.559.559,0,1,1,0,1.117Zm-4.009,0H36.772A.559.559,0,0,1,36.213,67V20.53a.559.559,0,0,1,1.117,0V66.441H64.049a.559.559,0,1,1,0,1.117Z" transform="translate(-36.213 -19.971)" fill="#fff"/>
          </g>
        </g>
        <circle id="Elipse_12158" data-name="Elipse 12158" cx="0.559" cy="0.559" r="0.559" transform="translate(0 39.204)"/>
        <path id="Trazado_1044730" data-name="Trazado 1044730" d="M68.122,54.779l-7.3-7.3V14.927a.591.591,0,0,0-.163-.4L50.852,4.723a.586.586,0,0,0-.4-.163H22.544a1.231,1.231,0,0,0-1.229,1.229v36.3a.559.559,0,0,0,1.117,0V5.789a.114.114,0,0,1,.112-.112H49.9v8.58a1.231,1.231,0,0,0,1.229,1.229h8.579V46.363l-3.428-3.428a1.336,1.336,0,0,0-1.884,0l-.691.692-1.966-1.966a14.261,14.261,0,1,0-.79.79l1.967,1.967-.691.692a1.328,1.328,0,0,0,0,1.882l2.595,2.6a.575.575,0,0,0,.791,0,.558.558,0,0,0,0-.789l-2.6-2.6a.215.215,0,0,1,0-.3l2.174-2.172a.212.212,0,0,1,.3,0L67.33,55.57a1.8,1.8,0,0,1,.092,2.494,1.748,1.748,0,0,1-2.51.038l-6.146-6.143a.568.568,0,0,0-.789,0,.556.556,0,0,0,0,.789v0l1.727,1.727v3.439H22.432V46.558a.559.559,0,0,0-1.117,0V58.476a.564.564,0,0,0,.559.561H60.264a.56.56,0,0,0,.559-.561V55.595l3.3,3.3a2.872,2.872,0,0,0,4.114-.06,2.924,2.924,0,0,0-.114-4.054Zm-17-40.411a.112.112,0,0,1-.112-.112V6.468l7.9,7.9ZM41.274,45.123A13.126,13.126,0,1,1,54.4,32,13.12,13.12,0,0,1,41.274,45.123Z" transform="translate(-21.315 -4.56)"/>
        <path id="Trazado_1044731" data-name="Trazado 1044731" d="M139.217,90.242a.559.559,0,0,0-.065-.787.57.57,0,0,0-.787.065.558.558,0,0,0,.852.722Z" transform="translate(-112.105 -70.384)"/>
        <path id="Trazado_1044732" data-name="Trazado 1044732" d="M83.491,89.228a10.926,10.926,0,0,0-2.259-6.666.574.574,0,0,0-.784-.105.563.563,0,0,0-.1.784,9.833,9.833,0,1,1-3.2-2.713.559.559,0,0,0,.525-.988,10.968,10.968,0,1,0,5.822,9.688Z" transform="translate(-52.564 -61.79)"/>
        <path id="Trazado_1044733" data-name="Trazado 1044733" d="M178.523,209.826a.56.56,0,0,0,0-.789.568.568,0,0,0-.789,0,.558.558,0,0,0,.789.789Z" transform="translate(-142.651 -163.218)"/>
        <path id="Trazado_1044734" data-name="Trazado 1044734" d="M95.3,101.286a2.034,2.034,0,0,0-2.88,0l-2.479,2.479-2.479-2.477a2.035,2.035,0,1,0-2.879,2.876l2.479,2.48-2.479,2.479A2.035,2.035,0,1,0,87.457,112l2.48-2.48L92.417,112a2.036,2.036,0,0,0,2.88-2.879h0l-2.48-2.479,2.48-2.48A2.036,2.036,0,0,0,95.3,101.286Zm-.79,2.088-2.875,2.875a.559.559,0,0,0,0,.79l2.874,2.873a.919.919,0,1,1-1.3,1.3l-2.874-2.875a.559.559,0,0,0-.79,0l-2.877,2.877a.918.918,0,0,1-1.3-1.3l2.874-2.874a.558.558,0,0,0,0-.79l-2.875-2.876a.917.917,0,0,1,1.3-1.3l2.875,2.874a.559.559,0,0,0,.79,0l2.874-2.874a.918.918,0,0,1,1.3,1.3Z" transform="translate(-69.977 -79.206)"/>
        <path id="Trazado_1044735" data-name="Trazado 1044735" d="M77.719,211.607a.559.559,0,0,0,0-1.117H53.434a.559.559,0,0,0,0,1.117Z" transform="translate(-45.822 -164.47)"/>
        <path id="Trazado_1044736" data-name="Trazado 1044736" d="M65.781,41.927a.559.559,0,0,0,0-1.117H53.434a.559.559,0,1,0,0,1.117Z" transform="translate(-45.822 -32.709)"/>
      </g>
    </g>
  </g>
</svg>
