<svg xmlns="http://www.w3.org/2000/svg" xmlns:xlink="http://www.w3.org/1999/xlink" width="110" height="110" viewBox="0 0 110 110">
  <defs>
    <filter id="Trazado_982547" x="0" y="0" width="110" height="110" filterUnits="userSpaceOnUse">
      <feOffset dy="3" input="SourceAlpha"/>
      <feGaussianBlur stdDeviation="3" result="blur"/>
      <feFlood flood-opacity="0.161"/>
      <feComposite operator="in" in2="blur"/>
      <feComposite in="SourceGraphic"/>
    </filter>
  </defs>
  <g id="Grupo_1200715" data-name="Grupo 1200715" transform="translate(-2341 -5132.847)">
    <g id="Grupo_1199861" data-name="Grupo 1199861" transform="translate(1977.7 -2617.153)">
      <g id="Grupo_1173080" data-name="Grupo 1173080" transform="translate(372.301 7756)">
        <g id="Grupo_1172181" data-name="Grupo 1172181" transform="translate(0)">
          <g id="Grupo_1171414" data-name="Grupo 1171414">
            <g id="Grupo_1163801" data-name="Grupo 1163801">
              <g id="Grupo_1163014" data-name="Grupo 1163014">
                <g id="Grupo_1157015" data-name="Grupo 1157015" transform="translate(0 0)">
                  <g id="Grupo_1155792" data-name="Grupo 1155792">
                    <g id="Grupo_1154703" data-name="Grupo 1154703">
                      <g id="Grupo_1150789" data-name="Grupo 1150789">
                        <g id="Grupo_1154212" data-name="Grupo 1154212">
                          <g id="Grupo_1152583" data-name="Grupo 1152583">
                            <g id="Grupo_1146973" data-name="Grupo 1146973" transform="translate(0 0)">
                              <g id="Grupo_1146954" data-name="Grupo 1146954">
                                <g transform="matrix(1, 0, 0, 1, -9, -6)" filter="url(#Trazado_982547)">
                                  <g id="Trazado_982547-2" data-name="Trazado 982547" transform="translate(9 6)" fill="#f2f7f5">
                                    <path d="M 46 90.49987030029297 C 39.99187850952148 90.49987030029297 34.16426849365234 89.32350921630859 28.67905426025391 87.00345611572266 C 23.38019943237305 84.76224517822266 18.62104034423828 81.55341339111328 14.53374671936035 77.46613311767578 C 10.44646644592285 73.37885284423828 7.237639904022217 68.61969757080078 4.996413230895996 63.32085418701172 C 2.676359891891479 57.83565521240234 1.5 52.008056640625 1.5 45.99993515014648 C 1.5 39.99181365966797 2.676359891891479 34.16421508789062 4.996413230895996 28.67901420593262 C 7.237639904022217 23.38017463684082 10.44646644592285 18.62101554870605 14.53374671936035 14.53373527526855 C 18.62104034423828 10.44645500183105 23.38019943237305 7.23762845993042 28.67905426025391 4.996415138244629 C 34.16426849365234 2.676361799240112 39.99187850952148 1.500001788139343 46 1.500001788139343 C 52.00812149047852 1.500001788139343 57.83573150634766 2.676361799240112 63.32094573974609 4.996415138244629 C 68.61979675292969 7.23762845993042 73.37895965576172 10.44645500183105 77.46625518798828 14.53373527526855 C 81.55353546142578 18.62101554870605 84.76235961914062 23.38017463684082 87.00358581542969 28.67901420593262 C 89.32363891601562 34.16421508789062 90.5 39.99181365966797 90.5 45.99993515014648 C 90.5 52.008056640625 89.32363891601562 57.83565521240234 87.00358581542969 63.32085418701172 C 84.76235961914062 68.61969757080078 81.55353546142578 73.37885284423828 77.46625518798828 77.46613311767578 C 73.37895965576172 81.55341339111328 68.61979675292969 84.76224517822266 63.32094573974609 87.00345611572266 C 57.83573150634766 89.32350921630859 52.00812149047852 90.49987030029297 46 90.49987030029297 Z" stroke="none"/>
                                    <path d="M 46 2.999992370605469 C 40.1937141418457 2.999992370605469 34.56269836425781 4.136489868164062 29.26337051391602 6.377906799316406 C 24.14332580566406 8.543502807617188 19.54441070556641 11.64437866210938 15.59439849853516 15.59437561035156 C 11.64440155029297 19.54439544677734 8.54351806640625 24.14329528808594 6.377914428710938 29.26333618164062 C 4.136497497558594 34.56264877319336 3 40.19366455078125 3 45.99993515014648 C 3 51.80620574951172 4.136497497558594 57.43720626831055 6.377914428710938 62.73651885986328 C 8.54351806640625 67.8565673828125 11.64440155029297 72.45545959472656 15.59439849853516 76.40547943115234 C 19.54441070556641 80.35547637939453 24.14332580566406 83.45635223388672 29.26337051391602 85.6219482421875 C 34.56269836425781 87.86336517333984 40.1937141418457 88.99986267089844 46 88.99986267089844 C 51.8062858581543 88.99986267089844 57.43730163574219 87.86336517333984 62.73661422729492 85.6219482421875 C 67.85667419433594 83.45635223388672 72.45557403564453 80.35547637939453 76.40558624267578 76.40547943115234 C 80.35559844970703 72.45545959472656 83.45647430419922 67.8565673828125 85.6220703125 62.73651885986328 C 87.86350250244141 57.43720626831055 89 51.80620574951172 89 45.99993515014648 C 89 40.19366455078125 87.86350250244141 34.56264877319336 85.6220703125 29.26333618164062 C 83.45647430419922 24.14329528808594 80.35559844970703 19.54439544677734 76.40558624267578 15.59437561035156 C 72.45557403564453 11.64437866210938 67.85667419433594 8.543502807617188 62.73661422729492 6.377906799316406 C 57.43730163574219 4.136489868164062 51.8062858581543 2.999992370605469 46 2.999992370605469 M 46 -7.62939453125e-06 C 71.40509033203125 -7.62939453125e-06 92 20.59486389160156 92 45.99993515014648 C 92 71.40499114990234 71.40509033203125 91.99986267089844 46 91.99986267089844 C 20.59490203857422 91.99986267089844 0 71.40499114990234 0 45.99993515014648 C 0 20.59486389160156 20.59490203857422 -7.62939453125e-06 46 -7.62939453125e-06 Z" stroke="none" fill="#88bba9"/>
                                  </g>
                                </g>
                              </g>
                            </g>
                          </g>
                        </g>
                      </g>
                    </g>
                  </g>
                </g>
              </g>
            </g>
          </g>
        </g>
      </g>
    </g>
    <g id="reloj_1_" data-name="reloj (1)" transform="translate(2367.058 5138.13)">
      <g id="Grupo_1200713" data-name="Grupo 1200713" transform="translate(0.848 20.888)">
        <path id="Trazado_1044754" data-name="Trazado 1044754" d="M30.157,27.54H9.313A1.813,1.813,0,0,0,7.5,29.353v1.813H31.969V29.353A1.813,1.813,0,0,0,30.157,27.54Z" transform="translate(-7.5 -27.54)" fill="#dfbdf0"/>
        <path id="Trazado_1044755" data-name="Trazado 1044755" d="M9.313,27.54h.906v3.625H7.5V29.353A1.813,1.813,0,0,1,9.313,27.54Z" transform="translate(-7.5 -27.54)" fill="#cbb0f2"/>
        <path id="Trazado_1044756" data-name="Trazado 1044756" d="M30.157,74.442H9.313A1.813,1.813,0,0,1,7.5,72.629V59.605H31.969V72.629A1.812,1.812,0,0,1,30.157,74.442Z" transform="translate(-7.5 -55.98)" fill="#fff"/>
        <path id="Trazado_1044757" data-name="Trazado 1044757" d="M12.031,73.2a1.813,1.813,0,0,1-1.813-1.813V59.605H7.5v14.5a1.813,1.813,0,0,0,1.813,1.813H30.157a1.813,1.813,0,0,0,1.813-1.813V73.2Z" transform="translate(-7.5 -55.98)" fill="#eceaec"/>
        <path id="Trazado_1044758" data-name="Trazado 1044758" d="M278.657,99.685H257.813A1.813,1.813,0,0,0,256,101.5v1.813h24.469V101.5A1.813,1.813,0,0,0,278.657,99.685Z" transform="translate(-227.905 -91.529)" fill="#fbbd80"/>
        <g id="Grupo_1200711" data-name="Grupo 1200711" transform="translate(3.625 29.907)">
          <path id="Trazado_1044759" data-name="Trazado 1044759" d="M62.222,337.731H41.378a1.813,1.813,0,0,1-1.813-1.813V324.137H64.034v11.782A1.813,1.813,0,0,1,62.222,337.731Z" transform="translate(-39.565 -320.512)" fill="#fff"/>
          <path id="Trazado_1044760" data-name="Trazado 1044760" d="M44.1,335.92a1.813,1.813,0,0,1-1.813-1.813v-9.969H39.565v12.688a1.813,1.813,0,0,0,1.813,1.813H62.222a1.813,1.813,0,0,0,1.813-1.812v-.906H44.1Z" transform="translate(-39.565 -320.513)" fill="#eceaec"/>
          <path id="Trazado_1044761" data-name="Trazado 1044761" d="M62.222,292.073H41.378a1.813,1.813,0,0,0-1.813,1.813V295.7H64.034v-1.812A1.813,1.813,0,0,0,62.222,292.073Z" transform="translate(-39.565 -292.073)" fill="#8ceea1"/>
          <path id="Trazado_1044762" data-name="Trazado 1044762" d="M41.378,292.073h.906V295.7H39.565v-1.813A1.812,1.812,0,0,1,41.378,292.073Z" transform="translate(-39.565 -292.073)" fill="#4ce1a1"/>
        </g>
        <g id="Grupo_1200712" data-name="Grupo 1200712" transform="translate(28.095 11.782)">
          <path id="Trazado_1044763" data-name="Trazado 1044763" d="M278.657,146.25H257.813A1.813,1.813,0,0,1,256,144.438V131.75h24.469v12.688A1.812,1.812,0,0,1,278.657,146.25Z" transform="translate(-256 -131.75)" fill="#fff"/>
          <path id="Trazado_1044764" data-name="Trazado 1044764" d="M256,235.96v.906a1.813,1.813,0,0,0,1.813,1.813h20.844a1.813,1.813,0,0,0,1.813-1.813v-.906Z" transform="translate(-256 -224.178)" fill="#eceaec"/>
        </g>
        <circle id="Elipse_12163" data-name="Elipse 12163" cx="16.313" cy="16.313" r="16.313" transform="translate(11.782 11.782)" fill="#c9c5c9"/>
        <path id="Trazado_1044765" data-name="Trazado 1044765" d="M133.461,177.737a16.288,16.288,0,0,1-13.917-24.792,16.3,16.3,0,1,0,22.4,22.4A16.21,16.21,0,0,1,133.461,177.737Z" transform="translate(-99.928 -138.767)" fill="#b8b2b8"/>
        <circle id="Elipse_12164" data-name="Elipse 12164" cx="12.688" cy="12.688" r="12.688" transform="translate(15.407 15.407)" fill="#eceaec"/>
        <circle id="Elipse_12165" data-name="Elipse 12165" cx="9.969" cy="9.969" r="9.969" transform="translate(18.126 18.126)" fill="#fff"/>
        <circle id="Elipse_12166" data-name="Elipse 12166" cx="1.813" cy="1.813" r="1.813" transform="translate(26.282 26.282)" fill="#887f88"/>
        <path id="Trazado_1044766" data-name="Trazado 1044766" d="M310.722,356.482H289.878a1.813,1.813,0,0,1-1.812-1.812v-14.5h24.469v14.5A1.813,1.813,0,0,1,310.722,356.482Z" transform="translate(-256.345 -304.824)" fill="#fff"/>
        <path id="Trazado_1044767" data-name="Trazado 1044767" d="M292.6,353.763a1.813,1.813,0,0,1-1.813-1.812V340.169h-2.719v14.5a1.813,1.813,0,0,0,1.813,1.813h20.844a1.813,1.813,0,0,0,1.813-1.813v-.906Z" transform="translate(-256.345 -304.824)" fill="#eceaec"/>
        <path id="Trazado_1044768" data-name="Trazado 1044768" d="M310.722,308.105H289.878a1.813,1.813,0,0,0-1.812,1.813v1.813h24.469v-1.813A1.813,1.813,0,0,0,310.722,308.105Z" transform="translate(-256.345 -276.385)" fill="#ff5f7a"/>
        <path id="Trazado_1044769" data-name="Trazado 1044769" d="M289.878,308.105h.906v3.625h-2.719v-1.813A1.813,1.813,0,0,1,289.878,308.105Z" transform="translate(-256.345 -276.385)" fill="#fb4455"/>
      </g>
      <g id="Grupo_1200714" data-name="Grupo 1200714" transform="translate(0 20.04)">
        <path id="Trazado_1044770" data-name="Trazado 1044770" d="M206.69,224.069a2.643,2.643,0,0,0-1.183.278l-3.655-3.655a.848.848,0,0,0-1.2,1.2l3.655,3.655a2.66,2.66,0,1,0,4.9,2.031h6.542a.848.848,0,0,0,0-1.7h-6.542a2.665,2.665,0,0,0-2.521-1.813Zm0,3.625a.965.965,0,1,1,.965-.965A.966.966,0,0,1,206.69,227.694Z" transform="translate(-177.747 -197.787)"/>
        <path id="Trazado_1044771" data-name="Trazado 1044771" d="M138.068,169.108a11.825,11.825,0,0,1,18.886-8.668.848.848,0,1,0,1.017-1.357,13.52,13.52,0,0,0-18.927,18.927.848.848,0,1,0,1.357-1.017A11.85,11.85,0,0,1,138.068,169.108Z" transform="translate(-120.931 -140.971)"/>
        <path id="Trazado_1044772" data-name="Trazado 1044772" d="M250.2,190.133v-.906a.848.848,0,1,0-1.7,0v.906a.848.848,0,1,0,1.7,0Z" transform="translate(-220.405 -169.347)"/>
        <path id="Trazado_1044773" data-name="Trazado 1044773" d="M249.348,340.686a.848.848,0,0,0-.848.848v.906a.848.848,0,1,0,1.7,0v-.906A.848.848,0,0,0,249.348,340.686Z" transform="translate(-220.405 -304.435)"/>
        <path id="Trazado_1044774" data-name="Trazado 1044774" d="M170.941,269.388a.848.848,0,0,0-.848-.848h-.906a.848.848,0,1,0,0,1.7h.906A.848.848,0,0,0,170.941,269.388Z" transform="translate(-149.307 -240.445)"/>
        <path id="Trazado_1044775" data-name="Trazado 1044775" d="M147.652,144.188h-9.346a17.153,17.153,0,1,0-14.159,14.159v4.815a2.663,2.663,0,0,0,2.66,2.66h20.844a2.663,2.663,0,0,0,2.66-2.66V146.849A2.663,2.663,0,0,0,147.652,144.188Zm.965,2.661v.965H125.843v-.965a.966.966,0,0,1,.965-.965h20.844A.966.966,0,0,1,148.617,146.849ZM121.37,156.876a15.458,15.458,0,1,1,15.215-12.688h-1.971a13.6,13.6,0,0,0-2.414-10.874.848.848,0,1,0-1.357,1.017,11.9,11.9,0,0,1,2.034,9.857h-6.069a2.664,2.664,0,0,0-2.66,2.661v6.069a11.9,11.9,0,0,1-9.857-2.034.848.848,0,0,0-1.017,1.357,13.585,13.585,0,0,0,10.874,2.413v1.972a15.624,15.624,0,0,1-2.777.25Zm26.282,7.25H126.808a.966.966,0,0,1-.965-.965V149.509h22.774v13.653A.966.966,0,0,1,147.652,164.126Z" transform="translate(-92.427 -112.468)"/>
        <path id="Trazado_1044776" data-name="Trazado 1044776" d="M273.4,93.882h19.938a.966.966,0,0,1,.965.965v.965h-11.84a.848.848,0,1,0,0,1.7H294.3v11.84a.966.966,0,0,1-.965.965h-2.719a.848.848,0,1,0,0,1.7h2.719a2.663,2.663,0,0,0,2.66-2.66v-14.5a2.663,2.663,0,0,0-2.66-2.66H273.4a.848.848,0,1,0,0,1.7Z" transform="translate(-241.735 -84.029)"/>
        <path id="Trazado_1044777" data-name="Trazado 1044777" d="M343.1,372.75H329.509a.848.848,0,0,0,0,1.7H343.1a.848.848,0,0,0,0-1.7Z" transform="translate(-291.504 -332.874)"/>
        <path id="Trazado_1044778" data-name="Trazado 1044778" d="M343.1,436.879H329.509a.848.848,0,0,0,0,1.7H343.1a.848.848,0,1,0,0-1.7Z" transform="translate(-291.504 -389.752)"/>
        <path id="Trazado_1044779" data-name="Trazado 1044779" d="M361.714,406.51a.848.848,0,0,0,0-1.7h-8.157a.848.848,0,1,0,0,1.7Z" transform="translate(-312.833 -361.313)"/>
        <path id="Trazado_1044780" data-name="Trazado 1044780" d="M63.387,93.034a.848.848,0,0,0-.848-.848H48.945a.848.848,0,1,0,0,1.7H62.539A.848.848,0,0,0,63.387,93.034Z" transform="translate(-42.659 -84.029)"/>
        <path id="Trazado_1044781" data-name="Trazado 1044781" d="M48.945,156.314a.848.848,0,0,0,0,1.7H56.2a.848.848,0,0,0,0-1.7Z" transform="translate(-42.659 -140.907)"/>
        <path id="Trazado_1044782" data-name="Trazado 1044782" d="M82,125.1a.848.848,0,0,0-.848-.848H72.993a.848.848,0,0,0,0,1.7H81.15A.848.848,0,0,0,82,125.1Z" transform="translate(-63.989 -112.468)"/>
        <path id="Trazado_1044783" data-name="Trazado 1044783" d="M11.665,40.826a.848.848,0,0,0-.848-.848H2.66a.966.966,0,0,1-.965-.965V25.361H24.47v3.684a.848.848,0,1,0,1.7,0V22.7a2.663,2.663,0,0,0-2.66-2.66H2.66A2.664,2.664,0,0,0,0,22.7V39.014a2.664,2.664,0,0,0,2.66,2.661h8.156a.848.848,0,0,0,.848-.848Zm-9-19.09H23.5a.966.966,0,0,1,.965.965v.965H1.7V22.7a.966.966,0,0,1,.965-.965Z" transform="translate(0 -20.04)"/>
        <path id="Trazado_1044784" data-name="Trazado 1044784" d="M398.112,165.179a.848.848,0,0,0-.848-.848h-3.625a.848.848,0,1,0,0,1.7h3.625A.848.848,0,0,0,398.112,165.179Z" transform="translate(-348.383 -148.018)"/>
        <path id="Trazado_1044785" data-name="Trazado 1044785" d="M414.222,198.092h1.3a.848.848,0,0,0,0-1.7h-1.3a.848.848,0,0,0,0,1.7Z" transform="translate(-366.639 -176.458)"/>
        <path id="Trazado_1044786" data-name="Trazado 1044786" d="M54.664,302.7H34.725a.966.966,0,0,1-.965-.965v-11.84h4.59a.848.848,0,0,0,0-1.7h-4.59v-.965a.966.966,0,0,1,.965-.965h2.719a.848.848,0,0,0,0-1.7H34.725a2.663,2.663,0,0,0-2.66,2.66v14.5a2.664,2.664,0,0,0,2.66,2.661H54.664a.848.848,0,1,0,0-1.7Z" transform="translate(-28.44 -254.665)"/>
        <path id="Trazado_1044787" data-name="Trazado 1044787" d="M72.145,397.646a.848.848,0,0,0,.848.848h5.438a.848.848,0,0,0,0-1.7H72.993A.848.848,0,0,0,72.145,397.646Z" transform="translate(-63.989 -354.203)"/>
        <path id="Trazado_1044788" data-name="Trazado 1044788" d="M75.712,364.734H72.993a.848.848,0,1,0,0,1.7h2.719a.848.848,0,0,0,0-1.7Z" transform="translate(-63.989 -325.764)"/>
      </g>
    </g>
  </g>
</svg>
