<svg xmlns="http://www.w3.org/2000/svg" width="40.774" height="41.735" viewBox="0 0 40.774 41.735">
  <path id="iteration" d="M22.381,12.744a3.927,3.927,0,1,0,3.928,3.928A3.933,3.933,0,0,0,22.381,12.744Zm0,6.676a2.749,2.749,0,1,1,2.75-2.748A2.752,2.752,0,0,1,22.381,19.42Zm26.69,19.489a5.414,5.414,0,1,0,5.414,5.414A5.42,5.42,0,0,0,49.071,38.909Zm0,9.65a4.236,4.236,0,1,1,4.236-4.236A4.241,4.241,0,0,1,49.071,48.559ZM33.388,40.278H23.063a1.538,1.538,0,0,0-1.536,1.536v1.92h-.313a6.324,6.324,0,1,1,0-12.649h6.247v1.92A1.538,1.538,0,0,0,29,34.541H39.2a1.538,1.538,0,0,0,1.536-1.536V27.987A1.536,1.536,0,0,0,39.2,26.453H29a1.537,1.537,0,0,0-1.536,1.534v1.92H21.215a7.5,7.5,0,1,0,0,15h.313v1.92a1.538,1.538,0,0,0,1.536,1.536H33.388a1.536,1.536,0,0,0,1.534-1.536V41.814A1.536,1.536,0,0,0,33.388,40.278ZM28.64,27.987A.357.357,0,0,1,29,27.631H39.2a.357.357,0,0,1,.358.356v5.018a.358.358,0,0,1-.358.358H29a.358.358,0,0,1-.358-.358Zm5.1,18.845a.362.362,0,0,1-.356.358H23.063a.363.363,0,0,1-.358-.358V41.814a.363.363,0,0,1,.358-.358H33.388a.362.362,0,0,1,.356.358ZM44.223,32.265a.589.589,0,0,0,0-.833l-.347-.347h3.105a7.5,7.5,0,1,0,0-15h-.313v-1.92a1.538,1.538,0,0,0-1.536-1.536h-10.2A1.536,1.536,0,0,0,33.4,14.163v1.92H31.049v-.451a.589.589,0,0,0-.342-.535l-1.41-.65-.452-1.094.536-1.459a.589.589,0,0,0-.136-.62L27.775,9.806a.589.589,0,0,0-.62-.136l-1.458.538-1.092-.453-.653-1.411A.589.589,0,0,0,23.418,8H21.341a.589.589,0,0,0-.535.342l-.65,1.41-1.093.453L17.6,9.67a.589.589,0,0,0-.62.136l-1.469,1.469a.589.589,0,0,0-.136.62l.538,1.458-.451,1.093-1.412.65a.589.589,0,0,0-.343.535V17.71a.589.589,0,0,0,.342.535l1.413.652.451,1.091-.538,1.458a.589.589,0,0,0,.136.62l1.469,1.469a.589.589,0,0,0,.62.136l1.458-.538,1.093.453.65,1.41a.589.589,0,0,0,.535.342h2.077A.589.589,0,0,0,23.953,25l.653-1.411,1.092-.453,1.458.538a.589.589,0,0,0,.62-.136l1.469-1.469a.589.589,0,0,0,.136-.62l-.536-1.459L29.3,18.9l1.411-.652a.589.589,0,0,0,.342-.535v-.448H33.4v1.92a1.535,1.535,0,0,0,1.534,1.534h10.2a1.537,1.537,0,0,0,1.536-1.534v-1.92h.313a6.323,6.323,0,1,1,0,12.646h-3.1l.345-.344a.589.589,0,0,0-.832-.834l-1.352,1.35a.589.589,0,0,0,0,.833l1.352,1.352a.589.589,0,0,0,.833,0ZM29.871,17.333l-1.278.591a.589.589,0,0,0-.3.309l-.627,1.517a.589.589,0,0,0-.009.428l.485,1.321-.936.936-1.321-.487a.589.589,0,0,0-.43.009l-1.517.63a.589.589,0,0,0-.309.3l-.591,1.278H21.718l-.589-1.277a.589.589,0,0,0-.309-.3l-1.519-.63a.59.59,0,0,0-.429-.008l-1.321.487-.936-.936.487-1.321a.589.589,0,0,0-.008-.429l-.627-1.517a.589.589,0,0,0-.3-.31l-1.28-.591V16.009l1.279-.589a.589.589,0,0,0,.3-.31l.627-1.519a.589.589,0,0,0,.008-.429l-.487-1.321.936-.936,1.321.487a.589.589,0,0,0,.429-.008l1.519-.63a.589.589,0,0,0,.309-.3l.589-1.277h1.324l.591,1.278a.589.589,0,0,0,.309.3l1.517.63a.589.589,0,0,0,.43.009l1.321-.487.936.936-.485,1.321a.589.589,0,0,0,.008.428L28.3,15.11a.589.589,0,0,0,.3.31l1.277.589Zm15.62,1.848a.357.357,0,0,1-.358.356h-10.2a.356.356,0,0,1-.356-.356V14.163a.357.357,0,0,1,.356-.358h10.2a.358.358,0,0,1,.358.358ZM42.185,43.907a.589.589,0,0,1,0,.832l-1.35,1.352A.589.589,0,1,1,40,45.259l.347-.347h-3.7a.589.589,0,0,1,0-1.178h3.7L40,43.387a.589.589,0,1,1,.834-.832l1.35,1.352Zm1.858-26.174a.589.589,0,0,1-.589.589H36.611a.589.589,0,1,1,0-1.178h6.843a.589.589,0,0,1,.589.589Zm0-2.123a.589.589,0,0,1-.589.589H39.177a.589.589,0,1,1,0-1.178h4.277A.589.589,0,0,1,44.043,15.61Zm-8.021,0a.589.589,0,0,1,.589-.589h.522a.589.589,0,0,1,0,1.178h-.522A.589.589,0,0,1,36.022,15.61ZM30.088,31.558a.589.589,0,0,1,.589-.589H37.52a.589.589,0,1,1,0,1.178H30.677a.589.589,0,0,1-.589-.589Zm2.566-2.123a.589.589,0,0,1,.589-.589H37.52a.589.589,0,1,1,0,1.178H33.243A.589.589,0,0,1,32.654,29.435Zm-2.566,0a.589.589,0,0,1,.589-.589H31.2a.589.589,0,0,1,0,1.178h-.522A.589.589,0,0,1,30.088,29.435Zm2.149,15.95a.589.589,0,0,1-.589.589H24.8a.589.589,0,0,1,0-1.178h6.845A.589.589,0,0,1,32.236,45.384Zm0-2.123a.589.589,0,0,1-.589.589H27.371a.589.589,0,1,1,0-1.178h4.277A.589.589,0,0,1,32.236,43.262Zm-8.023,0a.589.589,0,0,1,.589-.589h.525a.589.589,0,0,1,0,1.178H24.8A.589.589,0,0,1,24.213,43.262Zm27.093-.506a.589.589,0,0,1-.017.833l-2.414,2.318a.589.589,0,0,1-.825-.008l-1.207-1.207a.589.589,0,1,1,.833-.833l.8.8,2-1.919a.589.589,0,0,1,.833.017Z" transform="translate(-13.711 -8.002)"/>
</svg>
