<svg xmlns="http://www.w3.org/2000/svg" xmlns:xlink="http://www.w3.org/1999/xlink" width="295" height="213" viewBox="0 0 295 213">
  <defs>
    <clipPath id="clip-path">
      <rect id="Rectángulo_415656" data-name="Rectángulo 415656" width="295" height="213" transform="translate(1019.698 782)" fill="#fff" stroke="#707070" stroke-width="1" opacity="0.69"/>
    </clipPath>
    <clipPath id="clip-path-2">
      <rect id="Rectángulo_415648" data-name="Rectángulo 415648" width="458.693" height="458.693"/>
    </clipPath>
  </defs>
  <g id="Enmascarar_grupo_1098820" data-name="Enmascarar grupo 1098820" transform="translate(-1019.698 -782)" clip-path="url(#clip-path)">
    <g id="Grupo_1200538" data-name="Grupo 1200538" transform="translate(856.307 611.057)" clip-path="url(#clip-path-2)">
      <path id="Trazado_1044318" data-name="Trazado 1044318" d="M344.154,502.8V750.2H494.9L487.084,517.25Z" transform="translate(-28.432 -41.538)" fill="#60928b"/>
      <g id="Grupo_1200537" data-name="Grupo 1200537" transform="translate(187.915 173.116)">
        <g id="Grupo_1200525" data-name="Grupo 1200525" transform="translate(319.567 302.595)">
          <path id="Trazado_1044319" data-name="Trazado 1044319" d="M591.18,518.551l9.863,30.475c2.615-1.5,5.417-3.35,8.033-4.845a4.877,4.877,0,0,1,2.856-.827,3.707,3.707,0,0,1,2.465,1.438c-1.85,2.671-3.86,5.3-5.712,7.967,2.759-.374,5.57-.959,8.33-1.333a8.384,8.384,0,0,1,3.439.012,2.859,2.859,0,0,1,2.182,2.4,123.4,123.4,0,0,1-17.069,8.971,14.783,14.783,0,0,1-8.111,1.491,7.721,7.721,0,0,1-8.077,3.062,33.735,33.735,0,0,1-8.949-3.793,66.271,66.271,0,0,1-27.249-34.719Z" transform="translate(-553.182 -518.551)" fill="#cc8179"/>
          <path id="Trazado_1044320" data-name="Trazado 1044320" d="M604.75,550.528l3.836,7.014c2.014-.751,4.405-1.705,6.418-2.457" transform="translate(-557.442 -521.193)" fill="none" stroke="#2d2b58" stroke-miterlimit="10" stroke-width="1.2"/>
          <path id="Trazado_1044321" data-name="Trazado 1044321" d="M602.728,568.565l-7.553-1.984" transform="translate(-556.651 -522.519)" fill="none" stroke="#2d2b58" stroke-miterlimit="10" stroke-width="1.2"/>
          <path id="Trazado_1044322" data-name="Trazado 1044322" d="M594.766,571.458l-7.28-4.066" transform="translate(-556.016 -522.586)" fill="none" stroke="#2d2b58" stroke-miterlimit="10" stroke-width="1.2"/>
        </g>
        <g id="Grupo_1200530" data-name="Grupo 1200530" transform="translate(0)">
          <g id="Grupo_1200526" data-name="Grupo 1200526" transform="translate(40.976 53.028)">
            <path id="Trazado_1044323" data-name="Trazado 1044323" d="M250.519,265.679a4.092,4.092,0,0,1,3.57-1.138,2.936,2.936,0,0,1,1.22-3.01,3.02,3.02,0,0,1,3.292-.166,3.665,3.665,0,0,1,2.266-3.615,3.47,3.47,0,0,1,4.057.8,54.265,54.265,0,0,1,2.536-12.044c0,.15-.1.413-.1.564l16.029,15.751c.673,11.608,1.234,23.113,1.908,34.72l-21.52,15.894c-9.357-7.991-13.654-16.611-11.839-33.142-.76-3.6-1.44-7.385-2.32-10.961A4.129,4.129,0,0,1,250.519,265.679Z" transform="translate(-249.503 -246.509)" fill="#cc8179"/>
            <path id="Trazado_1044324" data-name="Trazado 1044324" d="M258.619,262.241q1.446,7.833,2.891,15.666a2.609,2.609,0,0,1-1.476,2.737,2.1,2.1,0,0,1-2.562-1.228c-1.544-4.268-2.383-8.757-3.6-13.128" transform="translate(-249.864 -247.809)" fill="none" stroke="#2d2b58" stroke-miterlimit="10" stroke-width="1.2"/>
            <path id="Trazado_1044325" data-name="Trazado 1044325" d="M257.181,281.359a2.782,2.782,0,0,1-5.3,1.326" transform="translate(-249.7 -249.388)" fill="none" stroke="#2d2b58" stroke-miterlimit="10" stroke-width="1.2"/>
          </g>
          <path id="Trazado_1044326" data-name="Trazado 1044326" d="M261.889,232.717c2.345,3.262,3.315,7.279,4.763,11.026a44.052,44.052,0,0,0,7.753,12.9" transform="translate(-209.55 -192.342)" fill="none" stroke="#2d2b58" stroke-linecap="round" stroke-linejoin="round" stroke-miterlimit="10" stroke-width="1.2"/>
          <path id="Trazado_1044327" data-name="Trazado 1044327" d="M269.693,228.439a164.65,164.65,0,0,0,11.69,22.983" transform="translate(-210.195 -191.988)" fill="none" stroke="#2d2b58" stroke-linecap="round" stroke-linejoin="round" stroke-miterlimit="10" stroke-width="1.2"/>
          <g id="Grupo_1200528" data-name="Grupo 1200528">
            <path id="Trazado_1044328" data-name="Trazado 1044328" d="M261.515,198.055l36.421,11.032,4.855,8.576A276.93,276.93,0,0,1,251.4,292.916l-41.276-19.607A276.929,276.929,0,0,0,261.515,198.055Z" transform="translate(-205.274 -189.478)" fill="#bfd7b3"/>
            <path id="Trazado_1044329" data-name="Trazado 1044329" d="M204.837,270.737,244.78,286.43l6.188,12.491-41.276-19.607Z" transform="translate(-204.837 -195.483)" fill="#94af85"/>
            <path id="Trazado_1044330" data-name="Trazado 1044330" d="M256.223,188.706,297.5,208.313a276.948,276.948,0,0,1-51.385,75.254L204.838,263.96A276.933,276.933,0,0,0,256.223,188.706Z" transform="translate(-204.837 -188.706)" fill="#a9c79b"/>
            <path id="Trazado_1044331" data-name="Trazado 1044331" d="M295.352,215.049a277.771,277.771,0,0,1-49.239,70.7l-41.276-19.607" transform="translate(-204.837 -190.882)" fill="none" stroke="#2d2b58" stroke-linecap="round" stroke-linejoin="round" stroke-miterlimit="10" stroke-width="1.2"/>
            <path id="Trazado_1044332" data-name="Trazado 1044332" d="M299.035,219.249a277.772,277.772,0,0,1-49.239,70.7L212.328,272.32" transform="translate(-205.456 -191.229)" fill="none" stroke="#2d2b58" stroke-linecap="round" stroke-linejoin="round" stroke-miterlimit="10" stroke-width="1.2"/>
            <path id="Trazado_1044333" data-name="Trazado 1044333" d="M248.3,277.8a276.763,276.763,0,0,0,44.036-64.327l.723-1.476a1.39,1.39,0,0,0-.556-1.939l-32.8-15.582a1.864,1.864,0,0,0-2.346.961l-.906,1.825A285.719,285.719,0,0,1,213.9,259.8l-1.547,1.727a1.477,1.477,0,0,0,.254,2.386l32.647,15.508a1.8,1.8,0,0,0,2.033-.506Z" transform="translate(-205.418 -189.171)" fill="none" stroke="#f9ebeb" stroke-miterlimit="10" stroke-width="1.2"/>
            <path id="Trazado_1044334" data-name="Trazado 1044334" d="M246.334,276.178a271.327,271.327,0,0,0,43.374-63.358l-29.833-14.172A288.025,288.025,0,0,1,216.7,262.1Z" transform="translate(-205.817 -189.527)" fill="#94af85"/>
            <path id="Trazado_1044335" data-name="Trazado 1044335" d="M250.863,249.908a15.1,15.1,0,0,0,18.745-5.924,11.513,11.513,0,0,0-5.039-16.83,15.1,15.1,0,0,0-18.744,5.924A11.512,11.512,0,0,0,250.863,249.908Z" transform="translate(-208.071 -191.78)" fill="#a9c79b"/>
            <path id="Trazado_1044336" data-name="Trazado 1044336" d="M269.9,221.461a7.353,7.353,0,0,0,9.13-2.885,5.607,5.607,0,0,0-2.455-8.2,7.353,7.353,0,0,0-9.13,2.885A5.608,5.608,0,0,0,269.9,221.461Z" transform="translate(-209.935 -190.446)" fill="#a9c79b"/>
            <path id="Trazado_1044337" data-name="Trazado 1044337" d="M238.316,269.347a7.352,7.352,0,0,0,9.129-2.885,5.607,5.607,0,0,0-2.454-8.2,7.352,7.352,0,0,0-9.129,2.885A5.607,5.607,0,0,0,238.316,269.347Z" transform="translate(-207.326 -194.402)" fill="#a9c79b"/>
            <g id="Grupo_1200527" data-name="Grupo 1200527" transform="translate(41.69 39.274)">
              <path id="Trazado_1044338" data-name="Trazado 1044338" d="M264.013,241.761a15.007,15.007,0,0,1-2.162,2.768,9.6,9.6,0,0,1-2.326,1.8l-1.339-2a9.643,9.643,0,0,0,2.023-1.51,10.344,10.344,0,0,0,1.724-2.117,6.1,6.1,0,0,0,.705-1.5,1.953,1.953,0,0,0,.061-1.009.869.869,0,0,0-.46-.569,1,1,0,0,0-.958.039,4.611,4.611,0,0,0-1.085.85q-.575.582-1.207,1.29t-1.334,1.394a8.925,8.925,0,0,1-1.47,1.17,3.765,3.765,0,0,1-1.592.579,3.134,3.134,0,0,1-3.1-1.826,4.125,4.125,0,0,1-.176-2.424,9.746,9.746,0,0,1,1.363-3.246,14.077,14.077,0,0,1,1.713-2.255,9.948,9.948,0,0,1,1.992-1.682l1.383,1.924a10.478,10.478,0,0,0-1.731,1.444,9.576,9.576,0,0,0-1.287,1.643,5.683,5.683,0,0,0-.691,1.492,1.778,1.778,0,0,0-.019,1.009.974.974,0,0,0,.49.572,1.018,1.018,0,0,0,.967-.038,4.094,4.094,0,0,0,1.072-.845q.553-.578,1.2-1.307t1.348-1.4a9.877,9.877,0,0,1,1.449-1.154,3.828,3.828,0,0,1,1.582-.6,3,3,0,0,1,3.066,1.8,4.291,4.291,0,0,1,.166,2.442A9.666,9.666,0,0,1,264.013,241.761Zm1.317,1.552-15.05-7.64,1.127-1.846,15.05,7.64Z" transform="translate(-250.281 -231.517)" fill="#94af85"/>
            </g>
          </g>
          <g id="Grupo_1200529" data-name="Grupo 1200529" transform="translate(51.93 54.859)">
            <path id="Trazado_1044339" data-name="Trazado 1044339" d="M265.562,273.08q-1.322-8.705-2.644-17.409a11.426,11.426,0,0,1-.085-4.465,3.756,3.756,0,0,1,3.162-2.7l12.747,23.109-13.107,22.532a17.418,17.418,0,0,1-3.766-10.8A15.866,15.866,0,0,1,265.562,273.08Z" transform="translate(-261.478 -248.505)" fill="#cc8179"/>
            <path id="Trazado_1044340" data-name="Trazado 1044340" d="M270.768,256.779l8.57,15.908" transform="translate(-262.213 -249.189)" fill="none" stroke="#2d2b58" stroke-miterlimit="10" stroke-width="1.2"/>
            <path id="Trazado_1044341" data-name="Trazado 1044341" d="M262.947,258.641l2.515,14.96a17.263,17.263,0,0,0-4.018,11.444,17,17,0,0,0,4.416,11.193" transform="translate(-261.443 -249.342)" fill="none" stroke="#2d2b58" stroke-miterlimit="10" stroke-width="1.2"/>
          </g>
        </g>
        <g id="Grupo_1200531" data-name="Grupo 1200531" transform="translate(47.818 99.891)">
          <path id="Trazado_1044342" data-name="Trazado 1044342" d="M288.614,297.592c8.353,13.8,16.5,26.779,24.853,40.577,20.9-5.758,42.046-11.819,62.948-17.577a12.094,12.094,0,0,0,12.211,4.443c4.462-1.063,9.067-4.042,9.849-8.561l38.449,7.079a104.758,104.758,0,0,1,60.4,34.746c35.056,41.154,63.371,88.338,79.489,139.941-16.55,5.761-33.163,11.791-49.712,17.551-26.126-37.036-54.057-72.18-83.353-106.763L337.677,393.334c-13.791-.651-27.857-1.357-40.748-6.3s-23.459-14.733-27.692-27.875c-4.533-14.072-7.743-27.712-12.276-41.784C267.368,310.393,278.207,304.573,288.614,297.592Z" transform="translate(-256.961 -297.592)" fill="#d75a59"/>
          <path id="Trazado_1044343" data-name="Trazado 1044343" d="M414.324,320.068a18.288,18.288,0,0,1-33.607,4.914" transform="translate(-267.185 -299.449)" fill="none" stroke="#2d2b58" stroke-miterlimit="10" stroke-width="1.2"/>
          <path id="Trazado_1044344" data-name="Trazado 1044344" d="M317.9,341.859q-1.719,3.432-3.438,6.864" transform="translate(-261.711 -301.249)" fill="none" stroke="#2d2b58" stroke-miterlimit="10" stroke-width="1.2"/>
          <path id="Trazado_1044345" data-name="Trazado 1044345" d="M294.452,307.5l-33.616,22.887" transform="translate(-257.281 -298.41)" fill="none" stroke="#2d2b58" stroke-miterlimit="10" stroke-width="1.2"/>
          <line id="Línea_1386" data-name="Línea 1386" x1="53.727" y2="20.436" transform="translate(261.958 188.16)" fill="none" stroke="#2d2b58" stroke-miterlimit="10" stroke-width="1.2"/>
        </g>
        <g id="Grupo_1200535" data-name="Grupo 1200535" transform="translate(153.116 69.479)">
          <path id="Trazado_1044346" data-name="Trazado 1044346" d="M385.808,323.353c-.134-3.932.015-7.862-.119-11.793,7.362-.654,15.11-1.178,22.472-1.832l2.092,9.206C406.993,329.143,393.163,334.057,385.808,323.353Z" transform="translate(-372.894 -268.183)" fill="#cc8179"/>
          <g id="Grupo_1200534" data-name="Grupo 1200534">
            <path id="Trazado_1044347" data-name="Trazado 1044347" d="M419.172,285.76a16.784,16.784,0,0,0-9.224-13.058l-10.527-5.41a24.6,24.6,0,0,0-6.847-2.691,8.314,8.314,0,0,0-6.954,1.605c-1.836,1.64-2.642,5-1.126,6.942a4.807,4.807,0,0,0,.785,9.582c-1.67,2.787-3.12,5.774-4.79,8.561a2.811,2.811,0,0,0-2.938-.734,6,6,0,0,0-2.689,1.886,13.577,13.577,0,0,0-2.071,13.952,16.944,16.944,0,0,0,10.885,9.4,22.658,22.658,0,0,0,14.57-.934,34.511,34.511,0,0,0,12.084-8.467l2.112-5.934A16.377,16.377,0,0,0,419.172,285.76Z" transform="translate(-371.742 -264.442)" fill="#2d2b58"/>
            <g id="Grupo_1200532" data-name="Grupo 1200532" transform="translate(32.673 31.282)">
              <path id="Trazado_1044348" data-name="Trazado 1044348" d="M419.2,303.363a6.922,6.922,0,0,0-7.166-4.786l-4.675,10.614a6.7,6.7,0,0,0,11.841-5.828Z" transform="translate(-407.357 -298.541)" fill="#cc8179"/>
              <path id="Trazado_1044349" data-name="Trazado 1044349" d="M411.911,304.268l4.421.58" transform="translate(-407.733 -299.014)" fill="none" stroke="#2d2b58" stroke-miterlimit="10" stroke-width="1.2"/>
            </g>
            <g id="Grupo_1200533" data-name="Grupo 1200533" transform="translate(4.94 14)">
              <path id="Trazado_1044350" data-name="Trazado 1044350" d="M405.279,290.584a5.6,5.6,0,0,1-3.814-1.458,5.741,5.741,0,0,1-1.838-3.7,5.966,5.966,0,0,1-8.775-4.99,11.47,11.47,0,0,0-9.21,5c-2.185,2.961-3.368,6.524-4.516,10.02L399.3,305.818c2.3-4,4.547-7.764,6.848-11.763A2.643,2.643,0,0,1,405.279,290.584Z" transform="translate(-377.127 -279.763)" fill="#cc8179"/>
              <path id="Trazado_1044351" data-name="Trazado 1044351" d="M398.919,303.036a1.168,1.168,0,1,0-1.538.6A1.168,1.168,0,0,0,398.919,303.036Z" transform="translate(-378.742 -281.495)" fill="#2d2b58"/>
              <path id="Trazado_1044352" data-name="Trazado 1044352" d="M384.42,296.085a1.168,1.168,0,1,0-1.538.6A1.168,1.168,0,0,0,384.42,296.085Z" transform="translate(-377.545 -280.921)" fill="#2d2b58"/>
              <path id="Trazado_1044353" data-name="Trazado 1044353" d="M390.8,296.538l-2.56,4.5c.527.225.769.611,1.3.836" transform="translate(-378.045 -281.094)" fill="none" stroke="#2d2b58" stroke-miterlimit="10" stroke-width="1.2"/>
              <path id="Trazado_1044354" data-name="Trazado 1044354" d="M389.95,306.54a1.734,1.734,0,0,0,3.209.791" transform="translate(-378.186 -281.92)" fill="none" stroke="#f9ebeb" stroke-miterlimit="10" stroke-width="1.2"/>
              <path id="Trazado_1044355" data-name="Trazado 1044355" d="M383.281,287.3a3.4,3.4,0,0,1,6.179,1.605" transform="translate(-377.635 -280.211)" fill="none" stroke="#2d2b58" stroke-miterlimit="10" stroke-width="1.2"/>
              <path id="Trazado_1044356" data-name="Trazado 1044356" d="M399.4,292.185l3.853,1.9" transform="translate(-378.967 -280.734)" fill="none" stroke="#2d2b58" stroke-miterlimit="10" stroke-width="1.2"/>
              <path id="Trazado_1044357" data-name="Trazado 1044357" d="M391.808,279.7a7.753,7.753,0,0,0,4.7,8.046" transform="translate(-378.334 -279.703)" fill="none" stroke="#2d2b58" stroke-miterlimit="10" stroke-width="1.2"/>
            </g>
          </g>
        </g>
        <g id="Grupo_1200536" data-name="Grupo 1200536" transform="translate(122.976 130.371)">
          <path id="Trazado_1044358" data-name="Trazado 1044358" d="M475.595,399c7.747,17,14.708,102.667,22.456,119.671L343.806,493.2c-3.821-26.274-.039-80.4-3.859-106.676C385.222,390.334,430.319,395.19,475.595,399Z" transform="translate(-338.975 -335.419)" fill="#d75a59"/>
          <path id="Trazado_1044359" data-name="Trazado 1044359" d="M340.452,378.927q.835,10.64,1.67,21.281c-1.051-2.314-2.183-4.077-3.235-6.391" transform="translate(-338.887 -334.791)" fill="none" stroke="#2d2b58" stroke-miterlimit="10" stroke-width="1.2"/>
          <path id="Trazado_1044360" data-name="Trazado 1044360" d="M477.315,385.592c-6.98-10.838-14.155-21.53-18.633-33.757-1.6-4.37-3.089-9.077-2.011-13.6s5.747-8.51,10.195-7.141" transform="translate(-348.587 -330.817)" fill="none" stroke="#2d2b58" stroke-miterlimit="10" stroke-width="1.2"/>
          <line id="Línea_1387" data-name="Línea 1387" x1="9.505" y1="60.942" transform="translate(143.01 91.194)" fill="none" stroke="#2d2b58" stroke-miterlimit="10" stroke-width="1.2"/>
        </g>
      </g>
    </g>
  </g>
</svg>
