<svg xmlns="http://www.w3.org/2000/svg" xmlns:xlink="http://www.w3.org/1999/xlink" width="295" height="263.706" viewBox="0 0 295 263.706">
  <defs>
    <clipPath id="clip-path">
      <rect id="Rectángulo_415691" data-name="Rectángulo 415691" width="295" height="263.706" transform="translate(180 1156.013)" fill="#fff" stroke="#707070" stroke-width="1" opacity="0.75"/>
    </clipPath>
  </defs>
  <g id="Enmascarar_grupo_1098825" data-name="Enmascarar grupo 1098825" transform="translate(-180 -1156.013)" clip-path="url(#clip-path)">
    <g id="Grupo_1201842" data-name="Grupo 1201842">
      <ellipse id="Elipse_12170" data-name="Elipse 12170" cx="136.5" cy="131" rx="136.5" ry="131" transform="translate(180 1227.446)" fill="#cfe3dc" opacity="0.43"/>
      <g id="Grupo_1200491" data-name="Grupo 1200491" transform="translate(142.628 1163.527)">
        <g id="Grupo_1200430" data-name="Grupo 1200430" transform="translate(10.035 332.244)">
          <g id="Grupo_1200427" data-name="Grupo 1200427" transform="translate(10.937 196.498)">
            <path id="Trazado_1044202" data-name="Trazado 1044202" d="M1227.38,3032.458l-53.59-2.233,32.005-23.817,21.585,2.977a30.89,30.89,0,0,1,0,23.073Z" transform="translate(-1173.79 -3006.407)" fill="#feada2"/>
          </g>
          <g id="Grupo_1200428" data-name="Grupo 1200428" transform="translate(42.942)">
            <path id="Trazado_1044203" data-name="Trazado 1044203" d="M1003.546,2143.93l-29.028,205.43H996.1l47.635-205.43Z" transform="translate(-974.518 -2143.93)" fill="#feada2"/>
          </g>
          <g id="Grupo_1200429" data-name="Grupo 1200429" transform="translate(0 202.722)">
            <path id="Trazado_1044204" data-name="Trazado 1044204" d="M1234.966,3061.737h-11.231l.745-6.856-25.029,6.489a9.6,9.6,0,0,1-2.633.368h-22.35a4.094,4.094,0,0,1-4.094-4.094h0a5.119,5.119,0,0,1,2.661-4.489l17.211-9.418a8.526,8.526,0,0,0,2.231,3.838c6.225,8.66,42.077-12.687,43.844-13.85C1239.3,3043.515,1237.672,3050.01,1234.966,3061.737Z" transform="translate(-1170.373 -3033.724)"/>
          </g>
        </g>
        <g id="Grupo_1200431" data-name="Grupo 1200431" transform="translate(51.451 319.326)">
          <path id="Trazado_1044205" data-name="Trazado 1044205" d="M960.442,2250.946s38.078,12.716,50.147,6.853l23.806-158.4-53.866-12.173Z" transform="translate(-960.442 -2087.229)"/>
        </g>
        <g id="Grupo_1200435" data-name="Grupo 1200435" transform="translate(144.756 332.244)">
          <g id="Grupo_1200432" data-name="Grupo 1200432" transform="translate(2.231 196.498)">
            <path id="Trazado_1044206" data-name="Trazado 1044206" d="M622.918,3032.458l53.59-2.233L644.5,3006.407l-21.585,2.977a30.89,30.89,0,0,0,0,23.073Z" transform="translate(-620.683 -3006.407)" fill="#feada2"/>
          </g>
          <g id="Grupo_1200433" data-name="Grupo 1200433" transform="translate(0)">
            <path id="Trazado_1044207" data-name="Trazado 1044207" d="M739.283,2143.93l-14.142,205.43H703.556l-4.466-205.43Z" transform="translate(-699.09 -2143.93)" fill="#feada2"/>
          </g>
          <g id="Grupo_1200434" data-name="Grupo 1200434" transform="translate(1.452 202.722)">
            <path id="Trazado_1044208" data-name="Trazado 1044208" d="M575.63,3061.737h11.231l-.744-6.856,25.029,6.489a9.6,9.6,0,0,0,2.633.368h22.35a4.094,4.094,0,0,0,4.094-4.094h0a5.119,5.119,0,0,0-2.661-4.489l-17.211-9.418a8.526,8.526,0,0,1-2.231,3.838c-6.225,8.66-42.077-12.687-43.844-13.85C571.3,3043.515,572.924,3050.01,575.63,3061.737Z" transform="translate(-572.683 -3033.724)"/>
          </g>
        </g>
        <g id="Grupo_1200436" data-name="Grupo 1200436" transform="translate(76.2 34.52)">
          <path id="Trazado_1044209" data-name="Trazado 1044209" d="M707.074,864.688s7.443,69.221,20.841,85.6c12.336,15.077,13.4,55.079-20.841,49.869-15.033-2.288-45.783-1.641-64.378-.808a39.5,39.5,0,0,1-30.865-12.459,19.723,19.723,0,0,1-3.75-5.34c-4.985-11.946-1.171-21.535,4.466-43.914,14.142-30.517,21.523-96.48,21.585-96.76l72.2-3.722Z" transform="translate(-605.769 -837.148)" fill="#723f31"/>
        </g>
        <g id="Grupo_1200437" data-name="Grupo 1200437" transform="translate(91.164 113.48)">
          <path id="Trazado_1044210" data-name="Trazado 1044210" d="M757.313,1183.72H726.052l-33.495,14.08,9.676,26.8,76.665,2.975,8.932-31.261Z" transform="translate(-692.557 -1183.72)" fill="#feada2"/>
        </g>
        <g id="Grupo_1200438" data-name="Grupo 1200438" transform="translate(120.938 11.447)">
          <rect id="Rectángulo_415638" data-name="Rectángulo 415638" width="15.631" height="9.676" transform="translate(0)" fill="#873c50"/>
        </g>
        <g id="Grupo_1200439" data-name="Grupo 1200439" transform="translate(124.659 82.9)">
          <path id="Trazado_1044211" data-name="Trazado 1044211" d="M827.246,1049.5l-.744,57.313h31.261l-.744-57.313Z" transform="translate(-826.502 -1049.5)" fill="#feada2"/>
        </g>
        <g id="Grupo_1200440" data-name="Grupo 1200440" transform="translate(125.136 90.344)">
          <path id="Trazado_1044212" data-name="Trazado 1044212" d="M836.727,1093.991q1.239.089,2.5.089a34.135,34.135,0,0,0,25.954-11.909H836.876Z" transform="translate(-836.727 -1082.171)" fill="#333232"/>
        </g>
        <g id="Grupo_1200441" data-name="Grupo 1200441" transform="translate(103.818 11.142)">
          <path id="Trazado_1044213" data-name="Trazado 1044213" d="M768.6,815.968h0c20.348,0,36.843-15.255,36.843-31.633V755.624A13.342,13.342,0,0,0,792.1,742.282a62.728,62.728,0,0,0-23.873-7.443,58.415,58.415,0,0,0-34.983,7.443c0,13.522-1.489,27.043-1.489,40.565C731.76,803.194,748.256,815.968,768.6,815.968Z" transform="translate(-731.76 -734.534)" fill="#feada2"/>
        </g>
        <g id="Grupo_1200442" data-name="Grupo 1200442" transform="translate(173.04 45.685)">
          <ellipse id="Elipse_12144" data-name="Elipse 12144" cx="8.932" cy="8.932" rx="8.932" ry="8.932" transform="translate(0)" fill="#feada2"/>
        </g>
        <g id="Grupo_1200443" data-name="Grupo 1200443" transform="translate(176.306 50.204)">
          <path id="Trazado_1044214" data-name="Trazado 1044214" d="M693.473,912.1a.372.372,0,0,0,.343-.228,8.514,8.514,0,0,1,3.168-3.8,8.627,8.627,0,0,1,5.7-1.267.372.372,0,0,0,.1-.738,9.368,9.368,0,0,0-6.206,1.38,9.27,9.27,0,0,0-3.449,4.138.372.372,0,0,0,.343.516Z" transform="translate(-693.101 -905.987)" fill="#8e554f"/>
        </g>
        <g id="Grupo_1200444" data-name="Grupo 1200444" transform="translate(176.967 52.914)">
          <path id="Trazado_1044215" data-name="Trazado 1044215" d="M702.074,919.959a.372.372,0,0,0,.209-.68,8.114,8.114,0,0,0-4.856-1.387,8.025,8.025,0,0,0-4.163,1.387.372.372,0,0,0,.419.616,7.277,7.277,0,0,1,3.776-1.259,7.422,7.422,0,0,1,4.407,1.26A.371.371,0,0,0,702.074,919.959Z" transform="translate(-693.101 -917.884)" fill="#8e554f"/>
        </g>
        <g id="Grupo_1200445" data-name="Grupo 1200445" transform="translate(91.166 44.196)">
          <ellipse id="Elipse_12145" data-name="Elipse 12145" cx="8.932" cy="8.932" rx="8.932" ry="8.932" transform="translate(0)" fill="#feada2"/>
        </g>
        <g id="Grupo_1200446" data-name="Grupo 1200446" transform="translate(95.755 48.716)">
          <path id="Trazado_1044216" data-name="Trazado 1044216" d="M1056.291,905.564a.372.372,0,0,0,.343-.516,9.268,9.268,0,0,0-3.449-4.138,9.385,9.385,0,0,0-6.206-1.38.372.372,0,0,0,.1.738,8.627,8.627,0,0,1,5.7,1.266,8.518,8.518,0,0,1,3.168,3.8A.372.372,0,0,0,1056.291,905.564Z" transform="translate(-1046.656 -899.457)" fill="#8e554f"/>
        </g>
        <g id="Grupo_1200447" data-name="Grupo 1200447" transform="translate(95.754 51.426)">
          <path id="Trazado_1044217" data-name="Trazado 1044217" d="M1049.938,913.424a.369.369,0,0,0,.208-.064,7.423,7.423,0,0,1,4.407-1.26,7.278,7.278,0,0,1,3.777,1.259.372.372,0,0,0,.419-.616,8.024,8.024,0,0,0-4.163-1.387,8.119,8.119,0,0,0-4.856,1.387.372.372,0,0,0,.208.681Z" transform="translate(-1049.565 -911.35)" fill="#8e554f"/>
        </g>
        <g id="Grupo_1200448" data-name="Grupo 1200448" transform="translate(135.451 46.058)">
          <path id="Trazado_1044218" data-name="Trazado 1044218" d="M890.373,906.4a.744.744,0,0,0,.18-1.466l-5.272-1.318,2.846-14.939a.744.744,0,1,0-1.462-.278l-2.977,15.63a.745.745,0,0,0,.551.861l5.954,1.489A.766.766,0,0,0,890.373,906.4Z" transform="translate(-883.673 -887.791)" fill="#8e554f"/>
        </g>
        <g id="Grupo_1200449" data-name="Grupo 1200449" transform="translate(122.426 42.708)">
          <ellipse id="Elipse_12146" data-name="Elipse 12146" cx="3.079" cy="3.079" rx="3.079" ry="3.079" transform="translate(0)" fill="#5e8bcc"/>
        </g>
        <g id="Grupo_1200450" data-name="Grupo 1200450" transform="translate(151.996 42.708)">
          <ellipse id="Elipse_12147" data-name="Elipse 12147" cx="3.079" cy="3.079" rx="3.079" ry="3.079" transform="translate(0)" fill="#5e8bcc"/>
        </g>
        <g id="Grupo_1200451" data-name="Grupo 1200451" transform="translate(133.224 74.766)">
          <path id="Trazado_1044219" data-name="Trazado 1044219" d="M876.947,1015.234s-8.2-3.628-14.509.65l7.811,1.583Z" transform="translate(-862.438 -1013.798)" fill="#e98164"/>
        </g>
        <g id="Grupo_1200452" data-name="Grupo 1200452" transform="translate(132.847 75.458)">
          <path id="Trazado_1044220" data-name="Trazado 1044220" d="M866.909,1020.322a14.632,14.632,0,0,0,7.563-2.126.744.744,0,0,0-.825-1.24,12.863,12.863,0,0,1-13.347-.018.744.744,0,1,0-.766,1.276A14.16,14.16,0,0,0,866.909,1020.322Z" transform="translate(-859.173 -1016.832)" fill="#8e554f"/>
        </g>
        <g id="Grupo_1200453" data-name="Grupo 1200453" transform="translate(102.33 0)">
          <path id="Trazado_1044221" data-name="Trazado 1044221" d="M754.8,686.024a.7.7,0,0,1,.111-.111,104.4,104.4,0,0,1,23.248.8,31.637,31.637,0,0,1,26.539,31.24v15.1c-17.781-24.067-28.2-24.812-38.622-33-12.653,8.187-20.841,12.653-35.727,30.517l-1.489-15.563A29.075,29.075,0,0,1,754.8,686.024Z" transform="translate(-728.855 -685.631)" fill="#723f31"/>
        </g>
        <g id="Grupo_1200454" data-name="Grupo 1200454" transform="translate(146.616 33.032)">
          <path id="Trazado_1044222" data-name="Trazado 1044222" d="M793.688,835.453a1.48,1.48,0,0,0,.731-.193,12.876,12.876,0,0,1,12.676,0,1.489,1.489,0,0,0,1.465-2.592,15.854,15.854,0,0,0-15.607,0,1.489,1.489,0,0,0,.734,2.785Z" transform="translate(-792.197 -830.614)" fill="#723f31"/>
        </g>
        <g id="Grupo_1200455" data-name="Grupo 1200455" transform="translate(116.844 33.032)">
          <path id="Trazado_1044223" data-name="Trazado 1044223" d="M924.366,835.453a1.48,1.48,0,0,0,.731-.193,12.876,12.876,0,0,1,12.677,0,1.489,1.489,0,0,0,1.465-2.592,15.854,15.854,0,0,0-15.607,0,1.489,1.489,0,0,0,.734,2.785Z" transform="translate(-922.875 -830.614)" fill="#723f31"/>
        </g>
        <path id="Trazado_1044224" data-name="Trazado 1044224" d="M841.112,981.224q1.641,0,3.3-.13a37.327,37.327,0,0,0,17.287-5.989.744.744,0,0,0-.81-1.249,35.831,35.831,0,0,1-16.594,5.754,37.523,37.523,0,0,1-28.454-9.424,31.766,31.766,0,0,1-10.268-23.594h-1.489v3.349a.741.741,0,0,0,.214.522,33.123,33.123,0,0,0,10.532,20.816A38.661,38.661,0,0,0,841.112,981.224Z" transform="translate(-701.007 -887.137)" fill="#333232"/>
        <g id="Grupo_1200456" data-name="Grupo 1200456" transform="translate(76.259 222.831)">
          <path id="Trazado_1044225" data-name="Trazado 1044225" d="M785.417,1663.69H720.969a290.192,290.192,0,0,0-24.961,76.664c-7.443,37.216-6.7,45.4-6.7,45.4a288.476,288.476,0,0,0,43.914,7.443c1.41-3.524,10.829-41.759,13.088-51.491.126-.545.975-1.744,1.054-2.1.744,4.466,0,51.357,0,54.334,2.089.074,3.984,0,5.955,0,21.335-.013,33.952-3.212,46.891-6.7C799.47,1704.841,803.932,1706.859,785.417,1663.69Z" transform="translate(-689.288 -1663.69)"/>
        </g>
        <g id="Grupo_1200471" data-name="Grupo 1200471" transform="translate(0 143.576)">
          <g id="Grupo_1200464" data-name="Grupo 1200464" transform="translate(0 160.523)">
            <g id="Grupo_1200457" data-name="Grupo 1200457" transform="translate(40.512)">
              <path id="Trazado_1044226" data-name="Trazado 1044226" d="M1190.8,2053.486a2.977,2.977,0,0,0,2.968-2.788l1.324-20.8a2.976,2.976,0,0,0-1.13-2.529,32.505,32.505,0,0,0-16.808-6.814,32.88,32.88,0,0,0-19.985,4.47,2.976,2.976,0,0,0-1.445,2.367l-1.324,20.8a2.977,2.977,0,0,0,2.782,3.16l33.426,2.127C1190.673,2053.484,1190.737,2053.486,1190.8,2053.486Zm-1.752-22.35-1.032,16.212-27.484-1.75,1.032-16.206a26.777,26.777,0,0,1,14.989-2.913A26.469,26.469,0,0,1,1189.049,2031.136Z" transform="translate(-1154.395 -2020.392)"/>
            </g>
            <g id="Grupo_1200458" data-name="Grupo 1200458" transform="translate(0 18.428)">
              <path id="Trazado_1044227" data-name="Trazado 1044227" d="M1022.022,2179.285l96.344,6.133a6.066,6.066,0,0,0,6.439-5.668l4.194-65.888a6.065,6.065,0,0,0-5.668-6.438l-96.344-6.133a6.065,6.065,0,0,0-6.438,5.668l-4.194,65.888A6.067,6.067,0,0,0,1022.022,2179.285Z" transform="translate(-1016.341 -2101.278)" fill="#873c50"/>
            </g>
            <g id="Grupo_1200459" data-name="Grupo 1200459" transform="translate(13.942 19.449)">
              <path id="Trazado_1044228" data-name="Trazado 1044228" d="M1131.613,2152.748a15.46,15.46,0,0,0,15.405-14.478l1.683-26.437a.744.744,0,1,0-1.486-.094l-1.683,26.436a13.969,13.969,0,0,1-14.83,13.054l-56.231-3.578a13.987,13.987,0,0,1-13.055-14.831l1.672-26.272a.744.744,0,0,0-1.486-.094l-1.672,26.272a15.478,15.478,0,0,0,14.446,16.411l56.231,3.578C1130.945,2152.739,1131.28,2152.748,1131.613,2152.748Z" transform="translate(-1059.899 -2105.757)"/>
            </g>
            <g id="Grupo_1200460" data-name="Grupo 1200460" transform="translate(2.665 19.522)">
              <path id="Trazado_1044229" data-name="Trazado 1044229" d="M1450.57,2183.247a.745.745,0,0,0,.322-1.418c-4.779-2.8-7.232-7.128-6.91-12.186l3.284-51.595c.263-4.142,1.513-6.468,4.777-8.89a13.526,13.526,0,0,1,2.884-1.648.744.744,0,1,0-.572-1.374,15.027,15.027,0,0,0-3.2,1.828c-3.625,2.69-5.082,5.4-5.374,9.99l-3.284,51.595c-.361,5.668,2.373,10.5,7.7,13.6a.739.739,0,0,0,.3.1C1450.523,2183.245,1450.546,2183.247,1450.57,2183.247Zm0-.745h0Z" transform="translate(-1442.465 -2106.078)"/>
            </g>
            <g id="Grupo_1200461" data-name="Grupo 1200461" transform="translate(96.832 25.361)">
              <path id="Trazado_1044230" data-name="Trazado 1044230" d="M1027.876,2208.39a.759.759,0,0,0,.38-.1c5.4-2.494,8.564-6.866,8.911-12.319l3.284-51.595c.365-5.73-.939-8.927-4.81-11.8a11.069,11.069,0,0,0-1.047-.726.744.744,0,0,0-1,1.091.735.735,0,0,0,.182.155,9.84,9.84,0,0,1,.963.666c3.455,2.563,4.557,5.313,4.226,10.519l-3.284,51.595c-.312,4.9-3.191,8.838-8.106,11.088a.73.73,0,0,0-.167.1.744.744,0,0,0,.4,1.319C1027.831,2208.388,1027.854,2208.39,1027.876,2208.39Z" transform="translate(-1027.133 -2131.707)"/>
            </g>
            <g id="Grupo_1200462" data-name="Grupo 1200462" transform="translate(74.505 59.278)">
              <path id="Trazado_1044231" data-name="Trazado 1044231" d="M1145.983,2292.468l2.73.174a3.1,3.1,0,0,0,3.289-2.9l.363-5.7a3.1,3.1,0,0,0-2.9-3.289l-2.73-.174a3.1,3.1,0,0,0-3.289,2.9l-.363,5.7A3.1,3.1,0,0,0,1145.983,2292.468Z" transform="translate(-1143.082 -2280.576)"/>
            </g>
            <g id="Grupo_1200463" data-name="Grupo 1200463" transform="translate(28.451 56.346)">
              <path id="Trazado_1044232" data-name="Trazado 1044232" d="M1348.123,2279.6l2.73.174a3.1,3.1,0,0,0,3.289-2.9l.363-5.7a3.1,3.1,0,0,0-2.9-3.289l-2.73-.174a3.1,3.1,0,0,0-3.289,2.9l-.363,5.7A3.1,3.1,0,0,0,1348.123,2279.6Z" transform="translate(-1345.222 -2267.706)"/>
            </g>
          </g>
          <g id="Grupo_1200470" data-name="Grupo 1200470" transform="translate(49.806)">
            <g id="Grupo_1200465" data-name="Grupo 1200465">
              <path id="Trazado_1044233" data-name="Trazado 1044233" d="M1084.489,1488.665l2.129-9.788,6.365-13.938,2.779-10.614c2.183-38.514,4.293-78.768,10.589-119.648q.437-2.862.892-5.706c.2-1.264.4-2.528.6-3.792l4.238-9.361q9.869,1.3,19.744,2.6-1.515,14.3-3.29,28.969-2.2,18.158-4.839,36.849c-3.933,27.781-12.728,56.382-17.675,82.152l-.841,8.775c.01,0,.02-.007.03-.009l1.344,7.613a6.048,6.048,0,0,1-.39,3.315l-.025.059a2.953,2.953,0,0,1-2.187,1.758l-.531,3.669-.39,1.476a1.123,1.123,0,0,1-.119.285,1.337,1.337,0,0,1-.355.367,2.88,2.88,0,0,1-1.782.392,3.193,3.193,0,0,1-1.8-.706,3.151,3.151,0,0,1-.915-1.258l.083-.576-.031.119a1.39,1.39,0,0,1-1.578,1.016q-.722-.1-1.486-.23-.614-.107-1.2-.227a1.419,1.419,0,0,1-.891-.553,1.385,1.385,0,0,1-.251-1.017l.009-.024a.982.982,0,0,1-.745.178,3.841,3.841,0,0,1-1.834.007,3.8,3.8,0,0,1-1.192-.523,1,1,0,0,1-.619-.377.988.988,0,0,1-.194-.7l-.076-.012-.031.1a1.047,1.047,0,0,1-1.144.727l-1.481-.206a1.046,1.046,0,0,1-.893-1.169Z" transform="translate(-1084.489 -1315.819)" fill="#feada2"/>
            </g>
            <g id="Grupo_1200466" data-name="Grupo 1200466" transform="translate(19.03 158.152)">
              <path id="Trazado_1044234" data-name="Trazado 1044234" d="M1202.574,2024.127a.372.372,0,0,0,.371-.352l.744-13.4a.371.371,0,0,0-.351-.392.362.362,0,0,0-.392.351l-.745,13.4a.372.372,0,0,0,.351.392Z" transform="translate(-1202.201 -2009.984)" fill="#e98164"/>
            </g>
            <g id="Grupo_1200467" data-name="Grupo 1200467" transform="translate(13.076 171.548)">
              <path id="Trazado_1044235" data-name="Trazado 1044235" d="M1228.7,2073.252a.372.372,0,0,0,.364-.3l.744-3.722a.372.372,0,0,0-.73-.146l-.744,3.722a.372.372,0,0,0,.292.438A.361.361,0,0,0,1228.7,2073.252Z" transform="translate(-1228.331 -2068.786)" fill="#e98164"/>
            </g>
            <g id="Grupo_1200468" data-name="Grupo 1200468" transform="translate(7.866 170.804)">
              <path id="Trazado_1044236" data-name="Trazado 1044236" d="M1251.574,2069.984a.372.372,0,0,0,.364-.3l.744-3.722a.372.372,0,1,0-.73-.145l-.744,3.722a.371.371,0,0,0,.292.438A.363.363,0,0,0,1251.574,2069.984Z" transform="translate(-1251.201 -2065.518)" fill="#e98164"/>
            </g>
            <g id="Grupo_1200469" data-name="Grupo 1200469" transform="translate(3.398 169.316)">
              <path id="Trazado_1044237" data-name="Trazado 1044237" d="M1271.184,2063.454a.372.372,0,0,0,.364-.3l.744-3.722a.372.372,0,0,0-.73-.145l-.744,3.722a.371.371,0,0,0,.292.438A.375.375,0,0,0,1271.184,2063.454Z" transform="translate(-1270.811 -2058.988)" fill="#e98164"/>
            </g>
          </g>
        </g>
        <g id="Grupo_1200472" data-name="Grupo 1200472" transform="translate(72.03 113.416)">
          <path id="Trazado_1044238" data-name="Trazado 1044238" d="M702.886,1208.367a33.348,33.348,0,0,1,17.566-17.357c1.37-.58,2.821-1.139,4.324-1.675a131.794,131.794,0,0,1,15.951-4.533c2.94-.625,5.694-1.087,8.187-1.362,3.1,4.339,5.955,8.188,14.886,13.4,10.42-5.21,13.278-8.44,16.375-13.4,5.262.149,12.415,2.479,20.8,5.277l.079.027,8.785,51.246c-.232,1-.462,1.983-.691,2.943-4.258,17.774-8.143,33.025-12.5,50.486a168.819,168.819,0,0,1-55.92,1.437c-3.014-.432-5.858-.923-8.515-1.437-5.508-18.541-11.016-40.81-16.524-59.351l-7.629-4.19-11.775-6.468Z" transform="translate(-696.284 -1183.44)" fill="#ecc9cf"/>
        </g>
        <g id="Grupo_1200473" data-name="Grupo 1200473" transform="translate(83.127 114.035)">
          <path id="Trazado_1044239" data-name="Trazado 1044239" d="M999.65,1202.274l4.4,28.961,2.068,88.428a3.661,3.661,0,0,0,3.661,3.576h19.557a3.661,3.661,0,0,0,3.661-3.661V1186.159a131.8,131.8,0,0,0-15.951,4.533c-1.5.536-2.955,1.094-4.324,1.675A33.139,33.139,0,0,0,999.65,1202.274Z" transform="translate(-999.65 -1186.159)" fill="#ffb75b"/>
        </g>
        <g id="Grupo_1200474" data-name="Grupo 1200474" transform="translate(59.325 126.816)">
          <path id="Trazado_1044240" data-name="Trazado 1044240" d="M1099.852,1383a3.248,3.248,0,0,1-2.716,2.647,23.386,23.386,0,0,1-17.829-4.525,3.213,3.213,0,0,1-1.234-2.9q5.19-49.037,10.379-98.074c1.071-5.88,2.184-10.729,3.052-14.235,2.57-10.376,4.018-13.117,4.994-14.729a31.47,31.47,0,0,1,8.187-8.932l12.653,40.193Z" transform="translate(-1078.055 -1242.255)" fill="#ffb75b"/>
        </g>
        <g id="Grupo_1200475" data-name="Grupo 1200475" transform="translate(88.561 161.424)">
          <path id="Trazado_1044241" data-name="Trazado 1044241" d="M1119.027,1455.354h0a.372.372,0,0,0,.372-.373l-.07-60.448a.372.372,0,0,0-.372-.372h0a.372.372,0,0,0-.372.373l.069,60.448A.372.372,0,0,0,1119.027,1455.354Z" transform="translate(-1118.586 -1394.161)"/>
        </g>
        <g id="Grupo_1200476" data-name="Grupo 1200476" transform="translate(97.119 214.643)">
          <path id="Trazado_1044242" data-name="Trazado 1044242" d="M1029.425,1652.314a.373.373,0,0,0,.333-.206l11.909-23.818a.372.372,0,0,0-.666-.333l-11.909,23.818a.372.372,0,0,0,.167.5A.363.363,0,0,0,1029.425,1652.314Z" transform="translate(-1029.053 -1627.752)"/>
        </g>
        <g id="Grupo_1200477" data-name="Grupo 1200477" transform="translate(164.107 114.035)">
          <path id="Trazado_1044243" data-name="Trazado 1044243" d="M677.552,1202.274l-4.4,28.961-2.068,88.428a3.661,3.661,0,0,1-3.661,3.576H647.868a3.661,3.661,0,0,1-3.662-3.661V1186.159a131.771,131.771,0,0,1,15.951,4.533c1.5.536,2.955,1.094,4.325,1.675A33.137,33.137,0,0,1,677.552,1202.274Z" transform="translate(-644.206 -1186.159)" fill="#ffb75b"/>
        </g>
        <g id="Grupo_1200478" data-name="Grupo 1200478" transform="translate(170.807 214.643)">
          <path id="Trazado_1044244" data-name="Trazado 1044244" d="M717.905,1652.314a.368.368,0,0,0,.166-.039.373.373,0,0,0,.166-.5l-11.909-23.818a.372.372,0,1,0-.666.333l11.909,23.818A.372.372,0,0,0,717.905,1652.314Z" transform="translate(-705.624 -1627.752)"/>
        </g>
        <g id="Grupo_1200479" data-name="Grupo 1200479" transform="translate(134.335 300.239)">
          <path id="Trazado_1044245" data-name="Trazado 1044245" d="M739.763,2192.506s-39.448,7.443-50.613,0V2003.45l52.878,24.125Z" transform="translate(-689.15 -2003.45)"/>
        </g>
        <g id="Grupo_1200480" data-name="Grupo 1200480" transform="translate(138.057 228.785)">
          <ellipse id="Elipse_12148" data-name="Elipse 12148" cx="2.977" cy="2.977" rx="2.977" ry="2.977" transform="translate(0)" fill="#afacaa"/>
        </g>
        <g id="Grupo_1200481" data-name="Grupo 1200481" transform="translate(163.735 114.871)">
          <path id="Trazado_1044246" data-name="Trazado 1044246" d="M724.522,1238.883a.37.37,0,0,0,.3-.148l7.815-10.318a.371.371,0,0,0,.056-.342l-3.638-10.913,10.455-8a.372.372,0,0,0,.1-.467l-9.68-18.667a.372.372,0,0,0-.661.342l9.537,18.39-10.418,7.974a.372.372,0,0,0-.127.413l3.659,10.979-7.7,10.161a.373.373,0,0,0,.3.6Z" transform="translate(-724.15 -1189.825)"/>
        </g>
        <g id="Grupo_1200482" data-name="Grupo 1200482" transform="translate(100.47 115.613)">
          <path id="Trazado_1044247" data-name="Trazado 1044247" d="M1016.971,1242.143a.372.372,0,0,0,.3-.6l-7.7-10.161,3.659-10.979a.372.372,0,0,0-.127-.413l-10.418-7.974,9.537-18.39a.372.372,0,0,0-.661-.342l-9.681,18.667a.371.371,0,0,0,.1.466l10.455,8-3.638,10.913a.372.372,0,0,0,.056.342l7.815,10.317A.365.365,0,0,0,1016.971,1242.143Z" transform="translate(-1001.839 -1193.085)"/>
        </g>
        <g id="Grupo_1200485" data-name="Grupo 1200485" transform="translate(277.753 183.571)">
          <g id="Grupo_1200483" data-name="Grupo 1200483" transform="translate(0)">
            <path id="Trazado_1044248" data-name="Trazado 1044248" d="M78.866,1518.891l16.008.005a2.065,2.065,0,0,0,1.949-2.091,2.133,2.133,0,0,0-2.051-2.035l-11.413-.674,18.378-1.614a1.989,1.989,0,0,0,1.852-1.683,1.912,1.912,0,0,0-2-2.138l-16.947,1.025,20.277-4.231a2.158,2.158,0,0,0,1.7-2.267,2.027,2.027,0,0,0-2.323-1.74l-21.068,3.3,8.076-3.035,9.632-3.619a2.081,2.081,0,0,0,1.2-2.622,2.044,2.044,0,0,0-2.43-1.27l-18.132,5.642-6.687.928-.162-.614c.308-2.167,3.04-2.539,4.391-4.267a2.886,2.886,0,0,0-.342-3.9,2.733,2.733,0,0,0-3.823.366l-6.891,4.763-8.668,8.951a26.737,26.737,0,0,1-3.053,1.5,6.585,6.585,0,0,0-4.15,7.686h0a6.724,6.724,0,0,0,6.923,5.114" transform="translate(-52.013 -1491.369)" fill="#feada2"/>
          </g>
          <g id="Grupo_1200484" data-name="Grupo 1200484" transform="translate(18.392 8.191)">
            <path id="Trazado_1044249" data-name="Trazado 1044249" d="M192.353,1538.45a.372.372,0,0,0,.286-.133c2.966-3.54,3.651-10.3,3.679-10.589a.372.372,0,1,0-.741-.072c-.007.068-.692,6.821-3.509,10.182a.372.372,0,0,0,.046.524A.364.364,0,0,0,192.353,1538.45Z" transform="translate(-191.981 -1527.32)" fill="#e98164"/>
          </g>
        </g>
        <g id="Grupo_1200488" data-name="Grupo 1200488" transform="translate(210.29 187.743)">
          <g id="Grupo_1200486" data-name="Grupo 1200486" transform="translate(8.029 2.465)">
            <path id="Trazado_1044250" data-name="Trazado 1044250" d="M251.132,1528.574a10.46,10.46,0,0,1,12.32-7.868c17.36,3.461,35.181,7.989,51.553,11.129a5.709,5.709,0,0,1,4.491,6.864h0a5.71,5.71,0,0,1-5.771,4.457c-10.918-.381-38.071-1.32-53.056-2.112A10.3,10.3,0,0,1,251.132,1528.574Z" transform="translate(-250.894 -1520.5)" fill="#feada2"/>
          </g>
          <g id="Grupo_1200487" data-name="Grupo 1200487" transform="translate(0)">
            <path id="Trazado_1044251" data-name="Trazado 1044251" d="M409.534,1509.856l25.677,4.406a3.212,3.212,0,0,1,2.453,1.975,23.384,23.384,0,0,1-.493,18.387,3.248,3.248,0,0,1-3.286,1.894l-27.622-2.86A12.02,12.02,0,0,1,395.6,1520.02h0A12.02,12.02,0,0,1,409.534,1509.856Z" transform="translate(-395.48 -1509.681)" fill="#ffb75b"/>
          </g>
        </g>
        <g id="Grupo_1200490" data-name="Grupo 1200490" transform="translate(187.072 122.537)">
          <g id="Grupo_1200489" data-name="Grupo 1200489">
            <path id="Trazado_1044252" data-name="Trazado 1044252" d="M482,1253.125l-.752-29.651a31.477,31.477,0,0,1,10.642,5.793c1.446,1.209,3.7,3.331,9.5,12.313,1.959,3.035,4.585,7.261,7.5,12.475l18.646,40.045a12.968,12.968,0,0,1-4.637,16.313h0a12.968,12.968,0,0,1-18.483-4.593l-16.1-29.288A51.3,51.3,0,0,1,482,1253.125Z" transform="translate(-481.248 -1223.474)" fill="#ffb75b"/>
          </g>
          <line id="Línea_1377" data-name="Línea 1377" x2="21.956" y2="40.501" transform="translate(2.376 44.806)" fill="none" stroke="#000" stroke-linecap="round" stroke-linejoin="round" stroke-miterlimit="10" stroke-width="1"/>
        </g>
      </g>
    </g>
  </g>
</svg>
