<svg xmlns="http://www.w3.org/2000/svg" xmlns:xlink="http://www.w3.org/1999/xlink" width="295" height="262" viewBox="0 0 295 262">
  <defs>
    <clipPath id="clip-path">
      <rect id="Rectángulo_414513" data-name="Rectángulo 414513" width="295" height="262" transform="translate(-703 1859)" fill="#fff" stroke="#707070" stroke-width="1" opacity="0.61"/>
    </clipPath>
  </defs>
  <g id="Grupo_1199824" data-name="Grupo 1199824" transform="translate(703 -1859)">
    <g id="Enmascarar_grupo_1098812" data-name="Enmascarar grupo 1098812" clip-path="url(#clip-path)">
      <g id="Grupo_1199823" data-name="Grupo 1199823">
        <circle id="Elipse_12095" data-name="Elipse 12095" cx="131" cy="131" r="131" transform="translate(-695 1930)" fill="#cfe3dc" opacity="0.51"/>
        <g id="Grupo_1174452" data-name="Grupo 1174452" transform="translate(-698.384 1863.918)">
          <g id="Grupo_1174451" data-name="Grupo 1174451" transform="translate(0 0)">
            <path id="Trazado_1027533" data-name="Trazado 1027533" d="M239.758-958.473c-3.867,3.566-8.279,18.031-4.966,24.151,2.5,4.6,9.685,3.876,14.233,6.546s7.41,7.141,8.952,12.121c2.777,8.965-5.724,17.27-6.951,26.562-1.6,12.1,8.424,22.569,11.065,34.489,3.007,13.553-5.085,28.663-18.152,33.911-10.1,4.06-21.516,2.495-32.308.862q-33.13-5-66.251-10c-6.414-.971-13.211-2.109-18.058-6.345-7.564-6.613-7.547-18.651-3.185-27.625s12.07-15.855,18.807-23.289,22.811-26.495,22.811-36.44c0-9.041-7.53-11.46-6.917-20.35.511-7.358,6.908-9.819,11.175-10.631,18.518-3.533,12.121-15.177,17.249-18.7,8.407-5.776,7.4,1.917,17.615,2.88,13.85,1.306,32.359,3.03,34.872,11.862Z" transform="translate(-69.832 1005.637)" fill="#262827"/>
            <path id="Trazado_1027534" data-name="Trazado 1027534" d="M1213.567-190.793c9.975.326,17.887,9.25,20.349,18.751s.75,19.5-.792,29.2q-4.753,29.86-7.163,60.013c-.511,6.379-.98,12.917-3.654,18.743s-8.1,10.891-14.6,11.276c-6.831.4-13.015-4.437-16.474-10.238-5.136-8.6-5.639-19.028-5.886-28.989-.724-28.922-.162-59.117,13.279-84.858,3.415-6.538,8.859-14.08,14.94-13.879v-.017Z" transform="translate(-1032.499 294.495)" fill="#dc8068"/>
            <path id="Trazado_1027535" data-name="Trazado 1027535" d="M1315.529,365.318c-.716,4.1-1.44,8.3-.7,12.4s3.228,8.145,7.2,9.6c3.705,1.364,7.93.243,11.363-1.7,6.457-3.641,10.937-9.836,15.025-15.947a446.246,446.246,0,0,0,31.388-55.643c11.124,3.65,38.211,12.615,38.927,9.384,1.082-4.855-14.489-6.747-14.029-6.63,9.889,2.453,21.823,6.973,22.675,3.96.963-3.4-13.143-5.91-16.729-6.9,4.454,1.507,20.562,6.262,21.226,3.951.844-2.947-6.584-4.3-17.487-6.722,4.557,1.18,14.872,4.772,15.945.394.928-2.453-13.739-4.236-22.666-5.835,4.335-1.055,6.124-1.214,8.9-1.775,1.21-.251,2.657-1.147,2.4-2.327-.272-1.264-1.874-1.791-3.177-1.641s-5.928-.2-14.574-.645c-11.9-1.917-26.3-11.176-39.812,3.131-16.533,17.512-41.184,36.23-45.877,62.959v-.017Z" transform="translate(-1149.554 -145.416)" fill="#dc8068"/>
            <path id="Trazado_1027536" data-name="Trazado 1027536" d="M75.3-486.436C65.1-435.229,41.186-368.545,36.008-362.024c-2.47,3.114-6.108,3.432-10.051,4.211-7.317,1.431-14.48-4.47-16.874-11.41s-1.209-14.541.239-21.732c5.051-25.088,12.921-49.54,20.775-73.925,2.6-8.078,5.315-16.374,10.741-22.97s13.816-9.108,22.223-7.191c6.261,1.431,13.083,4.412,12.249,8.605Z" transform="translate(32.83 570.842)" fill="#dc8068"/>
            <path id="Trazado_1027537" data-name="Trazado 1027537" d="M873.156-586.221c-.332,10.138,1.227,26.846,1.976,41.831-10.749-2.135-21.772,1.08-32.248,4.261a411.234,411.234,0,0,0-5.068-44.886c11.115-2.193,22.691-2.093,35.34-1.206Z" transform="translate(-718.238 653.459)" fill="#dc8068"/>
            <path id="Trazado_1027538" data-name="Trazado 1027538" d="M850.965-543.217l.588,4.094a40.657,40.657,0,0,0,4.9,2.2c9.515,2.7,19.344,3.767,29.1,2.16-.469-8.229-.537-14.691-.537-14.691l-34.046,6.228v.008Z" transform="translate(-730.135 619.596)" fill="#ad604c"/>
            <path id="Trazado_1027539" data-name="Trazado 1027539" d="M646.825-979.33a8.863,8.863,0,0,0-2.155-4.152,6.682,6.682,0,0,0-5.426-1.783,5.327,5.327,0,0,0-4.114,3.9,13.266,13.266,0,0,0-.409,8.363A12.672,12.672,0,0,0,641-965.752a4.268,4.268,0,0,0,2.146.628,2.712,2.712,0,0,0,2.393-2.227c1.218-4.052,2.351-8.279,1.286-11.979Z" transform="translate(-534.027 1014.69)" fill="#dc8068"/>
            <path id="Trazado_1027540" data-name="Trazado 1027540" d="M669.953-928.44a.412.412,0,0,1-.03.589.429.429,0,0,1-.6-.029,8.193,8.193,0,0,1-1.791-3.125,8.057,8.057,0,0,1-.284-3.569,5.741,5.741,0,0,1,.355-1.326,3.544,3.544,0,0,1,.779-1.186,2.753,2.753,0,0,1,1.387-.727,2.186,2.186,0,0,1,1.471.206.414.414,0,0,1,.165.568.429.429,0,0,1-.577.162,1.334,1.334,0,0,0-.9-.114,1.882,1.882,0,0,0-.948.5,2.717,2.717,0,0,0-.592.908,4.882,4.882,0,0,0-.3,1.133,7.233,7.233,0,0,0,.253,3.206,7.359,7.359,0,0,0,1.608,2.808Z" transform="translate(-563.834 971.658)" fill="#995746"/>
            <path id="Trazado_1027541" data-name="Trazado 1027541" d="M162.161-461.868c.929-9.61,8.066-11.879,17.888-11.762s22.53.8,31.431,4.889c15.724,7.233,41.439,14.105,58.321,21.146,15.571,6.5,7.6,35.753,2.794,52.537-9.65,33.694-23.773,95.448-23.773,95.448s6.1-3.139,3.33,74.47c-33.509,3.315-111.8,7.191-111.8-5.441,0-69.037,7.368-81.937,7.368-81.937S157.57-414.5,162.161-461.86v-.008Z" transform="translate(-87.182 550.871)" fill="#dc8068"/>
            <path id="Trazado_1027542" data-name="Trazado 1027542" d="M656.874-811.523a2.978,2.978,0,0,1,2.683,1.616,7.868,7.868,0,0,1,1,3.6,9.584,9.584,0,0,1-1.337,5.944c-1.107,1.616-3.058,2.444-4.591,1.6-1.491-.812-2.317-3-2.138-5.023.324-3.708,1.763-7.45,4.4-7.743l-.009.008Z" transform="translate(-550.532 857.155)" fill="#fac963"/>
            <path id="Trazado_1027543" data-name="Trazado 1027543" d="M688.6-798.533a1.257,1.257,0,0,1,.929.368,1.285,1.285,0,0,1-.017,1.85,1.358,1.358,0,0,1-2.231-.98,1.2,1.2,0,0,1,1.32-1.239Z" transform="translate(-582.034 845.37)" fill="#fa4203"/>
            <path id="Trazado_1027544" data-name="Trazado 1027544" d="M702.809-1234.08c-3.271,8.966-6.542,18.031-7.487,27.449s.6,21.33,6.32,29.174,16.1,11.142,26.175,9.61c8.092-1.231,14.94-6.571,19.267-13.026s6.439-13.938,8.024-21.388c1.542-7.216,2.641-14.758.579-21.857-2.981-10.3-13.007-18.542-24.412-20.066s-25.758,2.7-28.466,10.112v-.008Z" transform="translate(-589.074 1249.601)" fill="#dc8068"/>
            <path id="Trazado_1027545" data-name="Trazado 1027545" d="M217.155-495.73c4.668-8.5,8.833-14.222,22.751-14.725,7.112-.26,25.136,4.6,24.906,5.307-4.48,14.064,41.328,29.207,48.773,16.416.026-.05,15.639,5.031,21.559,7.752,13.032,5.994,20.451,16.156,18.058,45.38-.187,2.252-.75,13.628-1.789,14.038a29.616,29.616,0,0,1-18.628.8C324.326-389.8,310.332-333,310.332-333l-101.1-12.917s.034-23.531,2.317-23.966c12.453-2.377,31.712-78.638,31.712-78.638s-33.543.393-34.906-19.639c-.392-5.743,5.647-21.849,8.79-27.575l.009.008Z" transform="translate(-148.692 584.256)" fill="#fac963"/>
            <path id="Trazado_1027546" data-name="Trazado 1027546" d="M1009.013,1221.12q-.754,3.051-1.4,5.592a18.161,18.161,0,0,1-6.865,2.913,31.971,31.971,0,0,1-6.831.343,36.641,36.641,0,0,0-4.915.092,16.96,16.96,0,0,0-8.279,3.374l-4.421-.569a20.651,20.651,0,0,1,12.317-6.128,40,40,0,0,1,5.375-.117,28.612,28.612,0,0,0,6.1-.276,17.054,17.054,0,0,0,8.918-5.224Z" transform="translate(-843.541 -985.304)" fill="#e89b58"/>
            <path id="Trazado_1027547" data-name="Trazado 1027547" d="M578.47,743.206c-.324,1.231-.639,2.469-.962,3.708a19.354,19.354,0,0,0-10.46,7.827,38.975,38.975,0,0,0-2.36,4.546,46.213,46.213,0,0,1-2.232,4.386c-2.359,3.926-5.562,6.345-9.02,6.8-2.743.368-5.264-.5-7.7-1.339-2.223-.762-4.319-1.473-6.295-1.138-4.319.728-6.431,6.019-7.436,10.322l-.119.494c-1.21,5.182-2.581,11.067-7.658,13.829-4.864,2.654-10,.888-14.966-.812-3.271-1.122-6.644-2.277-9.779-2.076a10.754,10.754,0,0,0-7.87,4.453l-3.688-.469a13.982,13.982,0,0,1,11.329-7.325c3.833-.259,7.538,1.021,11.133,2.252,4.455,1.532,8.663,2.972,12.189,1.047,3.748-2.042,4.889-6.923,5.988-11.653l.119-.494c1.78-7.593,5.3-12.046,10.179-12.867,2.853-.485,5.468.41,8,1.281,2.147.737,4.182,1.431,6.125,1.18,3.237-.427,5.485-3.432,6.533-5.182a43.7,43.7,0,0,0,2.07-4.077,41.931,41.931,0,0,1,2.572-4.931,23.042,23.042,0,0,1,14.31-9.761Z" transform="translate(-401.661 -552.109)" fill="#e89b58"/>
            <path id="Trazado_1027548" data-name="Trazado 1027548" d="M570.113,44.388a1.66,1.66,0,0,1,.529,2.31,1.724,1.724,0,0,1-2.351.519c-4.787-2.972-11.38-.929-15.792,2.428a55.212,55.212,0,0,0-7.649,7.542c-1.746,1.95-3.543,3.976-5.528,5.81a30.54,30.54,0,0,1-6.576,4.629c.468-1.674.911-3.256,1.311-4.713a28.113,28.113,0,0,0,2.93-2.361c1.865-1.716,3.612-3.683,5.307-5.575a59.459,59.459,0,0,1,8.117-7.986c5.349-4.06,13.518-6.446,19.7-2.6Z" transform="translate(-442.214 83.08)" fill="#e89b58"/>
            <path id="Trazado_1027549" data-name="Trazado 1027549" d="M275.683-486.152a16.178,16.178,0,0,0-3.756,5.433c-.375.829-.724,1.683-1.082,2.536-1.269,3.106-2.581,6.32-5.153,8.79-4.643,4.462-11.1,4.7-17.343,4.922a59.1,59.1,0,0,0-7.9.636,24.154,24.154,0,0,0-13.041,7.082c.588-1.967,1.269-4.035,1.993-6.044a26.525,26.525,0,0,1,10.451-4.336,62.079,62.079,0,0,1,8.373-.686c5.86-.209,11.388-.41,15.085-3.968,2.061-1.984,3.186-4.73,4.378-7.643.366-.9.732-1.783,1.124-2.645a21.887,21.887,0,0,1,3.066-5.023c1.337.31,2.624.628,3.807.946Z" transform="translate(-165.943 563.075)" fill="#e89b58"/>
            <path id="Trazado_1027550" data-name="Trazado 1027550" d="M406.213-261.792a21.253,21.253,0,0,1-13.041,7.224,32.351,32.351,0,0,1-7.658-.3,26.117,26.117,0,0,0-7.547-.184c-3.509.62-6.533,2.712-9.736,4.922-2.879,2-5.86,4.06-9.361,5.115-5.392,1.616-10.877.552-16.184-.477a69.493,69.493,0,0,0-7.547-1.172,31.279,31.279,0,0,0-22.581,7.484,30.006,30.006,0,0,0-7.623,10.472,30.831,30.831,0,0,1-3.007-1.582,33.265,33.265,0,0,1,8.364-11.393,34.789,34.789,0,0,1,25.11-8.321,71.285,71.285,0,0,1,7.947,1.231c5.119.988,9.949,1.925,14.523.552,2.981-.887,5.613-2.712,8.4-4.638,3.365-2.336,6.839-4.738,11.09-5.491a29.264,29.264,0,0,1,8.561.159,29.338,29.338,0,0,0,6.848.3,17.481,17.481,0,0,0,9.915-5.1c1.065.352,2.257.762,3.526,1.2Z" transform="translate(-233.373 359.936)" fill="#e89b58"/>
            <path id="Trazado_1027551" data-name="Trazado 1027551" d="M398.631-194.533c-.221.67-.426,1.356-.639,2.051-1.363,4.487-2.768,9.125-6.431,12.347-3.875,3.424-8.978,4.144-13.918,4.839-4.233.6-8.228,1.164-11.363,3.315-3.509,2.411-5.417,6.446-7.436,10.723-2.215,4.671-4.5,9.5-9.114,12.339-5.034,3.106-10.911,2.687-16.6,2.277-4.625-.326-8.995-.636-12.9.8-6.661,2.461-11.124,9.794-13.254,21.79-.153.837-.3,1.691-.443,2.545-1.533,8.957-3.126,18.216-9.974,24.427-4.012,3.633-9.293,5.542-13.952,7.224a68.918,68.918,0,0,0-7.342,2.98,27.58,27.58,0,0,0,3.867-5.274c.775-.293,1.55-.569,2.3-.846,4.574-1.657,9.3-3.365,12.82-6.546,6-5.433,7.479-14.122,8.918-22.518.154-.862.3-1.724.451-2.57,2.351-13.243,7.538-21.439,15.417-24.352,4.591-1.7,9.548-1.348,14.335-1,5.375.385,10.451.745,14.548-1.775,3.756-2.31,5.733-6.488,7.828-10.916,2.121-4.487,4.31-9.124,8.577-12.054,3.79-2.6,8.39-3.256,12.836-3.884,4.634-.653,9.012-1.272,12.121-4.018,2.947-2.595,4.156-6.588,5.443-10.815.264-.871.537-1.75.818-2.629a1.207,1.207,0,0,1,.153.067c1.014.469,1.993.954,2.93,1.473Z" transform="translate(-209.25 299.281)" fill="#e89b58"/>
            <path id="Trazado_1027552" data-name="Trazado 1027552" d="M1067.431-110.662a31.9,31.9,0,0,1,9.438-10.439,23.971,23.971,0,0,1,2.146,2.6,28.622,28.622,0,0,0-8.595,9.434,59.183,59.183,0,0,0-2.555,5.466,58.692,58.692,0,0,1-2.845,6.035c-2.743,4.822-6.541,7.919-10.707,8.714a21.784,21.784,0,0,1-5.46.134,17.922,17.922,0,0,0-4.762.117c-4.7,1-7.555,5.81-10.306,10.464l-.366.619c-2.854,4.8-7.453,10.28-13.56,10.28a10.949,10.949,0,0,1-1.465-.1,1.7,1.7,0,0,1-1.448-1.9,1.7,1.7,0,0,1,1.933-1.415c5.23.737,9.506-5.048,11.593-8.555l.366-.611c2.981-5.039,6.363-10.74,12.53-12.054a20.46,20.46,0,0,1,5.7-.184,18.618,18.618,0,0,0,4.6-.084c4.259-.812,7.078-4.772,8.381-7.057a55,55,0,0,0,2.675-5.692,61.027,61.027,0,0,1,2.709-5.776Z" transform="translate(-880.298 231.325)" fill="#e89b58"/>
            <path id="Trazado_1027553" data-name="Trazado 1027553" d="M446.886,100.2a13.992,13.992,0,0,0-4.54,3.072c-2.436,2.478-4.1,5.567-5.843,8.832-.494.9-.98,1.816-1.482,2.712-2.019,3.566-5.3,8.564-10.519,10.74-3.229,1.339-6.8,1.507-10.255,1.657-4.472.2-8.7.393-11.295,3.2-1.933,2.093-2.47,5.173-3.032,8.43-.673,3.876-1.363,7.886-4.532,10.648-3.33,2.9-8.569,3.432-14.361,1.457-1.55-.527-3.066-1.172-4.523-1.8a31.913,31.913,0,0,0-7.7-2.57,15.365,15.365,0,0,0-13.083,4.345,14.77,14.77,0,0,0-3.91,13.017,33.013,33.013,0,0,0,1.584,5.031c1.286,3.482,2.623,7.082,1.635,10.916-1.593,6.17-8.373,9.192-14.182,9.962-1.925.251-3.875.352-5.766.452-3.611.192-7.019.368-10.17,1.532a15.8,15.8,0,0,0-9.105,9.794,17.278,17.278,0,0,0-.9,4.428l-3.4-.435a20.769,20.769,0,0,1,1.073-5.073A18.941,18.941,0,0,1,323.71,188.7c3.646-1.348,7.479-1.549,11.193-1.741,1.823-.1,3.705-.192,5.494-.435,4.71-.62,10.153-2.9,11.329-7.459.733-2.838-.366-5.8-1.533-8.949a36.823,36.823,0,0,1-1.729-5.542,18.122,18.122,0,0,1,4.8-15.98,18.873,18.873,0,0,1,16.056-5.332,35.444,35.444,0,0,1,8.543,2.813c1.465.628,2.845,1.222,4.276,1.708,4.531,1.54,8.637,1.247,10.979-.8,2.274-1.976,2.845-5.24,3.441-8.7.613-3.591,1.261-7.308,3.876-10.129,3.552-3.826,8.688-4.052,13.654-4.278,3.152-.142,6.414-.293,9.08-1.4,4.208-1.75,6.951-5.885,8.867-9.284.494-.879.971-1.766,1.448-2.654,1.789-3.332,3.637-6.772,6.414-9.593a17.114,17.114,0,0,1,6.721-4.2c.119,1.1.2,2.26.264,3.457Z" transform="translate(-242.036 33.863)" fill="#e89b58"/>
            <path id="Trazado_1027554" data-name="Trazado 1027554" d="M578.47,743.206c-.324,1.231-.639,2.469-.962,3.708a19.354,19.354,0,0,0-10.46,7.827,38.975,38.975,0,0,0-2.36,4.546,46.213,46.213,0,0,1-2.232,4.386c-2.359,3.926-5.562,6.345-9.02,6.8-2.743.368-5.264-.5-7.7-1.339-2.223-.762-4.319-1.473-6.295-1.138-4.319.728-6.431,6.019-7.436,10.322l-.119.494c-1.21,5.182-2.581,11.067-7.658,13.829-4.864,2.654-10,.888-14.966-.812-3.271-1.122-6.644-2.277-9.779-2.076a10.754,10.754,0,0,0-7.87,4.453l-3.688-.469a13.982,13.982,0,0,1,11.329-7.325c3.833-.259,7.538,1.021,11.133,2.252,4.455,1.532,8.663,2.972,12.189,1.047,3.748-2.042,4.889-6.923,5.988-11.653l.119-.494c1.78-7.593,5.3-12.046,10.179-12.867,2.853-.485,5.468.41,8,1.281,2.147.737,4.182,1.431,6.125,1.18,3.237-.427,5.485-3.432,6.533-5.182a43.7,43.7,0,0,0,2.07-4.077,41.931,41.931,0,0,1,2.572-4.931,23.042,23.042,0,0,1,14.31-9.761Z" transform="translate(-401.661 -552.109)" fill="#e89b58"/>
            <path id="Trazado_1027555" data-name="Trazado 1027555" d="M446.886,100.2a13.992,13.992,0,0,0-4.54,3.072c-2.436,2.478-4.1,5.567-5.843,8.832-.494.9-.98,1.816-1.482,2.712-2.019,3.566-5.3,8.564-10.519,10.74-3.229,1.339-6.8,1.507-10.255,1.657-4.472.2-8.7.393-11.295,3.2-1.933,2.093-2.47,5.173-3.032,8.43-.673,3.876-1.363,7.886-4.532,10.648-3.33,2.9-8.569,3.432-14.361,1.457-1.55-.527-3.066-1.172-4.523-1.8a31.913,31.913,0,0,0-7.7-2.57,15.365,15.365,0,0,0-13.083,4.345,14.77,14.77,0,0,0-3.91,13.017,33.013,33.013,0,0,0,1.584,5.031c1.286,3.482,2.623,7.082,1.635,10.916-1.593,6.17-8.373,9.192-14.182,9.962-1.925.251-3.875.352-5.766.452-3.611.192-7.019.368-10.17,1.532a15.8,15.8,0,0,0-9.105,9.794,17.278,17.278,0,0,0-.9,4.428l-3.4-.435a20.769,20.769,0,0,1,1.073-5.073A18.941,18.941,0,0,1,323.71,188.7c3.646-1.348,7.479-1.549,11.193-1.741,1.823-.1,3.705-.192,5.494-.435,4.71-.62,10.153-2.9,11.329-7.459.733-2.838-.366-5.8-1.533-8.949a36.823,36.823,0,0,1-1.729-5.542,18.122,18.122,0,0,1,4.8-15.98,18.873,18.873,0,0,1,16.056-5.332,35.444,35.444,0,0,1,8.543,2.813c1.465.628,2.845,1.222,4.276,1.708,4.531,1.54,8.637,1.247,10.979-.8,2.274-1.976,2.845-5.24,3.441-8.7.613-3.591,1.261-7.308,3.876-10.129,3.552-3.826,8.688-4.052,13.654-4.278,3.152-.142,6.414-.293,9.08-1.4,4.208-1.75,6.951-5.885,8.867-9.284.494-.879.971-1.766,1.448-2.654,1.789-3.332,3.637-6.772,6.414-9.593a17.114,17.114,0,0,1,6.721-4.2c.119,1.1.2,2.26.264,3.457Z" transform="translate(-242.036 33.863)" fill="#e89b58"/>
            <path id="Trazado_1027556" data-name="Trazado 1027556" d="M1009.013,1221.12q-.754,3.051-1.4,5.592a18.161,18.161,0,0,1-6.865,2.913,31.971,31.971,0,0,1-6.831.343,36.641,36.641,0,0,0-4.915.092,16.96,16.96,0,0,0-8.279,3.374l-4.421-.569a20.651,20.651,0,0,1,12.317-6.128,40,40,0,0,1,5.375-.117,28.612,28.612,0,0,0,6.1-.276,17.054,17.054,0,0,0,8.918-5.224Z" transform="translate(-843.541 -985.304)" fill="#e89b58"/>
            <path id="Trazado_1027557" data-name="Trazado 1027557" d="M398.631-194.533c-.221.67-.426,1.356-.639,2.051-1.363,4.487-2.768,9.125-6.431,12.347-3.875,3.424-8.978,4.144-13.918,4.839-4.233.6-8.228,1.164-11.363,3.315-3.509,2.411-5.417,6.446-7.436,10.723-2.215,4.671-4.5,9.5-9.114,12.339-5.034,3.106-10.911,2.687-16.6,2.277-4.625-.326-8.995-.636-12.9.8-6.661,2.461-11.124,9.794-13.254,21.79-.153.837-.3,1.691-.443,2.545-1.533,8.957-3.126,18.216-9.974,24.427-4.012,3.633-9.293,5.542-13.952,7.224a68.918,68.918,0,0,0-7.342,2.98,27.58,27.58,0,0,0,3.867-5.274c.775-.293,1.55-.569,2.3-.846,4.574-1.657,9.3-3.365,12.82-6.546,6-5.433,7.479-14.122,8.918-22.518.154-.862.3-1.724.451-2.57,2.351-13.243,7.538-21.439,15.417-24.352,4.591-1.7,9.548-1.348,14.335-1,5.375.385,10.451.745,14.548-1.775,3.756-2.31,5.733-6.488,7.828-10.916,2.121-4.487,4.31-9.124,8.577-12.054,3.79-2.6,8.39-3.256,12.836-3.884,4.634-.653,9.012-1.272,12.121-4.018,2.947-2.595,4.156-6.588,5.443-10.815.264-.871.537-1.75.818-2.629a1.207,1.207,0,0,1,.153.067c1.014.469,1.993.954,2.93,1.473Z" transform="translate(-209.25 299.281)" fill="#e89b58"/>
            <path id="Trazado_1027558" data-name="Trazado 1027558" d="M1079.015-118.5a28.622,28.622,0,0,0-8.595,9.434,59.185,59.185,0,0,0-2.555,5.466,58.693,58.693,0,0,1-2.845,6.035c-2.743,4.822-6.541,7.919-10.707,8.714a21.783,21.783,0,0,1-5.46.134,17.922,17.922,0,0,0-4.762.117c-4.7,1-7.555,5.81-10.306,10.464l-.366.619c-2.854,4.8-7.453,10.28-13.56,10.28a10.949,10.949,0,0,1-1.465-.1,1.7,1.7,0,0,1-1.448-1.9,1.7,1.7,0,0,1,1.933-1.415c5.23.737,9.506-5.048,11.593-8.555l.366-.611c2.981-5.039,6.363-10.74,12.53-12.054a20.459,20.459,0,0,1,5.7-.184,18.618,18.618,0,0,0,4.6-.084c4.259-.812,7.078-4.772,8.381-7.057a55,55,0,0,0,2.675-5.692,61.025,61.025,0,0,1,2.709-5.776,31.9,31.9,0,0,1,9.438-10.439,23.977,23.977,0,0,1,2.146,2.6Z" transform="translate(-880.298 231.325)" fill="#e89b58"/>
            <path id="Trazado_1027559" data-name="Trazado 1027559" d="M570.642,46.7a1.724,1.724,0,0,1-2.351.519c-4.787-2.972-11.38-.929-15.792,2.428a55.213,55.213,0,0,0-7.649,7.542c-1.746,1.95-3.543,3.976-5.528,5.809a30.541,30.541,0,0,1-6.576,4.629c.468-1.674.911-3.256,1.311-4.713a28.1,28.1,0,0,0,2.93-2.361c1.865-1.716,3.612-3.683,5.307-5.575a59.464,59.464,0,0,1,8.117-7.986c5.349-4.06,13.518-6.446,19.7-2.6a1.66,1.66,0,0,1,.529,2.31Z" transform="translate(-442.214 83.079)" fill="#e89b58"/>
            <path id="Trazado_1027560" data-name="Trazado 1027560" d="M406.213-261.792a21.253,21.253,0,0,1-13.041,7.224,32.351,32.351,0,0,1-7.658-.3,26.117,26.117,0,0,0-7.547-.184c-3.509.62-6.533,2.712-9.736,4.922-2.879,2-5.86,4.06-9.361,5.115-5.392,1.616-10.877.552-16.184-.477a69.493,69.493,0,0,0-7.547-1.172,31.279,31.279,0,0,0-22.581,7.484,30.006,30.006,0,0,0-7.623,10.472,30.831,30.831,0,0,1-3.007-1.582,33.265,33.265,0,0,1,8.364-11.393,34.789,34.789,0,0,1,25.11-8.321,71.285,71.285,0,0,1,7.947,1.231c5.119.988,9.949,1.925,14.523.552,2.981-.887,5.613-2.712,8.4-4.638,3.365-2.336,6.839-4.738,11.09-5.491a29.264,29.264,0,0,1,8.561.159,29.338,29.338,0,0,0,6.848.3,17.481,17.481,0,0,0,9.915-5.1c1.065.352,2.257.762,3.526,1.2Z" transform="translate(-233.373 359.936)" fill="#e89b58"/>
            <path id="Trazado_1027561" data-name="Trazado 1027561" d="M275.683-486.152a16.178,16.178,0,0,0-3.756,5.433c-.375.829-.724,1.683-1.082,2.536-1.269,3.106-2.581,6.32-5.153,8.79-4.643,4.462-11.1,4.7-17.343,4.922a59.1,59.1,0,0,0-7.9.636,24.154,24.154,0,0,0-13.041,7.082c.588-1.967,1.269-4.035,1.993-6.044a26.525,26.525,0,0,1,10.451-4.336,62.079,62.079,0,0,1,8.373-.686c5.86-.209,11.388-.41,15.085-3.968,2.061-1.984,3.186-4.73,4.378-7.643.366-.9.732-1.783,1.124-2.645a21.887,21.887,0,0,1,3.066-5.023c1.337.31,2.624.628,3.807.946Z" transform="translate(-165.943 563.075)" fill="#e89b58"/>
            <path id="Trazado_1027562" data-name="Trazado 1027562" d="M30.187,1237.289s21.763,24.485,18.995,102.094c-13.024,1.289-38.637,2.218-65.093,2.135-1.865,0-6.712-19.706-6.712-19.706s-2.53,19.639-4.344,19.614c-37.972-.544-74.318-3.365-74.318-10.414,0-69.036,30.366-106.631,30.366-106.631l.239-2.453,101.626,12.247-.775,3.122.017-.008Z" transform="translate(131.452 -986.037)" fill="#0c476b"/>
            <path id="Trazado_1027563" data-name="Trazado 1027563" d="M230.811,154.713c-5.264,23.615-7.206,35.929-16.414,63.47-2.206,6.6-8.756,13.787-15.6,15.487-1.729.427-4.089.142-4.549-1.549-.2-.72-.307-2.679.281-2.193,12.768,10.631,22.845-35.025,36.286-75.215Z" transform="translate(-135.798 -18.681)" fill="#262827"/>
            <path id="Trazado_1027564" data-name="Trazado 1027564" d="M-346.687-505.824c.945,14.959,3.118,29.508,1.84,44.443-.443,5.182-1.456,10.757-5.315,14.306-5.409,4.972-14.676,3.717-20.2-1.122s-7.973-12.238-9.1-19.429c-3.944-25.231,5.545-50.461,7.862-76.3-8.441-8.949-21.721-11.778-31.354-19.471a37.157,37.157,0,0,1-13.313-22.292c-.29-1.633-.281-3.692,1.192-4.5a3.07,3.07,0,0,1,3.6.912,9.654,9.654,0,0,1,1.678,3.566,52.358,52.358,0,0,0,13.509,21.748,34.517,34.517,0,0,1-11.559-24.846,5.82,5.82,0,0,1,.409-2.679,2.315,2.315,0,0,1,2.206-1.373c1.124.142,1.788,1.272,2.274,2.277,4.659,9.6,1.312,11.268,14.838,26.746-8.3-8.153-9.727-14.641-9.532-19.195.077-1.716.826-3.826,2.572-3.968a2.824,2.824,0,0,1,2.436,1.381,8.722,8.722,0,0,1,1,2.721c2.019,7.844,7.385,13.344,12.743,19.287-3.194-6.262-2.615-7.425-3.322-11.41-.912-5.106,2.513-7.124,4.48-4.7a4.9,4.9,0,0,1,.937,1.95c1.235,4.855,3.16,10.79,6.473,13.553.75.628,4.668,1.775,8.271,2.746a20.549,20.549,0,0,1,9.659,5.341c2.555,2.687,4.072,6.463,4.378,11.343.554,13.578.111,19.672,1.337,38.976Z" transform="translate(416.58 658.958)" fill="#dc8068"/>
            <path id="Trazado_1027565" data-name="Trazado 1027565" d="M540.784,52.559a.428.428,0,0,1,.546-.249.416.416,0,0,1,.253.536q-1.82,4.84-3.646,9.677T534.291,72.2a.427.427,0,0,1-.545.248.416.416,0,0,1-.253-.536q1.82-4.841,3.646-9.677t3.645-9.677Z" transform="translate(-442.866 74.162)" fill="#381c15"/>
            <path id="Trazado_1027566" data-name="Trazado 1027566" d="M747.385-436.644a.42.42,0,0,1,.412-.428.421.421,0,0,1,.436.406,16.166,16.166,0,0,0,2.894,8.613,16.548,16.548,0,0,0,7.047,5.85.415.415,0,0,1,.219.549.428.428,0,0,1-.559.216,17.4,17.4,0,0,1-7.413-6.147,16.992,16.992,0,0,1-3.037-9.058Z" transform="translate(-636.417 517.731)" fill="#381c15"/>
            <path id="Trazado_1027567" data-name="Trazado 1027567" d="M900.78-253.6a.415.415,0,0,1-.2-.558.429.429,0,0,1,.568-.195c1.262.6,2.177,1.032,3.094,1.465l1.614.762a.414.414,0,0,1,.2.556.428.428,0,0,1-.566.2l-1.615-.762c-1.15-.543-2.3-1.084-3.1-1.465Z" transform="translate(-774.99 352.144)" fill="#381c15"/>
            <path id="Trazado_1027568" data-name="Trazado 1027568" d="M1488.123,343.89a.426.426,0,0,1,.517-.3.418.418,0,0,1,.308.508q-1.263,4.876-2.741,9.708-1.464,4.783-3.148,9.53a.427.427,0,0,1-.541.257.416.416,0,0,1-.261-.531q1.667-4.7,3.135-9.494t2.731-9.675Z" transform="translate(-1301.301 -189.871)" fill="#381c15"/>
            <path id="Trazado_1027569" data-name="Trazado 1027569" d="M1470.933,312.926a.415.415,0,0,1-.236-.543.428.428,0,0,1,.552-.232q4.73,1.861,9.594,3.313t9.851,2.492a.451.451,0,0,1,.054.015c2.47.866,4.94,1.653,7.414,2.329s4.973,1.249,7.5,1.687l.014,0a4.307,4.307,0,0,0,1.711.006,1.061,1.061,0,0,0,.738-.544l.013-.026a.979.979,0,0,0,.052-.563,1.505,1.505,0,0,0-.317-.672,2.859,2.859,0,0,0-.593-.529,7.386,7.386,0,0,0-.751-.445q-.37-.2-.745-.381c-2.046-.623-4.085-1.32-6.14-2.023-.564-.193-1.142-.391-2.08-.707a.419.419,0,0,1-.28-.473.424.424,0,0,1,.5-.334,32.24,32.24,0,0,1,8.325,2.76,54.613,54.613,0,0,0,8.08,1.883,4.438,4.438,0,0,0,1.929-.085,1.134,1.134,0,0,0,.783-.692,1.072,1.072,0,0,0-.016-.66,1.735,1.735,0,0,0-.448-.707,2.951,2.951,0,0,0-.714-.491,9.352,9.352,0,0,0-.889-.38l-.027-.011q-1.905-.746-3.852-1.409l-1.234-.334c-2.729-.742-5.476-1.521-8.264-2.356a.417.417,0,0,1-.315-.5.425.425,0,0,1,.509-.314q3.451.783,6.831,1.821,1.371.421,2.732.886c2.329.626,4.637,1.224,6.938,1.808h0c.353.089.712.179,1.059.232a3.488,3.488,0,0,0,.992.025,1.956,1.956,0,0,0,.89-.353,1.209,1.209,0,0,0,.454-.608l.006-.02a1.158,1.158,0,0,0-.047-.7,1.859,1.859,0,0,0-.524-.749,3.335,3.335,0,0,0-.805-.5,9.4,9.4,0,0,0-.972-.368h0q-2.7-.912-5.468-1.61-1.3-.147-2.615-.358c-2.059-.329-4.13-.767-6.235-1.29a.42.42,0,0,1-.338-.461.425.425,0,0,1,.474-.365,71.939,71.939,0,0,1,7.291,1.272q.794.181,1.582.379,1.716.192,3.426.264h0a5.112,5.112,0,0,0,2.133-.307,1.346,1.346,0,0,0,.832-.876,1.26,1.26,0,0,0-.089-.818,2.006,2.006,0,0,0-.647-.8,3.557,3.557,0,0,0-.948-.475,11.268,11.268,0,0,0-1.125-.308h0a196.534,196.534,0,0,0-20.684-3.2l-.087-.01a.417.417,0,0,1-.022-.827c1.709-.36,3.437-.719,5.2-1.082q2.456-.507,5.088-1.041a5.754,5.754,0,0,0,1.471-.471,1.427,1.427,0,0,0,.785-.856,1.16,1.16,0,0,0-.137-.846,1.909,1.909,0,0,0-.789-.758,5.781,5.781,0,0,0-2.333-.429h-.019q-8.12-.326-16.241-.661l-.042,0a78.469,78.469,0,0,1-8.8-1.919c-1.9-.49-3.8-.981-5.7-1.376a36.39,36.39,0,0,0-7.341-.839,19.546,19.546,0,0,0-7.093,1.222l-.021.007a20.758,20.758,0,0,0-5.081,2.959,56.226,56.226,0,0,0-4.52,3.983c-4.557,4.358-11.652,12.173-18.428,20-7.772,8.978-15.127,17.976-17.75,21.791a.43.43,0,0,1-.591.113.414.414,0,0,1-.115-.581c2.629-3.823,10.009-12.851,17.811-21.863,6.8-7.853,13.915-15.691,18.481-20.058a56.846,56.846,0,0,1,4.59-4.042,21.614,21.614,0,0,1,5.289-3.078l.022-.009a20.4,20.4,0,0,1,7.405-1.277,37.207,37.207,0,0,1,7.514.856c1.933.4,3.842.893,5.748,1.385a78.063,78.063,0,0,0,8.689,1.9q8.108.338,16.216.66H1506a6.408,6.408,0,0,1,2.686.524,2.773,2.773,0,0,1,1.145,1.1,1.963,1.963,0,0,1,.212,1.447l0,0a2.22,2.22,0,0,1-1.208,1.384,6.527,6.527,0,0,1-1.7.553h0c-1.624.33-3.307.674-5.086,1.041l-2.714.563a176.474,176.474,0,0,1,18.332,2.929l0,0a12.305,12.305,0,0,1,1.213.332,4.394,4.394,0,0,1,1.175.592,2.861,2.861,0,0,1,.921,1.14,2.069,2.069,0,0,1,.132,1.348,2.148,2.148,0,0,1-1.312,1.435,5.391,5.391,0,0,1-1.99.383q.836.26,1.664.54a10.391,10.391,0,0,1,1.058.4,4.177,4.177,0,0,1,1.012.634,2.709,2.709,0,0,1,.761,1.093,1.965,1.965,0,0,1,.063,1.207l-.009.033a2.032,2.032,0,0,1-.757,1.036,2.834,2.834,0,0,1-1.289.514,4.324,4.324,0,0,1-1.235-.029c-.393-.06-.771-.155-1.142-.249l-1.076-.274q.086.072.168.15a2.585,2.585,0,0,1,.665,1.053,1.882,1.882,0,0,1,.012,1.163,1.934,1.934,0,0,1-1.318,1.228,5.288,5.288,0,0,1-2.324.121,49.041,49.041,0,0,1-5.577-1.162l.05.059a2.349,2.349,0,0,1,.493,1.051,1.774,1.774,0,0,1-.116,1.051l-.015.035a1.869,1.869,0,0,1-1.29,1,5.132,5.132,0,0,1-2.075.009l-.016,0c-2.541-.441-5.066-1.02-7.579-1.707s-4.988-1.475-7.45-2.338q-4.986-1.042-9.888-2.505t-9.664-3.336Z" transform="translate(-1239.691 -143.642)" fill="#995746"/>
            <path id="Trazado_1027570" data-name="Trazado 1027570" d="M-405.976-571.291a.413.413,0,0,1,.068.587.43.43,0,0,1-.6.067,30.743,30.743,0,0,1-7.927-9.324,30.167,30.167,0,0,1-3.653-11.6,6.913,6.913,0,0,1,.363-3.2,2.734,2.734,0,0,1,1.8-1.7,2.761,2.761,0,0,1,1.732.111,3.822,3.822,0,0,1,1.53,1.106,8.507,8.507,0,0,1,1.389,2.844l.04.116a68.227,68.227,0,0,0,3.435,8.133,28.923,28.923,0,0,1-2.379-10.683v0h0a10.478,10.478,0,0,1,.079-1.425,4.782,4.782,0,0,1,.405-1.422,3.4,3.4,0,0,1,1.042-1.266,2.616,2.616,0,0,1,1.448-.522,2.834,2.834,0,0,1,2.27,1.1,7.727,7.727,0,0,1,1.258,2.2c.719,1.822,1.355,3.67,1.99,5.519.754,2.195,1.509,4.391,2.4,6.53a20.486,20.486,0,0,1-.509-4.43,6.684,6.684,0,0,1,.688-3.126,2.819,2.819,0,0,1,1.985-1.53,2.825,2.825,0,0,1,1.718.253,3.928,3.928,0,0,1,1.454,1.209A9,9,0,0,1-392.733-589l.1.309a38.7,38.7,0,0,0,4.53,9.579A34.749,34.749,0,0,0-381.923-572a35.736,35.736,0,0,1-1.218-3.976,35.366,35.366,0,0,1-.977-6.865,10.811,10.811,0,0,1,.005-1.4,4.753,4.753,0,0,1,.323-1.424,3.348,3.348,0,0,1,.966-1.313,2.479,2.479,0,0,1,1.4-.573,2.711,2.711,0,0,1,2.333,1.151,8.032,8.032,0,0,1,1.224,2.335c.437,1.228.709,2.235.981,3.241s.538,1.989.961,3.179l.082.231c.759,2.138,1.8,5.064,3.488,6.4a13.014,13.014,0,0,0,4.8,1.867l.017,0c.473.118.936.234,1.363.354l.036.012a38.745,38.745,0,0,1,8.33,3.151,15.613,15.613,0,0,1,6.408,6.337c2.6,4.844,2.622,14.049,2.636,21.683,0,1.811.007,3.533.044,5.089.2,8.139.538,16.089.877,24.04s.677,15.9.877,24.078a.42.42,0,0,1-.414.427.421.421,0,0,1-.434-.407c-.2-8.15-.539-16.108-.878-24.065-.339-7.942-.677-15.883-.877-24.053-.038-1.555-.041-3.287-.045-5.109-.014-7.538-.031-16.628-2.539-21.293a14.8,14.8,0,0,0-6.075-6,37.988,37.988,0,0,0-8.146-3.076l-.034-.008c-.433-.122-.881-.234-1.34-.348l-.017,0a13.586,13.586,0,0,1-5.122-2.027c-1.879-1.489-2.965-4.545-3.758-6.779l-.082-.231c-.437-1.229-.709-2.235-.981-3.242s-.538-1.988-.961-3.179a7.251,7.251,0,0,0-1.084-2.089,1.911,1.911,0,0,0-1.611-.837h0a1.631,1.631,0,0,0-.918.383,2.5,2.5,0,0,0-.716.979,3.961,3.961,0,0,0-.263,1.179,10.046,10.046,0,0,0-.005,1.3v0a34.553,34.553,0,0,0,.954,6.706,34.886,34.886,0,0,0,2.234,6.391.413.413,0,0,1-.131.538.43.43,0,0,1-.592-.1l-1.1-1.539a35.495,35.495,0,0,1-6.913-7.779,39.525,39.525,0,0,1-4.625-9.781c-.014-.042-.1-.294-.1-.311a8.366,8.366,0,0,0-1.09-2.493,3.069,3.069,0,0,0-1.131-.948,1.98,1.98,0,0,0-1.2-.185,2.009,2.009,0,0,0-1.389,1.1,5.851,5.851,0,0,0-.588,2.727,20.277,20.277,0,0,0,2.055,8.713,20.686,20.686,0,0,0,5.546,7.041l.029.023a.413.413,0,0,1,.075.587.431.431,0,0,1-.6.074,21.955,21.955,0,0,1-4.692-5.027,35.215,35.215,0,0,1-3.275-6.03c-1.019-2.357-1.854-4.785-2.688-7.212-.633-1.841-1.265-3.682-1.976-5.483a6.917,6.917,0,0,0-1.112-1.96,2.029,2.029,0,0,0-1.595-.812,1.765,1.765,0,0,0-.973.359,2.542,2.542,0,0,0-.779.949,3.97,3.97,0,0,0-.332,1.179,9.812,9.812,0,0,0-.069,1.314h0a28.358,28.358,0,0,0,2.411,10.6,88.439,88.439,0,0,0,5.147,9.967.413.413,0,0,1-.112.56.429.429,0,0,1-.592-.095,70.074,70.074,0,0,1-5.469-8.771,69.038,69.038,0,0,1-4.095-9.437l-.04-.119a7.905,7.905,0,0,0-1.24-2.579,2.957,2.957,0,0,0-1.181-.857,1.912,1.912,0,0,0-1.2-.085,1.929,1.929,0,0,0-1.246,1.21,6.094,6.094,0,0,0-.3,2.8,29.328,29.328,0,0,0,3.553,11.278,29.905,29.905,0,0,0,7.711,9.069Z" transform="translate(418.128 664.93)" fill="#995746"/>
            <path id="Trazado_1027571" data-name="Trazado 1027571" d="M947.089-956.489a.42.42,0,0,1,.379-.458.423.423,0,0,1,.466.373,16.475,16.475,0,0,1-.684,6.112,21.011,21.011,0,0,1-2.812,6.053,25.019,25.019,0,0,1-1.725,2.1c-1.156,1.315-2.294,2.609-2.248,3.453a2.024,2.024,0,0,0,.028.233,2.662,2.662,0,0,0,1.51,1.8,4.758,4.758,0,0,0,2.331.555,2.171,2.171,0,0,0,.234-.026.425.425,0,0,1,.491.342.419.419,0,0,1-.348.482,3.081,3.081,0,0,1-.328.036,5.663,5.663,0,0,1-2.78-.653,3.469,3.469,0,0,1-1.95-2.393,2.906,2.906,0,0,1-.038-.325v0c-.066-1.18,1.185-2.6,2.454-4.047a24.491,24.491,0,0,0,1.665-2.029,20.175,20.175,0,0,0,2.7-5.807,15.676,15.676,0,0,0,.657-5.8Z" transform="translate(-810.344 988.962)" fill="#995746"/>
            <path id="Trazado_1027572" data-name="Trazado 1027572" d="M849.861-963.945c-1.338-.284-2.8,1.211-3.27,3.339s.238,4.084,1.575,4.368,2.8-1.211,3.27-3.339-.237-4.084-1.575-4.368Z" transform="translate(-726.047 995.334)" fill="#4f191d"/>
            <path id="Trazado_1027573" data-name="Trazado 1027573" d="M1108.64-908.013c-1.338-.284-2.8,1.211-3.27,3.34s.237,4.084,1.576,4.368,2.8-1.211,3.27-3.34-.238-4.084-1.575-4.368Z" transform="translate(-960.188 944.637)" fill="#4f191d"/>
            <path id="Trazado_1027574" data-name="Trazado 1027574" d="M929.917-674.691a4.84,4.84,0,0,0-5.451-.636c-1.567.72-2.334,1.6-5.017,1.365-1.8-.159-4.659,1.331-4.446,3.1,4.753,3.374,12.351,2.3,14.923-3.826Z" transform="translate(-788.065 734.194)" fill="#8f2e1d"/>
            <path id="Trazado_1027575" data-name="Trazado 1027575" d="M759.566-845.277c-3.3-.7-6.419.776-6.974,3.3s1.668,5.133,4.965,5.834,6.419-.776,6.974-3.3-1.668-5.134-4.965-5.834Z" transform="translate(-641.051 887.897)" fill="#b83d32"/>
            <path id="Trazado_1027576" data-name="Trazado 1027576" d="M1102.817-781.356c-3.61-.766-7.027.847-7.633,3.6s1.829,5.612,5.439,6.379,7.026-.847,7.632-3.6-1.829-5.612-5.439-6.379Z" transform="translate(-951.018 829.972)" fill="#b83d32"/>
            <path id="Trazado_1027577" data-name="Trazado 1027577" d="M806.237-1030.833a14.109,14.109,0,0,1,10.86,1.8,3.189,3.189,0,0,1,1.38,1.457,1.271,1.271,0,0,1-.724,1.657,2.141,2.141,0,0,1-1.635-.611,12.807,12.807,0,0,0-8-2.327,5.019,5.019,0,0,1-1.584-.058,1.309,1.309,0,0,1-1.022-1.072c-.026-.519.6-1.021.724-.854v.009Z" transform="translate(-689.01 1056.291)" fill="#380e11"/>
            <path id="Trazado_1027578" data-name="Trazado 1027578" d="M1116.9-971.745a14.069,14.069,0,0,0-10.826-1.975,3.2,3.2,0,0,0-1.806.9,1.26,1.26,0,0,0,.1,1.8,2.151,2.151,0,0,0,1.746-.017,12.8,12.8,0,0,1,8.322.519,4.962,4.962,0,0,0,1.508.486,1.339,1.339,0,0,0,1.337-.661c.213-.477-.2-1.155-.383-1.046v-.008Z" transform="translate(-959.027 1004.476)" fill="#380e11"/>
            <path id="Trazado_1027579" data-name="Trazado 1027579" d="M979.983-558.237a.428.428,0,0,1-.574.172.414.414,0,0,1-.175-.564,3.491,3.491,0,0,1,.208-.335,4.089,4.089,0,0,1,2.413-1.569,4.164,4.164,0,0,1,2.874.321,3.512,3.512,0,0,1,.342.205.413.413,0,0,1,.108.581.429.429,0,0,1-.591.106,2.791,2.791,0,0,0-.259-.156,3.3,3.3,0,0,0-2.278-.246,3.232,3.232,0,0,0-1.911,1.233,2.631,2.631,0,0,0-.158.253Z" transform="translate(-846.147 629.748)" fill="#995746"/>
            <path id="Trazado_1027580" data-name="Trazado 1027580" d="M217.36,1267.31a.418.418,0,0,1-.318-.5.426.426,0,0,1,.511-.312q24.315,5.614,49.1,8.828,24.765,3.212,49.768,3.995a.417.417,0,1,1-.026.834q-25.006-.779-49.852-4-24.8-3.217-49.183-8.842Z" transform="translate(-156.558 -1026.424)" fill="#1c2529"/>
            <path id="Trazado_1027581" data-name="Trazado 1027581" d="M732.98,1370.5q-1,14.992-2,29.985a37.223,37.223,0,0,1-.492,4.518,12.61,12.61,0,0,1-1.561,4.286,8.032,8.032,0,0,1-3.792,3.211,5.334,5.334,0,0,1-4.358-.055.416.416,0,0,1-.236-.406l.013-.168c1.1-14.1,2.207-28.186,3.147-42.235a.422.422,0,0,1,.418-.392,29.419,29.419,0,0,1,4.29.087q1.314.123,2.608.365a4.8,4.8,0,0,1,1.532.33l.07.017a.484.484,0,0,1,.363.45v.007Zm-2.85,29.933q1-14.8,1.977-29.61a3.251,3.251,0,0,1-.7-.2,27.815,27.815,0,0,0-3.081-.464,28.469,28.469,0,0,0-3.8-.1c-.936,13.95-2.023,27.846-3.112,41.75a4.567,4.567,0,0,0,3.407-.086,7.166,7.166,0,0,0,3.38-2.868,11.823,11.823,0,0,0,1.454-4.008,36.7,36.7,0,0,0,.479-4.416Z" transform="translate(-612.126 -1119.528)" fill="#1c2529"/>
            <path id="Trazado_1027582" data-name="Trazado 1027582" d="M53.673,1334.42a.426.426,0,0,1,.531-.276.416.416,0,0,1,.281.521c-1.319,4.191-2.67,8.416-4.337,12.492a56.188,56.188,0,0,1-6.25,11.634,35.169,35.169,0,0,1-10.3,9.628,25.2,25.2,0,0,1-12.041,3.734.417.417,0,1,1-.03-.834,24.345,24.345,0,0,0,11.629-3.613,34.318,34.318,0,0,0,10.048-9.4,55.374,55.374,0,0,0,6.156-11.464c1.656-4.05,3-8.255,4.313-12.427Z" transform="translate(20.704 -1087.736)" fill="#1c2529"/>
            <path id="Trazado_1027583" data-name="Trazado 1027583" d="M1247.3,1448.455a.426.426,0,0,1,.849-.066,60.751,60.751,0,0,0,13.518,33.4.413.413,0,0,1-.065.587.43.43,0,0,1-.6-.064,61.619,61.619,0,0,1-13.7-33.856Z" transform="translate(-1088.731 -1190.959)" fill="#1c2529"/>
            <path id="Trazado_1027584" data-name="Trazado 1027584" d="M675.748,2074.555a.426.426,0,0,1-.536.265.415.415,0,0,1-.27-.527,90.946,90.946,0,0,0,4.1-19.938,135.522,135.522,0,0,0,.222-23.314.425.425,0,0,1,.849-.059,136.339,136.339,0,0,1-.225,23.455,91.762,91.762,0,0,1-4.141,20.118Z" transform="translate(-570.852 -1719.035)" fill="#1c2529"/>
            <path id="Trazado_1027585" data-name="Trazado 1027585" d="M145.319,1499.284a.426.426,0,0,1-.532.272.416.416,0,0,1-.276-.523c1.2-3.7,2.174-7.119,3.147-10.54.881-3.1,1.763-6.2,2.814-9.507a.427.427,0,0,1,.532-.275l9.264,2.364a.417.417,0,0,1,.3.509.425.425,0,0,1-.517.3l-8.892-2.269c-1.005,3.188-1.847,6.146-2.687,9.1-.971,3.415-1.941,6.826-3.157,10.569Z" transform="translate(-90.924 -1218.775)" fill="#1c2529"/>
            <path id="Trazado_1027586" data-name="Trazado 1027586" d="M-37.182,1757.153a.426.426,0,0,1,.512-.311.418.418,0,0,1,.316.5,267.078,267.078,0,0,0-7.435,59.459.421.421,0,0,1-.427.414.42.42,0,0,1-.421-.42,267.666,267.666,0,0,1,7.455-59.646Z" transform="translate(80.197 -1470.889)" fill="#1c2529"/>
            <path id="Trazado_1027587" data-name="Trazado 1027587" d="M738.135-1289.19s1.763,9.4,12.487,14.239c7.044,3.181,22.462,4.88,21.891,17.537a31.372,31.372,0,0,0,1.814,11.963c8.271-10.807,13.552-28.244,4.072-40.826-16.738-22.217-37.913-8.765-37.913-8.765a13.376,13.376,0,0,0-12.513,2.193c-10.733,8.036-10.025,19.814-9.966,26.185,6.073-14.047,20.128-22.527,20.128-22.527Z" transform="translate(-609.809 1299.077)" fill="#262827"/>
            <path id="Trazado_1027588" data-name="Trazado 1027588" d="M1271.109-862.367a8.989,8.989,0,0,1,3.365-3.29,6.706,6.706,0,0,1,5.724-.034,5.249,5.249,0,0,1,2.675,4.964,13.361,13.361,0,0,1-2.249,8.078,12.916,12.916,0,0,1-8.262,4.981,4.245,4.245,0,0,1-2.24-.059,2.664,2.664,0,0,1-1.567-2.846c.128-4.227.375-8.589,2.564-11.778l-.009-.017Z" transform="translate(-1107.963 906.81)" fill="#dc8068"/>
            <path id="Trazado_1027589" data-name="Trazado 1027589" d="M1334.531-810.318a.43.43,0,0,1-.581-.155.414.414,0,0,1,.158-.571,7.5,7.5,0,0,0,2.413-2.181,7.3,7.3,0,0,0,1.254-2.967,4.8,4.8,0,0,0,.073-1.167,2.637,2.637,0,0,0-.278-1.041,1.888,1.888,0,0,0-.751-.764,1.337,1.337,0,0,0-.887-.164.425.425,0,0,1-.5-.332.418.418,0,0,1,.338-.489,2.191,2.191,0,0,1,1.46.256,2.744,2.744,0,0,1,1.093,1.11,3.448,3.448,0,0,1,.371,1.365,5.618,5.618,0,0,1-.082,1.366,8.131,8.131,0,0,1-1.4,3.3,8.356,8.356,0,0,1-2.686,2.43Z" transform="translate(-1167.084 864.994)" fill="#995746"/>
            <path id="Trazado_1027590" data-name="Trazado 1027590" d="M1263.257-688.422a2.978,2.978,0,0,1,2.683,1.616,7.866,7.866,0,0,1,1,3.6,9.583,9.583,0,0,1-1.337,5.944c-1.107,1.616-3.058,2.444-4.591,1.6-1.491-.812-2.317-3-2.138-5.023.324-3.708,1.763-7.45,4.4-7.743l-.009.008Z" transform="translate(-1099.182 745.573)" fill="#fac963"/>
            <path id="Trazado_1027591" data-name="Trazado 1027591" d="M1294.988-675.431a1.256,1.256,0,0,1,.928.368,1.285,1.285,0,0,1-.017,1.85,1.358,1.358,0,0,1-2.231-.98,1.2,1.2,0,0,1,1.32-1.239Z" transform="translate(-1130.682 733.787)" fill="#fa4203"/>
          </g>
        </g>
      </g>
    </g>
  </g>
</svg>
