<svg xmlns="http://www.w3.org/2000/svg" xmlns:xlink="http://www.w3.org/1999/xlink" width="295" height="246" viewBox="0 0 295 246">
  <defs>
    <clipPath id="clip-path">
      <rect id="Rectángulo_415639" data-name="Rectángulo 415639" width="295" height="246" transform="translate(180 2471)" fill="#fff" stroke="#707070" stroke-width="1" opacity="0.75"/>
    </clipPath>
  </defs>
  <g id="Enmascarar_grupo_1098819" data-name="Enmascarar grupo 1098819" transform="translate(-180 -2471)" clip-path="url(#clip-path)">
    <g id="Grupo_1200492" data-name="Grupo 1200492" transform="translate(0 6)">
      <ellipse id="Elipse_12149" data-name="Elipse 12149" cx="136.5" cy="131" rx="136.5" ry="131" transform="translate(194 2539)" fill="#cfe3dc" opacity="0.43"/>
      <g id="Grupo_1200316" data-name="Grupo 1200316" transform="translate(216.568 2469.052)">
        <g id="Grupo_1200253" data-name="Grupo 1200253" transform="translate(125.832 451.515)">
          <path id="Trazado_1044033" data-name="Trazado 1044033" d="M2077.828,2891.117h21.132l-1.458-33.357H2076.37Z" transform="translate(-2076.37 -2857.76)" fill="#ecc9cf"/>
        </g>
        <g id="Grupo_1200254" data-name="Grupo 1200254" transform="translate(68.409 453.908)">
          <path id="Trazado_1044034" data-name="Trazado 1044034" d="M1783.874,2904.188H1762.74l1.457-33.357h21.134Z" transform="translate(-1762.74 -2870.83)" fill="#ecc9cf"/>
        </g>
        <g id="Grupo_1200255" data-name="Grupo 1200255" transform="translate(16.504 478.496)">
          <path id="Trazado_1044035" data-name="Trazado 1044035" d="M1554.94,3029.979v.1l-3.2,3.533a.319.319,0,0,1-.084.015c-1.809.13-3.641.26-5.5.366l-2.267.137c-.756.038-1.519.084-2.29.122a.684.684,0,0,1-.13.008c-1.008.053-2.023.1-3.038.145-.794.038-1.58.069-2.381.1-1.343.061-1.454-1.006-2.65-2.2a9.427,9.427,0,0,1-4.7,2.439q-5.438.137-11.075.153c-1.068,0-2.137,0-3.19-.008l-2.649-.023c-1.114-.008-2.221-.023-3.328-.046q-2.8-.045-5.564-.129c-.863-.023-1.725-.053-2.58-.084-1.068-.031-2.129-.077-3.183-.122q-2.507-.1-4.969-.229c-.481-.023-.962-.046-1.443-.076l-2.42-.137-2.931-.183c-.267-.015-.526-.038-.786-.054l-1.321-.092c-.7-.053-1.4-.1-2.091-.153l-1.931-2.61c.221-1.023.45-2.045.679-3.068.046-.221.275-.962.5-1.733a4.1,4.1,0,0,1,2.488-2.664l6.686-2.511,40.239-15.082a20.129,20.129,0,0,0,6.869,3.053c8.7,2.007,15.921-2.694,17.555-3.816q.309,11.46.618,22.92C1554.909,3028.69,1554.926,3029.338,1554.94,3029.979Z" transform="translate(-1479.248 -3005.128)"/>
        </g>
        <g id="Grupo_1200256" data-name="Grupo 1200256" transform="translate(41.008 487.961)">
          <path id="Trazado_1044036" data-name="Trazado 1044036" d="M1617.92,3063.146a.894.894,0,0,1-.677-.309l-3.937-4.529a.9.9,0,0,1,1.354-1.178l3.937,4.529a.9.9,0,0,1-.677,1.486Z" transform="translate(-1613.085 -3056.823)" fill="#d6d2d5"/>
        </g>
        <g id="Grupo_1200257" data-name="Grupo 1200257" transform="translate(44.032 486.828)">
          <path id="Trazado_1044037" data-name="Trazado 1044037" d="M1634.4,3056.594a.9.9,0,0,1-.656-.284l-3.9-4.169a.9.9,0,0,1,1.31-1.227l3.9,4.169a.9.9,0,0,1-.655,1.51Z" transform="translate(-1629.599 -3050.63)" fill="#d6d2d5"/>
        </g>
        <g id="Grupo_1200258" data-name="Grupo 1200258" transform="translate(47.814 485.41)">
          <path id="Trazado_1044038" data-name="Trazado 1044038" d="M1654.757,3048.28a.9.9,0,0,1-.634-.262l-3.6-3.6a.9.9,0,1,1,1.268-1.27l3.6,3.6a.9.9,0,0,1-.634,1.532Z" transform="translate(-1650.256 -3042.889)" fill="#d6d2d5"/>
        </g>
        <g id="Grupo_1200259" data-name="Grupo 1200259" transform="translate(37.143 489.411)">
          <path id="Trazado_1044039" data-name="Trazado 1044039" d="M1596.194,3070.609a.9.9,0,0,1-.7-.33l-3.322-4.076a.9.9,0,1,1,1.391-1.133l3.321,4.075a.9.9,0,0,1-.695,1.464Z" transform="translate(-1591.974 -3064.739)" fill="#d6d2d5"/>
        </g>
        <g id="Grupo_1200260" data-name="Grupo 1200260" transform="translate(124.497 477.301)">
          <path id="Trazado_1044040" data-name="Trazado 1044040" d="M2069.08,3023.449v.1l3.2,3.534a.327.327,0,0,0,.084.015c1.809.13,3.641.26,5.5.366l2.267.137c.756.038,1.519.084,2.29.122a.7.7,0,0,0,.13.008c1.008.053,2.023.1,3.038.145.794.038,1.58.069,2.381.1,1.343.061,1.454-1.006,2.651-2.2a9.422,9.422,0,0,0,4.7,2.439q5.438.138,11.075.153c1.068,0,2.137,0,3.19-.008l2.648-.023c1.114-.008,2.221-.023,3.328-.046q2.8-.046,5.564-.13c.863-.023,1.725-.053,2.58-.084,1.069-.031,2.13-.076,3.183-.122q2.507-.1,4.969-.229c.481-.023.962-.046,1.443-.076l2.42-.137,2.931-.183c.267-.015.527-.038.786-.053l1.321-.092c.7-.053,1.4-.1,2.091-.152l1.931-2.611c-.221-1.023-.45-2.045-.679-3.068-.046-.221-.275-.962-.5-1.732a4.1,4.1,0,0,0-2.488-2.664l-6.687-2.511-40.239-15.082a20.124,20.124,0,0,1-6.869,3.053c-8.7,2.007-15.922-2.695-17.555-3.816q-.309,11.46-.618,22.92C2069.109,3022.158,2069.095,3022.808,2069.08,3023.449Z" transform="translate(-2069.08 -2998.598)"/>
        </g>
        <g id="Grupo_1200261" data-name="Grupo 1200261" transform="translate(169.953 486.766)">
          <path id="Trazado_1044041" data-name="Trazado 1044041" d="M2318.249,3056.615a.9.9,0,0,1-.677-1.486l3.937-4.529a.9.9,0,1,1,1.354,1.178l-3.937,4.529A.9.9,0,0,1,2318.249,3056.615Z" transform="translate(-2317.352 -3050.292)" fill="#d6d2d5"/>
        </g>
        <g id="Grupo_1200262" data-name="Grupo 1200262" transform="translate(166.965 485.632)">
          <path id="Trazado_1044042" data-name="Trazado 1044042" d="M2301.928,3050.062a.9.9,0,0,1-.655-1.51l3.9-4.169a.9.9,0,1,1,1.311,1.227l-3.9,4.169A.893.893,0,0,1,2301.928,3050.062Z" transform="translate(-2301.031 -3044.099)" fill="#d6d2d5"/>
        </g>
        <g id="Grupo_1200263" data-name="Grupo 1200263" transform="translate(163.481 484.213)">
          <path id="Trazado_1044043" data-name="Trazado 1044043" d="M2282.9,3041.738a.9.9,0,0,1-.634-1.532l3.6-3.6a.9.9,0,1,1,1.267,1.27l-3.6,3.6A.9.9,0,0,1,2282.9,3041.738Z" transform="translate(-2282 -3036.348)" fill="#d6d2d5"/>
        </g>
        <g id="Grupo_1200264" data-name="Grupo 1200264" transform="translate(174.433 488.213)">
          <path id="Trazado_1044044" data-name="Trazado 1044044" d="M2342.718,3064.069a.9.9,0,0,1-.7-1.464l3.323-4.076a.9.9,0,0,1,1.39,1.135l-3.321,4.075A.893.893,0,0,1,2342.718,3064.069Z" transform="translate(-2341.821 -3058.198)" fill="#d6d2d5"/>
        </g>
        <g id="Grupo_1200265" data-name="Grupo 1200265" transform="translate(0 118.423)">
          <path id="Trazado_1044045" data-name="Trazado 1044045" d="M1394.065,1110.5h0a11.789,11.789,0,0,1-2.773-16.439l39.522-55.565,23.573,16.4-43.884,52.834A11.788,11.788,0,0,1,1394.065,1110.5Z" transform="translate(-1389.109 -1038.494)" fill="#feada2"/>
        </g>
        <g id="Grupo_1200266" data-name="Grupo 1200266" transform="translate(16.17 105.227)">
          <path id="Trazado_1044046" data-name="Trazado 1044046" d="M1500.4,1030.892l-22.979-16.345,29.146-42.2a14.1,14.1,0,0,1,19.662-3.317h0c6.346,4.514,9.6,15.252,5.087,21.6Z" transform="translate(-1477.423 -966.422)" fill="#ecc9cf"/>
        </g>
        <g id="Grupo_1200267" data-name="Grupo 1200267" transform="translate(12.733 148.945)">
          <path id="Trazado_1044047" data-name="Trazado 1044047" d="M1484.9,1228.4a1.389,1.389,0,0,1-1.814.4,137.967,137.967,0,0,1-23.964-17.045,1.39,1.39,0,0,1-.215-1.846l2.938-4.131a1.384,1.384,0,0,1,2.044-.239,137.979,137.979,0,0,0,23.5,16.718,1.384,1.384,0,0,1,.445,2.009Z" transform="translate(-1458.652 -1205.197)" fill="#ecc9cf"/>
        </g>
        <g id="Grupo_1200268" data-name="Grupo 1200268" transform="translate(18.025 149.174)">
          <path id="Trazado_1044048" data-name="Trazado 1044048" d="M1511.183,1223.8a.3.3,0,0,1-.139-.034,135.469,135.469,0,0,1-13.133-8.387,92.08,92.08,0,0,1-10.26-8.408.3.3,0,0,1,.409-.436,91.594,91.594,0,0,0,10.2,8.357,134.882,134.882,0,0,0,13.064,8.344.3.3,0,0,1-.139.564Z" transform="translate(-1487.556 -1206.449)"/>
        </g>
        <g id="Grupo_1200269" data-name="Grupo 1200269" transform="translate(75.28 0)">
          <path id="Trazado_1044049" data-name="Trazado 1044049" d="M1856.065,420.644a53.229,53.229,0,0,0-1.876-8.014c-1.331-6.281-3.2-11.478-8.9-14.09l.007-.028-.088-.009c-2.525-1.143-3.531-1.785-6.483-1.785h-12.589c-.062,0-.124,0-.186,0-.14,0-.273,0-.393,0-3.461,0-7.93-3.27-9.167-4.4a.284.284,0,0,0-.473.177l-.382,3.056a.26.26,0,0,1-.506.043c-.368-1.189-.8-2.675-1.1-3.687a.285.285,0,0,0-.554.032l-.849,4.669a.106.106,0,0,1-.21-.007l-.431-3.876a.222.222,0,0,0-.423-.072c-1.047,2.29-7.862,9.795-9.356,18.308a60.179,60.179,0,0,0-1.674,19.258h1.422v2.257l52.774.458v-2.715h2.031A53.353,53.353,0,0,0,1856.065,420.644Z" transform="translate(-1800.27 -391.698)" fill="#aa5713"/>
        </g>
        <g id="Grupo_1200270" data-name="Grupo 1200270" transform="translate(77.164 65.122)">
          <path id="Trazado_1044050" data-name="Trazado 1044050" d="M1864.83,779.738l-10.455,18.919H1820.52l-9.96-18.919,13.644-6.771.372-20.582,1.829.078.09-5.084H1846.9l.15,2.488,2,2.925.282,4.9.143,2.518.209,2.4,1.005,11.556Z" transform="translate(-1810.56 -747.378)" fill="#feada2"/>
        </g>
        <g id="Grupo_1200271" data-name="Grupo 1200271" transform="translate(92.596 70.218)">
          <path id="Trazado_1044051" data-name="Trazado 1044051" d="M1918.539,785.956c-7.842-.706-16.437-5.3-21.521-9.026-.82-.6-1.549-1.178-2.171-1.717h2.207l20.72.012.132.915.281,4.9.144,2.518Z" transform="translate(-1894.846 -775.213)" fill="#333232"/>
        </g>
        <g id="Grupo_1200272" data-name="Grupo 1200272" transform="translate(76.868 8.861)">
          <path id="Trazado_1044052" data-name="Trazado 1044052" d="M1837.5,504.522h-4.345a24.215,24.215,0,0,1-24.215-24.215V458.531a18.439,18.439,0,0,1,18.438-18.438h15.9a18.438,18.438,0,0,1,18.438,18.438v21.776A24.213,24.213,0,0,1,1837.5,504.522Z" transform="translate(-1808.945 -440.093)" fill="#feada2"/>
        </g>
        <g id="Grupo_1200273" data-name="Grupo 1200273" transform="translate(99.373 35.199)">
          <path id="Trazado_1044053" data-name="Trazado 1044053" d="M1935.494,601.075a.57.57,0,0,1-.075,0,6.707,6.707,0,0,1-3.384-1.421.6.6,0,0,1-.175-.423c0-5.416,2.94-14.484,3.065-14.867a.6.6,0,0,1,1.137.372c-.029.091-2.907,8.966-3,14.23a5.9,5.9,0,0,0,2.509.922.6.6,0,0,1-.073,1.192Z" transform="translate(-1931.86 -583.947)" fill="#8e554f"/>
        </g>
        <g id="Grupo_1200274" data-name="Grupo 1200274" transform="translate(89.714 34.051)">
          <ellipse id="Elipse_12130" data-name="Elipse 12130" cx="2.24" cy="2.24" rx="2.24" ry="2.24" fill="#333232"/>
        </g>
        <g id="Grupo_1200275" data-name="Grupo 1200275" transform="translate(112.419 34.051)">
          <ellipse id="Elipse_12131" data-name="Elipse 12131" cx="2.24" cy="2.24" rx="2.24" ry="2.24" fill="#333232"/>
        </g>
        <g id="Grupo_1200276" data-name="Grupo 1200276" transform="translate(67.31 35.352)">
          <ellipse id="Elipse_12132" data-name="Elipse 12132" cx="6.472" cy="6.472" rx="6.472" ry="6.472" fill="#feada2"/>
        </g>
        <g id="Grupo_1200277" data-name="Grupo 1200277" transform="translate(69.998 38.426)">
          <path id="Trazado_1044054" data-name="Trazado 1044054" d="M1779.353,605.435a.3.3,0,0,1-.268-.165c-2.184-4.369-7.226-2.852-7.277-2.836a.3.3,0,1,1-.178-.571c.056-.018,5.581-1.679,7.991,3.139a.3.3,0,0,1-.134.4A.306.306,0,0,1,1779.353,605.435Z" transform="translate(-1771.42 -601.572)" fill="#8e554f"/>
        </g>
        <g id="Grupo_1200278" data-name="Grupo 1200278" transform="translate(72.487 40.173)">
          <path id="Trazado_1044055" data-name="Trazado 1044055" d="M1785.315,613.729a.31.31,0,0,1-.089-.013.3.3,0,0,1-.2-.374,2.934,2.934,0,0,1,1.6-1.87,4.323,4.323,0,0,1,3.09-.133.3.3,0,0,1-.229.553,3.766,3.766,0,0,0-2.607.122,2.358,2.358,0,0,0-1.282,1.505A.3.3,0,0,1,1785.315,613.729Z" transform="translate(-1785.016 -611.115)" fill="#8e554f"/>
        </g>
        <g id="Grupo_1200279" data-name="Grupo 1200279" transform="translate(126.525 34.754)">
          <ellipse id="Elipse_12133" data-name="Elipse 12133" cx="6.472" cy="6.472" rx="6.472" ry="6.472" fill="#feada2"/>
        </g>
        <g id="Grupo_1200280" data-name="Grupo 1200280" transform="translate(128.55 37.828)">
          <path id="Trazado_1044056" data-name="Trazado 1044056" d="M2091.516,602.169a.3.3,0,0,1-.267-.433c2.409-4.818,7.935-3.156,7.99-3.139a.3.3,0,0,1-.178.571c-.208-.065-5.1-1.524-7.278,2.835A.3.3,0,0,1,2091.516,602.169Z" transform="translate(-2091.218 -598.307)" fill="#8e554f"/>
        </g>
        <g id="Grupo_1200281" data-name="Grupo 1200281" transform="translate(129.406 39.575)">
          <path id="Trazado_1044057" data-name="Trazado 1044057" d="M2100.48,610.461a.3.3,0,0,1-.286-.21,2.357,2.357,0,0,0-1.281-1.505,3.768,3.768,0,0,0-2.607-.122.3.3,0,0,1-.23-.553,4.323,4.323,0,0,1,3.09.133,2.934,2.934,0,0,1,1.6,1.87.3.3,0,0,1-.286.388Z" transform="translate(-2095.892 -607.847)" fill="#8e554f"/>
        </g>
        <g id="Grupo_1200282" data-name="Grupo 1200282" transform="translate(76.045 6.814)">
          <path id="Trazado_1044058" data-name="Trazado 1044058" d="M1804.45,455.833l2.393,9.57h2.393l-1.2-10.767s-1.2-18.543,23.328-15.552c0,0,23.926-5.982,24.524,16.15l-1.2,10.767h2.991l1.2-9.57v-6.58l-4.785-13.159-10.168-7.776h-14.954l-14.356,1.2-7.776,8.374-2.393,14.356v2.991Z" transform="translate(-1804.45 -428.916)" fill="#aa5713"/>
        </g>
        <g id="Grupo_1200283" data-name="Grupo 1200283" transform="translate(82.027 53.844)">
          <path id="Trazado_1044059" data-name="Trazado 1044059" d="M1845.569,687.865a11.608,11.608,0,0,1,7.517-2.053c1.568.115,3.228.185,4.971.192,1.893.008,3.69-.059,5.381-.179a11.593,11.593,0,0,1,7.784,2.276l8.1,6.075c-.734,1.018-8.122,10.9-21.264,10.969-13.308.068-20.23-10.386-20.935-11.365C1840.1,691.7,1842.769,689.827,1845.569,687.865Z" transform="translate(-1837.121 -685.781)" fill="#aa5713"/>
        </g>
        <g id="Grupo_1200284" data-name="Grupo 1200284" transform="translate(77.302 52.274)">
          <path id="Trazado_1044060" data-name="Trazado 1044060" d="M1816.731,677.8h-5.174c-.09-.395-.174-.2-.245-.6h5.054C1816.48,677.6,1816.6,677.407,1816.731,677.8Z" transform="translate(-1811.312 -677.204)" fill="#aa5713"/>
        </g>
        <g id="Grupo_1200285" data-name="Grupo 1200285" transform="translate(77.698 53.47)">
          <path id="Trazado_1044061" data-name="Trazado 1044061" d="M1818.931,684.336h-5.294c-.06-.2-.114-.395-.161-.6h5.234C1818.776,683.941,1818.852,684.139,1818.931,684.336Z" transform="translate(-1813.476 -683.738)" fill="#aa5713"/>
        </g>
        <g id="Grupo_1200286" data-name="Grupo 1200286" transform="translate(78.038 54.666)">
          <path id="Trazado_1044062" data-name="Trazado 1044062" d="M1860.183,690.272h5.6a26.393,26.393,0,0,1-50.448,0h5.359a23.741,23.741,0,0,0,4.39,6.9,20.8,20.8,0,0,0,15.355,6.939C1849.207,704.113,1856.761,698.437,1860.183,690.272Z" transform="translate(-1815.334 -690.272)" fill="#aa5713"/>
        </g>
        <g id="Grupo_1200287" data-name="Grupo 1200287" transform="translate(123.133 53.47)">
          <path id="Trazado_1044063" data-name="Trazado 1044063" d="M2067.319,683.738c-.048.2-.1.4-.162.6h-5.527c.078-.2.155-.395.227-.6Z" transform="translate(-2061.631 -683.738)" fill="#aa5713"/>
        </g>
        <g id="Grupo_1200288" data-name="Grupo 1200288" transform="translate(123.563 52.274)">
          <path id="Trazado_1044064" data-name="Trazado 1044064" d="M2069.63,677.2c-.072.4-.156.2-.251.6h-5.4c.132-.395.251-.191.365-.6Z" transform="translate(-2063.978 -677.204)" fill="#aa5713"/>
        </g>
        <g id="Grupo_1200289" data-name="Grupo 1200289" transform="translate(102.16 46.305)">
          <path id="Trazado_1044065" data-name="Trazado 1044065" d="M1947.681,672.186a.6.6,0,0,1,0-1.2A25.818,25.818,0,0,0,1973.47,645.2a.6.6,0,1,1,1.2,0A27.015,27.015,0,0,1,1947.681,672.186Z" transform="translate(-1947.083 -644.603)" fill="#333232"/>
        </g>
        <g id="Grupo_1200290" data-name="Grupo 1200290" transform="translate(85.018 27.75)">
          <path id="Trazado_1044066" data-name="Trazado 1044066" d="M1864.372,546.848H1855.1a1.647,1.647,0,0,1-1.647-1.647v-.3a1.647,1.647,0,0,1,1.647-1.647h9.268a1.647,1.647,0,0,1,1.647,1.647v.3A1.647,1.647,0,0,1,1864.372,546.848Z" transform="translate(-1853.458 -543.259)" fill="#775123"/>
        </g>
        <g id="Grupo_1200291" data-name="Grupo 1200291" transform="translate(107.749 27.75)">
          <path id="Trazado_1044067" data-name="Trazado 1044067" d="M1979.253,546.848h9.268a1.647,1.647,0,0,0,1.647-1.647v-.3a1.647,1.647,0,0,0-1.647-1.647h-9.268a1.647,1.647,0,0,0-1.647,1.647v.3A1.646,1.646,0,0,0,1979.253,546.848Z" transform="translate(-1977.606 -543.259)" fill="#775123"/>
        </g>
        <g id="Grupo_1200292" data-name="Grupo 1200292" transform="translate(115.352 70.528)">
          <line id="Línea_1373" data-name="Línea 1373" x2="0.467" y2="10.45" transform="translate(0.303 0.007)" fill="#333232"/>
          <rect id="Rectángulo_415637" data-name="Rectángulo 415637" width="0.598" height="10.46" transform="translate(0 0.027) rotate(-2.556)" fill="#333232"/>
        </g>
        <g id="Grupo_1200293" data-name="Grupo 1200293" transform="translate(58.354 205.997)">
          <path id="Trazado_1044068" data-name="Trazado 1044068" d="M1713.554,1517.4s-3.136,24.929-4.785,63.4c-1.794,41.87-.475,205.763-.475,205.763a49.62,49.62,0,0,0,33.972,0c1.988-29.851,3.679-59.717,5.373-89.582,2.681-47.262,5.353-99.468,5.312-119.242,0,0,2.475,1.863,3.778,2.974.182,20.958,8.731,159.062,12.33,205.848l12.115,1.336a35.636,35.636,0,0,0,8.313-.059l10.25-1.277s1.726-197.177,1.288-208.12c-.5-12.447-.738-43.7-5.523-61.646C1776.661,1519.78,1713.554,1517.4,1713.554,1517.4Z" transform="translate(-1707.826 -1516.803)" fill="#0d2142"/>
        </g>
        <g id="Grupo_1200294" data-name="Grupo 1200294" transform="translate(52.121 92.35)">
          <path id="Trazado_1044069" data-name="Trazado 1044069" d="M1673.78,909.847l11.365,104.078a121.488,121.488,0,0,0,41.273,6.58c15.236-.13,30.506-4.187,41.871-7.776,3.141-33.994,5.254-61.825,8.244-94.915a11.616,11.616,0,0,0-6.72-11.628c-2.194-1-4.5-1.976-6.908-2.919a138.858,138.858,0,0,0-25.122-7.178l-11.963,7.178-11.963-7.178a142.251,142.251,0,0,0-22.73,5.981A131.624,131.624,0,0,0,1673.78,909.847Z" transform="translate(-1673.78 -896.09)" fill="#ecc9cf"/>
        </g>
        <g id="Grupo_1200295" data-name="Grupo 1200295" transform="translate(100.065 99.528)">
          <path id="Trazado_1044070" data-name="Trazado 1044070" d="M1937.255,935.293h5.381l1.884,7.834-4.575,3.767-4.3-3.767Z" transform="translate(-1935.64 -935.293)" fill="#eb785a"/>
        </g>
        <g id="Grupo_1200296" data-name="Grupo 1200296" transform="translate(81.851 89.907)">
          <path id="Trazado_1044071" data-name="Trazado 1044071" d="M1861.421,893.627l-2.99,7.178-19.021-11.564,8.254-4.586Z" transform="translate(-1838.815 -884.306)" fill="#ecc9cf"/>
          <path id="Trazado_1044072" data-name="Trazado 1044072" d="M1855.918,899.684l-19.759-12.012,8.863-4.923,14.117,9.207ZM1837.347,887.7l18.285,11.116,2.761-6.627-13.4-8.738Z" transform="translate(-1836.159 -882.749)"/>
        </g>
        <g id="Grupo_1200297" data-name="Grupo 1200297" transform="translate(103.606 89.907)">
          <path id="Trazado_1044073" data-name="Trazado 1044073" d="M1957.02,893.627l2.99,7.178,19.021-11.564-8.254-4.586Z" transform="translate(-1956.647 -884.306)" fill="#ecc9cf"/>
          <path id="Trazado_1044074" data-name="Trazado 1044074" d="M1958.2,899.684l-3.22-7.729,14.117-9.207,8.863,4.923Zm-2.475-7.5,2.761,6.627,18.285-11.116-7.648-4.249Z" transform="translate(-1954.981 -882.749)"/>
        </g>
        <g id="Grupo_1200298" data-name="Grupo 1200298" transform="translate(97.579 107.902)">
          <path id="Trazado_1044075" data-name="Trazado 1044075" d="M1925.65,981.03l-3.59,89.722,7.179,8.973,7.177-8.973-4.187-89.722Z" transform="translate(-1922.06 -981.03)" fill="#eb785a"/>
        </g>
        <g id="Grupo_1200299" data-name="Grupo 1200299" transform="translate(101.766 108.499)">
          <path id="Trazado_1044076" data-name="Trazado 1044076" d="M1947.62,987.285a.3.3,0,0,1-.212-.088l-2.393-2.393a.3.3,0,0,1,.423-.423l2.181,2.181,2.181-2.181a.3.3,0,0,1,.423.423l-2.393,2.393A.3.3,0,0,1,1947.62,987.285Z" transform="translate(-1944.928 -984.295)"/>
        </g>
        <g id="Grupo_1200300" data-name="Grupo 1200300" transform="translate(61.479 204.513)">
          <path id="Trazado_1044077" data-name="Trazado 1044077" d="M1725.053,1512.726l-.16,6.317a1.435,1.435,0,0,0,.969,1.4,130.27,130.27,0,0,0,42.452,6.488c15.375-.131,31.913-4.114,43.662-7.759a1.435,1.435,0,0,0,1.006-1.382c-.029-3.421-.367-4.95-.434-7.695a1.437,1.437,0,0,0-2-1.284,115.721,115.721,0,0,1-41.185,9.147,112.357,112.357,0,0,1-42.4-6.549A1.436,1.436,0,0,0,1725.053,1512.726Z" transform="translate(-1724.893 -1508.696)" fill="#ecc9cf"/>
        </g>
        <g id="Grupo_1200301" data-name="Grupo 1200301" transform="translate(62.688 204.819)">
          <path id="Trazado_1044078" data-name="Trazado 1044078" d="M1769.511,1519.555c-14.994,0-25.829-3.195-34.292-5.69-1.3-.384-2.542-.749-3.722-1.08l.161-.576c1.183.331,2.424.7,3.73,1.082,15.338,4.522,38.516,11.355,80.251-2.922l.193.566C1796.934,1517.4,1781.82,1519.555,1769.511,1519.555Z" transform="translate(-1731.497 -1510.369)"/>
        </g>
        <g id="Grupo_1200302" data-name="Grupo 1200302" transform="translate(54.094 129.977)">
          <path id="Trazado_1044079" data-name="Trazado 1044079" d="M1688.82,1133.645a.3.3,0,0,1-.3-.262l-3.962-31.447a.3.3,0,0,1,.594-.075l3.962,31.447a.3.3,0,0,1-.26.334Z" transform="translate(-1684.559 -1101.601)"/>
        </g>
        <g id="Grupo_1200303" data-name="Grupo 1200303" transform="translate(0.827 169.422)">
          <path id="Trazado_1044080" data-name="Trazado 1044080" d="M1459.854,1354.372l-7.695,13.614-52.887-29.7a11.407,11.407,0,0,1-3.951-15.825h0a11.407,11.407,0,0,1,15.91-3.6Z" transform="translate(-1393.625 -1317.037)" fill="#feada2"/>
        </g>
        <g id="Grupo_1200304" data-name="Grupo 1200304" transform="translate(51.419 205.141)">
          <path id="Trazado_1044081" data-name="Trazado 1044081" d="M1678.044,1516.98c-.162.673-.31,1.295-.44,1.849-4.586,3.844-7.171,28.106-7.64,32.9a3.255,3.255,0,0,0,.237,1.589c1.338,3.218,6.612,15.46,9.578,15.794,3.415.385,2.285-3.893,2.285-3.893l-4.764-11.474a6.422,6.422,0,0,1-.244-4.227l2.756-9.646c.594,3.322,1.637,11.76,2.689,13.082a1.689,1.689,0,0,0,3.022-1.116,76.319,76.319,0,0,1,1.643-15.556c1.47-6.487,1.426-10.13.828-13.719,0-3.589,1.2-7.178-4.187-8.374l-4.933-2.054C1678.6,1513.749,1678.32,1515.369,1678.044,1516.98Z" transform="translate(-1669.947 -1512.13)" fill="#feada2"/>
        </g>
        <g id="Grupo_1200305" data-name="Grupo 1200305" transform="translate(150.216 128.837)">
          <path id="Trazado_1044082" data-name="Trazado 1044082" d="M2209.853,1133.657h-.024a.3.3,0,0,1-.275-.322l2.991-37.683a.3.3,0,1,1,.6.047l-2.991,37.683A.3.3,0,0,1,2209.853,1133.657Z" transform="translate(-2209.554 -1095.375)"/>
        </g>
        <g id="Grupo_1200306" data-name="Grupo 1200306" transform="translate(93.99 60.246)">
          <path id="Trazado_1044083" data-name="Trazado 1044083" d="M1921.908,730.914c-1.642,1.661-5.985,4.987-9.88,5.187-4.64.238-8.955-3.636-9.57-4.187,0-3.788,1.2-6.38,1.2-10.169l16.459-1Z" transform="translate(-1902.458 -720.746)" fill="#aa5713"/>
        </g>
        <g id="Grupo_1200307" data-name="Grupo 1200307" transform="translate(102.365 57.657)">
          <path id="Trazado_1044084" data-name="Trazado 1044084" d="M1948.8,711.989a.6.6,0,0,1-.074-1.192c.044-.006,4.428-.6,5.489-3.783a.6.6,0,0,1,1.135.378c-1.3,3.9-6.264,4.565-6.475,4.591A.569.569,0,0,1,1948.8,711.989Z" transform="translate(-1948.2 -706.605)"/>
        </g>
        <g id="Grupo_1200308" data-name="Grupo 1200308" transform="translate(96.981 72.611)">
          <path id="Trazado_1044085" data-name="Trazado 1044085" d="M1925.374,788.878h-6.579c.029.115,2.938,2.286,2.991,2.393l1.527,1.859a.141.141,0,0,0,.267-.063v-2.394s.464,1.161.814,2.181c.054.243.111.478.166.679a.24.24,0,0,0,.433,0c.055-.2.111-.435.166-.679.35-1.02.814-2.181.814-2.181v2.394a.141.141,0,0,0,.267.063l.938-.774a7.641,7.641,0,0,0,.961-.951c.793-.934,2.57-2.927,2.619-3.125l-2.991.6Z" transform="translate(-1918.794 -788.28)" fill="#aa5713"/>
        </g>
        <g id="Grupo_1200313" data-name="Grupo 1200313" transform="translate(130.521 102.125)">
          <g id="Grupo_1200309" data-name="Grupo 1200309" transform="translate(7.856 14.992)">
            <path id="Trazado_1044086" data-name="Trazado 1044086" d="M2204.241,1103.368h0a11.788,11.788,0,0,0,2.773-16.439l-39.522-55.565-22.6,15.8,42.912,53.432A11.79,11.79,0,0,0,2204.241,1103.368Z" transform="translate(-2144.89 -1031.364)" fill="#feada2"/>
          </g>
          <g id="Grupo_1200310" data-name="Grupo 1200310">
            <path id="Trazado_1044087" data-name="Trazado 1044087" d="M2135,1013.951l22.979-16.345-29.146-42.2a14.1,14.1,0,0,0-19.662-3.317h0c-6.345,4.514-9.6,15.252-5.087,21.6Z" transform="translate(-2101.98 -949.482)" fill="#ecc9cf"/>
          </g>
          <g id="Grupo_1200311" data-name="Grupo 1200311" transform="translate(29.986 43.719)">
            <path id="Trazado_1044088" data-name="Trazado 1044088" d="M2268.95,1211.47a1.389,1.389,0,0,0,1.814.4,137.983,137.983,0,0,0,23.964-17.045,1.39,1.39,0,0,0,.215-1.846l-2.938-4.131a1.384,1.384,0,0,0-2.044-.239,137.993,137.993,0,0,1-23.5,16.718,1.384,1.384,0,0,0-.445,2.009Z" transform="translate(-2265.754 -1188.266)" fill="#ecc9cf"/>
          </g>
          <g id="Grupo_1200312" data-name="Grupo 1200312" transform="translate(30.213 43.949)">
            <path id="Trazado_1044089" data-name="Trazado 1044089" d="M2267.294,1206.865a.3.3,0,0,1-.139-.564,134.963,134.963,0,0,0,13.064-8.344,91.565,91.565,0,0,0,10.2-8.357.3.3,0,0,1,.409.436,92.116,92.116,0,0,1-10.26,8.408,135.536,135.536,0,0,1-13.133,8.387A.294.294,0,0,1,2267.294,1206.865Z" transform="translate(-2266.994 -1189.518)"/>
          </g>
        </g>
        <g id="Grupo_1200314" data-name="Grupo 1200314" transform="translate(180.428 121.549)">
          <path id="Trazado_1044090" data-name="Trazado 1044090" d="M2407.819,1055.98h0a8.374,8.374,0,0,1,5.387,10.527l-16.2,50.4a11.527,11.527,0,0,1-14.876,7.1h0a11.527,11.527,0,0,1-6.764-15.031l22.259-48.525A8.375,8.375,0,0,1,2407.819,1055.98Z" transform="translate(-2374.565 -1055.57)" fill="#feada2"/>
          <line id="Línea_1374" data-name="Línea 1374" x1="7.878" y2="17.176" transform="translate(2.438 32.66)" fill="none" stroke="#bf624c" stroke-linecap="round" stroke-miterlimit="10" stroke-width="1"/>
        </g>
        <g id="Grupo_1200315" data-name="Grupo 1200315" transform="translate(195.834 72.346)">
          <path id="Trazado_1044091" data-name="Trazado 1044091" d="M2490.671,824.5l8.431-16.79a2.424,2.424,0,0,0-1.167-3.145,2.5,2.5,0,0,0-3.214,1.081l-6.249,11.825,8.347-20.1a4.324,4.324,0,0,0-1.663-3.2,2.63,2.63,0,0,0-3.589,1.2l-7.515,18.234,6.234-23.5a2.476,2.476,0,0,0-1.71-3.109,4.032,4.032,0,0,0-4.142,1.176l-6.863,24.289c.565-.1,1.607-9.932,1.62-10.05.018-.167,1.592-12.258,1.609-12.425.112-1.325-1.193-2.081-2.457-2.221a2.4,2.4,0,0,0-2.611,1.881l-2.708,17.687-4.785,11.365.594.289c-2.111-1.464-2.858-6.919-3.96-9.245a3.388,3.388,0,0,0-4.276-1.7,3.208,3.208,0,0,0-1.628,4.2l3.164,12.128,4.828,13.8a31.394,31.394,0,0,1-.03,3.994,7.729,7.729,0,0,0,5.879,8.4h0A7.891,7.891,0,0,0,2481.82,846" transform="translate(-2458.705 -786.835)" fill="#feada2"/>
          <path id="Trazado_1044092" data-name="Trazado 1044092" d="M2511.76,963.792s6.88,4.329,9,9.237" transform="translate(-2502.046 -931.393)" fill="none" stroke="#bf624c" stroke-linecap="round" stroke-miterlimit="10" stroke-width="1"/>
        </g>
      </g>
    </g>
  </g>
</svg>
