<svg xmlns="http://www.w3.org/2000/svg" xmlns:xlink="http://www.w3.org/1999/xlink" width="295" height="272" viewBox="0 0 295 272">
  <defs>
    <clipPath id="clip-path">
      <rect id="Rectángulo_415687" data-name="Rectángulo 415687" width="295" height="272" transform="translate(181.698 5219)" fill="#fff" stroke="#707070" stroke-width="1" opacity="0.75"/>
    </clipPath>
  </defs>
  <g id="Enmascarar_grupo_1098823" data-name="Enmascarar grupo 1098823" transform="translate(-181.698 -5219)" clip-path="url(#clip-path)">
    <g id="Grupo_1200716" data-name="Grupo 1200716">
      <ellipse id="Elipse_12167" data-name="Elipse 12167" cx="136.5" cy="131" rx="136.5" ry="131" transform="translate(191 5265)" fill="#cfe3dc" opacity="0.43"/>
      <g id="Grupo_1200370" data-name="Grupo 1200370" transform="translate(227.011 5225.673)">
        <path id="Trazado_1044093" data-name="Trazado 1044093" d="M3973.519,1329.705q-.487-3.19-.995-6.36c-.221-1.408-.449-2.817-.67-4.226l-4.723-10.434q-11,1.45-22.007,2.9,1.688,15.941,3.667,32.289,2.454,20.239,5.393,41.072.27,1.908.567,3.821a12.784,12.784,0,0,0,15.228,10.516h0a12.793,12.793,0,0,0,10.167-13.649C3978.508,1367.167,3976.414,1348.5,3973.519,1329.705Z" transform="translate(-3798.416 -1159.171)" fill="#e98164"/>
        <g id="Grupo_1200317" data-name="Grupo 1200317" transform="translate(159.872 164.84)">
          <path id="Trazado_1044094" data-name="Trazado 1044094" d="M4029.241,1369.563h0a6.364,6.364,0,0,0-8.453,3.484c-6.857,17.269-15.536,35.834-22.951,54.118a11.659,11.659,0,0,0,6.041,15.131,11.484,11.484,0,0,0,15.646-7.837c4-16.241,10.695-45.773,13.393-57.647A6.368,6.368,0,0,0,4029.241,1369.563Z" transform="translate(-3996.964 -1369.033)" fill="#e98164"/>
          <line id="Línea_1375" data-name="Línea 1375" x1="17.532" y2="40.871" transform="translate(3.333 11.564)" fill="none" stroke="#bf624c" stroke-linecap="round" stroke-miterlimit="10" stroke-width="1"/>
        </g>
        <g id="Grupo_1200318" data-name="Grupo 1200318" transform="translate(175.978 117.642)">
          <path id="Trazado_1044095" data-name="Trazado 1044095" d="M4089.039,1218.792l8.007-15.945a2.3,2.3,0,0,0-1.108-2.987,2.377,2.377,0,0,0-3.053,1.027l-6.376,11.033,7.579-19.115a2.218,2.218,0,0,0-.751-2.687,2.131,2.131,0,0,0-3.132.928l-7.45,17.4,5.92-22.315a2.406,2.406,0,0,0-1.407-2.83,2.259,2.259,0,0,0-2.895,1.444l-7.248,22.636,1.013-9.563c.017-.158,1.192-11.246,1.209-11.405a2.32,2.32,0,0,0-2.013-2.5,2.278,2.278,0,0,0-2.479,1.786l-3.442,20.884-2.417,7.125-.692-.146c-2.005-1.39-1.01-4.3-2.057-6.507a3.217,3.217,0,0,0-4.06-1.61,3.047,3.047,0,0,0-1.546,3.991l1.3,9.245,4.584,13.109a29.815,29.815,0,0,1-.028,3.793,7.339,7.339,0,0,0,5.583,7.976h0a7.5,7.5,0,0,0,8.556-4.341" transform="translate(-4060.386 -1183.17)" fill="#e98164"/>
          <path id="Trazado_1044096" data-name="Trazado 1044096" d="M4090,1303.77s6.533,4.111,8.55,8.772" transform="translate(-4082.479 -1273.145)" fill="none" stroke="#bf624c" stroke-linecap="round" stroke-miterlimit="10" stroke-width="1"/>
        </g>
        <g id="Grupo_1200319" data-name="Grupo 1200319" transform="translate(159.836 217.3)">
          <path id="Trazado_1044097" data-name="Trazado 1044097" d="M3996.82,1575.62" transform="translate(-3996.82 -1575.62)" fill="none" stroke="#bf624c" stroke-linecap="round" stroke-miterlimit="10" stroke-width="1"/>
        </g>
        <g id="Grupo_1200320" data-name="Grupo 1200320" transform="translate(11.588 144.013)">
          <path id="Trazado_1044098" data-name="Trazado 1044098" d="M3437.076,1287.02l-4.724,10.434c-.221,1.408-.449,2.817-.669,4.226q-.508,3.17-.995,6.36c-7.517,48.81-9.681,96.822-12.325,142.5-.109.88-.209,1.694-.3,2.419-5.291,5.555-5.1,36.838-5.013,43.006a4.181,4.181,0,0,0,.531,1.99c2.166,3.908,10.643,18.748,14.469,18.748,4.406,0,2.353-5.288,2.353-5.288l-7.716-13.935a8.228,8.228,0,0,1-.917-5.35l2.126-12.685c1.233,4.148,3.774,14.748,5.3,16.281a2.166,2.166,0,0,0,3.69-1.856,97.861,97.861,0,0,1-.14-20.056c.942-8.476-1.135-14.29-2.748-17.375,5.451-29.133,15.55-61.628,20.015-93.165q2.941-20.83,5.393-41.072,1.978-16.355,3.667-32.289Q3448.081,1288.484,3437.076,1287.02Z" transform="translate(-3413.026 -1287.02)" fill="#e98164"/>
        </g>
        <g id="Grupo_1200321" data-name="Grupo 1200321" transform="translate(134.208 556.557)">
          <path id="Trazado_1044099" data-name="Trazado 1044099" d="M3897.281,2959.247h20.026V2911.6l-21.407,1.381Z" transform="translate(-3895.9 -2911.6)" fill="#e98164"/>
        </g>
        <g id="Grupo_1200322" data-name="Grupo 1200322" transform="translate(45.823 557.938)">
          <path id="Trazado_1044100" data-name="Trazado 1044100" d="M3569.8,2963.305H3547.84l1.514-46.265h21.963Z" transform="translate(-3547.84 -2917.04)" fill="#e98164"/>
        </g>
        <g id="Grupo_1200323" data-name="Grupo 1200323" transform="translate(37.278 231.321)">
          <path id="Trazado_1044101" data-name="Trazado 1044101" d="M3541.01,1630.837s-14.856,20.943-23.107,74.576-.167,275.515-.167,275.515h34s20.228-257.93,27.1-277.184a17.028,17.028,0,0,1,2.75,4.126c.252,29.067,17.087,208.166,22.079,273.057h35.082s-.094-261.028-.7-276.206c-.69-17.263-14.53-56.008-25.532-73.885C3586.391,1634.963,3541.01,1630.837,3541.01,1630.837Z" transform="translate(-3514.192 -1630.836)" fill="#0d2142"/>
        </g>
        <g id="Grupo_1200324" data-name="Grupo 1200324" transform="translate(61.82 44.744)">
          <path id="Trazado_1044102" data-name="Trazado 1044102" d="M3647.318,937.81a37.071,37.071,0,0,1-22.832-7.768,37.487,37.487,0,0,1-13.629-21.186.83.83,0,0,1,1.617-.374,35.814,35.814,0,0,0,13.025,20.245,35.774,35.774,0,0,0,43.636,0,35.728,35.728,0,0,0,13.95-28.345v-3.453a.83.83,0,0,1,1.659,0v3.453a37.423,37.423,0,0,1-37.427,37.427Z" transform="translate(-3610.836 -896.101)"/>
        </g>
        <g id="Grupo_1200325" data-name="Grupo 1200325" transform="translate(63.774 75.955)">
          <path id="Trazado_1044103" data-name="Trazado 1044103" d="M3693.8,1063.891l-14.5,26.239h-46.956l-13.812-26.239,21.412-6.9.513-28.548.051-2.38.125-7.052h28.307l.206,3.451.282,4.886.391,6.8.2,3.492.292,3.327,1.394,16.029Z" transform="translate(-3618.53 -1019.01)" fill="#e98164"/>
        </g>
        <g id="Grupo_1200326" data-name="Grupo 1200326" transform="translate(53.418 33.834)">
          <path id="Trazado_1044104" data-name="Trazado 1044104" d="M3668.209,897.332c-11.53,2.954-26.678,8.536-45.574,8.286-17.968-.238-33.738-5.939-44.884-8.977q4.143-21.751,8.286-43.5l72.5,2.072Z" transform="translate(-3577.751 -853.139)" fill="#333232"/>
        </g>
        <g id="Grupo_1200327" data-name="Grupo 1200327" transform="translate(82.688 83.006)">
          <path id="Trazado_1044105" data-name="Trazado 1044105" d="M3725.876,1061.676c-10.876-.979-22.8-7.35-29.85-12.519-1.137-.83-2.148-1.634-3.012-2.381h3.061l28.738.016.182,1.269.39,6.794.2,3.493Z" transform="translate(-3693.015 -1046.776)" fill="#333232"/>
        </g>
        <g id="Grupo_1200328" data-name="Grupo 1200328" transform="translate(61.704 7.878)">
          <path id="Trazado_1044106" data-name="Trazado 1044106" d="M3646.978,834.476h0a36.6,36.6,0,0,1-36.6-36.6V778.791a27.867,27.867,0,0,1,27.867-27.867h17.46a27.867,27.867,0,0,1,27.867,27.867v19.088A36.6,36.6,0,0,1,3646.978,834.476Z" transform="translate(-3610.381 -750.924)" fill="#e98164"/>
        </g>
        <g id="Grupo_1200329" data-name="Grupo 1200329" transform="translate(49.274 33.835)">
          <ellipse id="Elipse_12134" data-name="Elipse 12134" cx="8.977" cy="8.977" rx="8.977" ry="8.977" fill="#e98164"/>
        </g>
        <g id="Grupo_1200330" data-name="Grupo 1200330" transform="translate(53.004 38.099)">
          <path id="Trazado_1044107" data-name="Trazado 1044107" d="M3587.124,875.292a.414.414,0,0,1-.371-.229c-3.03-6.059-10.024-3.955-10.093-3.933a.415.415,0,1,1-.248-.792c.077-.025,7.74-2.33,11.083,4.354a.415.415,0,0,1-.186.557A.428.428,0,0,1,3587.124,875.292Z" transform="translate(-3576.12 -869.935)" fill="#8e554f"/>
        </g>
        <g id="Grupo_1200331" data-name="Grupo 1200331" transform="translate(56.454 40.523)">
          <path id="Trazado_1044108" data-name="Trazado 1044108" d="M3590.121,883.105a.426.426,0,0,1-.123-.019.415.415,0,0,1-.273-.519,4.071,4.071,0,0,1,2.218-2.593,6,6,0,0,1,4.286-.184.415.415,0,0,1-.319.766,5.222,5.222,0,0,0-3.614.168,3.273,3.273,0,0,0-1.778,2.088A.413.413,0,0,1,3590.121,883.105Z" transform="translate(-3589.706 -879.481)" fill="#8e554f"/>
        </g>
        <g id="Grupo_1200332" data-name="Grupo 1200332" transform="translate(130.064 33.145)">
          <ellipse id="Elipse_12135" data-name="Elipse 12135" cx="8.977" cy="8.977" rx="8.977" ry="8.977" fill="#e98164"/>
        </g>
        <g id="Grupo_1200333" data-name="Grupo 1200333" transform="translate(132.872 37.409)">
          <path id="Trazado_1044109" data-name="Trazado 1044109" d="M3891.051,872.575a.415.415,0,0,1-.371-.6c3.341-6.682,11.006-4.378,11.083-4.354a.415.415,0,0,1-.247.792c-.288-.089-7.069-2.115-10.094,3.932A.414.414,0,0,1,3891.051,872.575Z" transform="translate(-3890.637 -867.218)" fill="#8e554f"/>
        </g>
        <g id="Grupo_1200334" data-name="Grupo 1200334" transform="translate(134.059 39.833)">
          <path id="Trazado_1044110" data-name="Trazado 1044110" d="M3901.675,880.386a.415.415,0,0,1-.4-.292,3.27,3.27,0,0,0-1.776-2.087,5.236,5.236,0,0,0-3.617-.169.415.415,0,0,1-.318-.766,6,6,0,0,1,4.287.184,4.071,4.071,0,0,1,2.217,2.593.415.415,0,0,1-.273.519A.434.434,0,0,1,3901.675,880.386Z" transform="translate(-3895.313 -876.761)" fill="#8e554f"/>
        </g>
        <g id="Grupo_1200335" data-name="Grupo 1200335" transform="translate(61.704 0)">
          <path id="Trazado_1044111" data-name="Trazado 1044111" d="M3655.706,719.9H3638.25a27.869,27.869,0,0,0-27.869,27.869v7.078c.677-.124,1.367-.262,2.071-.421,18.175-4.067,19.186-8.745,23.334-19.53,10.785,11.615,25.113,15.463,43.288,19.53,1.582.359,3.08-.069,4.5.1v-6.76A27.87,27.87,0,0,0,3655.706,719.9Z" transform="translate(-3610.38 -719.901)" fill="#333232"/>
        </g>
        <g id="Grupo_1200336" data-name="Grupo 1200336" transform="translate(80.346 38.669)">
          <ellipse id="Elipse_12136" data-name="Elipse 12136" cx="3.107" cy="3.107" rx="3.107" ry="3.107" fill="#333232"/>
        </g>
        <g id="Grupo_1200337" data-name="Grupo 1200337" transform="translate(109.349 38.669)">
          <ellipse id="Elipse_12137" data-name="Elipse 12137" cx="3.107" cy="3.107" rx="3.107" ry="3.107" fill="#333232"/>
        </g>
        <g id="Grupo_1200338" data-name="Grupo 1200338" transform="translate(75.591 27.847)">
          <path id="Trazado_1044112" data-name="Trazado 1044112" d="M3679.025,834.34l-11.209,2.318a2.218,2.218,0,0,1-2.621-1.723l-.08-.39a2.218,2.218,0,0,1,1.723-2.621l11.209-2.318a2.218,2.218,0,0,1,2.621,1.723l.08.39A2.217,2.217,0,0,1,3679.025,834.34Z" transform="translate(-3665.068 -829.56)" fill="#333232"/>
        </g>
        <g id="Grupo_1200339" data-name="Grupo 1200339" transform="translate(105.285 27.847)">
          <path id="Trazado_1044113" data-name="Trazado 1044113" d="M3783.77,834.34l11.209,2.318a2.218,2.218,0,0,0,2.621-1.723l.08-.39a2.217,2.217,0,0,0-1.723-2.621l-11.209-2.318a2.218,2.218,0,0,0-2.621,1.723l-.08.39A2.215,2.215,0,0,0,3783.77,834.34Z" transform="translate(-3782 -829.56)" fill="#333232"/>
        </g>
        <g id="Grupo_1200340" data-name="Grupo 1200340" transform="translate(71.509 29.829)">
          <path id="Trazado_1044114" data-name="Trazado 1044114" d="M3660.938,861.26a11.948,11.948,0,1,1,11.948-11.948A11.961,11.961,0,0,1,3660.938,861.26Zm0-21.406a9.459,9.459,0,1,0,9.458,9.459A9.469,9.469,0,0,0,3660.938,839.854Z" transform="translate(-3648.991 -837.365)" fill="#fff"/>
        </g>
        <g id="Grupo_1200341" data-name="Grupo 1200341" transform="translate(100.854 30.174)">
          <path id="Trazado_1044115" data-name="Trazado 1044115" d="M3776.5,862.619a11.948,11.948,0,1,1,11.948-11.948A11.961,11.961,0,0,1,3776.5,862.619Zm0-21.406a9.459,9.459,0,1,0,9.458,9.459A9.469,9.469,0,0,0,3776.5,841.213Z" transform="translate(-3764.551 -838.724)" fill="#fff"/>
        </g>
        <g id="Grupo_1200342" data-name="Grupo 1200342" transform="translate(92.917 36.112)">
          <path id="Trazado_1044116" data-name="Trazado 1044116" d="M3738.333,885.865a.808.808,0,0,1-.1-.007c-.127-.016-3.129-.406-4.693-1.97a.829.829,0,0,1-.2-.849c1.62-4.859,4.152-20.083,4.178-20.236a.829.829,0,1,1,1.636.271c-.1.61-2.416,14.518-4.071,19.952a8.552,8.552,0,0,0,3.356,1.186.83.83,0,0,1-.1,1.653Z" transform="translate(-3733.294 -862.108)" fill="#8e554f"/>
        </g>
        <g id="Grupo_1200343" data-name="Grupo 1200343" transform="translate(100.028 56.968)">
          <path id="Trazado_1044117" data-name="Trazado 1044117" d="M3761.3,944.238" transform="translate(-3761.3 -944.238)" fill="none" stroke="#000" stroke-linecap="round" stroke-linejoin="round" stroke-miterlimit="10" stroke-width="3"/>
        </g>
        <g id="Grupo_1200344" data-name="Grupo 1200344" transform="translate(93.066 39.151)">
          <path id="Trazado_1044118" data-name="Trazado 1044118" d="M3735.375,877.7l-1.492-1.992a8.151,8.151,0,0,1,9.779,0l-1.494,1.991a5.66,5.66,0,0,0-6.793,0Z" transform="translate(-3733.883 -874.076)" fill="#fff"/>
        </g>
        <g id="Grupo_1200345" data-name="Grupo 1200345" transform="translate(97.472 66.151)">
          <path id="Trazado_1044119" data-name="Trazado 1044119" d="M3752.774,986.925a7.622,7.622,0,0,1-.8-.036.83.83,0,0,1-.733-.916.841.841,0,0,1,.915-.733,9.684,9.684,0,0,0,8.874-4.448.83.83,0,1,1,1.407.88A11.238,11.238,0,0,1,3752.774,986.925Z" transform="translate(-3751.234 -980.402)" fill="#8e554f"/>
        </g>
        <g id="Grupo_1200346" data-name="Grupo 1200346" transform="translate(64.507 54.834)">
          <path id="Trazado_1044120" data-name="Trazado 1044120" d="M3654.521,973.261a37.39,37.39,0,0,1-33.006-19.772.83.83,0,0,1,1.463-.783,35.77,35.77,0,0,0,67.311-16.871h1.659V938.6a.826.826,0,0,1-.137.457A37.478,37.478,0,0,1,3654.521,973.261Z" transform="translate(-3621.416 -935.834)" fill="#333232"/>
        </g>
        <g id="Grupo_1200347" data-name="Grupo 1200347" transform="translate(25.105 114.627)">
          <path id="Trazado_1044121" data-name="Trazado 1044121" d="M3616.79,1214.109l-21.627,11.877q-9.218,31-18.423,62.009a187.83,187.83,0,0,1-71.814,0c-4.868-19.466-9.2-32.316-13.941-52.12-.649-2.714-1.305-5.565-1.975-8.576l-21.759-11.953-.994-.545,1.664-3.681,4.723-10.434,1.761-3.887a37.3,37.3,0,0,1,19.293-18.927c2-.856,4.129-1.678,6.395-2.431a81.583,81.583,0,0,1,23.478-4.143c3.453,5.524,6.215,9.667,17.954,11.048,12.429-.69,15.191-6.215,18.644-11.048a86.868,86.868,0,0,1,24.858,4.834c1.678.594,3.294,1.215,4.827,1.864a37.141,37.141,0,0,1,19.577,19.348Z" transform="translate(-3466.257 -1171.297)" fill="#873c50"/>
        </g>
        <g id="Grupo_1200348" data-name="Grupo 1200348" transform="translate(46.171 163.682)">
          <path id="Trazado_1044122" data-name="Trazado 1044122" d="M3552.314,1374.945a.831.831,0,0,1-.8-.622l-2.273-8.81a.83.83,0,0,1,1.607-.415l2.273,8.81a.831.831,0,0,1-.6,1.011A.913.913,0,0,1,3552.314,1374.945Z" transform="translate(-3549.212 -1364.477)"/>
        </g>
        <g id="Grupo_1200349" data-name="Grupo 1200349" transform="translate(151.483 164.535)">
          <path id="Trazado_1044123" data-name="Trazado 1044123" d="M3964.759,1378.125a.839.839,0,0,1-.166-.016.829.829,0,0,1-.648-.978l1.75-8.632a.83.83,0,0,1,1.627.33l-1.751,8.631A.83.83,0,0,1,3964.759,1378.125Z" transform="translate(-3963.928 -1367.833)"/>
        </g>
        <g id="Grupo_1200350" data-name="Grupo 1200350" transform="translate(35.484 559.901)">
          <path id="Trazado_1044124" data-name="Trazado 1044124" d="M3550.969,2942.436a4.8,4.8,0,0,1-4.258,4.323,155.879,155.879,0,0,1-33.736-.011,4.809,4.809,0,0,1-4.262-4.178q-.774-6.2-1.549-12.39a4.791,4.791,0,0,1,5.172-5.373c5.411.481,11.282.774,17.557.763,6.083-.01,11.783-.306,17.049-.78a4.791,4.791,0,0,1,5.192,5.226Q3551.553,2936.227,3550.969,2942.436Z" transform="translate(-3507.126 -2924.772)" fill="#274775"/>
        </g>
        <g id="Grupo_1200351" data-name="Grupo 1200351" transform="translate(122.49 559.901)">
          <path id="Trazado_1044125" data-name="Trazado 1044125" d="M3850.937,2942.436a4.8,4.8,0,0,0,4.259,4.323,155.875,155.875,0,0,0,33.735-.011,4.809,4.809,0,0,0,4.263-4.178l1.548-12.39a4.79,4.79,0,0,0-5.171-5.373c-5.411.481-11.283.774-17.557.763-6.083-.01-11.783-.306-17.048-.78a4.791,4.791,0,0,0-5.192,5.226Q3850.353,2936.227,3850.937,2942.436Z" transform="translate(-3849.751 -2924.772)" fill="#274775"/>
        </g>
        <g id="Grupo_1200352" data-name="Grupo 1200352" transform="translate(97.001 235.326)">
          <path id="Trazado_1044126" data-name="Trazado 1044126" d="M3752.057,1704.887a.83.83,0,0,1-.828-.8l-1.851-56.622a.829.829,0,0,1,.8-.856.84.84,0,0,1,.855.8l1.851,56.622a.828.828,0,0,1-.8.856Z" transform="translate(-3749.377 -1646.605)" fill="#274775"/>
        </g>
        <g id="Grupo_1200353" data-name="Grupo 1200353" transform="translate(98.492 235.327)">
          <path id="Trazado_1044127" data-name="Trazado 1044127" d="M3756.081,1693.887a.83.83,0,0,1-.243-1.623c2.868-.878,5-3.863,6.008-8.4,2.928-13.206,1.379-36.13,1.363-36.36a.83.83,0,0,1,1.656-.115c.066.949,1.582,23.393-1.4,36.835-1.143,5.15-3.679,8.571-7.142,9.631A.857.857,0,0,1,3756.081,1693.887Z" transform="translate(-3755.251 -1646.611)" fill="#274775"/>
        </g>
        <g id="Grupo_1200354" data-name="Grupo 1200354" transform="translate(62.395 227.871)">
          <path id="Trazado_1044128" data-name="Trazado 1044128" d="M3688.369,1624.153c-11.819.869-24.511,1.39-37.979,1.381-13.208-.009-25.668-.527-37.288-1.381q.346-3.453.69-6.905c11.37.859,23.6,1.381,36.6,1.381,11.4,0,23.638-.4,36.6-1.381Q3687.678,1620.7,3688.369,1624.153Z" transform="translate(-3613.103 -1617.248)"/>
        </g>
        <g id="Grupo_1200355" data-name="Grupo 1200355" transform="translate(0.049 598.678)">
          <path id="Trazado_1044129" data-name="Trazado 1044129" d="M3436.063,3099.957v.09l-2.894,3.2a.3.3,0,0,1-.076.014c-1.637.117-3.294.235-4.972.332l-2.05.124c-.684.035-1.375.076-2.072.11a.639.639,0,0,1-.117.007c-.912.048-1.83.09-2.749.131-.718.035-1.429.063-2.155.09-1.215.056-2.444.1-3.68.131-.987.035-1.975.056-2.969.083q-4.92.124-10.02.138c-.966,0-1.933,0-2.886-.007l-2.4-.021c-1.008-.007-2.009-.021-3.011-.042q-2.538-.042-5.034-.117c-.78-.021-1.561-.048-2.334-.076-.966-.027-1.926-.069-2.879-.11q-2.268-.093-4.5-.207c-.435-.021-.87-.042-1.3-.069l-2.189-.124-2.652-.166c-.242-.014-.476-.035-.711-.048l-1.195-.083c-.635-.048-1.264-.09-1.892-.138l-1.747-2.361c.2-.925.408-1.851.615-2.776.042-.2.249-.87.456-1.567a3.71,3.71,0,0,1,2.251-2.41l6.049-2.271,36.4-13.645a18.21,18.21,0,0,0,6.214,2.762c7.872,1.816,14.4-2.437,15.882-3.452q.28,10.367.56,20.736C3436.034,3098.791,3436.047,3099.378,3436.063,3099.957Z" transform="translate(-3367.583 -3077.474)"/>
        </g>
        <g id="Grupo_1200356" data-name="Grupo 1200356" transform="translate(0.002 619.263)">
          <path id="Trazado_1044130" data-name="Trazado 1044130" d="M3435.925,3160.433v.09a3.194,3.194,0,0,1-2.894,3.2.317.317,0,0,1-.076.014c-1.637.117-3.294.235-4.972.332l-2.051.124c-.684.035-1.374.076-2.072.11a.634.634,0,0,1-.117.007c-.911.048-1.83.09-2.748.131-.718.035-1.43.063-2.154.09-1.216.056-2.444.1-3.681.132-.987.034-1.975.055-2.969.083q-4.92.125-10.02.138c-.967,0-1.933,0-2.886-.007l-2.4-.021q-1.512-.01-3.01-.042-2.539-.042-5.034-.117c-.78-.021-1.561-.048-2.334-.076-.967-.027-1.927-.069-2.879-.11q-2.268-.093-4.5-.207c-.435-.021-.87-.042-1.305-.069l-2.188-.124-2.652-.166c-.242-.014-.477-.035-.711-.048l-1.195-.083c-.635-.048-1.264-.09-1.892-.138a1.944,1.944,0,0,1-1.747-2.361c.2-.925.407-1.851.614-2.776,4.1.352,8.341.663,12.706.9,7.043.394,14.417.615,22.1.615,10.185,0,21.227-.387,33.014-1.36C3435.9,3159.267,3435.91,3159.854,3435.925,3160.433Z" transform="translate(-3367.399 -3158.534)" fill="#d6d2d5"/>
        </g>
        <g id="Grupo_1200357" data-name="Grupo 1200357" transform="translate(23.581 605.999)">
          <path id="Trazado_1044131" data-name="Trazado 1044131" d="M3466.958,3115.073a1.24,1.24,0,0,1-.939-.428l-5.46-6.281a1.244,1.244,0,0,1,1.878-1.633l5.46,6.281a1.245,1.245,0,0,1-.938,2.062Z" transform="translate(-3460.253 -3106.302)" fill="#d6d2d5"/>
        </g>
        <g id="Grupo_1200358" data-name="Grupo 1200358" transform="translate(27.773 604.426)">
          <path id="Trazado_1044132" data-name="Trazado 1044132" d="M3483.416,3108.379a1.243,1.243,0,0,1-.909-.394l-5.411-5.782a1.245,1.245,0,1,1,1.818-1.7l5.411,5.782a1.245,1.245,0,0,1-.909,2.1Z" transform="translate(-3476.76 -3100.108)" fill="#d6d2d5"/>
        </g>
        <g id="Grupo_1200359" data-name="Grupo 1200359" transform="translate(33.019 602.458)">
          <path id="Trazado_1044133" data-name="Trazado 1044133" d="M3503.662,3099.835a1.242,1.242,0,0,1-.879-.364l-5-4.987a1.244,1.244,0,0,1,1.758-1.761l5,4.987a1.244,1.244,0,0,1-.879,2.125Z" transform="translate(-3497.42 -3092.358)" fill="#d6d2d5"/>
        </g>
        <g id="Grupo_1200360" data-name="Grupo 1200360" transform="translate(18.22 608.009)">
          <path id="Trazado_1044134" data-name="Trazado 1044134" d="M3445,3122.36a1.242,1.242,0,0,1-.965-.458l-4.607-5.652a1.244,1.244,0,0,1,1.929-1.573l4.608,5.653a1.244,1.244,0,0,1-.964,2.03Z" transform="translate(-3439.143 -3114.218)" fill="#d6d2d5"/>
        </g>
        <g id="Grupo_1200361" data-name="Grupo 1200361" transform="translate(0 613.014)">
          <path id="Trazado_1044135" data-name="Trazado 1044135" d="M3380.759,3141v.076a8.263,8.263,0,0,1-1.629,4.869c-.435-.021-.87-.042-1.305-.069l-2.189-.124-2.651-.166c-.242-.014-.477-.035-.711-.048l-1.195-.083c-.635-.048-1.264-.09-1.892-.138a1.945,1.945,0,0,1-1.747-2.362c.2-.925.408-1.85.615-2.775.042-.2.249-.871.456-1.568a3.709,3.709,0,0,1,2.251-2.41l6.049-2.272A8.3,8.3,0,0,1,3380.759,3141Z" transform="translate(-3367.392 -3133.926)" fill="#d6d2d5"/>
        </g>
        <g id="Grupo_1200369" data-name="Grupo 1200369" transform="translate(133.463 595.974)">
          <g id="Grupo_1200362" data-name="Grupo 1200362" transform="translate(0.004)">
            <path id="Trazado_1044136" data-name="Trazado 1044136" d="M3892.984,3089.227l-.005.09,2.692,3.368a.282.282,0,0,0,.075.019c1.626.217,3.273.436,4.942.635l2.04.25c.68.076,1.367.159,2.061.237a.649.649,0,0,0,.117.014c.907.1,1.821.2,2.735.3.714.079,1.422.149,2.145.222q1.816.194,3.666.356c.983.095,1.968.176,2.958.264q4.9.426,9.992.751c.965.059,1.93.118,2.881.169l2.393.125c1.006.055,2.007.1,3.008.143q2.535.114,5.031.19c.78.027,1.561.047,2.334.067.966.032,1.927.049,2.881.066q2.269.046,4.5.068c.435.006.871.012,1.307.011l2.192.01,2.656,0c.242,0,.478-.005.713,0l1.2-.01c.637-.01,1.266-.013,1.9-.022l1.889-2.25c-.144-.936-.293-1.873-.444-2.809-.029-.2-.195-.883-.359-1.592a3.707,3.707,0,0,0-2.1-2.543l-5.9-2.638-37.355-16.561c-1.537.923-4.214,3-6.9,3.453-7.968,1.331-11.842-3.673-13.255-4.777a34.175,34.175,0,0,0-1.767,11.652c.051,1.134-.253,4.135-.059,9.011C3893.086,3088.224,3893.028,3088.829,3892.984,3089.227Z" transform="translate(-3892.979 -3066.823)"/>
          </g>
          <g id="Grupo_1200363" data-name="Grupo 1200363" transform="translate(0 20.663)">
            <path id="Trazado_1044137" data-name="Trazado 1044137" d="M3892.975,3149.936l-.005.089a3.193,3.193,0,0,0,2.692,3.368.282.282,0,0,0,.075.019c1.626.217,3.273.436,4.942.635l2.04.249c.68.076,1.367.16,2.061.237a.6.6,0,0,0,.117.014c.907.1,1.821.2,2.735.3.715.079,1.423.149,2.145.222,1.21.129,2.434.246,3.666.356.984.095,1.968.176,2.959.264q4.9.425,9.992.75c.965.059,1.93.118,2.881.169l2.393.126c1.006.055,2.007.1,3.008.143q2.535.114,5.031.19c.78.027,1.561.047,2.334.067.967.031,1.927.049,2.881.066q2.271.045,4.5.068c.435.006.871.012,1.307.011l2.192.01,2.657,0c.242,0,.478-.005.713,0l1.2-.01c.637-.009,1.267-.012,1.9-.022a1.945,1.945,0,0,0,1.888-2.25c-.144-.936-.294-1.872-.444-2.808-4.115.1-8.366.151-12.736.119-7.054-.038-14.429-.268-22.093-.738-10.166-.623-21.163-1.684-32.869-3.376C3893.074,3148.772,3893.023,3149.356,3892.975,3149.936Z" transform="translate(-3892.964 -3148.194)" fill="#d6d2d5"/>
          </g>
          <g id="Grupo_1200364" data-name="Grupo 1200364" transform="translate(37.401 9.939)">
            <path id="Trazado_1044138" data-name="Trazado 1044138" d="M4041.494,3114.388a1.244,1.244,0,0,1-.887-2.117l5.834-5.937a1.244,1.244,0,0,1,1.774,1.745l-5.834,5.936A1.237,1.237,0,0,1,4041.494,3114.388Z" transform="translate(-4040.25 -3105.963)" fill="#d6d2d5"/>
          </g>
          <g id="Grupo_1200365" data-name="Grupo 1200365" transform="translate(33.394 8.114)">
            <path id="Trazado_1044139" data-name="Trazado 1044139" d="M4025.713,3106.7a1.244,1.244,0,0,1-.855-2.148l5.754-5.44a1.244,1.244,0,0,1,1.709,1.809l-5.753,5.44A1.246,1.246,0,0,1,4025.713,3106.7Z" transform="translate(-4024.469 -3098.774)" fill="#d6d2d5"/>
          </g>
          <g id="Grupo_1200366" data-name="Grupo 1200366" transform="translate(28.739 5.829)">
            <path id="Trazado_1044140" data-name="Trazado 1044140" d="M4007.382,3096.94a1.244,1.244,0,0,1-.824-2.178l5.293-4.673a1.245,1.245,0,1,1,1.647,1.867l-5.293,4.673A1.255,1.255,0,0,1,4007.382,3096.94Z" transform="translate(-4006.137 -3089.779)" fill="#d6d2d5"/>
          </g>
          <g id="Grupo_1200367" data-name="Grupo 1200367" transform="translate(43.522 12.272)">
            <path id="Trazado_1044141" data-name="Trazado 1044141" d="M4065.595,3123a1.245,1.245,0,0,1-.915-2.088l4.944-5.359a1.244,1.244,0,0,1,1.83,1.687l-4.945,5.36A1.24,1.24,0,0,1,4065.595,3123Z" transform="translate(-4064.35 -3115.151)" fill="#d6d2d5"/>
          </g>
          <g id="Grupo_1200368" data-name="Grupo 1200368" transform="translate(55.115 17.884)">
            <path id="Trazado_1044142" data-name="Trazado 1044142" d="M4110.021,3144.065l0,.076a8.26,8.26,0,0,0,1.329,4.958c.435.006.871.012,1.307.011l2.192.01,2.656,0c.243,0,.478,0,.713,0l1.2-.01c.638-.009,1.267-.012,1.9-.022a1.945,1.945,0,0,0,1.889-2.25c-.144-.936-.294-1.872-.444-2.808-.029-.2-.194-.884-.358-1.592a3.71,3.71,0,0,0-2.1-2.543l-5.9-2.637A8.305,8.305,0,0,0,4110.021,3144.065Z" transform="translate(-4110.004 -3137.25)" fill="#d6d2d5"/>
          </g>
        </g>
      </g>
    </g>
  </g>
</svg>
