<svg xmlns="http://www.w3.org/2000/svg" xmlns:xlink="http://www.w3.org/1999/xlink" width="113" height="113" viewBox="0 0 113 113">
  <defs>
    <filter id="Trazado_982547" x="0" y="0" width="113" height="113" filterUnits="userSpaceOnUse">
      <feOffset dy="3" input="SourceAlpha"/>
      <feGaussianBlur stdDeviation="3" result="blur"/>
      <feFlood flood-opacity="0.161"/>
      <feComposite operator="in" in2="blur"/>
      <feComposite in="SourceGraphic"/>
    </filter>
  </defs>
  <g id="Grupo_1201794" data-name="Grupo 1201794" transform="translate(-587 -1177)">
    <g id="Grupo_1182618" data-name="Grupo 1182618" transform="translate(0.249 -1903)">
      <g id="Grupo_1182335" data-name="Grupo 1182335" transform="translate(595.751 3086)">
        <g id="Grupo_1174057" data-name="Grupo 1174057">
          <g id="Grupo_1172010" data-name="Grupo 1172010">
            <g id="Grupo_1171046" data-name="Grupo 1171046">
              <g id="Grupo_1148525" data-name="Grupo 1148525">
                <g transform="matrix(1, 0, 0, 1, -9, -6)" filter="url(#Trazado_982547)">
                  <g id="Trazado_982547-2" data-name="Trazado 982547" transform="translate(9 6)" fill="#f2f7f5">
                    <path d="M 47.5 93.5 C 41.28937149047852 93.5 35.26533508300781 92.28397369384766 29.59518623352051 89.88570404052734 C 24.11771965026855 87.56893157958984 19.19813346862793 84.25196075439453 14.97309303283691 80.02691650390625 C 10.74804019927979 75.80186462402344 7.431066513061523 70.88229370117188 5.114293098449707 65.40481567382812 C 2.716026782989502 59.73468017578125 1.5 53.71062850952148 1.5 47.5 C 1.5 41.28937149047852 2.716026782989502 35.26533508300781 5.114293098449707 29.59518623352051 C 7.431066513061523 24.11771965026855 10.74804019927979 19.19813346862793 14.97309303283691 14.97309303283691 C 19.19813346862793 10.74804019927979 24.11771965026855 7.431066513061523 29.59518623352051 5.114293098449707 C 35.26533508300781 2.716026782989502 41.28937149047852 1.5 47.5 1.5 C 53.71062850952148 1.5 59.73468017578125 2.716026782989502 65.40481567382812 5.114293098449707 C 70.88229370117188 7.431066513061523 75.80186462402344 10.74804019927979 80.02691650390625 14.97309303283691 C 84.25196075439453 19.19813346862793 87.56893157958984 24.11771965026855 89.88570404052734 29.59518623352051 C 92.28397369384766 35.26533508300781 93.5 41.28937149047852 93.5 47.5 C 93.5 53.71062850952148 92.28397369384766 59.73468017578125 89.88570404052734 65.40481567382812 C 87.56893157958984 70.88229370117188 84.25196075439453 75.80186462402344 80.02691650390625 80.02691650390625 C 75.80186462402344 84.25196075439453 70.88229370117188 87.56893157958984 65.40481567382812 89.88570404052734 C 59.73468017578125 92.28397369384766 53.71062850952148 93.5 47.5 93.5 Z" stroke="none"/>
                    <path d="M 47.5 3 C 41.49121475219727 3 35.66376876831055 4.176155090332031 30.17950439453125 6.495796203613281 C 24.88084411621094 8.736953735351562 20.12152099609375 11.94598388671875 16.03375244140625 16.03375244140625 C 11.94598388671875 20.12152099609375 8.736953735351562 24.88084411621094 6.495796203613281 30.17950439453125 C 4.176155090332031 35.66376876831055 3 41.49121475219727 3 47.5 C 3 53.50878524780273 4.176155090332031 59.33623123168945 6.495796203613281 64.82049560546875 C 8.736953735351562 70.11915588378906 11.94598388671875 74.87847900390625 16.03375244140625 78.96624755859375 C 20.12152099609375 83.05401611328125 24.88084411621094 86.26304626464844 30.17950439453125 88.50419616699219 C 35.66376876831055 90.82384490966797 41.49121475219727 92 47.5 92 C 53.50878524780273 92 59.33623123168945 90.82384490966797 64.82049560546875 88.50419616699219 C 70.11915588378906 86.26304626464844 74.87847900390625 83.05401611328125 78.96624755859375 78.96624755859375 C 83.05401611328125 74.87847900390625 86.26304626464844 70.11915588378906 88.50419616699219 64.82049560546875 C 90.82384490966797 59.33623123168945 92 53.50878524780273 92 47.5 C 92 41.49121475219727 90.82384490966797 35.66376876831055 88.50419616699219 30.17950439453125 C 86.26304626464844 24.88084411621094 83.05401611328125 20.12152099609375 78.96624755859375 16.03375244140625 C 74.87847900390625 11.94598388671875 70.11915588378906 8.736953735351562 64.82049560546875 6.495796203613281 C 59.33623123168945 4.176155090332031 53.50878524780273 3 47.5 3 M 47.5 0 C 73.7335205078125 0 95 21.2664794921875 95 47.5 C 95 73.7335205078125 73.7335205078125 95 47.5 95 C 21.2664794921875 95 0 73.7335205078125 0 47.5 C 0 21.2664794921875 21.2664794921875 0 47.5 0 Z" stroke="none" fill="#88bba9"/>
                  </g>
                </g>
              </g>
            </g>
          </g>
        </g>
      </g>
    </g>
    <g id="me-gusta" transform="translate(599.685 1200)">
      <g id="Grupo_1201792" data-name="Grupo 1201792" transform="translate(19.211 0.897)">
        <path id="Trazado_1045132" data-name="Trazado 1045132" d="M75.241,241.872,63.7,248.832l-3.45,14.1,3.45,9.72H89.717a3.377,3.377,0,1,0,0-6.755h1.212a3.377,3.377,0,1,0,0-6.755h1.213a3.377,3.377,0,0,0,0-6.755H90.929a3.377,3.377,0,1,0,0-6.755H84.45l-3-3a5.073,5.073,0,0,0-6.206-.757Z" transform="translate(-56.133 -213.19)" fill="#ffddce"/>
        <g id="Grupo_1201785" data-name="Grupo 1201785" transform="translate(24.385 16.901)">
          <path id="Trazado_1045133" data-name="Trazado 1045133" d="M229.623,148.76h7.517V164.3h-7.517Z" transform="translate(-229.623 -148.76)" fill="#26457d"/>
          <path id="Trazado_1045134" data-name="Trazado 1045134" d="M229.623,148.76h2.684V164.3h-2.684Z" transform="translate(-229.623 -148.76)" fill="#21386b"/>
        </g>
        <g id="Grupo_1201786" data-name="Grupo 1201786" transform="translate(8.743 54.84)">
          <path id="Trazado_1045135" data-name="Trazado 1045135" d="M127.1,467.116a3.378,3.378,0,0,1-3.377,3.377h-19.94a6.062,6.062,0,0,1-4.9-2.488h24.842a3.375,3.375,0,0,0,3.139-2.134.058.058,0,0,0,.007.012,3.378,3.378,0,0,1,.232,1.232Z" transform="translate(-98.879 -465.872)" fill="#ffcbbe"/>
        </g>
        <g id="Grupo_1201787" data-name="Grupo 1201787" transform="translate(32.258 48.085)">
          <path id="Trazado_1045136" data-name="Trazado 1045136" d="M301.108,409.413a3.378,3.378,0,0,1-3.139,4.622h-1.294a1.244,1.244,0,0,1,0-2.488h1.294A3.376,3.376,0,0,0,301.108,409.413Z" transform="translate(-295.431 -409.413)" fill="#ffcbbe"/>
        </g>
        <g id="Grupo_1201788" data-name="Grupo 1201788" transform="translate(33.472 41.331)">
          <path id="Trazado_1045137" data-name="Trazado 1045137" d="M311.248,352.956a3.378,3.378,0,0,1-3.139,4.622h-1.294a1.244,1.244,0,1,1,0-2.488h1.294A3.377,3.377,0,0,0,311.248,352.956Z" transform="translate(-305.571 -352.956)" fill="#ffcbbe"/>
        </g>
        <g id="Grupo_1201789" data-name="Grupo 1201789" transform="translate(32.26 34.576)">
          <path id="Trazado_1045138" data-name="Trazado 1045138" d="M301.119,296.5a3.378,3.378,0,0,1-3.139,4.622h-1.294a1.244,1.244,0,1,1,0-2.488h1.294A3.376,3.376,0,0,0,301.119,296.5Z" transform="translate(-295.442 -296.499)" fill="#ffcbbe"/>
        </g>
        <path id="Trazado_1045139" data-name="Trazado 1045139" d="M25.812,286.9v21.061a2.645,2.645,0,0,0,2.645,2.645h5.215a2.645,2.645,0,0,0,2.645-2.645V286.9a2.645,2.645,0,0,0-2.645-2.645H28.457A2.645,2.645,0,0,0,25.812,286.9Z" transform="translate(-25.811 -251.142)" fill="#26457d"/>
        <path id="Trazado_1045140" data-name="Trazado 1045140" d="M25.806,426.946v6.634a2.645,2.645,0,0,0,2.646,2.644h5.215a2.644,2.644,0,0,0,2.644-2.644v-6.634a2.645,2.645,0,0,1-2.644,2.646H28.452a2.646,2.646,0,0,1-2.646-2.646Z" transform="translate(-25.806 -376.763)" fill="#21386b"/>
        <circle id="Elipse_12169" data-name="Elipse 12169" cx="14.801" cy="14.801" r="14.801" transform="translate(13.387)" fill="#78d0b1"/>
        <path id="Trazado_1045141" data-name="Trazado 1045141" d="M154.168,37.014a14.8,14.8,0,1,1,0-29.416,14.8,14.8,0,0,0,0,29.416Z" transform="translate(-124.308 -7.504)" fill="#66b49d"/>
        <g id="Grupo_1201791" data-name="Grupo 1201791" transform="translate(1.295 0.337)">
          <g id="Grupo_1201790" data-name="Grupo 1201790">
            <path id="Trazado_1045142" data-name="Trazado 1045142" d="M69.064,15.107l-.149.257a1.994,1.994,0,0,1-2.6.794l-2.9-1.418a1.994,1.994,0,0,1-.851-2.789l.369-.64a1.994,1.994,0,0,1,2.84-.658l2.676,1.8A1.994,1.994,0,0,1,69.064,15.107Z" transform="translate(-59.226 -10.315)" fill="#f1f4f6"/>
            <path id="Trazado_1045143" data-name="Trazado 1045143" d="M401.987,202.827l.149-.257a1.994,1.994,0,0,1,2.6-.794l2.9,1.418a1.994,1.994,0,0,1,.851,2.789l-.369.64a1.994,1.994,0,0,1-2.84.658l-2.676-1.8A1.994,1.994,0,0,1,401.987,202.827Z" transform="translate(-358.04 -178.689)" fill="#f1f4f6"/>
            <path id="Trazado_1045144" data-name="Trazado 1045144" d="M43.839,113.671v.3a1.994,1.994,0,0,1-1.858,1.99l-3.218.221a1.994,1.994,0,0,1-2.131-1.99v-.739a1.994,1.994,0,0,1,2.131-1.99l3.218.221A1.994,1.994,0,0,1,43.839,113.671Z" transform="translate(-36.633 -99.355)" fill="#f1f4f6"/>
            <path id="Trazado_1045145" data-name="Trazado 1045145" d="M425.951,113.968v-.3a1.994,1.994,0,0,1,1.858-1.99l3.218-.221a1.994,1.994,0,0,1,2.131,1.99v.739a1.994,1.994,0,0,1-2.131,1.99l-3.218-.221A1.994,1.994,0,0,1,425.951,113.968Z" transform="translate(-379.372 -99.354)" fill="#f1f4f6"/>
            <path id="Trazado_1045146" data-name="Trazado 1045146" d="M68.915,202.569l.149.257a1.994,1.994,0,0,1-.614,2.652l-2.676,1.8a1.994,1.994,0,0,1-2.84-.658l-.369-.64a1.994,1.994,0,0,1,.851-2.789l2.9-1.418A1.994,1.994,0,0,1,68.915,202.569Z" transform="translate(-59.226 -178.689)" fill="#f1f4f6"/>
            <path id="Trazado_1045147" data-name="Trazado 1045147" d="M402.136,15.364l-.149-.257a1.994,1.994,0,0,1,.614-2.652l2.676-1.8a1.994,1.994,0,0,1,2.84.658l.369.64a1.994,1.994,0,0,1-.851,2.789l-2.9,1.418A2,2,0,0,1,402.136,15.364Z" transform="translate(-358.04 -10.314)" fill="#f1f4f6"/>
          </g>
          <path id="Trazado_1045148" data-name="Trazado 1045148" d="M189.441,75.393l-4.628-7.741a1.574,1.574,0,0,1,.543-2.158l2.334-1.4a1.574,1.574,0,0,1,2.158.543L192.2,68.57l4.823-9.731a1.574,1.574,0,0,1,2.109-.711l2.437,1.208a1.574,1.574,0,0,1,.711,2.109l-6.8,13.711a1.574,1.574,0,0,1-1.348.874l-3.28.129A1.574,1.574,0,0,1,189.441,75.393Z" transform="translate(-166.888 -52.263)" fill="#f1f4f6"/>
        </g>
      </g>
      <g id="Grupo_1201793" data-name="Grupo 1201793" transform="translate(18.315)">
        <path id="Trazado_1045149" data-name="Trazado 1045149" d="M63.1,15.7A15.7,15.7,0,1,0,38.374,28.536c-.177.084-.35.174-.518.276l-8.508,5.131a3.525,3.525,0,0,0-2.276-.831H21.856a3.545,3.545,0,0,0-3.541,3.541V57.715a3.545,3.545,0,0,0,3.541,3.541h5.215a3.526,3.526,0,0,0,2.356-.9,6.913,6.913,0,0,0,3.428.9H52.8a4.276,4.276,0,0,0,3.981-5.833,4.234,4.234,0,0,0-.865-1.368A4.275,4.275,0,0,0,57.123,47.3a4.275,4.275,0,0,0,0-7.656,4.272,4.272,0,0,0-3.113-7.2h-2V30.706A15.727,15.727,0,0,0,63.1,15.7Zm-29.6,0A13.9,13.9,0,1,1,47.4,29.6,13.92,13.92,0,0,1,33.5,15.7Zm7.034,16.745a.9.9,0,1,0,0,1.795H54.008a2.48,2.48,0,1,1,0,4.959.9.9,0,0,0,0,1.795H55.22a2.481,2.481,0,0,1,0,4.961H54.008a.9.9,0,1,0,0,1.795,2.48,2.48,0,0,1,0,4.96H52.8a.9.9,0,0,0,0,1.795,2.48,2.48,0,1,1,0,4.959H32.856a5.133,5.133,0,0,1-2.432-.606,3.523,3.523,0,0,0,.189-1.14v-4.84a.9.9,0,1,0-1.795,0v4.84a1.749,1.749,0,0,1-1.747,1.747H21.857a1.749,1.749,0,0,1-1.747-1.747V36.653a1.749,1.749,0,0,1,1.747-1.747h5.215a1.749,1.749,0,0,1,1.747,1.747V49.286a.9.9,0,1,0,1.795,0V36.653a3.525,3.525,0,0,0-.225-1.242l8.4-5.063a4.185,4.185,0,0,1,1.676-.571,15.607,15.607,0,0,0,2.239.9v1.766h-2.17Zm9.687,0H44.493V31.127a15.751,15.751,0,0,0,5.723.017Z" transform="translate(-18.315)"/>
        <path id="Trazado_1045150" data-name="Trazado 1045150" d="M56.427,8.951l2.9,1.418a2.868,2.868,0,0,0,1.263.293A2.9,2.9,0,0,0,63.1,9.217l.149-.257h0a2.9,2.9,0,0,0-.89-3.845l-2.676-1.8a2.892,2.892,0,0,0-4.118.954l-.369.64a2.892,2.892,0,0,0,1.233,4.043ZM56.748,5.8l.369-.64a1.086,1.086,0,0,1,.7-.52,1.11,1.11,0,0,1,.251-.029,1.087,1.087,0,0,1,.609.187l2.676,1.8a1.1,1.1,0,0,1,.338,1.459l-.149.258a1.1,1.1,0,0,1-1.432.437l-2.9-1.418A1.1,1.1,0,0,1,56.748,5.8Z" transform="translate(-50.441 -2.485)"/>
        <path id="Trazado_1045151" data-name="Trazado 1045151" d="M401.445,195.8l-2.9-1.418a2.9,2.9,0,0,0-3.775,1.151l-.149.257h0a2.9,2.9,0,0,0,.89,3.845l2.676,1.8a2.892,2.892,0,0,0,4.118-.954l.369-.64a2.892,2.892,0,0,0-1.233-4.044Zm-.321,3.146-.369.64a1.1,1.1,0,0,1-1.563.362l-2.676-1.8a1.1,1.1,0,0,1-.338-1.459l.149-.258a1.1,1.1,0,0,1,1.432-.437l2.9,1.418a1.1,1.1,0,0,1,.468,1.534Z" transform="translate(-349.263 -170.867)"/>
        <path id="Trazado_1045152" data-name="Trazado 1045152" d="M30.051,109.7a2.9,2.9,0,0,0,1.976.778c.065,0,.131,0,.2-.007l3.218-.221a2.9,2.9,0,0,0,2.694-2.885v-.3a2.9,2.9,0,0,0-2.694-2.885l-3.218-.221a2.892,2.892,0,0,0-3.09,2.885v.739A2.9,2.9,0,0,0,30.051,109.7Zm.876-2.852a1.1,1.1,0,0,1,1.095-1.1l.078,0,3.218.221a1.1,1.1,0,0,1,1.022,1.094v.3a1.1,1.1,0,0,1-1.022,1.094l-3.218.221a1.1,1.1,0,0,1-1.172-1.094Z" transform="translate(-27.839 -91.519)"/>
        <path id="Trazado_1045153" data-name="Trazado 1045153" d="M426.533,104.735a2.9,2.9,0,0,0-2.172-.771l-3.217.221a2.9,2.9,0,0,0-2.694,2.885v.3a2.9,2.9,0,0,0,2.694,2.885l3.218.221q.1.007.2.007a2.892,2.892,0,0,0,2.894-2.892v-.739a2.9,2.9,0,0,0-.918-2.113Zm-.876,2.852a1.1,1.1,0,0,1-1.172,1.094l-3.218-.221a1.1,1.1,0,0,1-1.022-1.094v-.3a1.1,1.1,0,0,1,1.022-1.094l3.218-.221.078,0a1.1,1.1,0,0,1,1.095,1.1v.739Z" transform="translate(-370.577 -91.519)"/>
        <path id="Trazado_1045154" data-name="Trazado 1045154" d="M59.323,194.381l-2.9,1.418a2.892,2.892,0,0,0-1.233,4.043l.369.64a2.893,2.893,0,0,0,4.118.954l2.676-1.8a2.9,2.9,0,0,0,.89-3.845l-.149-.257h0a2.9,2.9,0,0,0-3.775-1.151Zm2.032,3.765-2.676,1.8a1.1,1.1,0,0,1-1.563-.362l-.369-.64a1.1,1.1,0,0,1,.468-1.534l2.9-1.418a1.088,1.088,0,0,1,.479-.111,1.1,1.1,0,0,1,.953.548h0l.149.257A1.1,1.1,0,0,1,61.355,198.146Z" transform="translate(-50.441 -170.868)"/>
        <path id="Trazado_1045155" data-name="Trazado 1045155" d="M394.774,9.218a2.9,2.9,0,0,0,2.512,1.444,2.87,2.87,0,0,0,1.263-.293l2.9-1.418a2.892,2.892,0,0,0,1.233-4.043l-.369-.64a2.892,2.892,0,0,0-4.118-.954l-2.676,1.8a2.9,2.9,0,0,0-.89,3.846ZM396.518,6.6l2.676-1.8a1.087,1.087,0,0,1,.609-.187,1.112,1.112,0,0,1,.251.029,1.086,1.086,0,0,1,.7.52l.369.64a1.1,1.1,0,0,1-.468,1.534l-2.9,1.418a1.1,1.1,0,0,1-1.432-.437h0l-.149-.257A1.1,1.1,0,0,1,396.518,6.6Z" transform="translate(-349.264 -2.485)"/>
        <path id="Trazado_1045156" data-name="Trazado 1045156" d="M189.688,68.946l4.1-8.261a.9.9,0,1,0-1.608-.8l-4.1,8.262a.674.674,0,0,1-.578.374l-3.281.129a.675.675,0,0,1-.606-.329l-4.628-7.741a.678.678,0,0,1,.233-.928l2.334-1.4a.677.677,0,0,1,.928.233l2.349,3.928a.9.9,0,0,0,1.574-.062l4.823-9.73a.676.676,0,0,1,.907-.305l2.436,1.207a.676.676,0,0,1,.305.907l-1.107,2.234a.9.9,0,0,0,1.608.8l1.106-2.233a2.471,2.471,0,0,0-1.116-3.312l-2.436-1.207a2.471,2.471,0,0,0-3.312,1.116l-4.093,8.257-1.5-2.516a2.474,2.474,0,0,0-3.389-.853l-2.335,1.4a2.475,2.475,0,0,0-.852,3.389l4.628,7.741a2.469,2.469,0,0,0,2.119,1.2l.1,0,3.281-.129a2.466,2.466,0,0,0,2.116-1.371Z" transform="translate(-158.1 -44.42)"/>
      </g>
    </g>
  </g>
</svg>
