<svg xmlns="http://www.w3.org/2000/svg" xmlns:xlink="http://www.w3.org/1999/xlink" width="110" height="110" viewBox="0 0 110 110">
  <defs>
    <filter id="Trazado_982547" x="0" y="0" width="110" height="110" filterUnits="userSpaceOnUse">
      <feOffset dy="3" input="SourceAlpha"/>
      <feGaussianBlur stdDeviation="3" result="blur"/>
      <feFlood flood-opacity="0.161"/>
      <feComposite operator="in" in2="blur"/>
      <feComposite in="SourceGraphic"/>
    </filter>
  </defs>
  <g id="Grupo_1200232" data-name="Grupo 1200232" transform="translate(792 -737)">
    <g id="Grupo_1199818" data-name="Grupo 1199818" transform="translate(-1155.301 -7013)">
      <g id="Grupo_1173080" data-name="Grupo 1173080" transform="translate(372.301 7756)">
        <g id="Grupo_1172181" data-name="Grupo 1172181" transform="translate(0)">
          <g id="Grupo_1171414" data-name="Grupo 1171414">
            <g id="Grupo_1163801" data-name="Grupo 1163801">
              <g id="Grupo_1163014" data-name="Grupo 1163014">
                <g id="Grupo_1157015" data-name="Grupo 1157015" transform="translate(0 0)">
                  <g id="Grupo_1155792" data-name="Grupo 1155792">
                    <g id="Grupo_1154703" data-name="Grupo 1154703">
                      <g id="Grupo_1150789" data-name="Grupo 1150789">
                        <g id="Grupo_1154212" data-name="Grupo 1154212">
                          <g id="Grupo_1152583" data-name="Grupo 1152583">
                            <g id="Grupo_1146973" data-name="Grupo 1146973" transform="translate(0 0)">
                              <g id="Grupo_1146954" data-name="Grupo 1146954">
                                <g transform="matrix(1, 0, 0, 1, -9, -6)" filter="url(#Trazado_982547)">
                                  <g id="Trazado_982547-2" data-name="Trazado 982547" transform="translate(9 6)" fill="#f2f7f5">
                                    <path d="M 46 90.49987030029297 C 39.99187850952148 90.49987030029297 34.16426849365234 89.32350921630859 28.67905426025391 87.00345611572266 C 23.38019943237305 84.76224517822266 18.62104034423828 81.55341339111328 14.53374671936035 77.46613311767578 C 10.44646644592285 73.37885284423828 7.237639904022217 68.61969757080078 4.996413230895996 63.32085418701172 C 2.676359891891479 57.83565521240234 1.5 52.008056640625 1.5 45.99993515014648 C 1.5 39.99181365966797 2.676359891891479 34.16421508789062 4.996413230895996 28.67901420593262 C 7.237639904022217 23.38017463684082 10.44646644592285 18.62101554870605 14.53374671936035 14.53373527526855 C 18.62104034423828 10.44645500183105 23.38019943237305 7.23762845993042 28.67905426025391 4.996415138244629 C 34.16426849365234 2.676361799240112 39.99187850952148 1.500001788139343 46 1.500001788139343 C 52.00812149047852 1.500001788139343 57.83573150634766 2.676361799240112 63.32094573974609 4.996415138244629 C 68.61979675292969 7.23762845993042 73.37895965576172 10.44645500183105 77.46625518798828 14.53373527526855 C 81.55353546142578 18.62101554870605 84.76235961914062 23.38017463684082 87.00358581542969 28.67901420593262 C 89.32363891601562 34.16421508789062 90.5 39.99181365966797 90.5 45.99993515014648 C 90.5 52.008056640625 89.32363891601562 57.83565521240234 87.00358581542969 63.32085418701172 C 84.76235961914062 68.61969757080078 81.55353546142578 73.37885284423828 77.46625518798828 77.46613311767578 C 73.37895965576172 81.55341339111328 68.61979675292969 84.76224517822266 63.32094573974609 87.00345611572266 C 57.83573150634766 89.32350921630859 52.00812149047852 90.49987030029297 46 90.49987030029297 Z" stroke="none"/>
                                    <path d="M 46 2.999992370605469 C 40.1937141418457 2.999992370605469 34.56269836425781 4.136489868164062 29.26337051391602 6.377906799316406 C 24.14332580566406 8.543502807617188 19.54441070556641 11.64437866210938 15.59439849853516 15.59437561035156 C 11.64440155029297 19.54439544677734 8.54351806640625 24.14329528808594 6.377914428710938 29.26333618164062 C 4.136497497558594 34.56264877319336 3 40.19366455078125 3 45.99993515014648 C 3 51.80620574951172 4.136497497558594 57.43720626831055 6.377914428710938 62.73651885986328 C 8.54351806640625 67.8565673828125 11.64440155029297 72.45545959472656 15.59439849853516 76.40547943115234 C 19.54441070556641 80.35547637939453 24.14332580566406 83.45635223388672 29.26337051391602 85.6219482421875 C 34.56269836425781 87.86336517333984 40.1937141418457 88.99986267089844 46 88.99986267089844 C 51.8062858581543 88.99986267089844 57.43730163574219 87.86336517333984 62.73661422729492 85.6219482421875 C 67.85667419433594 83.45635223388672 72.45557403564453 80.35547637939453 76.40558624267578 76.40547943115234 C 80.35559844970703 72.45545959472656 83.45647430419922 67.8565673828125 85.6220703125 62.73651885986328 C 87.86350250244141 57.43720626831055 89 51.80620574951172 89 45.99993515014648 C 89 40.19366455078125 87.86350250244141 34.56264877319336 85.6220703125 29.26333618164062 C 83.45647430419922 24.14329528808594 80.35559844970703 19.54439544677734 76.40558624267578 15.59437561035156 C 72.45557403564453 11.64437866210938 67.85667419433594 8.543502807617188 62.73661422729492 6.377906799316406 C 57.43730163574219 4.136489868164062 51.8062858581543 2.999992370605469 46 2.999992370605469 M 46 -7.62939453125e-06 C 71.40509033203125 -7.62939453125e-06 92 20.59486389160156 92 45.99993515014648 C 92 71.40499114990234 71.40509033203125 91.99986267089844 46 91.99986267089844 C 20.59490203857422 91.99986267089844 0 71.40499114990234 0 45.99993515014648 C 0 20.59486389160156 20.59490203857422 -7.62939453125e-06 46 -7.62939453125e-06 Z" stroke="none" fill="#88bba9"/>
                                  </g>
                                </g>
                              </g>
                            </g>
                          </g>
                        </g>
                      </g>
                    </g>
                  </g>
                </g>
              </g>
            </g>
          </g>
        </g>
      </g>
    </g>
    <g id="evaluacion-de-desempeno" transform="translate(-770.998 754.99)">
      <g id="Grupo_1200231" data-name="Grupo 1200231" transform="translate(7.887 6.898)">
        <g id="Grupo_1200228" data-name="Grupo 1200228" transform="translate(6.08 0.442)">
          <path id="Trazado_1043949" data-name="Trazado 1043949" d="M108.957,58.973a2.394,2.394,0,0,1,2.389,2.389v43.964a2.394,2.394,0,0,1-2.389,2.389h-36.8a2.394,2.394,0,0,1-2.389-2.389V61.362a2.394,2.394,0,0,1,2.389-2.389h36.8Z" transform="translate(-69.772 -54.423)" fill="#837683" fill-rule="evenodd"/>
          <path id="Trazado_1043950" data-name="Trazado 1043950" d="M394.933,107.717h3.084a2.394,2.394,0,0,0,2.389-2.389V61.363a2.394,2.394,0,0,0-2.389-2.389h-3.084Z" transform="translate(-358.831 -54.424)" fill="#685e68" fill-rule="evenodd"/>
          <path id="Trazado_1043951" data-name="Trazado 1043951" d="M133.562,88.911H100.784a1.076,1.076,0,0,0-1.074,1.074v39.946a1.076,1.076,0,0,0,1.074,1.074h32.778a1.076,1.076,0,0,0,1.074-1.074V89.985A1.076,1.076,0,0,0,133.562,88.911Z" transform="translate(-96.386 -81.037)" fill="#eceff1" fill-rule="evenodd"/>
          <path id="Trazado_1043952" data-name="Trazado 1043952" d="M394.933,131.006h1.075c.034,0,.067,0,.1,0a1.077,1.077,0,0,0,.974-1.07V89.985a1.077,1.077,0,0,0-.974-1.07q-.05,0-.1,0h-1.075Z" transform="translate(-358.831 -81.037)" fill="#d1d1d6" fill-rule="evenodd"/>
          <path id="Trazado_1043953" data-name="Trazado 1043953" d="M175.22,21.1h3.406a1.055,1.055,0,0,0,.987-.65,4.063,4.063,0,0,1,7.464,0,1.055,1.055,0,0,0,.987.65h3.406a1.076,1.076,0,0,1,1.074,1.074v4.063a1.076,1.076,0,0,1-1.074,1.074H175.22a1.077,1.077,0,0,1-1.074-1.074V22.171A1.076,1.076,0,0,1,175.22,21.1Z" transform="translate(-162.558 -17.99)" fill="#e3a76f" fill-rule="evenodd"/>
          <path id="Trazado_1043954" data-name="Trazado 1043954" d="M190.394,51.1H174.145a1.076,1.076,0,0,0,1.074,1.074h16.249a1.076,1.076,0,0,0,1.074-1.074V47.04a1.077,1.077,0,0,0-1.075-1.075v4.063a1.076,1.076,0,0,1-1.074,1.074Z" transform="translate(-162.557 -42.859)" fill="#c48958" fill-rule="evenodd"/>
          <path id="Trazado_1043955" data-name="Trazado 1043955" d="M127.276,182.522h6.016a.788.788,0,0,1,.785.785v6.016a.788.788,0,0,1-.785.785h-6.016a.788.788,0,0,1-.785-.785v-6.016A.788.788,0,0,1,127.276,182.522Zm0-12.213h6.016a.788.788,0,0,1,.785.785v6.016a.788.788,0,0,1-.785.785h-6.016a.788.788,0,0,1-.785-.785v-6.016A.788.788,0,0,1,127.276,170.309Z" transform="translate(-120.194 -153.397)" fill="#6cf5c2" fill-rule="evenodd"/>
          <path id="Trazado_1043956" data-name="Trazado 1043956" d="M177.753,182.522h1.11a.788.788,0,0,1,.785.785v6.016a.788.788,0,0,1-.785.785h-1.11a.788.788,0,0,0,.785-.785v-6.016A.788.788,0,0,0,177.753,182.522Zm0-12.213h1.11a.788.788,0,0,1,.785.785v6.016a.788.788,0,0,1-.785.785h-1.11a.788.788,0,0,0,.785-.785v-6.016A.788.788,0,0,0,177.753,170.309Z" transform="translate(-165.764 -153.397)" fill="#00e499" fill-rule="evenodd"/>
        </g>
        <g id="Grupo_1200229" data-name="Grupo 1200229" transform="translate(0 0)">
          <circle id="Elipse_12122" data-name="Elipse 12122" cx="8.314" cy="8.314" r="8.314" fill="#685e68"/>
          <path id="Trazado_1043957" data-name="Trazado 1043957" d="M43.364,83.945h9.6a.411.411,0,0,0,.4-.494,5.311,5.311,0,0,0-10.406,0A.411.411,0,0,0,43.364,83.945Z" transform="translate(-39.85 -71.967)" fill="#8ac9fe" fill-rule="evenodd"/>
          <path id="Trazado_1043958" data-name="Trazado 1043958" d="M90,83.943h.939a.411.411,0,0,0,.4-.494,5.312,5.312,0,0,0-5.2-4.245q-.237,0-.469.021A5.314,5.314,0,0,1,90.4,83.449.411.411,0,0,1,90,83.943Z" transform="translate(-77.822 -71.966)" fill="#60b7ff" fill-rule="evenodd"/>
          <circle id="Elipse_12123" data-name="Elipse 12123" cx="2.685" cy="2.685" r="2.685" transform="translate(4.516 4.554) rotate(-45)" fill="#f6dccd"/>
          <path id="Trazado_1043959" data-name="Trazado 1043959" d="M86.9,30.841a2.685,2.685,0,1,1-.374,5.344,2.685,2.685,0,0,0,0-5.318A2.7,2.7,0,0,1,86.9,30.841Z" transform="translate(-78.584 -28.972)" fill="#f1cbbc" fill-rule="evenodd"/>
          <path id="Trazado_1043960" data-name="Trazado 1043960" d="M85.448,14.011a8.314,8.314,0,0,1,0,16.628c-.187,0-.372-.007-.555-.019a8.314,8.314,0,0,0,0-16.59c.183-.012.368-.019.555-.019Z" transform="translate(-77.134 -14.011)" fill="#544854" fill-rule="evenodd"/>
        </g>
        <g id="Grupo_1200230" data-name="Grupo 1200230" transform="translate(19.338 20.531)">
          <path id="Trazado_1043961" data-name="Trazado 1043961" d="M379.043,379.747a10.539,10.539,0,0,1-1.777,1.956l4.832,4.736,1.839-1.9Z" transform="translate(-356.384 -359.671)" fill="#a79ba7" fill-rule="evenodd"/>
          <path id="Trazado_1043962" data-name="Trazado 1043962" d="M389.353,379.454a1.213,1.213,0,0,1-.526.705l4.8,4.768.588-.644Z" transform="translate(-366.661 -359.411)" fill="#837683" fill-rule="evenodd"/>
          <path id="Trazado_1043963" data-name="Trazado 1043963" d="M416.772,420.673l2.076-2.139a.955.955,0,0,0-.02-1.346l-5.75-5.579a.955.955,0,0,0-1.346.02l-2.076,2.139a.955.955,0,0,0,.02,1.346l5.75,5.579A.955.955,0,0,0,416.772,420.673Z" transform="translate(-384.94 -387.757)" fill="#f1ba84" fill-rule="evenodd"/>
          <path id="Trazado_1043964" data-name="Trazado 1043964" d="M433.054,411.608l5.75,5.579a.955.955,0,0,1,.02,1.346l-2.076,2.139a.941.941,0,0,1-.258.188.955.955,0,0,0,1.108-.188l2.076-2.139a.955.955,0,0,0-.02-1.346l-5.75-5.579a.955.955,0,0,0-1.088-.168A.942.942,0,0,1,433.054,411.608Z" transform="translate(-405.767 -387.757)" fill="#e3a76f" fill-rule="evenodd"/>
          <circle id="Elipse_12124" data-name="Elipse 12124" cx="10.47" cy="10.47" r="10.47" transform="translate(0 14.805) rotate(-45)" fill="#8ac9fe"/>
          <path id="Trazado_1043965" data-name="Trazado 1043965" d="M318.531,237.97a10.47,10.47,0,0,1,0,20.941c-.17,0-.34,0-.508-.012a10.47,10.47,0,0,0,0-20.916Q318.276,237.97,318.531,237.97Z" transform="translate(-303.719 -233.635)" fill="#60b7ff" fill-rule="evenodd"/>
          <circle id="Elipse_12125" data-name="Elipse 12125" cx="8.148" cy="8.148" r="8.148" transform="translate(3.284 14.805) rotate(-45)" fill="#eceff1"/>
          <path id="Trazado_1043966" data-name="Trazado 1043966" d="M257.364,258.888c.185,0,.369.007.551.019a8.147,8.147,0,0,0,0,16.258c-.182.012-.366.019-.551.019a8.148,8.148,0,1,1,0-16.3Z" transform="translate(-242.551 -252.231)" fill="#d1d1d6" fill-rule="evenodd"/>
        </g>
      </g>
      <path id="Trazado_1043967" data-name="Trazado 1043967" d="M49.3,42.234a7.26,7.26,0,1,0-7.26,7.259A7.268,7.268,0,0,0,49.3,42.234Zm1.777,0A9.037,9.037,0,1,1,42.038,33.2,9.044,9.044,0,0,1,51.075,42.234ZM60.5,57.5l-5.755-5.579A.058.058,0,0,0,54.7,51.9a.072.072,0,0,0-.047.018l-2.075,2.14a.066.066,0,0,0,0,.09l5.749,5.58a.065.065,0,0,0,.089,0l2.08-2.138a.074.074,0,0,0,0-.091Zm-5.885,1.1a1.508,1.508,0,0,1-1.458,1.151h-36.8a1.5,1.5,0,0,1-1.505-1.5V24.315a9.4,9.4,0,0,0,1.349.1c.068,0,.136,0,.2,0v32.9a.891.891,0,0,0,.889.889h34.93a.888.888,0,0,0,.889-.889v-.175ZM16.2,22.638a7.426,7.426,0,1,0-7.427-7.426A7.436,7.436,0,0,0,16.2,22.638ZM26.446,15.77H43.067V11.334H38.7a.887.887,0,0,1-.862-.679,3.176,3.176,0,0,0-6.173,0,.883.883,0,0,1-.862.679H26.446Zm26.2,35.671-1.934-1.877c-.188.219-.381.433-.585.638l1.918,1.86Zm-10.6-18.789a9.582,9.582,0,1,1-9.581,9.582A9.6,9.6,0,0,1,42.038,32.652ZM18.178,56.421V24.2a9.232,9.232,0,0,0,6.952-6.761.888.888,0,0,0,.429.109h18.4a.891.891,0,0,0,.889-.888V16.1h6.486V35.709A11.36,11.36,0,1,0,48.78,51.371l2.127,2.067a1.854,1.854,0,0,0,.423,1.971v1.011H18.178ZM44.844,12.778h8.31a1.5,1.5,0,0,1,1.5,1.5V50.126a1.85,1.85,0,0,0-.669.142l-.878-.853V44.792a11.528,11.528,0,0,0,0-5.116V15.214a.888.888,0,0,0-.889-.888H44.844V12.778ZM61.774,58.825l-2.08,2.139A1.837,1.837,0,0,1,57.1,61l-1.124-1.09a3.288,3.288,0,0,1-2.817,1.609h-36.8a3.281,3.281,0,0,1-3.277-3.278V23.868A9.2,9.2,0,1,1,24.382,11h.287v-.557a.889.889,0,0,1,.889-.888h4.6a4.955,4.955,0,0,1,9.194,0h4.6a.892.892,0,0,1,.889.888V11h8.31a3.283,3.283,0,0,1,3.277,3.278v36.8l5.3,5.144A1.845,1.845,0,0,1,61.774,58.825ZM45.581,39.238a.888.888,0,0,1,.131,1.249L41.985,45.1a.894.894,0,0,1-.648.329H41.29a.9.9,0,0,1-.627-.26L38.426,42.93a.89.89,0,1,1,1.26-1.257l1.537,1.54,3.11-3.843a.888.888,0,0,1,1.249-.132ZM23.148,42.049a.884.884,0,0,0,.627.261h.047a.885.885,0,0,0,.643-.329l1.882-2.327a.888.888,0,1,0-1.38-1.117l-1.26,1.56-.622-.621a.888.888,0,0,0-1.254,1.257Zm3.815-4.7H21.152v5.811h5.812Zm1.777-.1a1.676,1.676,0,0,0-1.673-1.674H21.053a1.678,1.678,0,0,0-1.678,1.674v6.015a1.678,1.678,0,0,0,1.678,1.674h6.016a1.676,1.676,0,0,0,1.673-1.674Zm3.6-9.982H47.458a.888.888,0,1,0,0-1.777H32.342a.888.888,0,1,0,0,1.777Zm0,3.331H47.458a.888.888,0,1,0,0-1.777H32.342a.888.888,0,1,0,0,1.777ZM20.31,17.922H12.094a4.359,4.359,0,0,1,8.216,0ZM16.2,13.245a1.763,1.763,0,1,1,1.761-1.762A1.765,1.765,0,0,1,16.2,13.245ZM21.413,19.7H10.991a.9.9,0,0,1-.664-.294.894.894,0,0,1-.22-.688,6.106,6.106,0,0,1,3.455-4.879,3.538,3.538,0,1,1,5.279,0A6.117,6.117,0,0,1,22.3,18.716a.883.883,0,0,1-.883.983Zm1.735,10.138a.887.887,0,0,0,.627.26h.047a.88.88,0,0,0,.643-.329l1.882-2.326a.888.888,0,1,0-1.38-1.117l-1.26,1.559-.622-.621a.888.888,0,0,0-1.254,1.256Zm3.815-4.7H21.152v5.81h5.812Zm1.777-.1a1.676,1.676,0,0,0-1.673-1.673H21.053a1.677,1.677,0,0,0-1.678,1.673v6.016a1.677,1.677,0,0,0,1.678,1.674h6.016a1.676,1.676,0,0,0,1.673-1.674ZM33.68,10.67a1.074,1.074,0,1,1,1.077,1.075A1.076,1.076,0,0,1,33.68,10.67Z" transform="translate(0 0)" fill="#242222" fill-rule="evenodd"/>
    </g>
  </g>
</svg>
