<svg xmlns="http://www.w3.org/2000/svg" xmlns:xlink="http://www.w3.org/1999/xlink" width="110" height="110" viewBox="0 0 110 110">
  <defs>
    <filter id="Trazado_982547" x="0" y="0" width="110" height="110" filterUnits="userSpaceOnUse">
      <feOffset dy="3" input="SourceAlpha"/>
      <feGaussianBlur stdDeviation="3" result="blur"/>
      <feFlood flood-opacity="0.161"/>
      <feComposite operator="in" in2="blur"/>
      <feComposite in="SourceGraphic"/>
    </filter>
  </defs>
  <g id="Grupo_1200709" data-name="Grupo 1200709" transform="translate(-2026.301 -4731.847)">
    <g id="Grupo_1199859" data-name="Grupo 1199859" transform="translate(1663 -3018.153)">
      <g id="Grupo_1173080" data-name="Grupo 1173080" transform="translate(372.301 7756)">
        <g id="Grupo_1172181" data-name="Grupo 1172181" transform="translate(0)">
          <g id="Grupo_1171414" data-name="Grupo 1171414">
            <g id="Grupo_1163801" data-name="Grupo 1163801">
              <g id="Grupo_1163014" data-name="Grupo 1163014">
                <g id="Grupo_1157015" data-name="Grupo 1157015" transform="translate(0 0)">
                  <g id="Grupo_1155792" data-name="Grupo 1155792">
                    <g id="Grupo_1154703" data-name="Grupo 1154703">
                      <g id="Grupo_1150789" data-name="Grupo 1150789">
                        <g id="Grupo_1154212" data-name="Grupo 1154212">
                          <g id="Grupo_1152583" data-name="Grupo 1152583">
                            <g id="Grupo_1146973" data-name="Grupo 1146973" transform="translate(0 0)">
                              <g id="Grupo_1146954" data-name="Grupo 1146954">
                                <g transform="matrix(1, 0, 0, 1, -9, -6)" filter="url(#Trazado_982547)">
                                  <g id="Trazado_982547-2" data-name="Trazado 982547" transform="translate(9 6)" fill="#f2f7f5">
                                    <path d="M 46 90.49987030029297 C 39.99187850952148 90.49987030029297 34.16426849365234 89.32350921630859 28.67905426025391 87.00345611572266 C 23.38019943237305 84.76224517822266 18.62104034423828 81.55341339111328 14.53374671936035 77.46613311767578 C 10.44646644592285 73.37885284423828 7.237639904022217 68.61969757080078 4.996413230895996 63.32085418701172 C 2.676359891891479 57.83565521240234 1.5 52.008056640625 1.5 45.99993515014648 C 1.5 39.99181365966797 2.676359891891479 34.16421508789062 4.996413230895996 28.67901420593262 C 7.237639904022217 23.38017463684082 10.44646644592285 18.62101554870605 14.53374671936035 14.53373527526855 C 18.62104034423828 10.44645500183105 23.38019943237305 7.23762845993042 28.67905426025391 4.996415138244629 C 34.16426849365234 2.676361799240112 39.99187850952148 1.500001788139343 46 1.500001788139343 C 52.00812149047852 1.500001788139343 57.83573150634766 2.676361799240112 63.32094573974609 4.996415138244629 C 68.61979675292969 7.23762845993042 73.37895965576172 10.44645500183105 77.46625518798828 14.53373527526855 C 81.55353546142578 18.62101554870605 84.76235961914062 23.38017463684082 87.00358581542969 28.67901420593262 C 89.32363891601562 34.16421508789062 90.5 39.99181365966797 90.5 45.99993515014648 C 90.5 52.008056640625 89.32363891601562 57.83565521240234 87.00358581542969 63.32085418701172 C 84.76235961914062 68.61969757080078 81.55353546142578 73.37885284423828 77.46625518798828 77.46613311767578 C 73.37895965576172 81.55341339111328 68.61979675292969 84.76224517822266 63.32094573974609 87.00345611572266 C 57.83573150634766 89.32350921630859 52.00812149047852 90.49987030029297 46 90.49987030029297 Z" stroke="none"/>
                                    <path d="M 46 2.999992370605469 C 40.1937141418457 2.999992370605469 34.56269836425781 4.136489868164062 29.26337051391602 6.377906799316406 C 24.14332580566406 8.543502807617188 19.54441070556641 11.64437866210938 15.59439849853516 15.59437561035156 C 11.64440155029297 19.54439544677734 8.54351806640625 24.14329528808594 6.377914428710938 29.26333618164062 C 4.136497497558594 34.56264877319336 3 40.19366455078125 3 45.99993515014648 C 3 51.80620574951172 4.136497497558594 57.43720626831055 6.377914428710938 62.73651885986328 C 8.54351806640625 67.8565673828125 11.64440155029297 72.45545959472656 15.59439849853516 76.40547943115234 C 19.54441070556641 80.35547637939453 24.14332580566406 83.45635223388672 29.26337051391602 85.6219482421875 C 34.56269836425781 87.86336517333984 40.1937141418457 88.99986267089844 46 88.99986267089844 C 51.8062858581543 88.99986267089844 57.43730163574219 87.86336517333984 62.73661422729492 85.6219482421875 C 67.85667419433594 83.45635223388672 72.45557403564453 80.35547637939453 76.40558624267578 76.40547943115234 C 80.35559844970703 72.45545959472656 83.45647430419922 67.8565673828125 85.6220703125 62.73651885986328 C 87.86350250244141 57.43720626831055 89 51.80620574951172 89 45.99993515014648 C 89 40.19366455078125 87.86350250244141 34.56264877319336 85.6220703125 29.26333618164062 C 83.45647430419922 24.14329528808594 80.35559844970703 19.54439544677734 76.40558624267578 15.59437561035156 C 72.45557403564453 11.64437866210938 67.85667419433594 8.543502807617188 62.73661422729492 6.377906799316406 C 57.43730163574219 4.136489868164062 51.8062858581543 2.999992370605469 46 2.999992370605469 M 46 -7.62939453125e-06 C 71.40509033203125 -7.62939453125e-06 92 20.59486389160156 92 45.99993515014648 C 92 71.40499114990234 71.40509033203125 91.99986267089844 46 91.99986267089844 C 20.59490203857422 91.99986267089844 0 71.40499114990234 0 45.99993515014648 C 0 20.59486389160156 20.59490203857422 -7.62939453125e-06 46 -7.62939453125e-06 Z" stroke="none" fill="#88bba9"/>
                                  </g>
                                </g>
                              </g>
                            </g>
                          </g>
                        </g>
                      </g>
                    </g>
                  </g>
                </g>
              </g>
            </g>
          </g>
        </g>
      </g>
    </g>
    <g id="gestion-del-tiempo" transform="translate(2042.313 4744.859)">
      <g id="Grupo_1200708" data-name="Grupo 1200708" transform="translate(9.85 9.85)">
        <g id="Grupo_1200704" data-name="Grupo 1200704" transform="translate(13.834 0)">
          <g id="Grupo_1200703" data-name="Grupo 1200703">
            <path id="Trazado_1044737" data-name="Trazado 1044737" d="M152.171,16a22.22,22.22,0,1,1-22.22,22.22h0A22.221,22.221,0,0,1,152.171,16Z" transform="translate(-129.95 -16)" fill="#fdcd56" fill-rule="evenodd"/>
            <path id="Trazado_1044738" data-name="Trazado 1044738" d="M187.685,56.421a17.313,17.313,0,1,1-17.313,17.313,17.313,17.313,0,0,1,17.313-17.313Z" transform="translate(-165.464 -51.514)" fill="#f4f6f8" fill-rule="evenodd"/>
          </g>
        </g>
        <g id="Grupo_1200707" data-name="Grupo 1200707" transform="translate(0 14.419)">
          <g id="Grupo_1200705" data-name="Grupo 1200705" transform="translate(5.679)">
            <path id="Trazado_1044739" data-name="Trazado 1044739" d="M121.953,139.872a5.109,5.109,0,1,1-5.109-5.108A5.109,5.109,0,0,1,121.953,139.872Z" transform="translate(-105.792 -134.764)" fill="#efc7a4" fill-rule="evenodd"/>
            <path id="Trazado_1044740" data-name="Trazado 1044740" d="M62.773,254.217c0,6.1,22.107,6.1,22.107,0a11.053,11.053,0,0,0-22.107,0Z" transform="translate(-62.773 -230.003)" fill="#66d4f1" fill-rule="evenodd"/>
          </g>
          <g id="Grupo_1200706" data-name="Grupo 1200706" transform="translate(0 24.642)">
            <path id="Trazado_1044741" data-name="Trazado 1044741" d="M34.582,348.935a2.127,2.127,0,0,0-1.5,3.63.631.631,0,0,1,0,.892l-1.359,1.359a.631.631,0,0,1-.892,0,2.127,2.127,0,0,0-3.63,1.5.631.631,0,0,1-.631.631H24.646a.631.631,0,0,1-.631-.631,2.126,2.126,0,0,0-3.63-1.5.631.631,0,0,1-.892,0l-1.359-1.359a.631.631,0,0,1,0-.892,2.127,2.127,0,0,0-1.5-3.63A.631.631,0,0,1,16,348.3v-1.921a.631.631,0,0,1,.631-.631,2.127,2.127,0,0,0,1.5-3.63.631.631,0,0,1,0-.892l1.359-1.359a.631.631,0,0,1,.892,0,2.127,2.127,0,0,0,3.63-1.5.631.631,0,0,1,.631-.631h1.921a.631.631,0,0,1,.631.631,2.127,2.127,0,0,0,3.63,1.5.631.631,0,0,1,.892,0l1.359,1.359a.631.631,0,0,1,0,.892,2.127,2.127,0,0,0,1.5,3.63.631.631,0,0,1,.631.631V348.3A.631.631,0,0,1,34.582,348.935Z" transform="translate(-15.999 -337.736)" fill="#636c77" fill-rule="evenodd"/>
            <circle id="Elipse_12159" data-name="Elipse 12159" cx="4.695" cy="4.695" r="4.695" transform="translate(2.962 9.603) rotate(-45)" fill="#f4f6f8"/>
          </g>
        </g>
      </g>
      <path id="Trazado_1044742" data-name="Trazado 1044742" d="M23.3,58.518a3.845,3.845,0,1,0-3.845,3.845A3.85,3.85,0,0,0,23.3,58.518Zm1.7,0a5.545,5.545,0,1,1-5.545-5.545A5.551,5.551,0,0,1,25,58.518Zm.683-2.58a2.924,2.924,0,0,0,2.529,1.83v1.5a2.978,2.978,0,0,0-2.035,4.912l-1.06,1.06a2.979,2.979,0,0,0-4.913,2.035h-1.5a2.977,2.977,0,0,0-4.913-2.035l-1.06-1.06A2.978,2.978,0,0,0,10.7,59.269v-1.5a2.979,2.979,0,0,0,2.035-4.913l1.06-1.06a2.979,2.979,0,0,0,4.913-2.035h1.5A2.979,2.979,0,0,0,25.119,51.8l1.06,1.06a2.924,2.924,0,0,0-.494,3.083Zm-9.307-7.456a1.86,1.86,0,0,0,.613,1.315,1.393,1.393,0,0,0,.024-.255A1.482,1.482,0,0,1,18.5,48.062h1.922A1.482,1.482,0,0,1,21.9,49.542a1.277,1.277,0,0,0,2.179.9,1.484,1.484,0,0,1,2.094,0L27.53,51.8a1.469,1.469,0,0,1,.275.38c5.168-.217,8.98-1.763,8.98-3.7a10.2,10.2,0,0,0-20.407,0ZM27.53,53.9a1.277,1.277,0,0,0,.9,2.178,1.482,1.482,0,0,1,1.481,1.481V59.48a1.482,1.482,0,0,1-1.481,1.48,1.278,1.278,0,0,0-.9,2.18,1.481,1.481,0,0,1,0,2.094l-1.359,1.359a1.481,1.481,0,0,1-2.094,0,1.278,1.278,0,0,0-2.179.9,1.482,1.482,0,0,1-1.481,1.48H18.5a1.483,1.483,0,0,1-1.481-1.48,1.276,1.276,0,0,0-2.179-.9,1.481,1.481,0,0,1-2.094,0l-1.359-1.359a1.481,1.481,0,0,1,0-2.094,1.278,1.278,0,0,0-.9-2.18A1.482,1.482,0,0,1,9,59.48V57.558a1.482,1.482,0,0,1,1.481-1.481,1.278,1.278,0,0,0,.9-2.18,1.481,1.481,0,0,1,0-2.094l1.359-1.359a1.484,1.484,0,0,1,2.094,0,1.255,1.255,0,0,0,.783.374,3.454,3.454,0,0,1-.94-2.336,11.9,11.9,0,0,1,23.806,0c0,1.223-.662,2.937-3.812,4.156A22.35,22.35,0,0,1,27.533,53.9l0,0ZM22.322,29.377a4.259,4.259,0,1,0,4.259-4.258,4.264,4.264,0,0,0-4.259,4.258Zm-1.7,0a5.959,5.959,0,1,1,5.959,5.959A5.965,5.965,0,0,1,20.623,29.377Zm19.714,8.261a.849.849,0,0,0,1.2,0l4.13-4.13a1.454,1.454,0,0,0,1.084-2.617V23.176a.85.85,0,1,0-1.7,0V30.89a1.45,1.45,0,0,0-.606,1.181,1.5,1.5,0,0,0,.019.234l-4.13,4.13A.851.851,0,0,0,40.337,37.637Zm17.9-4.716h1.805a.85.85,0,1,0,0-1.7H58.24a.85.85,0,1,0,0,1.7ZM54.627,24.2a.844.844,0,0,0,.6-.249L56.5,22.673a.85.85,0,1,0-1.2-1.2l-1.276,1.276a.85.85,0,0,0,.6,1.451ZM35.3,21.471a.851.851,0,0,0,0,1.2l1.276,1.276a.85.85,0,1,0,1.2-1.2l-1.276-1.276A.851.851,0,0,0,35.3,21.471ZM54.026,41.4,55.3,42.67a.85.85,0,0,0,1.2-1.2l-1.276-1.276a.85.85,0,1,0-1.2,1.2ZM45.906,20.585a.85.85,0,0,0,.849-.85v-1.8a.85.85,0,1,0-1.7,0v1.8a.849.849,0,0,0,.85.85Zm-.85,23.823v1.8a.85.85,0,1,0,1.7,0v-1.8a.85.85,0,1,0-1.7,0ZM39.542,48.2a.85.85,0,0,1,1.077-.532A16.465,16.465,0,1,0,31.846,23.5a.85.85,0,1,1-1.45-.886,18.155,18.155,0,1,1,9.678,26.666A.85.85,0,0,1,39.542,48.2ZM68.975,32.071A23.074,23.074,0,0,0,25.436,21.416a.85.85,0,1,0,1.507.787,21.361,21.361,0,1,1,11.3,29.826.85.85,0,0,0-.61,1.586A23.077,23.077,0,0,0,68.975,32.071Z" fill-rule="evenodd"/>
    </g>
  </g>
</svg>
