<svg xmlns="http://www.w3.org/2000/svg" xmlns:xlink="http://www.w3.org/1999/xlink" width="113" height="113" viewBox="0 0 113 113">
  <defs>
    <filter id="Trazado_982547" x="0" y="0" width="113" height="113" filterUnits="userSpaceOnUse">
      <feOffset dy="3" input="SourceAlpha"/>
      <feGaussianBlur stdDeviation="3" result="blur"/>
      <feFlood flood-opacity="0.161"/>
      <feComposite operator="in" in2="blur"/>
      <feComposite in="SourceGraphic"/>
    </filter>
  </defs>
  <g id="Grupo_1200252" data-name="Grupo 1200252" transform="translate(-192 -2177)">
    <g id="Grupo_1199836" data-name="Grupo 1199836" transform="translate(0 -1044)">
      <g id="Grupo_1172111" data-name="Grupo 1172111" transform="translate(21 -644)">
        <g id="Grupo_1171485" data-name="Grupo 1171485" transform="translate(0 584)">
          <g id="Grupo_1167519" data-name="Grupo 1167519" transform="translate(180 3287)">
            <g id="Grupo_1166845" data-name="Grupo 1166845" transform="translate(0)">
              <g id="Grupo_1166720" data-name="Grupo 1166720">
                <g id="Grupo_1164305" data-name="Grupo 1164305">
                  <g id="Grupo_1163948" data-name="Grupo 1163948">
                    <g id="Grupo_1158168" data-name="Grupo 1158168">
                      <g id="Grupo_1152576" data-name="Grupo 1152576">
                        <g id="Grupo_1148633" data-name="Grupo 1148633">
                          <g id="Grupo_1148525" data-name="Grupo 1148525">
                            <g transform="matrix(1, 0, 0, 1, -9, -6)" filter="url(#Trazado_982547)">
                              <g id="Trazado_982547-2" data-name="Trazado 982547" transform="translate(9 6)" fill="#f1f0f2">
                                <path d="M 47.5 93.5 C 41.28937149047852 93.5 35.26533508300781 92.28397369384766 29.59518623352051 89.88570404052734 C 24.11771965026855 87.56893157958984 19.19813346862793 84.25196075439453 14.97309303283691 80.02691650390625 C 10.74804019927979 75.80186462402344 7.431066513061523 70.88229370117188 5.114293098449707 65.40481567382812 C 2.716026782989502 59.73468017578125 1.5 53.71062850952148 1.5 47.5 C 1.5 41.28937149047852 2.716026782989502 35.26533508300781 5.114293098449707 29.59518623352051 C 7.431066513061523 24.11771965026855 10.74804019927979 19.19813346862793 14.97309303283691 14.97309303283691 C 19.19813346862793 10.74804019927979 24.11771965026855 7.431066513061523 29.59518623352051 5.114293098449707 C 35.26533508300781 2.716026782989502 41.28937149047852 1.5 47.5 1.5 C 53.71062850952148 1.5 59.73468017578125 2.716026782989502 65.40481567382812 5.114293098449707 C 70.88229370117188 7.431066513061523 75.80186462402344 10.74804019927979 80.02691650390625 14.97309303283691 C 84.25196075439453 19.19813346862793 87.56893157958984 24.11771965026855 89.88570404052734 29.59518623352051 C 92.28397369384766 35.26533508300781 93.5 41.28937149047852 93.5 47.5 C 93.5 53.71062850952148 92.28397369384766 59.73468017578125 89.88570404052734 65.40481567382812 C 87.56893157958984 70.88229370117188 84.25196075439453 75.80186462402344 80.02691650390625 80.02691650390625 C 75.80186462402344 84.25196075439453 70.88229370117188 87.56893157958984 65.40481567382812 89.88570404052734 C 59.73468017578125 92.28397369384766 53.71062850952148 93.5 47.5 93.5 Z" stroke="none"/>
                                <path d="M 47.5 3 C 41.49121475219727 3 35.66376876831055 4.176155090332031 30.17950439453125 6.495796203613281 C 24.88084411621094 8.736953735351562 20.12152099609375 11.94598388671875 16.03375244140625 16.03375244140625 C 11.94598388671875 20.12152099609375 8.736953735351562 24.88084411621094 6.495796203613281 30.17950439453125 C 4.176155090332031 35.66376876831055 3 41.49121475219727 3 47.5 C 3 53.50878524780273 4.176155090332031 59.33623123168945 6.495796203613281 64.82049560546875 C 8.736953735351562 70.11915588378906 11.94598388671875 74.87847900390625 16.03375244140625 78.96624755859375 C 20.12152099609375 83.05401611328125 24.88084411621094 86.26304626464844 30.17950439453125 88.50419616699219 C 35.66376876831055 90.82384490966797 41.49121475219727 92 47.5 92 C 53.50878524780273 92 59.33623123168945 90.82384490966797 64.82049560546875 88.50419616699219 C 70.11915588378906 86.26304626464844 74.87847900390625 83.05401611328125 78.96624755859375 78.96624755859375 C 83.05401611328125 74.87847900390625 86.26304626464844 70.11915588378906 88.50419616699219 64.82049560546875 C 90.82384490966797 59.33623123168945 92 53.50878524780273 92 47.5 C 92 41.49121475219727 90.82384490966797 35.66376876831055 88.50419616699219 30.17950439453125 C 86.26304626464844 24.88084411621094 83.05401611328125 20.12152099609375 78.96624755859375 16.03375244140625 C 74.87847900390625 11.94598388671875 70.11915588378906 8.736953735351562 64.82049560546875 6.495796203613281 C 59.33623123168945 4.176155090332031 53.50878524780273 3 47.5 3 M 47.5 0 C 73.7335205078125 0 95 21.2664794921875 95 47.5 C 95 73.7335205078125 73.7335205078125 95 47.5 95 C 21.2664794921875 95 0 73.7335205078125 0 47.5 C 0 21.2664794921875 21.2664794921875 0 47.5 0 Z" stroke="none" fill="#817489"/>
                              </g>
                            </g>
                          </g>
                        </g>
                      </g>
                    </g>
                  </g>
                </g>
              </g>
            </g>
          </g>
        </g>
      </g>
    </g>
    <g id="la-mejora-de-procesos_1_" data-name="la-mejora-de-procesos (1)" transform="translate(209.014 2190.996)">
      <path id="Trazado_1044022" data-name="Trazado 1044022" d="M20.179,11.766a.842.842,0,1,1-.967-1.378A35.52,35.52,0,0,1,67.165,61.84l1.762-.727a.843.843,0,0,1,.643,1.558l-5.134,2.122a.847.847,0,0,1-1.187-1.027l1.43-5.374a.844.844,0,1,1,1.634.427l-.551,2.07A33.836,33.836,0,0,0,20.179,11.766Zm-5.574,8.666A.843.843,0,1,1,12.976,20l.571-2.142A33.833,33.833,0,0,0,59.394,66.914a.844.844,0,1,1,.991,1.366A35.523,35.523,0,0,1,12.057,17.008l-1.7.7a.842.842,0,0,1-.639-1.558l5.162-2.134A.845.845,0,0,1,16.056,15l-1.45,5.434Z" transform="translate(-0.024 0)" fill="#777878"/>
      <g id="Grupo_1200251" data-name="Grupo 1200251" transform="translate(13.02 13.036)">
        <path id="Trazado_1044023" data-name="Trazado 1044023" d="M121.053,94.572V98.06a1.879,1.879,0,0,1-1.874,1.874h-2.625a22.342,22.342,0,0,1-2.653,6.393l1.858,1.858a1.878,1.878,0,0,1,0,2.653l-4.926,4.93a1.883,1.883,0,0,1-2.657,0l-1.854-1.858a22.532,22.532,0,0,1-5.577,2.437v-.855H88.386v.851a22.493,22.493,0,0,1-5.573-2.433l-1.858,1.858a1.878,1.878,0,0,1-2.653,0l-4.93-4.93a1.878,1.878,0,0,1,0-2.653l1.858-1.858a22.454,22.454,0,0,1-2.653-6.393H69.956a1.88,1.88,0,0,1-1.878-1.874V91.088a1.881,1.881,0,0,1,1.878-1.878h2.621a22.548,22.548,0,0,1,2.653-6.393l-1.858-1.854a1.883,1.883,0,0,1,0-2.657l4.93-4.926a1.878,1.878,0,0,1,2.653,0l1.858,1.858a22.337,22.337,0,0,1,6.393-2.653V69.961a1.879,1.879,0,0,1,1.874-1.874h6.972a1.88,1.88,0,0,1,1.878,1.874v2.625a22.537,22.537,0,0,1,6.393,2.649l1.854-1.854a1.883,1.883,0,0,1,2.657,0l4.926,4.926a1.883,1.883,0,0,1,0,2.657L113.9,82.818a22.433,22.433,0,0,1,2.653,6.393h2.625a1.88,1.88,0,0,1,1.874,1.878v3.484Z" transform="translate(-68.078 -68.087)" fill="#4ebdaa" fill-rule="evenodd"/>
        <path id="Trazado_1044024" data-name="Trazado 1044024" d="M88.386,116.343a22.493,22.493,0,0,1-5.574-2.433l-1.858,1.858a1.878,1.878,0,0,1-2.653,0l-4.93-4.93a1.878,1.878,0,0,1,0-2.653l1.858-1.858a22.454,22.454,0,0,1-2.653-6.393H69.956a1.88,1.88,0,0,1-1.878-1.874V91.088a1.881,1.881,0,0,1,1.878-1.878h2.621a22.548,22.548,0,0,1,2.653-6.393l-1.858-1.854a1.883,1.883,0,0,1,0-2.657l4.93-4.926a1.878,1.878,0,0,1,2.653,0l1.858,1.858a22.337,22.337,0,0,1,6.393-2.653V69.961a1.879,1.879,0,0,1,1.874-1.874h6.972a1.88,1.88,0,0,1,1.878,1.874v2.625a21.989,21.989,0,0,0-6.868,42.906H88.386v.851Z" transform="translate(-68.078 -68.087)" fill="#30b29c" fill-rule="evenodd"/>
        <path id="Trazado_1044025" data-name="Trazado 1044025" d="M179.034,193.322c1.111-2.821,2.625-4.942,4.571-8.027a13.794,13.794,0,1,0-23.353,0c1.946,3.084,3.464,5.206,4.575,8.027Z" transform="translate(-145.441 -150.612)" fill="#ffe100" fill-rule="evenodd"/>
        <path id="Trazado_1044026" data-name="Trazado 1044026" d="M200.657,194c1.111-2.821,2.625-4.942,4.571-8.027a13.8,13.8,0,0,0-9.9-21.032,13.8,13.8,0,0,0-9.9,21.032c1.946,3.084,3.464,5.206,4.575,8.027Z" transform="translate(-167.064 -151.294)" fill="#ffe100" fill-rule="evenodd"/>
        <path id="Trazado_1044027" data-name="Trazado 1044027" d="M228.626,413.4h-8.978a.743.743,0,0,1-.739-.739v-4.271h10.456v4.271a.74.74,0,0,1-.739.739Z" transform="translate(-197.65 -360.421)" fill="#5b5f5e" fill-rule="evenodd"/>
        <path id="Trazado_1044028" data-name="Trazado 1044028" d="M250.249,413.4h-5.43a.74.74,0,0,1-.739-.739v-4.271h6.908v4.271A.74.74,0,0,1,250.249,413.4Z" transform="translate(-219.273 -360.421)" fill="#6a6e6d" fill-rule="evenodd"/>
        <path id="Trazado_1044029" data-name="Trazado 1044029" d="M218.883,377.467H206.549a.936.936,0,0,1-.935-.935V371.11h14.208v5.422A.94.94,0,0,1,218.883,377.467Z" transform="translate(-186.229 -328.4)" fill="#6a6e6d" fill-rule="evenodd"/>
        <path id="Trazado_1044030" data-name="Trazado 1044030" d="M240.507,377.467h-8.786a.936.936,0,0,1-.935-.935V371.11h10.66v5.422A.94.94,0,0,1,240.507,377.467Z" transform="translate(-207.853 -328.4)" fill="#777878" fill-rule="evenodd"/>
      </g>
      <path id="Trazado_1044031" data-name="Trazado 1044031" d="M203.943,241.913h-2.11v11.679h-1.694V241.913h-3.728v11.679h-1.69V241.913h-2.114a3.8,3.8,0,1,1,3.8-3.8v2.11h3.728v-2.11a3.806,3.806,0,1,1,3.8,3.8Zm-2.11-3.8v2.11h2.11a2.113,2.113,0,1,0-2.11-2.11Zm-9.225,2.11h2.113v-2.11a2.113,2.113,0,1,0-2.114,2.11Z" transform="translate(-158.768 -197.845)" fill="#ffab5c"/>
      <path id="Trazado_1044032" data-name="Trazado 1044032" d="M61.491,44.04H64.12a1.032,1.032,0,0,0,1.031-1.035V36.038a1.031,1.031,0,0,0-1.031-1.031H61.491a.849.849,0,0,1-.819-.647,21.7,21.7,0,0,0-2.549-6.153.846.846,0,0,1,.124-1.035L60.1,25.314a1.011,1.011,0,0,0,.3-.731,1,1,0,0,0-.3-.727l-4.93-4.93a1.018,1.018,0,0,0-1.45,0l-1.858,1.858a.847.847,0,0,1-1.039.124,21.624,21.624,0,0,0-6.153-2.549.843.843,0,0,1-.643-.823V14.91a1.038,1.038,0,0,0-1.039-1.031H36.021A1.031,1.031,0,0,0,34.99,14.91v2.625a.847.847,0,0,1-.643.823,21.609,21.609,0,0,0-6.157,2.549.846.846,0,0,1-1.035-.124L25.3,18.926a1.03,1.03,0,0,0-1.458,0l-4.93,4.93a1.024,1.024,0,0,0-.3.727,1.04,1.04,0,0,0,.3.731l1.862,1.858a.852.852,0,0,1,.124,1.035,21.707,21.707,0,0,0-2.553,6.153.845.845,0,0,1-.819.647H14.9a1.031,1.031,0,0,0-1.031,1.031v6.968A1.032,1.032,0,0,0,14.9,44.04h2.625a.842.842,0,0,1,.819.643,21.522,21.522,0,0,0,2.553,6.153.858.858,0,0,1-.124,1.039l-1.862,1.858a1.03,1.03,0,0,0,0,1.458l4.93,4.93a1.037,1.037,0,0,0,1.458,0l1.858-1.858a.847.847,0,0,1,1.035-.128,21.651,21.651,0,0,0,3.368,1.67v-3.9a36.124,36.124,0,0,0-3.428-6.149c-.324-.5-.667-1.031-1.015-1.59a14.641,14.641,0,1,1,24.783,0c-.352.559-.687,1.087-1.011,1.594a35.669,35.669,0,0,0-3.428,6.145v3.9a22.12,22.12,0,0,0,3.364-1.666.847.847,0,0,1,1.039.124l1.858,1.858a1.027,1.027,0,0,0,1.45,0l4.93-4.93a1.03,1.03,0,0,0,0-1.458l-1.854-1.858a.851.851,0,0,1-.124-1.039,21.606,21.606,0,0,0,2.549-6.153.845.845,0,0,1,.819-.643Zm13.536-4.223v-.551A35.527,35.527,0,0,0,19.188,10.383a.844.844,0,1,0,.967,1.382A33.836,33.836,0,0,1,65.743,60.885l.543-2.062a.837.837,0,0,0-.6-1.035.847.847,0,0,0-1.035.6l-1.45,5.438a.079.079,0,0,1,0,.032c0,.016-.008.032-.008.048a1.044,1.044,0,0,0-.012.116v.028c0,.048.008.1.012.144a.124.124,0,0,1,.012.036,1.115,1.115,0,0,0,.032.108.129.129,0,0,0,.012.036,1.3,1.3,0,0,0,.068.128c.008.008.008.012.016.02a1.072,1.072,0,0,0,.084.1c.008,0,.008.008.012.016s.008.008.012.012a.086.086,0,0,1,.028.024.277.277,0,0,0,.056.04.28.28,0,0,0,.056.04.777.777,0,0,0,.08.044c.02.008.036.02.06.028a.718.718,0,0,0,.1.028.442.442,0,0,0,.052.016.975.975,0,0,0,.156.016,1.1,1.1,0,0,0,.16-.016,1.036,1.036,0,0,0,.148-.044l.012,0,5.2-2.149a.845.845,0,1,0-.643-1.562l-1.758.727a35.272,35.272,0,0,0,7.883-22.023ZM45.766,61.165V56.59H33.244v4.575a.107.107,0,0,0,.1.1H45.67A.1.1,0,0,0,45.766,61.165ZM43.888,62.95H35.126v2.217h8.762ZM35.953,40.265a2.114,2.114,0,1,0-2.11,2.114h2.11Zm9.221,2.114a2.112,2.112,0,1,0-2.11-2.114v2.114ZM41.375,54.9V44.068H37.643V54.9Zm8.083-6.053c.324-.5.659-1.027,1.015-1.582a12.948,12.948,0,1,0-21.927,0c.348.551.683,1.075,1.007,1.578a39.621,39.621,0,0,1,3.42,6.053h2.98V44.068h-2.11a3.8,3.8,0,1,1,3.8-3.8v2.114h3.732V40.265a3.8,3.8,0,1,1,3.8,3.8h-2.11V54.9h2.98a39.563,39.563,0,0,1,3.412-6.053ZM62.151,45.73a23.445,23.445,0,0,1-2.245,5.41l1.394,1.4a2.72,2.72,0,0,1,0,3.848l-4.93,4.93a2.725,2.725,0,0,1-3.848,0l-1.39-1.4a22.878,22.878,0,0,1-3.74,1.718A1.786,1.786,0,0,1,45.67,62.95h-.092v2.321A1.584,1.584,0,0,1,44,66.858H35.022a1.584,1.584,0,0,1-1.582-1.586V62.95h-.1a1.78,1.78,0,0,1-1.714-1.314,23.576,23.576,0,0,1-3.74-1.718l-1.39,1.4a2.73,2.73,0,0,1-3.852,0l-4.93-4.93a2.727,2.727,0,0,1,0-3.848l1.394-1.4a23.586,23.586,0,0,1-2.245-5.41H14.9a2.728,2.728,0,0,1-2.725-2.725V36.038A2.725,2.725,0,0,1,14.9,33.317h1.966A23.318,23.318,0,0,1,19.113,27.9l-1.4-1.394a2.725,2.725,0,0,1,0-3.848l4.93-4.93a2.725,2.725,0,0,1,3.852,0l1.39,1.394A23.547,23.547,0,0,1,33.3,16.88V14.91a2.721,2.721,0,0,1,2.721-2.721h6.968a2.725,2.725,0,0,1,2.725,2.721v1.97a23.432,23.432,0,0,1,5.418,2.245l1.39-1.394a2.715,2.715,0,0,1,3.848,0l4.93,4.93a2.725,2.725,0,0,1,0,3.848L59.905,27.9a23.475,23.475,0,0,1,2.245,5.414h1.97a2.721,2.721,0,0,1,2.721,2.721v6.968a2.725,2.725,0,0,1-2.721,2.725h-1.97ZM60.549,67.1a.846.846,0,0,1-.184,1.179A35.519,35.519,0,0,1,39.5,75.04c-.879,0-1.754-.032-2.633-.1A35.518,35.518,0,0,1,12.029,17.016l-1.69.7a.845.845,0,0,1-.647-1.562L14.889,14,14.91,14l.036-.012a1.045,1.045,0,0,1,.108-.028c.012,0,.028,0,.044-.008a.549.549,0,0,1,.14-.008h.008a.828.828,0,0,1,.136.016l.044.012c.032.008.068.02.1.032a.169.169,0,0,1,.04.016c.044.02.08.044.124.068a.072.072,0,0,0,.032.024.609.609,0,0,0,.048.04.364.364,0,0,1,.036.04.071.071,0,0,1,.02.016s0,.008.012.012a1.316,1.316,0,0,1,.092.116.084.084,0,0,0,.012.028.45.45,0,0,1,.052.108.182.182,0,0,0,.02.04.685.685,0,0,1,.028.124c0,.008.008.012.008.016,0,.048,0,.1,0,.144v.04a.54.54,0,0,1-.012.112.124.124,0,0,0,0,.04c-.008,0-.008.012-.008.02l-1.446,5.434a.844.844,0,0,1-.815.627,1.038,1.038,0,0,1-.22-.028.852.852,0,0,1-.6-1.035l.567-2.134A33.833,33.833,0,0,0,59.37,66.914a.842.842,0,0,1,1.179.188Z" transform="translate(0)" fill="#070202"/>
    </g>
  </g>
</svg>
