<svg xmlns="http://www.w3.org/2000/svg" xmlns:xlink="http://www.w3.org/1999/xlink" width="113" height="113" viewBox="0 0 113 113">
  <defs>
    <filter id="Trazado_982547" x="0" y="0" width="113" height="113" filterUnits="userSpaceOnUse">
      <feOffset dy="3" input="SourceAlpha"/>
      <feGaussianBlur stdDeviation="3" result="blur"/>
      <feFlood flood-opacity="0.161"/>
      <feComposite operator="in" in2="blur"/>
      <feComposite in="SourceGraphic"/>
    </filter>
  </defs>
  <g id="Grupo_1200248" data-name="Grupo 1200248" transform="translate(-192 -1520)">
    <g id="Grupo_1199822" data-name="Grupo 1199822" transform="translate(201 1526)">
      <g id="Grupo_1172111" data-name="Grupo 1172111">
        <g id="Grupo_1171485" data-name="Grupo 1171485">
          <g id="Grupo_1167519" data-name="Grupo 1167519">
            <g id="Grupo_1166845" data-name="Grupo 1166845">
              <g id="Grupo_1166720" data-name="Grupo 1166720">
                <g id="Grupo_1164305" data-name="Grupo 1164305">
                  <g id="Grupo_1163948" data-name="Grupo 1163948">
                    <g id="Grupo_1158168" data-name="Grupo 1158168">
                      <g id="Grupo_1152576" data-name="Grupo 1152576">
                        <g id="Grupo_1148633" data-name="Grupo 1148633">
                          <g id="Grupo_1148525" data-name="Grupo 1148525">
                            <g transform="matrix(1, 0, 0, 1, -9, -6)" filter="url(#Trazado_982547)">
                              <g id="Trazado_982547-2" data-name="Trazado 982547" transform="translate(9 6)" fill="#fcf3f0">
                                <path d="M 47.5000114440918 93.5 C 41.28938293457031 93.5 35.26534652709961 92.28396606445312 29.5951976776123 89.88570404052734 C 24.11773109436035 87.56893157958984 19.19814491271973 84.251953125 14.97310447692871 80.02690124511719 C 10.74805164337158 75.80186462402344 7.43107795715332 70.88227844238281 5.114304542541504 65.40480804443359 C 2.716038227081299 59.73466110229492 1.500011444091797 53.71062469482422 1.500011444091797 47.49999618530273 C 1.500011444091797 41.28936767578125 2.716038227081299 35.26533126831055 5.114304542541504 29.59518241882324 C 7.43107795715332 24.11771583557129 10.74805164337158 19.19812965393066 14.97310447692871 14.97308921813965 C 19.19814491271973 10.74803638458252 24.11773109436035 7.431062698364258 29.5951976776123 5.114289283752441 C 35.26534652709961 2.716022968292236 41.28938293457031 1.499996185302734 47.5000114440918 1.499996185302734 C 53.71063995361328 1.499996185302734 59.73467636108398 2.716022968292236 65.40482330322266 5.114289283752441 C 70.88229370117188 7.431062698364258 75.8018798828125 10.74803638458252 80.02691650390625 14.97308921813965 C 84.25196838378906 19.19812965393066 87.56894683837891 24.11771583557129 89.88571929931641 29.59518241882324 C 92.28398132324219 35.26533126831055 93.50001525878906 41.28936767578125 93.50001525878906 47.49999618530273 C 93.50001525878906 53.71062469482422 92.28398132324219 59.73466110229492 89.88571929931641 65.40480804443359 C 87.56894683837891 70.88227844238281 84.25196838378906 75.80186462402344 80.02691650390625 80.02690124511719 C 75.8018798828125 84.251953125 70.88229370117188 87.56893157958984 65.40482330322266 89.88570404052734 C 59.73467636108398 92.28396606445312 53.71063995361328 93.5 47.5000114440918 93.5 Z" stroke="none"/>
                                <path d="M 47.5000114440918 2.999992370605469 C 41.49122619628906 2.999992370605469 35.66378021240234 4.1761474609375 30.17951965332031 6.495796203613281 C 24.880859375 8.736953735351562 20.12153625488281 11.94598388671875 16.03376770019531 16.03375244140625 C 11.94599914550781 20.12152099609375 8.736968994140625 24.88084411621094 6.495811462402344 30.17950439453125 C 4.176162719726562 35.66376495361328 3.000007629394531 41.4912109375 3.000007629394531 47.49999618530273 C 3.000007629394531 53.50878143310547 4.176162719726562 59.33622741699219 6.495811462402344 64.82048797607422 C 8.736968994140625 70.11914825439453 11.94599914550781 74.87847137451172 16.03376770019531 78.96623992919922 C 20.12153625488281 83.05400848388672 24.880859375 86.26304626464844 30.17951965332031 88.50419616699219 C 35.66378021240234 90.82384490966797 41.49122619628906 92 47.5000114440918 92 C 53.50879669189453 92 59.33624267578125 90.82384490966797 64.82050323486328 88.50419616699219 C 70.11916351318359 86.26304626464844 74.87848663330078 83.05400848388672 78.96625518798828 78.96623992919922 C 83.05402374267578 74.87847137451172 86.2630615234375 70.11914825439453 88.50421142578125 64.82048797607422 C 90.82386016845703 59.33622741699219 92.00001525878906 53.50878143310547 92.00001525878906 47.49999618530273 C 92.00001525878906 41.4912109375 90.82386016845703 35.66376495361328 88.50421142578125 30.17950439453125 C 86.2630615234375 24.88084411621094 83.05402374267578 20.12152099609375 78.96625518798828 16.03375244140625 C 74.87848663330078 11.94598388671875 70.11916351318359 8.736953735351562 64.82050323486328 6.495796203613281 C 59.33624267578125 4.1761474609375 53.50879669189453 2.999992370605469 47.5000114440918 2.999992370605469 M 47.5000114440918 -7.62939453125e-06 C 73.73353576660156 -7.62939453125e-06 95.00001525878906 21.26647186279297 95.00001525878906 47.49999618530273 C 95.00001525878906 73.7335205078125 73.73353576660156 95 47.5000114440918 95 C 21.26648712158203 95 7.62939453125e-06 73.7335205078125 7.62939453125e-06 47.49999618530273 C 7.62939453125e-06 21.26647186279297 21.26648712158203 -7.62939453125e-06 47.5000114440918 -7.62939453125e-06 Z" stroke="none" fill="#e89076"/>
                              </g>
                            </g>
                          </g>
                        </g>
                      </g>
                    </g>
                  </g>
                </g>
              </g>
            </g>
          </g>
        </g>
      </g>
    </g>
    <g id="motivacion" transform="translate(216 1539.5)">
      <path id="Trazado_1044000" data-name="Trazado 1044000" d="M72.62,47.41V36.21H66.143a25.323,25.323,0,0,0-3.317-8L67.41,23.63l-7.92-7.92-4.584,4.584a25.31,25.31,0,0,0-8-3.317V10.5H35.71V16.97A25.324,25.324,0,0,0,27.7,20.282L23.13,15.71l-7.92,7.92,4.564,4.564a25.326,25.326,0,0,0-3.329,8.016H10v11.2h6.438a25.312,25.312,0,0,0,3.324,8.028L15.21,59.99l7.92,7.92,4.552-4.552a25.307,25.307,0,0,0,8.028,3.324v6.438h11.2V66.675a25.312,25.312,0,0,0,8.015-3.33L59.49,67.91l7.92-7.92-4.572-4.572A25.317,25.317,0,0,0,66.15,47.41Zm0,0" transform="translate(-8.727 -8.727)" fill="#72d8ff"/>
      <path id="Trazado_1044001" data-name="Trazado 1044001" d="M166.414,151.894a15.273,15.273,0,1,1-15.273-15.273A15.274,15.274,0,0,1,166.414,151.894Zm0,0" transform="translate(-118.574 -118.795)" fill="#fff"/>
      <path id="Trazado_1044002" data-name="Trazado 1044002" d="M72.623,145.6l-17.591,4.163,3,3L44.035,166.751l-8.841-8.841L10,183.1l7.92,7.92,17.274-17.274,8.841,8.841,21.914-21.914,2.512,2.512Zm0,0" transform="translate(-8.728 -126.63)" fill="#a0e557"/>
      <path id="Trazado_1044003" data-name="Trazado 1044003" d="M247.136,129.167h.076a1.273,1.273,0,0,0,.006-2.546h-.082a1.273,1.273,0,1,0,0,2.546Zm0,0" transform="translate(-214.569 -110.068)"/>
      <path id="Trazado_1044004" data-name="Trazado 1044004" d="M63.893,26.21h-.4l1.644-6.949A1.273,1.273,0,0,0,63.6,17.73l-7.79,1.843,3.77-3.77a1.272,1.272,0,0,0,0-1.8l-7.92-7.92a1.272,1.272,0,0,0-1.8,0L45.985,9.96a26.536,26.536,0,0,0-6.529-2.709V1.772A1.273,1.273,0,0,0,38.183.5h-11.2A1.273,1.273,0,0,0,25.71,1.772V7.243a26.506,26.506,0,0,0-6.541,2.706L15.3,6.083a1.272,1.272,0,0,0-1.8,0L5.583,14a1.272,1.272,0,0,0,0,1.8L9.44,19.66a26.519,26.519,0,0,0-2.721,6.55H1.272A1.273,1.273,0,0,0,0,27.483v11.2a1.273,1.273,0,0,0,1.273,1.273H6.711a26.515,26.515,0,0,0,2.718,6.562L.373,55.573a1.272,1.272,0,0,0,0,1.8l7.92,7.92a1.272,1.272,0,0,0,1.8,0l9.056-9.056a26.5,26.5,0,0,0,6.562,2.717v5.439a1.273,1.273,0,0,0,1.273,1.273h11.2a1.273,1.273,0,0,0,1.273-1.273V58.946a26.507,26.507,0,0,0,6.55-2.721l3.857,3.857a1.273,1.273,0,0,0,1.8,0l7.92-7.92a1.272,1.272,0,0,0,0-1.8L55.717,46.5a26.52,26.52,0,0,0,2.705-6.541h5.471a1.273,1.273,0,0,0,1.273-1.273v-11.2a1.273,1.273,0,0,0-1.273-1.273ZM8.953,38.405A1.273,1.273,0,0,0,7.71,37.41H2.545V28.756H7.718a1.273,1.273,0,0,0,1.242-.993,23.989,23.989,0,0,1,3.163-7.613,1.273,1.273,0,0,0-.175-1.582L8.283,14.9l6.12-6.12,3.671,3.671a1.273,1.273,0,0,0,1.581.176,24,24,0,0,1,7.606-3.145,1.273,1.273,0,0,0,.995-1.243v-5.2H36.91v5.2A1.273,1.273,0,0,0,37.9,9.492,24,24,0,0,1,45.5,12.642a1.273,1.273,0,0,0,1.581-.175l3.684-3.684,6.12,6.12L53.2,18.587a1.274,1.274,0,0,0-.175,1.582l.035.056-7.047,1.668a1.273,1.273,0,0,0-.779.556,16.559,16.559,0,0,0-6.583-4.741,1.273,1.273,0,1,0-.936,2.367,14.014,14.014,0,0,1,7.9,7.939L35.307,38.321,27.366,30.38a1.273,1.273,0,0,0-1.8,0l-6.487,6.487a14.023,14.023,0,0,1,8.343-16.793,1.273,1.273,0,0,0-.936-2.367,16.563,16.563,0,0,0-9.424,21.178L11.3,44.649a23.987,23.987,0,0,1-2.345-6.243Zm.24,24.188L7.5,60.9l6.934-6.934a1.273,1.273,0,0,0-1.8-1.8L5.7,59.1,3.072,56.473,26.465,33.08l7.941,7.941a1.272,1.272,0,0,0,1.8,0L50.2,27.027a1.272,1.272,0,0,0,0-1.8l-1.383-1.383,13.365-3.163L59.02,34.046l-.9-.9a1.272,1.272,0,0,0-1.8,0L35.307,54.161,27.365,46.22a1.273,1.273,0,0,0-1.8,0l-7.526,7.526,0,0ZM57.423,37.41a1.273,1.273,0,0,0-1.242.995,24,24,0,0,1-3.145,7.606,1.272,1.272,0,0,0,.176,1.58l3.671,3.672-6.12,6.12L47.1,53.718a1.273,1.273,0,0,0-1.582-.175A24.012,24.012,0,0,1,37.9,56.707a1.272,1.272,0,0,0-.993,1.242V63.12H28.255V57.955a1.273,1.273,0,0,0-.995-1.242,23.99,23.99,0,0,1-6.243-2.345l5.448-5.448,7.941,7.941a1.272,1.272,0,0,0,1.8,0L57.221,35.847l1.564,1.563Zm3.255,0a1.271,1.271,0,0,0,.294-.558l1.649-6.967V37.41Zm0,0" transform="translate(0 0)"/>
      <path id="Trazado_1044005" data-name="Trazado 1044005" d="M129.278,374.879a1.272,1.272,0,1,0-.9.373A1.282,1.282,0,0,0,129.278,374.879Zm0,0" transform="translate(-110.928 -324.831)"/>
    </g>
  </g>
</svg>
