<svg xmlns="http://www.w3.org/2000/svg" xmlns:xlink="http://www.w3.org/1999/xlink" width="110" height="110" viewBox="0 0 110 110">
  <defs>
    <filter id="Trazado_982547" x="0" y="0" width="110" height="110" filterUnits="userSpaceOnUse">
      <feOffset dy="3" input="SourceAlpha"/>
      <feGaussianBlur stdDeviation="3" result="blur"/>
      <feFlood flood-opacity="0.161"/>
      <feComposite operator="in" in2="blur"/>
      <feComposite in="SourceGraphic"/>
    </filter>
  </defs>
  <g id="Grupo_1200219" data-name="Grupo 1200219" transform="translate(-363 -737)">
    <g id="Grupo_1199814" data-name="Grupo 1199814" transform="translate(-0.301 -7013)">
      <g id="Grupo_1173080" data-name="Grupo 1173080" transform="translate(372.301 7756)">
        <g id="Grupo_1172181" data-name="Grupo 1172181" transform="translate(0)">
          <g id="Grupo_1171414" data-name="Grupo 1171414">
            <g id="Grupo_1163801" data-name="Grupo 1163801">
              <g id="Grupo_1163014" data-name="Grupo 1163014">
                <g id="Grupo_1157015" data-name="Grupo 1157015" transform="translate(0 0)">
                  <g id="Grupo_1155792" data-name="Grupo 1155792">
                    <g id="Grupo_1154703" data-name="Grupo 1154703">
                      <g id="Grupo_1150789" data-name="Grupo 1150789">
                        <g id="Grupo_1154212" data-name="Grupo 1154212">
                          <g id="Grupo_1152583" data-name="Grupo 1152583">
                            <g id="Grupo_1146973" data-name="Grupo 1146973" transform="translate(0 0)">
                              <g id="Grupo_1146954" data-name="Grupo 1146954">
                                <g transform="matrix(1, 0, 0, 1, -9, -6)" filter="url(#Trazado_982547)">
                                  <g id="Trazado_982547-2" data-name="Trazado 982547" transform="translate(9 6)" fill="#f2f7f5">
                                    <path d="M 46 90.49987030029297 C 39.99187850952148 90.49987030029297 34.16426849365234 89.32350921630859 28.67905426025391 87.00345611572266 C 23.38019943237305 84.76224517822266 18.62104034423828 81.55341339111328 14.53374671936035 77.46613311767578 C 10.44646644592285 73.37885284423828 7.237639904022217 68.61969757080078 4.996413230895996 63.32085418701172 C 2.676359891891479 57.83565521240234 1.5 52.008056640625 1.5 45.99993515014648 C 1.5 39.99181365966797 2.676359891891479 34.16421508789062 4.996413230895996 28.67901420593262 C 7.237639904022217 23.38017463684082 10.44646644592285 18.62101554870605 14.53374671936035 14.53373527526855 C 18.62104034423828 10.44645500183105 23.38019943237305 7.23762845993042 28.67905426025391 4.996415138244629 C 34.16426849365234 2.676361799240112 39.99187850952148 1.500001788139343 46 1.500001788139343 C 52.00812149047852 1.500001788139343 57.83573150634766 2.676361799240112 63.32094573974609 4.996415138244629 C 68.61979675292969 7.23762845993042 73.37895965576172 10.44645500183105 77.46625518798828 14.53373527526855 C 81.55353546142578 18.62101554870605 84.76235961914062 23.38017463684082 87.00358581542969 28.67901420593262 C 89.32363891601562 34.16421508789062 90.5 39.99181365966797 90.5 45.99993515014648 C 90.5 52.008056640625 89.32363891601562 57.83565521240234 87.00358581542969 63.32085418701172 C 84.76235961914062 68.61969757080078 81.55353546142578 73.37885284423828 77.46625518798828 77.46613311767578 C 73.37895965576172 81.55341339111328 68.61979675292969 84.76224517822266 63.32094573974609 87.00345611572266 C 57.83573150634766 89.32350921630859 52.00812149047852 90.49987030029297 46 90.49987030029297 Z" stroke="none"/>
                                    <path d="M 46 2.999992370605469 C 40.1937141418457 2.999992370605469 34.56269836425781 4.136489868164062 29.26337051391602 6.377906799316406 C 24.14332580566406 8.543502807617188 19.54441070556641 11.64437866210938 15.59439849853516 15.59437561035156 C 11.64440155029297 19.54439544677734 8.54351806640625 24.14329528808594 6.377914428710938 29.26333618164062 C 4.136497497558594 34.56264877319336 3 40.19366455078125 3 45.99993515014648 C 3 51.80620574951172 4.136497497558594 57.43720626831055 6.377914428710938 62.73651885986328 C 8.54351806640625 67.8565673828125 11.64440155029297 72.45545959472656 15.59439849853516 76.40547943115234 C 19.54441070556641 80.35547637939453 24.14332580566406 83.45635223388672 29.26337051391602 85.6219482421875 C 34.56269836425781 87.86336517333984 40.1937141418457 88.99986267089844 46 88.99986267089844 C 51.8062858581543 88.99986267089844 57.43730163574219 87.86336517333984 62.73661422729492 85.6219482421875 C 67.85667419433594 83.45635223388672 72.45557403564453 80.35547637939453 76.40558624267578 76.40547943115234 C 80.35559844970703 72.45545959472656 83.45647430419922 67.8565673828125 85.6220703125 62.73651885986328 C 87.86350250244141 57.43720626831055 89 51.80620574951172 89 45.99993515014648 C 89 40.19366455078125 87.86350250244141 34.56264877319336 85.6220703125 29.26333618164062 C 83.45647430419922 24.14329528808594 80.35559844970703 19.54439544677734 76.40558624267578 15.59437561035156 C 72.45557403564453 11.64437866210938 67.85667419433594 8.543502807617188 62.73661422729492 6.377906799316406 C 57.43730163574219 4.136489868164062 51.8062858581543 2.999992370605469 46 2.999992370605469 M 46 -7.62939453125e-06 C 71.40509033203125 -7.62939453125e-06 92 20.59486389160156 92 45.99993515014648 C 92 71.40499114990234 71.40509033203125 91.99986267089844 46 91.99986267089844 C 20.59490203857422 91.99986267089844 0 71.40499114990234 0 45.99993515014648 C 0 20.59486389160156 20.59490203857422 -7.62939453125e-06 46 -7.62939453125e-06 Z" stroke="none" fill="#88bba9"/>
                                  </g>
                                </g>
                              </g>
                            </g>
                          </g>
                        </g>
                      </g>
                    </g>
                  </g>
                </g>
              </g>
            </g>
          </g>
        </g>
      </g>
    </g>
    <g id="lista-de-verificacion" transform="translate(355.11 760)">
      <g id="Grupo_1200192" data-name="Grupo 1200192" transform="translate(39.741 0.851)">
        <path id="Trazado_1043887" data-name="Trazado 1043887" d="M86.74,63.9H48.225a1.834,1.834,0,0,1-1.834-1.834V9.334A1.834,1.834,0,0,1,48.225,7.5H86.74a1.834,1.834,0,0,1,1.834,1.834V62.063A1.834,1.834,0,0,1,86.74,63.9Z" transform="translate(-46.391 -7.5)" fill="#ecf4ff"/>
      </g>
      <g id="Grupo_1200193" data-name="Grupo 1200193" transform="translate(77.798 0.851)">
        <path id="Trazado_1043888" data-name="Trazado 1043888" d="M384.058,7.5h-2.293A1.834,1.834,0,0,1,383.6,9.334V62.063a1.834,1.834,0,0,1-1.834,1.834h2.293a1.834,1.834,0,0,0,1.834-1.834V9.334A1.834,1.834,0,0,0,384.058,7.5Z" transform="translate(-381.765 -7.5)" fill="#ddeafb"/>
      </g>
      <g id="Grupo_1200212" data-name="Grupo 1200212" transform="translate(44.212 8.187)">
        <g id="Grupo_1200199" data-name="Grupo 1200199" transform="translate(0)">
          <g id="Grupo_1200198" data-name="Grupo 1200198">
            <g id="Grupo_1200197" data-name="Grupo 1200197">
              <g id="Grupo_1200196" data-name="Grupo 1200196">
                <g id="Grupo_1200194" data-name="Grupo 1200194" transform="translate(0)">
                  <path id="Trazado_1043889" data-name="Trazado 1043889" d="M95.613,83.613H87.426a1.638,1.638,0,0,1-1.638-1.638V73.788a1.638,1.638,0,0,1,1.638-1.638h8.188a1.638,1.638,0,0,1,1.638,1.638v8.188a1.638,1.638,0,0,1-1.638,1.638Z" transform="translate(-85.788 -72.15)" fill="#b3e59f"/>
                </g>
                <g id="Grupo_1200195" data-name="Grupo 1200195" transform="translate(0 0.007)">
                  <path id="Trazado_1043890" data-name="Trazado 1043890" d="M95.751,72.212q.026.341.026.689a8.966,8.966,0,0,1-8.966,8.966,9.068,9.068,0,0,1-1.023-.058v.222a1.638,1.638,0,0,0,1.638,1.638h8.188a1.638,1.638,0,0,0,1.638-1.638V73.843A1.637,1.637,0,0,0,95.751,72.212Z" transform="translate(-85.788 -72.212)" fill="#95d6a4"/>
                </g>
              </g>
            </g>
          </g>
        </g>
        <g id="Grupo_1200205" data-name="Grupo 1200205" transform="translate(0 15.131)">
          <g id="Grupo_1200204" data-name="Grupo 1200204">
            <g id="Grupo_1200203" data-name="Grupo 1200203">
              <g id="Grupo_1200202" data-name="Grupo 1200202">
                <g id="Grupo_1200200" data-name="Grupo 1200200" transform="translate(0)">
                  <path id="Trazado_1043891" data-name="Trazado 1043891" d="M95.613,216.955H87.426a1.638,1.638,0,0,1-1.638-1.638V207.13a1.638,1.638,0,0,1,1.638-1.638h8.188a1.638,1.638,0,0,1,1.638,1.638v8.188A1.638,1.638,0,0,1,95.613,216.955Z" transform="translate(-85.788 -205.492)" fill="#b3e59f"/>
                </g>
                <g id="Grupo_1200201" data-name="Grupo 1200201" transform="translate(0 0.007)">
                  <path id="Trazado_1043892" data-name="Trazado 1043892" d="M95.751,205.553q.026.341.026.689a8.966,8.966,0,0,1-9.989,8.907v.222a1.638,1.638,0,0,0,1.638,1.638h8.188a1.638,1.638,0,0,0,1.638-1.638v-8.188a1.637,1.637,0,0,0-1.5-1.631Z" transform="translate(-85.788 -205.553)" fill="#95d6a4"/>
                </g>
              </g>
            </g>
          </g>
        </g>
        <g id="Grupo_1200211" data-name="Grupo 1200211" transform="translate(0 30.262)">
          <g id="Grupo_1200210" data-name="Grupo 1200210">
            <g id="Grupo_1200209" data-name="Grupo 1200209">
              <g id="Grupo_1200208" data-name="Grupo 1200208">
                <g id="Grupo_1200206" data-name="Grupo 1200206" transform="translate(0)">
                  <path id="Trazado_1043893" data-name="Trazado 1043893" d="M95.613,350.3H87.426a1.638,1.638,0,0,1-1.638-1.638v-8.188a1.638,1.638,0,0,1,1.638-1.638h8.188a1.638,1.638,0,0,1,1.638,1.638v8.188A1.638,1.638,0,0,1,95.613,350.3Z" transform="translate(-85.788 -338.834)" fill="#b3e59f"/>
                </g>
                <g id="Grupo_1200207" data-name="Grupo 1200207" transform="translate(0 0.007)">
                  <path id="Trazado_1043894" data-name="Trazado 1043894" d="M95.751,338.895q.026.341.026.689a8.966,8.966,0,0,1-9.989,8.907v.222a1.638,1.638,0,0,0,1.638,1.638h8.188a1.638,1.638,0,0,0,1.638-1.638v-8.188a1.637,1.637,0,0,0-1.5-1.631Z" transform="translate(-85.788 -338.895)" fill="#95d6a4"/>
                </g>
              </g>
            </g>
          </g>
        </g>
      </g>
      <g id="Grupo_1200217" data-name="Grupo 1200217" transform="translate(68.754 27.909)">
        <g id="Grupo_1200213" data-name="Grupo 1200213" transform="translate(0)">
          <path id="Trazado_1043895" data-name="Trazado 1043895" d="M304.5,274.355l-2.145.931-.266-2.323a4.586,4.586,0,0,1,.585-2.814l13.973-24.2,3.971,2.293-13.973,24.2A4.585,4.585,0,0,1,304.5,274.355Z" transform="translate(-302.064 -245.947)" fill="#4a80aa"/>
        </g>
        <g id="Grupo_1200214" data-name="Grupo 1200214" transform="translate(0.099 1.261)">
          <path id="Trazado_1043896" data-name="Trazado 1043896" d="M319.6,257.059l-13.973,24.2a4.585,4.585,0,0,1-2.145,1.913l-.555.241.2,1.722,2.145-.931a4.585,4.585,0,0,0,2.145-1.913l13.973-24.2Z" transform="translate(-302.932 -257.059)" fill="#407093"/>
        </g>
        <g id="Grupo_1200215" data-name="Grupo 1200215" transform="translate(10.689 3.575)">
          <path id="Trazado_1043897" data-name="Trazado 1043897" d="M0,0H3.668V4.585H0Z" transform="matrix(0.5, -0.866, 0.866, 0.5, 0, 3.177)" fill="#ffe07d"/>
        </g>
        <g id="Grupo_1200216" data-name="Grupo 1200216" transform="translate(12.873 4.836)">
          <path id="Trazado_1043898" data-name="Trazado 1043898" d="M0,0H3.668V2.063H0Z" transform="matrix(0.5, -0.866, 0.866, 0.5, 0, 3.177)" fill="#ffd064"/>
        </g>
      </g>
      <g id="Grupo_1200218" data-name="Grupo 1200218" transform="translate(38.89 0)">
        <path id="Trazado_1043899" data-name="Trazado 1043899" d="M39.741,46.792a.851.851,0,0,0,.851-.851V2.685a.984.984,0,0,1,.983-.983H80.091a.984.984,0,0,1,.983.983V11.7a.851.851,0,1,0,1.7,0V2.685A2.688,2.688,0,0,0,80.091,0H41.575A2.688,2.688,0,0,0,38.89,2.685V45.941A.851.851,0,0,0,39.741,46.792Z" transform="translate(-38.89 0)"/>
        <path id="Trazado_1043900" data-name="Trazado 1043900" d="M91.452,67.139a2.491,2.491,0,0,0-2.489-2.489H80.776a2.491,2.491,0,0,0-2.489,2.489v8.188a2.492,2.492,0,0,0,2.489,2.489h8.188a2.492,2.492,0,0,0,2.489-2.489Zm-1.7,8.188a.787.787,0,0,1-.787.787H80.776a.787.787,0,0,1-.786-.787V67.139a.787.787,0,0,1,.786-.786h8.188a.787.787,0,0,1,.787.786Z" transform="translate(-73.816 -57.314)"/>
        <path id="Trazado_1043901" data-name="Trazado 1043901" d="M115.218,102.613l-2.3,2.3-.85-.85a.851.851,0,1,0-1.2,1.2l1.452,1.452a.851.851,0,0,0,1.2,0l2.9-2.9a.851.851,0,1,0-1.2-1.2Z" transform="translate(-102.474 -90.748)"/>
        <path id="Trazado_1043902" data-name="Trazado 1043902" d="M226.622,114.841h13.412a.851.851,0,1,0,0-1.7H226.622a.851.851,0,1,0,0,1.7Z" transform="translate(-204.565 -100.3)"/>
        <path id="Trazado_1043903" data-name="Trazado 1043903" d="M308.5,80.813h-8.139a.851.851,0,1,0,0,1.7H308.5a.851.851,0,1,0,0-1.7Z" transform="translate(-269.939 -71.643)"/>
        <path id="Trazado_1043904" data-name="Trazado 1043904" d="M226.622,82.515h4.356a.851.851,0,1,0,0-1.7h-4.356a.851.851,0,1,0,0,1.7Z" transform="translate(-204.565 -71.643)"/>
        <path id="Trazado_1043905" data-name="Trazado 1043905" d="M272.079,145.464a.851.851,0,1,0,0,1.7h4.47a.851.851,0,1,0,0-1.7Z" transform="translate(-244.863 -128.957)"/>
        <path id="Trazado_1043906" data-name="Trazado 1043906" d="M226.622,147.166h1.146a.851.851,0,1,0,0-1.7h-1.146a.851.851,0,1,0,0,1.7Z" transform="translate(-204.565 -128.957)"/>
        <path id="Trazado_1043907" data-name="Trazado 1043907" d="M91.452,200.481a2.491,2.491,0,0,0-2.489-2.489H80.776a2.491,2.491,0,0,0-2.489,2.489v8.188a2.491,2.491,0,0,0,2.489,2.489h8.188a2.491,2.491,0,0,0,2.489-2.489Zm-1.7,8.188a.787.787,0,0,1-.787.786H80.776a.787.787,0,0,1-.786-.786v-8.188a.787.787,0,0,1,.786-.786h8.188a.787.787,0,0,1,.787.786Z" transform="translate(-73.816 -175.525)"/>
        <path id="Trazado_1043908" data-name="Trazado 1043908" d="M115.218,235.955l-2.3,2.3-.85-.85a.851.851,0,0,0-1.2,1.2l1.452,1.452a.851.851,0,0,0,1.2,0l2.9-2.9a.851.851,0,0,0-1.2-1.2Z" transform="translate(-102.474 -208.959)"/>
        <path id="Trazado_1043909" data-name="Trazado 1043909" d="M240.885,247.33a.851.851,0,0,0-.851-.851H226.622a.851.851,0,1,0,0,1.7h13.412A.851.851,0,0,0,240.885,247.33Z" transform="translate(-204.565 -218.51)"/>
        <path id="Trazado_1043910" data-name="Trazado 1043910" d="M309.354,215.005a.851.851,0,0,0-.851-.851h-8.139a.851.851,0,1,0,0,1.7H308.5A.851.851,0,0,0,309.354,215.005Z" transform="translate(-269.939 -189.853)"/>
        <path id="Trazado_1043911" data-name="Trazado 1043911" d="M226.622,215.856h4.356a.851.851,0,1,0,0-1.7h-4.356a.851.851,0,1,0,0,1.7Z" transform="translate(-204.565 -189.853)"/>
        <path id="Trazado_1043912" data-name="Trazado 1043912" d="M277.4,279.656a.851.851,0,0,0-.851-.851h-4.47a.851.851,0,1,0,0,1.7h4.47A.851.851,0,0,0,277.4,279.656Z" transform="translate(-244.864 -247.167)"/>
        <path id="Trazado_1043913" data-name="Trazado 1043913" d="M226.622,280.507h1.146a.851.851,0,1,0,0-1.7h-1.146a.851.851,0,1,0,0,1.7Z" transform="translate(-204.565 -247.167)"/>
        <path id="Trazado_1043914" data-name="Trazado 1043914" d="M88.963,331.333H80.776a2.492,2.492,0,0,0-2.489,2.489v8.188a2.491,2.491,0,0,0,2.489,2.489h8.188a2.491,2.491,0,0,0,2.489-2.489v-8.188A2.491,2.491,0,0,0,88.963,331.333Zm.787,10.676a.787.787,0,0,1-.787.786H80.776a.787.787,0,0,1-.786-.786v-8.188a.787.787,0,0,1,.786-.787h8.188a.787.787,0,0,1,.787.787Z" transform="translate(-73.816 -293.735)"/>
        <path id="Trazado_1043915" data-name="Trazado 1043915" d="M115.218,369.3l-2.3,2.3-.85-.85a.851.851,0,0,0-1.2,1.2l1.452,1.452a.851.851,0,0,0,1.2,0l2.9-2.9a.851.851,0,0,0-1.2-1.2Z" transform="translate(-102.474 -327.168)"/>
        <path id="Trazado_1043916" data-name="Trazado 1043916" d="M226.622,349.2h4.356a.851.851,0,1,0,0-1.7h-4.356a.851.851,0,1,0,0,1.7Z" transform="translate(-204.565 -308.064)"/>
        <path id="Trazado_1043917" data-name="Trazado 1043917" d="M227.768,413.848a.851.851,0,1,0,0-1.7h-1.146a.851.851,0,1,0,0,1.7Z" transform="translate(-204.565 -365.378)"/>
        <path id="Trazado_1043918" data-name="Trazado 1043918" d="M88.134,145.8a.851.851,0,0,0-.4-.517l-3.971-2.292a.851.851,0,0,0-.992.1v-11.6a.851.851,0,0,0-1.7,0v14.461l-5.367,9.3H69.315a.851.851,0,1,0,0,1.7h5.408l-1.135,1.965H60.947a.851.851,0,1,0,0,1.7H72.606l-1.135,1.966H66.106a.851.851,0,1,0,0,1.7h4.382L68.631,167.5a5.394,5.394,0,0,0-.693,3.336l.157,1.375H41.575a.984.984,0,0,1-.983-.983v-5.5a.851.851,0,0,0-1.7,0v5.5a2.688,2.688,0,0,0,2.685,2.685H80.091a2.688,2.688,0,0,0,2.685-2.685V155.577l5.274-9.135A.851.851,0,0,0,88.134,145.8ZM83.1,151.605l-2.5-1.441.983-1.7,2.5,1.441Zm-2.03,19.625a.984.984,0,0,1-.983.983H72.707a5.46,5.46,0,0,0,1.369-1.568l3.329-5.766a.851.851,0,0,0-1.474-.851L72.6,169.794a3.761,3.761,0,0,1-1.747,1.558l-1.09.474-.135-1.182a3.705,3.705,0,0,1,.476-2.291l9.65-16.715,2.5,1.441-4.335,7.509a.851.851,0,1,0,1.474.851l1.682-2.914v12.7Zm3.864-22.8-2.5-1.441,1.212-2.1,2.5,1.441Z" transform="translate(-38.89 -115.816)"/>
      </g>
    </g>
  </g>
</svg>
