<svg xmlns="http://www.w3.org/2000/svg" xmlns:xlink="http://www.w3.org/1999/xlink" width="113" height="113" viewBox="0 0 113 113">
  <defs>
    <filter id="Trazado_982547" x="0" y="0" width="113" height="113" filterUnits="userSpaceOnUse">
      <feOffset dy="3" input="SourceAlpha"/>
      <feGaussianBlur stdDeviation="3" result="blur"/>
      <feFlood flood-opacity="0.161"/>
      <feComposite operator="in" in2="blur"/>
      <feComposite in="SourceGraphic"/>
    </filter>
  </defs>
  <g id="Grupo_1201796" data-name="Grupo 1201796" transform="translate(-902 -1177)">
    <g id="Grupo_1182657" data-name="Grupo 1182657" transform="translate(0.249 -1903)">
      <g id="Grupo_1182337" data-name="Grupo 1182337" transform="translate(910.751 3086)">
        <g id="Grupo_1174057" data-name="Grupo 1174057">
          <g id="Grupo_1172010" data-name="Grupo 1172010">
            <g id="Grupo_1171046" data-name="Grupo 1171046">
              <g id="Grupo_1148525" data-name="Grupo 1148525">
                <g transform="matrix(1, 0, 0, 1, -9, -6)" filter="url(#Trazado_982547)">
                  <g id="Trazado_982547-2" data-name="Trazado 982547" transform="translate(9 6)" fill="#f2f7f5">
                    <path d="M 47.5 93.5 C 41.28937149047852 93.5 35.26533508300781 92.28397369384766 29.59518623352051 89.88570404052734 C 24.11771965026855 87.56893157958984 19.19813346862793 84.25196075439453 14.97309303283691 80.02691650390625 C 10.74804019927979 75.80186462402344 7.431066513061523 70.88229370117188 5.114293098449707 65.40481567382812 C 2.716026782989502 59.73468017578125 1.5 53.71062850952148 1.5 47.5 C 1.5 41.28937149047852 2.716026782989502 35.26533508300781 5.114293098449707 29.59518623352051 C 7.431066513061523 24.11771965026855 10.74804019927979 19.19813346862793 14.97309303283691 14.97309303283691 C 19.19813346862793 10.74804019927979 24.11771965026855 7.431066513061523 29.59518623352051 5.114293098449707 C 35.26533508300781 2.716026782989502 41.28937149047852 1.5 47.5 1.5 C 53.71062850952148 1.5 59.73468017578125 2.716026782989502 65.40481567382812 5.114293098449707 C 70.88229370117188 7.431066513061523 75.80186462402344 10.74804019927979 80.02691650390625 14.97309303283691 C 84.25196075439453 19.19813346862793 87.56893157958984 24.11771965026855 89.88570404052734 29.59518623352051 C 92.28397369384766 35.26533508300781 93.5 41.28937149047852 93.5 47.5 C 93.5 53.71062850952148 92.28397369384766 59.73468017578125 89.88570404052734 65.40481567382812 C 87.56893157958984 70.88229370117188 84.25196075439453 75.80186462402344 80.02691650390625 80.02691650390625 C 75.80186462402344 84.25196075439453 70.88229370117188 87.56893157958984 65.40481567382812 89.88570404052734 C 59.73468017578125 92.28397369384766 53.71062850952148 93.5 47.5 93.5 Z" stroke="none"/>
                    <path d="M 47.5 3 C 41.49121475219727 3 35.66376876831055 4.176155090332031 30.17950439453125 6.495796203613281 C 24.88084411621094 8.736953735351562 20.12152099609375 11.94598388671875 16.03375244140625 16.03375244140625 C 11.94598388671875 20.12152099609375 8.736953735351562 24.88084411621094 6.495796203613281 30.17950439453125 C 4.176155090332031 35.66376876831055 3 41.49121475219727 3 47.5 C 3 53.50878524780273 4.176155090332031 59.33623123168945 6.495796203613281 64.82049560546875 C 8.736953735351562 70.11915588378906 11.94598388671875 74.87847900390625 16.03375244140625 78.96624755859375 C 20.12152099609375 83.05401611328125 24.88084411621094 86.26304626464844 30.17950439453125 88.50419616699219 C 35.66376876831055 90.82384490966797 41.49121475219727 92 47.5 92 C 53.50878524780273 92 59.33623123168945 90.82384490966797 64.82049560546875 88.50419616699219 C 70.11915588378906 86.26304626464844 74.87847900390625 83.05401611328125 78.96624755859375 78.96624755859375 C 83.05401611328125 74.87847900390625 86.26304626464844 70.11915588378906 88.50419616699219 64.82049560546875 C 90.82384490966797 59.33623123168945 92 53.50878524780273 92 47.5 C 92 41.49121475219727 90.82384490966797 35.66376876831055 88.50419616699219 30.17950439453125 C 86.26304626464844 24.88084411621094 83.05401611328125 20.12152099609375 78.96624755859375 16.03375244140625 C 74.87847900390625 11.94598388671875 70.11915588378906 8.736953735351562 64.82049560546875 6.495796203613281 C 59.33623123168945 4.176155090332031 53.50878524780273 3 47.5 3 M 47.5 0 C 73.7335205078125 0 95 21.2664794921875 95 47.5 C 95 73.7335205078125 73.7335205078125 95 47.5 95 C 21.2664794921875 95 0 73.7335205078125 0 47.5 C 0 21.2664794921875 21.2664794921875 0 47.5 0 Z" stroke="none" fill="#88bba9"/>
                  </g>
                </g>
              </g>
            </g>
          </g>
        </g>
      </g>
    </g>
    <g id="adaptacion" transform="translate(893.899 1184.909)">
      <g id="Grupo_1201795" data-name="Grupo 1201795" transform="translate(37.022 20.996)">
        <path id="Trazado_1045157" data-name="Trazado 1045157" d="M224,353.848a41.905,41.905,0,0,0,8.406-2.767l7.247-5.125c3.386-2.174,7.141-.211,4.124,2.451-2.055,1.805-6.14,5.613-10,8.933l-6.957.949Z" transform="translate(-200.165 -308.326)" fill="#fad1a2" fill-rule="evenodd"/>
        <path id="Trazado_1045158" data-name="Trazado 1045158" d="M98.213,331.493l12.622-7.26c6.535-3.241,8.894,2.016,3.887,4.388-3.663,2-6.68,3.821-6.654,4.453.013.474,16.219,2.029,18.1.975L136.3,328.4c3.623-1.766,7.128.646,3.808,2.925-4.137,2.846-15.877,11.542-19.513,12.6-2.279.25-19.223.145-22.4.237Z" transform="translate(-90.94 -289.384)" fill="#fad1a2" fill-rule="evenodd"/>
        <path id="Trazado_1045159" data-name="Trazado 1045159" d="M44.286,367.74l4.928-.04a1.2,1.2,0,0,1,1.159,1.2l-.013,13.874a1.139,1.139,0,0,1-1.159,1.133l-4.941.04a1.187,1.187,0,0,1-1.159-1.2l.013-13.874A1.159,1.159,0,0,1,44.286,367.74Z" transform="translate(-43.1 -328.015)" fill="#cc3737" fill-rule="evenodd"/>
        <path id="Trazado_1045160" data-name="Trazado 1045160" d="M170.459,66.5h3.847V69a10.092,10.092,0,0,1,3.834,1.594l1.766-1.766,2.714,2.714-1.766,1.766a10.092,10.092,0,0,1,1.594,3.834h2.5V80.98h-2.5a10.006,10.006,0,0,1-1.594,3.834l1.766,1.779-2.714,2.714-1.766-1.766a10.092,10.092,0,0,1-3.834,1.594v2.5h-3.847v-2.5a10.092,10.092,0,0,1-3.834-1.594l-1.766,1.766-2.727-2.714,1.766-1.766a10.091,10.091,0,0,1-1.594-3.834h-2.5V77.159h2.5a10.091,10.091,0,0,1,1.594-3.834l-1.766-1.766,2.714-2.714,1.766,1.766a10.091,10.091,0,0,1,3.834-1.594V66.5Z" transform="translate(-144.424 -66.5)" fill="#ffcd05" fill-rule="evenodd"/>
        <path id="Trazado_1045161" data-name="Trazado 1045161" d="M220.136,121.4a5.336,5.336,0,1,1-5.336,5.336,5.331,5.331,0,0,1,5.336-5.336Z" transform="translate(-192.177 -114.166)" fill="#cc3737" fill-rule="evenodd"/>
        <path id="Trazado_1045162" data-name="Trazado 1045162" d="M388.939,113.5l2.82,2.042,2.82,2.055L393.5,120.9l-1.08,3.32h-6.97l-1.08-3.32L383.3,117.6l2.82-2.055Z" transform="translate(-338.476 -107.307)" fill="#04b3e1" fill-rule="evenodd"/>
        <path id="Trazado_1045163" data-name="Trazado 1045163" d="M59.4,128.2h8.867v8.88H59.4Z" transform="translate(-57.252 -120.071)" fill="#04b3e1" fill-rule="evenodd"/>
      </g>
      <path id="Trazado_1045164" data-name="Trazado 1045164" d="M39.17,28.2h8.88a.917.917,0,0,1,.922.922v8.88a.917.917,0,0,1-.922.922H39.17a.917.917,0,0,1-.922-.922v-8.88a.917.917,0,0,1,.922-.922Zm7.945,1.845H40.092V37.07h7.023Zm40.924-3.6,5.626,4.084a.937.937,0,0,1,.329,1.067l-2.148,6.6a.93.93,0,0,1-.87.632h-6.97a.918.918,0,0,1-.9-.7l-2.134-6.575a.913.913,0,0,1,.343-1.028l5.639-4.1a.909.909,0,0,1,1.08.013Zm1.726,3.531-2.279-1.66-4.559,3.307,1.739,5.349h5.639l1.739-5.349Zm-10.83,14.4a.909.909,0,0,1,1.291-.158.923.923,0,0,1,.171,1.291,19.984,19.984,0,0,1-3.926,3.821.917.917,0,0,1-1.291-.211.928.928,0,0,1,.211-1.291,18.331,18.331,0,0,0,3.544-3.452Zm-7.089,5.442a.915.915,0,0,1,.711,1.687,19.409,19.409,0,0,1-6.641,1.515.917.917,0,1,1-.079-1.831,17.644,17.644,0,0,0,6.008-1.37ZM61.793,50.918a.917.917,0,0,1-.329,1.805,19.511,19.511,0,0,1-10.9-6.048l.105,1.239a.919.919,0,0,1-1.831.145l-.356-4.348a.922.922,0,0,1,1.357-.883l3.887,1.845a.919.919,0,1,1-.791,1.66l-.25-.119a17.6,17.6,0,0,0,9.1,4.7ZM79.3,19.2a.919.919,0,1,1,1.831-.145l.356,4.348a.922.922,0,0,1-1.357.883l-3.887-1.845a.919.919,0,0,1,.791-1.66l.237.119a17.775,17.775,0,0,0-9.1-4.691.917.917,0,1,1,.329-1.805,19.61,19.61,0,0,1,10.9,6.061ZM51.028,22.735a.909.909,0,0,1-1.291.158.923.923,0,0,1-.171-1.291,20.352,20.352,0,0,1,3.926-3.821.925.925,0,0,1,1.08,1.5,18.331,18.331,0,0,0-3.544,3.452Zm7.089-5.442a.915.915,0,0,1-.711-1.687,19.409,19.409,0,0,1,6.641-1.515.917.917,0,1,1,.079,1.831A17.715,17.715,0,0,0,58.117,17.293Zm6.865,10.014a6.258,6.258,0,1,1-6.258,6.258A6.264,6.264,0,0,1,64.981,27.307ZM68.1,30.443a4.407,4.407,0,1,0,0,6.232A4.4,4.4,0,0,0,68.1,30.443ZM63.058,20.074h3.834a.917.917,0,0,1,.922.922v1.766a11.185,11.185,0,0,1,2.78,1.159l1.252-1.252a.931.931,0,0,1,1.3,0l2.727,2.714a.931.931,0,0,1,0,1.3L74.626,27.94a11.7,11.7,0,0,1,1.159,2.78h1.766a.917.917,0,0,1,.922.922v3.847a.929.929,0,0,1-1,.922H75.785a11.185,11.185,0,0,1-1.159,2.78l1.252,1.252a.931.931,0,0,1,0,1.3l-2.714,2.714a.931.931,0,0,1-1.3,0L70.607,43.21a11.186,11.186,0,0,1-2.78,1.159v1.766a.917.917,0,0,1-.922.922H63.071a.917.917,0,0,1-.922-.922V44.37a10.835,10.835,0,0,1-1.436-.488,12.985,12.985,0,0,1-1.357-.672L58.1,44.462a.931.931,0,0,1-1.3,0l-2.714-2.714a.931.931,0,0,1,0-1.3l1.252-1.252a11.148,11.148,0,0,1-1.146-2.78H52.425a.917.917,0,0,1-.922-.922V31.642a.917.917,0,0,1,.922-.922H54.19a11.522,11.522,0,0,1,.488-1.436,12.986,12.986,0,0,1,.672-1.357L54.1,26.675a.931.931,0,0,1,0-1.3l2.714-2.714a.931.931,0,0,1,1.3,0l1.252,1.252a11.185,11.185,0,0,1,2.78-1.159V21A.906.906,0,0,1,63.058,20.074Zm2.925,1.845h-2v1.528a.927.927,0,0,1-.751.962,9.344,9.344,0,0,0-1.818.54,9.594,9.594,0,0,0-1.621.87.9.9,0,0,1-1.212-.079l-1.12-1.12-1.41,1.41,1.12,1.12a.934.934,0,0,1,.105,1.173,9.362,9.362,0,0,0-1.423,3.426.914.914,0,0,1-.909.817H53.36v2h1.581a.941.941,0,0,1,.909.751,9.344,9.344,0,0,0,.54,1.818,9.594,9.594,0,0,0,.87,1.621.925.925,0,0,1-.079,1.212l-1.12,1.12,1.41,1.41,1.12-1.12a.934.934,0,0,1,1.173-.105,9.766,9.766,0,0,0,1.673.909,8.957,8.957,0,0,0,1.752.527.924.924,0,0,1,.817.909V45.2h2V43.619a.941.941,0,0,1,.751-.909,9.343,9.343,0,0,0,1.818-.54A9.594,9.594,0,0,0,70.2,41.3a.925.925,0,0,1,1.212.079l1.12,1.12,1.41-1.41-1.12-1.12a.932.932,0,0,1-.105-1.173A9.278,9.278,0,0,0,74.165,35.3a.933.933,0,0,1,.909-.751h1.581v-2H75.074a.928.928,0,0,1-.909-.751,9.343,9.343,0,0,0-.54-1.818,9.594,9.594,0,0,0-.87-1.621.925.925,0,0,1,.079-1.212l1.12-1.12L72.5,24.619l-1.12,1.12a.919.919,0,0,1-1.173.119,9.766,9.766,0,0,0-1.673-.909,8.816,8.816,0,0,0-1.766-.527.927.927,0,0,1-.817-.922V21.918ZM38.208,59.8l4.941-.04a2.114,2.114,0,0,1,2.042,1.766l11.265-6.482c.013-.013.04-.013.053-.026,2.767-1.383,4.954-1.344,6.285-.632a2.932,2.932,0,0,1,1.594,3A5.1,5.1,0,0,1,61.2,61.063c-1.792.975-3.426,1.91-4.612,2.675-.382.237-.7.435-.949.567.9.053,2.569.145,4.559.316,1.08.105,2.227.184,3.36.264,1.054-.329,2.161-.711,3.1-1.067,1.12-.422,1.95-.751,2.069-.83l7.247-5.125.04-.026c1.95-1.252,4.572-1.528,5.955-.224a2.1,2.1,0,0,1,.672,1.278c1.91-.711,4.256-.54,5.323.843a2.127,2.127,0,0,1,.461,1.449,3.457,3.457,0,0,1-1.726,2.5c-.672.461-1.831,1.291-3.175,2.24C78.236,69.68,70,75.517,66.918,76.413a.661.661,0,0,1-.158.026c-2.214.237-17,.158-21.78.224A2.1,2.1,0,0,1,43.11,77.81l-4.941.04A2.115,2.115,0,0,1,36.1,75.741c.04-4.625.013-9.263.013-13.887A2.084,2.084,0,0,1,38.208,59.8ZM43.136,61.6l-4.928.04a.227.227,0,0,0-.25.211c-.013,4.519-.2,9.421-.013,13.887a.284.284,0,0,0,.237.277c1.634,0,3.281-.026,4.928-.04a.225.225,0,0,0,.25-.237l.013-12.636V61.88a.283.283,0,0,0-.237-.277ZM68.486,65.1a13.838,13.838,0,0,0,3.307-.237L80.3,60.1c.382-.4.54-.711.514-.935-.053-.553-1.884-1.015-3.808.224l-7.22,5.1a7.511,7.511,0,0,1-1.3.606Zm-11.16-8.432L45.218,63.62l-.013,11.2c4.032-.053,20.3-.013,21.305-.211,2.846-.883,10.817-6.548,15.969-10.2,1.212-.856,2.253-1.607,3.2-2.253.922-.632,1.318-1.239.382-1.634a4.056,4.056,0,0,0-3.254.29L72.715,66.452c-1.713.962-10.317.211-12.649,0a36.088,36.088,0,0,1-5.731-.883.494.494,0,0,1-.145.013.906.906,0,0,1-.935-.9c-.013-.685.9-1.542,2.372-2.5,1.212-.791,2.885-1.752,4.73-2.754a.573.573,0,0,1,.092-.053c1.383-.659,2.069-1.515,2.161-2.24a1.088,1.088,0,0,0-.632-1.146c-.922-.448-2.49-.4-4.651.672Z" transform="translate(0)"/>
    </g>
  </g>
</svg>
