<svg xmlns="http://www.w3.org/2000/svg" xmlns:xlink="http://www.w3.org/1999/xlink" width="110" height="110" viewBox="0 0 110 110">
  <defs>
    <filter id="Trazado_982547" x="0" y="0" width="110" height="110" filterUnits="userSpaceOnUse">
      <feOffset dy="3" input="SourceAlpha"/>
      <feGaussianBlur stdDeviation="3" result="blur"/>
      <feFlood flood-opacity="0.161"/>
      <feComposite operator="in" in2="blur"/>
      <feComposite in="SourceGraphic"/>
    </filter>
  </defs>
  <g id="Grupo_1200227" data-name="Grupo 1200227" transform="translate(-678.301 -737.847)">
    <g id="Grupo_1199815" data-name="Grupo 1199815" transform="translate(0 -7013.153)">
      <g id="Grupo_1173087" data-name="Grupo 1173087" transform="translate(687.301 7757)">
        <g id="Grupo_1172182" data-name="Grupo 1172182" transform="translate(0)">
          <g id="Grupo_1171416" data-name="Grupo 1171416">
            <g id="Grupo_1163803" data-name="Grupo 1163803">
              <g id="Grupo_1163015" data-name="Grupo 1163015">
                <g id="Grupo_1157017" data-name="Grupo 1157017" transform="translate(0 0)">
                  <g id="Grupo_1155793" data-name="Grupo 1155793">
                    <g id="Grupo_1154704" data-name="Grupo 1154704">
                      <g id="Grupo_1150790" data-name="Grupo 1150790">
                        <g id="Grupo_1154214" data-name="Grupo 1154214">
                          <g id="Grupo_1152583" data-name="Grupo 1152583">
                            <g id="Grupo_1146973" data-name="Grupo 1146973" transform="translate(0 0)">
                              <g id="Grupo_1146954" data-name="Grupo 1146954">
                                <g transform="matrix(1, 0, 0, 1, -9, -6)" filter="url(#Trazado_982547)">
                                  <g id="Trazado_982547-2" data-name="Trazado 982547" transform="translate(9 6)" fill="#f2f7f5">
                                    <path d="M 46 90.49987030029297 C 39.99187850952148 90.49987030029297 34.16426849365234 89.32350921630859 28.67905426025391 87.00345611572266 C 23.38019943237305 84.76224517822266 18.62104034423828 81.55341339111328 14.53374671936035 77.46613311767578 C 10.44646644592285 73.37885284423828 7.237639904022217 68.61969757080078 4.996413230895996 63.32085418701172 C 2.676359891891479 57.83565521240234 1.5 52.008056640625 1.5 45.99993515014648 C 1.5 39.99181365966797 2.676359891891479 34.16421508789062 4.996413230895996 28.67901420593262 C 7.237639904022217 23.38017463684082 10.44646644592285 18.62101554870605 14.53374671936035 14.53373527526855 C 18.62104034423828 10.44645500183105 23.38019943237305 7.23762845993042 28.67905426025391 4.996415138244629 C 34.16426849365234 2.676361799240112 39.99187850952148 1.500001788139343 46 1.500001788139343 C 52.00812149047852 1.500001788139343 57.83573150634766 2.676361799240112 63.32094573974609 4.996415138244629 C 68.61979675292969 7.23762845993042 73.37895965576172 10.44645500183105 77.46625518798828 14.53373527526855 C 81.55353546142578 18.62101554870605 84.76235961914062 23.38017463684082 87.00358581542969 28.67901420593262 C 89.32363891601562 34.16421508789062 90.5 39.99181365966797 90.5 45.99993515014648 C 90.5 52.008056640625 89.32363891601562 57.83565521240234 87.00358581542969 63.32085418701172 C 84.76235961914062 68.61969757080078 81.55353546142578 73.37885284423828 77.46625518798828 77.46613311767578 C 73.37895965576172 81.55341339111328 68.61979675292969 84.76224517822266 63.32094573974609 87.00345611572266 C 57.83573150634766 89.32350921630859 52.00812149047852 90.49987030029297 46 90.49987030029297 Z" stroke="none"/>
                                    <path d="M 46 2.999992370605469 C 40.1937141418457 2.999992370605469 34.56269836425781 4.136489868164062 29.26337051391602 6.377906799316406 C 24.14332580566406 8.543502807617188 19.54441070556641 11.64437866210938 15.59439849853516 15.59437561035156 C 11.64440155029297 19.54439544677734 8.54351806640625 24.14329528808594 6.377914428710938 29.26333618164062 C 4.136497497558594 34.56264877319336 3 40.19366455078125 3 45.99993515014648 C 3 51.80620574951172 4.136497497558594 57.43720626831055 6.377914428710938 62.73651885986328 C 8.54351806640625 67.8565673828125 11.64440155029297 72.45545959472656 15.59439849853516 76.40547943115234 C 19.54441070556641 80.35547637939453 24.14332580566406 83.45635223388672 29.26337051391602 85.6219482421875 C 34.56269836425781 87.86336517333984 40.1937141418457 88.99986267089844 46 88.99986267089844 C 51.8062858581543 88.99986267089844 57.43730163574219 87.86336517333984 62.73661422729492 85.6219482421875 C 67.85667419433594 83.45635223388672 72.45557403564453 80.35547637939453 76.40558624267578 76.40547943115234 C 80.35559844970703 72.45545959472656 83.45647430419922 67.8565673828125 85.6220703125 62.73651885986328 C 87.86350250244141 57.43720626831055 89 51.80620574951172 89 45.99993515014648 C 89 40.19366455078125 87.86350250244141 34.56264877319336 85.6220703125 29.26333618164062 C 83.45647430419922 24.14329528808594 80.35559844970703 19.54439544677734 76.40558624267578 15.59437561035156 C 72.45557403564453 11.64437866210938 67.85667419433594 8.543502807617188 62.73661422729492 6.377906799316406 C 57.43730163574219 4.136489868164062 51.8062858581543 2.999992370605469 46 2.999992370605469 M 46 -7.62939453125e-06 C 71.40509033203125 -7.62939453125e-06 92 20.59486389160156 92 45.99993515014648 C 92 71.40499114990234 71.40509033203125 91.99986267089844 46 91.99986267089844 C 20.59490203857422 91.99986267089844 0 71.40499114990234 0 45.99993515014648 C 0 20.59486389160156 20.59490203857422 -7.62939453125e-06 46 -7.62939453125e-06 Z" stroke="none" fill="#88bba9"/>
                                  </g>
                                </g>
                              </g>
                            </g>
                          </g>
                        </g>
                      </g>
                    </g>
                  </g>
                </g>
              </g>
            </g>
          </g>
        </g>
      </g>
    </g>
    <g id="procedimiento" transform="translate(697.64 739.155)">
      <g id="Grupo_1200225" data-name="Grupo 1200225" transform="translate(1.01 19.742)">
        <path id="Trazado_1043919" data-name="Trazado 1043919" d="M197.41,159.456h-2.876a10.937,10.937,0,0,0-1.64-3.957l2.034-2.034a1.032,1.032,0,0,0,0-1.459l-1.581-1.581a1.032,1.032,0,0,0-1.459,0l-2.034,2.034a10.932,10.932,0,0,0-3.957-1.64v-2.876a1.032,1.032,0,0,0-1.032-1.032h-2.236a1.032,1.032,0,0,0-1.032,1.032v2.876a10.936,10.936,0,0,0-3.957,1.64l-2.034-2.034a1.032,1.032,0,0,0-1.459,0l-1.581,1.581a1.032,1.032,0,0,0,0,1.459L174.6,155.5a10.934,10.934,0,0,0-1.64,3.957h-2.876a1.032,1.032,0,0,0-1.032,1.032v2.236a1.032,1.032,0,0,0,1.032,1.032h2.876a10.937,10.937,0,0,0,1.64,3.957l-2.034,2.034a1.032,1.032,0,0,0,0,1.459l1.581,1.581a1.032,1.032,0,0,0,1.459,0l2.034-2.034a10.932,10.932,0,0,0,3.957,1.64v2.876a1.032,1.032,0,0,0,1.032,1.032h2.236a1.032,1.032,0,0,0,1.032-1.032v-2.876a10.937,10.937,0,0,0,3.957-1.64l2.034,2.034a1.032,1.032,0,0,0,1.459,0l1.581-1.581a1.032,1.032,0,0,0,0-1.459l-2.034-2.034a10.934,10.934,0,0,0,1.64-3.957h2.876a1.032,1.032,0,0,0,1.032-1.032v-2.236a1.032,1.032,0,0,0-1.032-1.032Zm-13.663,6.661a4.512,4.512,0,1,1,4.512-4.512A4.512,4.512,0,0,1,183.747,166.117Z" transform="translate(-147.292 -130.655)" fill="#7a8c98"/>
        <g id="Grupo_1200220" data-name="Grupo 1200220" transform="translate(26.204 16.256)">
          <path id="Trazado_1043920" data-name="Trazado 1043920" d="M268.662,147.943v2.177a.7.7,0,0,0,.7.7h2.062v-2.876a1.032,1.032,0,0,0-1.032-1.032h-2.236a1.03,1.03,0,0,0-.263.035A1.031,1.031,0,0,1,268.662,147.943Z" transform="translate(-259.022 -146.911)" fill="#6b7e89"/>
          <path id="Trazado_1043921" data-name="Trazado 1043921" d="M328.813,172.634a1.032,1.032,0,0,1,0,1.459l-1.639,1.639a.7.7,0,0,0-.1.858,10.928,10.928,0,0,1,1.227,2.961.7.7,0,0,0,.678.534h2.2a10.937,10.937,0,0,0-1.64-3.957l2.034-2.034a1.032,1.032,0,0,0,0-1.459l-1.581-1.581a1.032,1.032,0,0,0-1.459,0l-.651.651Z" transform="translate(-310.142 -167.54)" fill="#6b7e89"/>
          <path id="Trazado_1043922" data-name="Trazado 1043922" d="M203.422,173.088a10.967,10.967,0,0,1,1.792-.969l-1.065-1.065a1.032,1.032,0,0,0-1.459,0l-.651.651Z" transform="translate(-202.039 -167.54)" fill="#6b7e89"/>
          <path id="Trazado_1043923" data-name="Trazado 1043923" d="M329.54,275.914a10.935,10.935,0,0,0,1.64-3.957h-2.2a.7.7,0,0,0-.678.534,10.935,10.935,0,0,1-1.227,2.961.7.7,0,0,0,.1.858l1.639,1.639a1.032,1.032,0,0,1,0,1.459l-.93.93.651.651a1.032,1.032,0,0,0,1.459,0l1.581-1.581a1.032,1.032,0,0,0,0-1.459Z" transform="translate(-310.142 -255.113)" fill="#6b7e89"/>
          <path id="Trazado_1043924" data-name="Trazado 1043924" d="M361.835,240.043h-2.761a1.032,1.032,0,0,1,1.032,1.032v2.236a1.032,1.032,0,0,1-1.032,1.032h2.761a1.032,1.032,0,0,0,1.032-1.032v-2.236A1.032,1.032,0,0,0,361.835,240.043Z" transform="translate(-337.921 -227.498)" fill="#6b7e89"/>
          <path id="Trazado_1043925" data-name="Trazado 1043925" d="M203.422,323.9l-1.383,1.383.651.651a1.032,1.032,0,0,0,1.459,0l1.065-1.065A10.976,10.976,0,0,1,203.422,323.9Z" transform="translate(-202.039 -300.063)" fill="#6b7e89"/>
          <path id="Trazado_1043926" data-name="Trazado 1043926" d="M268.662,338.955a1.031,1.031,0,0,1-.769,1,1.032,1.032,0,0,0,.263.035h2.236a1.032,1.032,0,0,0,1.032-1.032v-2.876h-2.062a.7.7,0,0,0-.7.7Z" transform="translate(-259.022 -310.598)" fill="#6b7e89"/>
        </g>
        <g id="Grupo_1200221" data-name="Grupo 1200221" transform="translate(9.276 2.286)">
          <path id="Trazado_1043927" data-name="Trazado 1043927" d="M124.822,50.588a29.95,29.95,0,0,0-11.931-7.341.918.918,0,0,0-1.2.871v2.3a.913.913,0,0,0,.6.86,26.233,26.233,0,0,1,15.622,15.253.912.912,0,0,0,.853.584h2.319a.917.917,0,0,0,.865-1.22A29.967,29.967,0,0,0,124.822,50.588Zm3.513,29.439A26.226,26.226,0,0,1,112.3,96.453a.914.914,0,0,0-.607.861v2.3a.918.918,0,0,0,1.2.871,30.224,30.224,0,0,0,19.47-19.9.917.917,0,0,0-.878-1.181H129.2A.914.914,0,0,0,128.335,80.028ZM79.148,83.2a11.864,11.864,0,0,1-2.009.506.915.915,0,0,0-.682,1.3A30.287,30.287,0,0,0,94.2,100.483a.918.918,0,0,0,1.2-.871v-2.3a.915.915,0,0,0-.607-.861,26.24,26.24,0,0,1-14.529-12.8A.916.916,0,0,0,79.148,83.2Z" transform="translate(-76.365 -43.201)" fill="#d8ecfe"/>
        </g>
        <g id="Grupo_1200223" data-name="Grupo 1200223" transform="translate(9.581 2.286)">
          <g id="Grupo_1200222" data-name="Grupo 1200222">
            <path id="Trazado_1043928" data-name="Trazado 1043928" d="M348.8,50.589a29.967,29.967,0,0,1,7.13,11.3.917.917,0,0,1-.493,1.14.913.913,0,0,0,.37.08h2.319a.917.917,0,0,0,.865-1.22,30.245,30.245,0,0,0-19.061-18.646.918.918,0,0,0-1.183.684A30.024,30.024,0,0,1,348.8,50.589Z" transform="translate(-303.711 -43.202)" fill="#c4e2ff"/>
            <path id="Trazado_1043929" data-name="Trazado 1043929" d="M358.525,311.928h-2.28a.911.911,0,0,0-.389.089.917.917,0,0,1,.486,1.092,30.239,30.239,0,0,1-17.592,19.219.918.918,0,0,0,1.183.684,30.224,30.224,0,0,0,19.47-19.9A.917.917,0,0,0,358.525,311.928Z" transform="translate(-303.712 -275.731)" fill="#c4e2ff"/>
            <path id="Trazado_1043930" data-name="Trazado 1043930" d="M96.749,353.057a26.24,26.24,0,0,1-14.529-12.8A.916.916,0,0,0,81.1,339.8a11.864,11.864,0,0,1-2.009.506.911.911,0,0,0-.469.225.949.949,0,0,1,.954.5,25.833,25.833,0,0,0,14.109,12.03.915.915,0,0,1,.607.861v1.325a.915.915,0,0,1-.684.885q1.248.536,2.541.959a.918.918,0,0,0,1.2-.871v-2.3A.915.915,0,0,0,96.749,353.057Z" transform="translate(-78.625 -299.805)" fill="#c4e2ff"/>
          </g>
        </g>
        <g id="Grupo_1200224" data-name="Grupo 1200224" transform="translate(33.367 0)">
          <path id="Trazado_1043931" data-name="Trazado 1043931" d="M260.22,32.749h-3.5a1.509,1.509,0,0,1-1.509-1.509v-3.5a1.509,1.509,0,0,1,1.509-1.509h3.5a1.509,1.509,0,0,1,1.509,1.509v3.5A1.509,1.509,0,0,1,260.22,32.749Z" transform="translate(-255.211 -26.232)" fill="#8ac9fe"/>
          <path id="Trazado_1043932" data-name="Trazado 1043932" d="M272.829,27.739v3.5a1.509,1.509,0,0,1-1.509,1.509h-3.28a1.509,1.509,0,0,0,1.509-1.509v-3.5a1.509,1.509,0,0,0-1.509-1.509h3.28A1.509,1.509,0,0,1,272.829,27.739Z" transform="translate(-266.312 -26.23)" fill="#60b7ff"/>
          <path id="Trazado_1043933" data-name="Trazado 1043933" d="M260.22,443.9h-3.5a1.509,1.509,0,0,1-1.509-1.509v-3.5a1.509,1.509,0,0,1,1.509-1.509h3.5a1.509,1.509,0,0,1,1.509,1.509v3.5A1.509,1.509,0,0,1,260.22,443.9Z" transform="translate(-255.211 -382.002)" fill="#fee45a"/>
          <path id="Trazado_1043934" data-name="Trazado 1043934" d="M272.829,438.889v3.5a1.509,1.509,0,0,1-1.509,1.509h-3.28a1.509,1.509,0,0,0,1.509-1.509v-3.5a1.509,1.509,0,0,0-1.509-1.509h3.28A1.509,1.509,0,0,1,272.829,438.889Z" transform="translate(-266.312 -381.998)" fill="#fed402"/>
        </g>
        <path id="Trazado_1043935" data-name="Trazado 1043935" d="M461.125,232.132h-3.5a1.509,1.509,0,0,1-1.509-1.509v-3.5a1.509,1.509,0,0,1,1.509-1.509h3.5a1.509,1.509,0,0,1,1.509,1.509v3.5A1.509,1.509,0,0,1,461.125,232.132Z" transform="translate(-395.687 -198.758)" fill="#e759aa"/>
        <path id="Trazado_1043936" data-name="Trazado 1043936" d="M473.739,227.12v3.5a1.51,1.51,0,0,1-1.509,1.509h-3.28a1.51,1.51,0,0,0,1.509-1.509v-3.5a1.51,1.51,0,0,0-1.509-1.51h3.28A1.51,1.51,0,0,1,473.739,227.12Z" transform="translate(-406.793 -198.754)" fill="#dd4aa5"/>
        <circle id="Elipse_12121" data-name="Elipse 12121" cx="8.135" cy="8.135" r="8.135" transform="translate(0 22.816)" fill="#80d261"/>
        <path id="Trazado_1043937" data-name="Trazado 1043937" d="M54.515,195.61a8.144,8.144,0,0,0-2.082.27,8.136,8.136,0,0,1,0,15.729,8.135,8.135,0,1,0,2.082-16Z" transform="translate(-46.381 -172.794)" fill="#62c13a"/>
      </g>
      <g id="Grupo_1200226" data-name="Grupo 1200226" transform="translate(0 18.732)">
        <path id="Trazado_1043938" data-name="Trazado 1043938" d="M187.573,167.012l1.581-1.581a2.042,2.042,0,0,0,0-2.888l-1.468-1.468a11.857,11.857,0,0,0,1.16-2.8h2.076a2.044,2.044,0,0,0,2.042-2.042V154a2.044,2.044,0,0,0-2.042-2.042h-2.076a11.863,11.863,0,0,0-1.16-2.8l1.468-1.468a2.042,2.042,0,0,0,0-2.888l-1.581-1.581a2.044,2.044,0,0,0-2.888,0l-1.468,1.468a11.857,11.857,0,0,0-2.8-1.16v-2.076a2.044,2.044,0,0,0-2.042-2.042h-2.236a2.044,2.044,0,0,0-2.042,2.042v2.076a11.86,11.86,0,0,0-2.8,1.16l-1.468-1.468a2.042,2.042,0,0,0-2.888,0l-1.581,1.581a2.042,2.042,0,0,0,0,2.888l1.468,1.468a11.851,11.851,0,0,0-1.16,2.8H163.6A2.044,2.044,0,0,0,161.554,154v2.236a2.044,2.044,0,0,0,2.042,2.042h2.076a11.858,11.858,0,0,0,1.16,2.8l-1.468,1.468a2.042,2.042,0,0,0,0,2.888l1.581,1.581a2.042,2.042,0,0,0,2.888,0l1.468-1.468a11.856,11.856,0,0,0,2.8,1.16v2.076a2.044,2.044,0,0,0,2.042,2.042h2.236a2.044,2.044,0,0,0,2.042-2.042V166.7a11.86,11.86,0,0,0,2.8-1.16l1.468,1.468A2.044,2.044,0,0,0,187.573,167.012Zm-4.769-3.588a9.884,9.884,0,0,1-3.592,1.489,1.01,1.01,0,0,0-.814.991v2.876a.021.021,0,0,1-.021.021h-2.236a.021.021,0,0,1-.021-.021V165.9a1.01,1.01,0,0,0-.814-.991,9.886,9.886,0,0,1-3.592-1.489,1.01,1.01,0,0,0-1.276.125l-2.034,2.034a.024.024,0,0,1-.03,0L166.792,164a.024.024,0,0,1,0-.03l2.034-2.034a1.01,1.01,0,0,0,.125-1.276,9.886,9.886,0,0,1-1.489-3.592,1.01,1.01,0,0,0-.991-.814H163.6a.021.021,0,0,1-.021-.021V154a.021.021,0,0,1,.021-.021h2.876a1.01,1.01,0,0,0,.991-.814,9.885,9.885,0,0,1,1.489-3.592,1.01,1.01,0,0,0-.125-1.276l-2.034-2.034a.024.024,0,0,1,0-.03l1.581-1.581a.024.024,0,0,1,.03,0l2.034,2.034a1.01,1.01,0,0,0,1.276.125,9.884,9.884,0,0,1,3.592-1.489,1.01,1.01,0,0,0,.814-.991v-2.876a.021.021,0,0,1,.021-.021h2.236a.021.021,0,0,1,.021.021v2.876a1.01,1.01,0,0,0,.814.991,9.886,9.886,0,0,1,3.592,1.489,1.01,1.01,0,0,0,1.276-.125l2.034-2.034a.021.021,0,0,1,.03,0l1.581,1.581a.024.024,0,0,1,0,.03l-2.034,2.034a1.01,1.01,0,0,0-.125,1.276,9.883,9.883,0,0,1,1.489,3.592,1.01,1.01,0,0,0,.991.814h2.876a.021.021,0,0,1,.021.021v2.236a.021.021,0,0,1-.021.021h-2.876a1.01,1.01,0,0,0-.991.814,9.88,9.88,0,0,1-1.489,3.592,1.01,1.01,0,0,0,.125,1.276l2.034,2.034a.024.024,0,0,1,0,.03l-1.581,1.581a.022.022,0,0,1-.03,0l-2.034-2.034a1.01,1.01,0,0,0-1.276-.125Z" transform="translate(-139.793 -123.156)"/>
        <path id="Trazado_1043939" data-name="Trazado 1043939" d="M242.667,217.023a3.515,3.515,0,0,1,3.038,1.759,1.01,1.01,0,0,0,1.751-1.008,5.523,5.523,0,1,0-4.789,8.273,5.485,5.485,0,0,0,4.724-2.661,1.01,1.01,0,1,0-1.727-1.048,3.5,3.5,0,1,1-3-5.315Z" transform="translate(-205.202 -188.565)"/>
        <path id="Trazado_1043940" data-name="Trazado 1043940" d="M332.375,41.747A25.119,25.119,0,0,1,347.394,56.41a1.934,1.934,0,0,0,1.8,1.232h2.319a1.927,1.927,0,0,0,1.819-2.564,31.255,31.255,0,0,0-19.7-19.272,1.928,1.928,0,0,0-2.526,1.832v2.3a1.927,1.927,0,0,0,1.275,1.812Zm.745-3.981a28.75,28.75,0,0,1,11.409,7.055h0a28.8,28.8,0,0,1,6.847,10.8h-2.122A27.134,27.134,0,0,0,333.12,39.867Z" transform="translate(-286.501 -33.424)"/>
        <path id="Trazado_1043941" data-name="Trazado 1043941" d="M351.905,304.429h-2.28a1.922,1.922,0,0,0-1.828,1.322,25.309,25.309,0,0,1-15.42,15.791,1.929,1.929,0,0,0-1.278,1.813v2.3a1.95,1.95,0,0,0,2.526,1.832,30.755,30.755,0,0,0,12.332-7.587,31.128,31.128,0,0,0,7.792-12.986,1.927,1.927,0,0,0-1.845-2.482Zm-7.376,14.04a28.753,28.753,0,0,1-11.409,7.055v-2.1a27.345,27.345,0,0,0,16.574-16.973h2.085A29.109,29.109,0,0,1,344.529,318.469Z" transform="translate(-286.501 -265.946)"/>
        <path id="Trazado_1043942" data-name="Trazado 1043942" d="M88.633,345.623a25.071,25.071,0,0,1-13.969-12.307,1.934,1.934,0,0,0-2.348-.952h0a10.9,10.9,0,0,1-1.838.463,1.925,1.925,0,0,0-1.43,2.739,31.072,31.072,0,0,0,6,8.412,30.755,30.755,0,0,0,12.332,7.587,1.971,1.971,0,0,0,2.526-1.832v-2.3a1.928,1.928,0,0,0-1.278-1.813Zm-.742,3.982a28.751,28.751,0,0,1-11.409-7.055,29.061,29.061,0,0,1-5.558-7.748,12.938,12.938,0,0,0,1.975-.5,27.081,27.081,0,0,0,14.992,13.2Z" transform="translate(-59.579 -290.027)"/>
        <path id="Trazado_1043943" data-name="Trazado 1043943" d="M250.229,27.27h3.5a2.522,2.522,0,0,0,2.519-2.519v-3.5a2.522,2.522,0,0,0-2.519-2.519h-3.5a2.522,2.522,0,0,0-2.519,2.519v3.5a2.522,2.522,0,0,0,2.519,2.519Zm-.5-6.019a.5.5,0,0,1,.5-.5h3.5a.5.5,0,0,1,.5.5v3.5a.5.5,0,0,1-.5.5h-3.5a.5.5,0,0,1-.5-.5Z" transform="translate(-214.343 -18.732)"/>
        <path id="Trazado_1043944" data-name="Trazado 1043944" d="M253.73,429.883h-3.5a2.522,2.522,0,0,0-2.519,2.519v3.5a2.522,2.522,0,0,0,2.519,2.519h3.5a2.522,2.522,0,0,0,2.519-2.519v-3.5A2.522,2.522,0,0,0,253.73,429.883Zm.5,6.019a.5.5,0,0,1-.5.5h-3.5a.5.5,0,0,1-.5-.5v-3.5a.5.5,0,0,1,.5-.5h3.5a.5.5,0,0,1,.5.5Z" transform="translate(-214.344 -374.501)"/>
        <path id="Trazado_1043945" data-name="Trazado 1043945" d="M454.635,218.114h-3.5a2.522,2.522,0,0,0-2.519,2.519v3.5a2.522,2.522,0,0,0,2.519,2.519h3.5a2.522,2.522,0,0,0,2.519-2.519v-3.5A2.522,2.522,0,0,0,454.635,218.114Zm.5,6.019a.5.5,0,0,1-.5.5h-3.5a.5.5,0,0,1-.5-.5v-3.5a.5.5,0,0,1,.5-.5h3.5a.5.5,0,0,1,.5.5Z" transform="translate(-388.187 -191.257)"/>
        <path id="Trazado_1043946" data-name="Trazado 1043946" d="M41.32,237.51a1.01,1.01,0,0,0,0,1.429l1.671,1.672a1.01,1.01,0,0,0,1.429,0l3.545-3.545a1.01,1.01,0,1,0-1.429-1.429l-2.831,2.831-.957-.957A1.01,1.01,0,0,0,41.32,237.51Z" transform="translate(-35.498 -206.163)"/>
        <path id="Trazado_1043947" data-name="Trazado 1043947" d="M18.289,199.313a9.188,9.188,0,0,0-6.595-8.784,1.01,1.01,0,0,0-.563,1.941,7.124,7.124,0,1,1-4.108.04,1.01,1.01,0,1,0-.6-1.929,9.146,9.146,0,1,0,11.867,8.733Z" transform="translate(0 -167.353)"/>
        <path id="Trazado_1043948" data-name="Trazado 1043948" d="M139.811,24.784H147.5L146.082,26.2a1.01,1.01,0,0,0,1.429,1.429l3.138-3.138a1.018,1.018,0,0,0,0-1.429l-3.138-3.138a1.01,1.01,0,0,0-1.429,1.429l1.414,1.414h-7.685a1.01,1.01,0,1,0,0,2.021Z" transform="translate(-120.104 -19.505)"/>
      </g>
    </g>
  </g>
</svg>
