<svg xmlns="http://www.w3.org/2000/svg" xmlns:xlink="http://www.w3.org/1999/xlink" width="110" height="110" viewBox="0 0 110 110">
  <defs>
    <filter id="Trazado_982547" x="0" y="0" width="110" height="110" filterUnits="userSpaceOnUse">
      <feOffset dy="3" input="SourceAlpha"/>
      <feGaussianBlur stdDeviation="3" result="blur"/>
      <feFlood flood-opacity="0.161"/>
      <feComposite operator="in" in2="blur"/>
      <feComposite in="SourceGraphic"/>
    </filter>
  </defs>
  <g id="Grupo_1200710" data-name="Grupo 1200710" transform="translate(-2341 -4733)">
    <g id="Grupo_1199860" data-name="Grupo 1199860" transform="translate(1662.699 -3018)">
      <g id="Grupo_1173087" data-name="Grupo 1173087" transform="translate(687.301 7757)">
        <g id="Grupo_1172182" data-name="Grupo 1172182" transform="translate(0)">
          <g id="Grupo_1171416" data-name="Grupo 1171416">
            <g id="Grupo_1163803" data-name="Grupo 1163803">
              <g id="Grupo_1163015" data-name="Grupo 1163015">
                <g id="Grupo_1157017" data-name="Grupo 1157017" transform="translate(0 0)">
                  <g id="Grupo_1155793" data-name="Grupo 1155793">
                    <g id="Grupo_1154704" data-name="Grupo 1154704">
                      <g id="Grupo_1150790" data-name="Grupo 1150790">
                        <g id="Grupo_1154214" data-name="Grupo 1154214">
                          <g id="Grupo_1152583" data-name="Grupo 1152583">
                            <g id="Grupo_1146973" data-name="Grupo 1146973" transform="translate(0 0)">
                              <g id="Grupo_1146954" data-name="Grupo 1146954">
                                <g transform="matrix(1, 0, 0, 1, -9, -6)" filter="url(#Trazado_982547)">
                                  <g id="Trazado_982547-2" data-name="Trazado 982547" transform="translate(9 6)" fill="#f2f7f5">
                                    <path d="M 46 90.49987030029297 C 39.99187850952148 90.49987030029297 34.16426849365234 89.32350921630859 28.67905426025391 87.00345611572266 C 23.38019943237305 84.76224517822266 18.62104034423828 81.55341339111328 14.53374671936035 77.46613311767578 C 10.44646644592285 73.37885284423828 7.237639904022217 68.61969757080078 4.996413230895996 63.32085418701172 C 2.676359891891479 57.83565521240234 1.5 52.008056640625 1.5 45.99993515014648 C 1.5 39.99181365966797 2.676359891891479 34.16421508789062 4.996413230895996 28.67901420593262 C 7.237639904022217 23.38017463684082 10.44646644592285 18.62101554870605 14.53374671936035 14.53373527526855 C 18.62104034423828 10.44645500183105 23.38019943237305 7.23762845993042 28.67905426025391 4.996415138244629 C 34.16426849365234 2.676361799240112 39.99187850952148 1.500001788139343 46 1.500001788139343 C 52.00812149047852 1.500001788139343 57.83573150634766 2.676361799240112 63.32094573974609 4.996415138244629 C 68.61979675292969 7.23762845993042 73.37895965576172 10.44645500183105 77.46625518798828 14.53373527526855 C 81.55353546142578 18.62101554870605 84.76235961914062 23.38017463684082 87.00358581542969 28.67901420593262 C 89.32363891601562 34.16421508789062 90.5 39.99181365966797 90.5 45.99993515014648 C 90.5 52.008056640625 89.32363891601562 57.83565521240234 87.00358581542969 63.32085418701172 C 84.76235961914062 68.61969757080078 81.55353546142578 73.37885284423828 77.46625518798828 77.46613311767578 C 73.37895965576172 81.55341339111328 68.61979675292969 84.76224517822266 63.32094573974609 87.00345611572266 C 57.83573150634766 89.32350921630859 52.00812149047852 90.49987030029297 46 90.49987030029297 Z" stroke="none"/>
                                    <path d="M 46 2.999992370605469 C 40.1937141418457 2.999992370605469 34.56269836425781 4.136489868164062 29.26337051391602 6.377906799316406 C 24.14332580566406 8.543502807617188 19.54441070556641 11.64437866210938 15.59439849853516 15.59437561035156 C 11.64440155029297 19.54439544677734 8.54351806640625 24.14329528808594 6.377914428710938 29.26333618164062 C 4.136497497558594 34.56264877319336 3 40.19366455078125 3 45.99993515014648 C 3 51.80620574951172 4.136497497558594 57.43720626831055 6.377914428710938 62.73651885986328 C 8.54351806640625 67.8565673828125 11.64440155029297 72.45545959472656 15.59439849853516 76.40547943115234 C 19.54441070556641 80.35547637939453 24.14332580566406 83.45635223388672 29.26337051391602 85.6219482421875 C 34.56269836425781 87.86336517333984 40.1937141418457 88.99986267089844 46 88.99986267089844 C 51.8062858581543 88.99986267089844 57.43730163574219 87.86336517333984 62.73661422729492 85.6219482421875 C 67.85667419433594 83.45635223388672 72.45557403564453 80.35547637939453 76.40558624267578 76.40547943115234 C 80.35559844970703 72.45545959472656 83.45647430419922 67.8565673828125 85.6220703125 62.73651885986328 C 87.86350250244141 57.43720626831055 89 51.80620574951172 89 45.99993515014648 C 89 40.19366455078125 87.86350250244141 34.56264877319336 85.6220703125 29.26333618164062 C 83.45647430419922 24.14329528808594 80.35559844970703 19.54439544677734 76.40558624267578 15.59437561035156 C 72.45557403564453 11.64437866210938 67.85667419433594 8.543502807617188 62.73661422729492 6.377906799316406 C 57.43730163574219 4.136489868164062 51.8062858581543 2.999992370605469 46 2.999992370605469 M 46 -7.62939453125e-06 C 71.40509033203125 -7.62939453125e-06 92 20.59486389160156 92 45.99993515014648 C 92 71.40499114990234 71.40509033203125 91.99986267089844 46 91.99986267089844 C 20.59490203857422 91.99986267089844 0 71.40499114990234 0 45.99993515014648 C 0 20.59486389160156 20.59490203857422 -7.62939453125e-06 46 -7.62939453125e-06 Z" stroke="none" fill="#88bba9"/>
                                  </g>
                                </g>
                              </g>
                            </g>
                          </g>
                        </g>
                      </g>
                    </g>
                  </g>
                </g>
              </g>
            </g>
          </g>
        </g>
      </g>
    </g>
    <g id="observar" transform="translate(2329.5 4756)">
      <rect id="Rectángulo_415678" data-name="Rectángulo 415678" width="33.268" height="47.228" transform="translate(56.495 8.681)" fill="#59b6d6"/>
      <rect id="Rectángulo_415679" data-name="Rectángulo 415679" width="33.266" height="47.228" transform="translate(50.232 5.859)" fill="#c0e8f4"/>
      <rect id="Rectángulo_415680" data-name="Rectángulo 415680" width="4.457" height="6.659" transform="translate(74.632 10.112)" fill="#fad06a"/>
      <rect id="Rectángulo_415681" data-name="Rectángulo 415681" width="3.29" height="7.623" transform="translate(71.983 26.161) rotate(135)" fill="#2c394b"/>
      <circle id="Elipse_12160" data-name="Elipse 12160" cx="12.938" cy="12.938" r="12.938" transform="translate(44.328 0.831)" fill="#ec7462"/>
      <circle id="Elipse_12161" data-name="Elipse 12161" cx="9.831" cy="9.831" r="9.831" transform="translate(47.435 3.939)" fill="#59b6d6"/>
      <circle id="Elipse_12162" data-name="Elipse 12162" cx="7.614" cy="7.614" r="7.614" transform="translate(49.651 6.155)" fill="#c0e8f4"/>
      <rect id="Rectángulo_415682" data-name="Rectángulo 415682" width="5.677" height="22.58" transform="translate(87.41 39.899) rotate(135)" fill="#4b596e"/>
      <rect id="Rectángulo_415683" data-name="Rectángulo 415683" width="2.184" height="22.58" transform="translate(87.409 39.899) rotate(135)" fill="#2c394b"/>
      <rect id="Rectángulo_415684" data-name="Rectángulo 415684" width="5.678" height="3.813" transform="translate(78.788 31.276) rotate(135)" fill="#ec7462"/>
      <rect id="Rectángulo_415685" data-name="Rectángulo 415685" width="2.185" height="3.813" transform="translate(78.786 31.276) rotate(135)" fill="#db4e40"/>
      <path id="Trazado_1044743" data-name="Trazado 1044743" d="M89.767,50.2a.831.831,0,0,0,.831-.831V8.681a.831.831,0,0,0-.831-.831H84.332V5.859a.831.831,0,0,0-.831-.831H80.235a.831.831,0,1,0,0,1.662h2.434V33.98l-3.293-3.292h0l-2.7-2.7h0l-4.648-4.647a.831.831,0,0,0-1.176,0L70.6,23.6l-2-2A13.794,13.794,0,0,0,69.083,6.69h7.189a.831.831,0,1,0,0-1.662H67.907q-.425-.515-.9-.995A13.773,13.773,0,0,0,45.244,20.5a.831.831,0,0,0,1.45-.813A12.111,12.111,0,0,1,65.827,5.209a12.316,12.316,0,0,1,1,1.131c.013.018.026.036.041.053a12.113,12.113,0,0,1,0,14.755c-.016.019-.031.039-.046.06A12.283,12.283,0,0,1,64.67,23.35l-.02.015A12.129,12.129,0,0,1,48.7,22.331a.831.831,0,1,0-1.176,1.175,13.933,13.933,0,0,0,1.873,1.57v28.01a.831.831,0,0,0,.831.831h5.432v1.99a.831.831,0,0,0,.831.831H89.767a.831.831,0,0,0,.831-.831V53.087a.831.831,0,0,0-1.663,0v1.99H57.325V53.918H83.5a.831.831,0,0,0,.831-.831V44.155L88,40.486a.831.831,0,0,0,0-1.175l-3.669-3.669V9.512h4.6V49.37A.831.831,0,0,0,89.767,50.2ZM73.251,32.594l2.84-2.839,1.521,1.521-2.84,2.839Zm1.664-4.015-2.84,2.839L68.6,27.947l2.84-2.839Zm-5.492-3.8-1.151,1.151L66.41,24.065q.3-.27.593-.558t.558-.593ZM51.061,52.256V26.072A13.81,13.81,0,0,0,65.1,25.1l2,2-.257.257a.831.831,0,0,0,0,1.175l4.648,4.647h0l2.7,2.7h0l8.484,8.482v7.9ZM83.4,42.738,75.948,35.29l2.84-2.839L86.237,39.9Z" transform="translate(0 0)"/>
      <path id="Trazado_1044744" data-name="Trazado 1044744" d="M150.775,309.224H138.313a.831.831,0,1,0,0,1.662h12.462a.831.831,0,1,0,0-1.662Z" transform="translate(-83.567 -274.956)"/>
      <path id="Trazado_1044745" data-name="Trazado 1044745" d="M150.775,349.473H138.313a.831.831,0,1,0,0,1.662h12.462a.831.831,0,1,0,0-1.662Z" transform="translate(-83.567 -310.744)"/>
      <path id="Trazado_1044746" data-name="Trazado 1044746" d="M150.775,389.722H138.313a.831.831,0,1,0,0,1.662h12.462a.831.831,0,1,0,0-1.662Z" transform="translate(-83.567 -346.533)"/>
      <path id="Trazado_1044747" data-name="Trazado 1044747" d="M150.775,429.972H138.313a.831.831,0,1,0,0,1.662h12.462a.831.831,0,1,0,0-1.662Z" transform="translate(-83.567 -382.323)"/>
      <path id="Trazado_1044748" data-name="Trazado 1044748" d="M323.06,84.58a.831.831,0,0,0-.831-.831H317.77a.831.831,0,0,0-.831.831v6.66a.831.831,0,0,0,.831.831h4.458a.831.831,0,0,0,.831-.831ZM321.4,90.409h-2.8v-5h2.8Z" transform="translate(-243.137 -74.468)"/>
      <path id="Trazado_1044749" data-name="Trazado 1044749" d="M322.228,171.1H317.77a.831.831,0,1,0,0,1.662h4.458a.831.831,0,1,0,0-1.662Z" transform="translate(-243.137 -152.142)"/>
      <path id="Trazado_1044750" data-name="Trazado 1044750" d="M322.228,429.972H317.77a.831.831,0,1,0,0,1.662h4.458a.831.831,0,1,0,0-1.662Z" transform="translate(-243.137 -382.323)"/>
      <path id="Trazado_1044751" data-name="Trazado 1044751" d="M322.228,388.321H317.77a.831.831,0,1,0,0,1.662h4.458a.831.831,0,1,0,0-1.662Z" transform="translate(-243.137 -345.287)"/>
      <path id="Trazado_1044752" data-name="Trazado 1044752" d="M82.186,49.4a10.657,10.657,0,1,0-7.54-3.118A10.631,10.631,0,0,0,82.186,49.4Zm-6.365-17.02a9,9,0,1,1,0,12.727A8.973,8.973,0,0,1,75.821,32.383Z" transform="translate(-24.922 -24.977)"/>
      <path id="Trazado_1044753" data-name="Trazado 1044753" d="M103.188,65.712a5.671,5.671,0,0,1,5.663-6,.831.831,0,1,0,0-1.662,7.333,7.333,0,0,0-7.323,7.763.831.831,0,0,0,.829.783h.049A.831.831,0,0,0,103.188,65.712Z" transform="translate(-51.587 -51.612)"/>
    </g>
  </g>
</svg>
