<svg xmlns="http://www.w3.org/2000/svg" xmlns:xlink="http://www.w3.org/1999/xlink" width="110" height="110" viewBox="0 0 110 110">
  <defs>
    <filter id="Trazado_982547" x="0" y="0" width="110" height="110" filterUnits="userSpaceOnUse">
      <feOffset dy="3" input="SourceAlpha"/>
      <feGaussianBlur stdDeviation="3" result="blur"/>
      <feFlood flood-opacity="0.161"/>
      <feComposite operator="in" in2="blur"/>
      <feComposite in="SourceGraphic"/>
    </filter>
  </defs>
  <g id="Grupo_1200247" data-name="Grupo 1200247" transform="translate(477 -1084)">
    <g id="Grupo_1199821" data-name="Grupo 1199821" transform="translate(-1155.301 -6667)">
      <g id="Grupo_1173087" data-name="Grupo 1173087" transform="translate(687.301 7757)">
        <g id="Grupo_1172182" data-name="Grupo 1172182" transform="translate(0)">
          <g id="Grupo_1171416" data-name="Grupo 1171416">
            <g id="Grupo_1163803" data-name="Grupo 1163803">
              <g id="Grupo_1163015" data-name="Grupo 1163015">
                <g id="Grupo_1157017" data-name="Grupo 1157017" transform="translate(0 0)">
                  <g id="Grupo_1155793" data-name="Grupo 1155793">
                    <g id="Grupo_1154704" data-name="Grupo 1154704">
                      <g id="Grupo_1150790" data-name="Grupo 1150790">
                        <g id="Grupo_1154214" data-name="Grupo 1154214">
                          <g id="Grupo_1152583" data-name="Grupo 1152583">
                            <g id="Grupo_1146973" data-name="Grupo 1146973" transform="translate(0 0)">
                              <g id="Grupo_1146954" data-name="Grupo 1146954">
                                <g transform="matrix(1, 0, 0, 1, -9, -6)" filter="url(#Trazado_982547)">
                                  <g id="Trazado_982547-2" data-name="Trazado 982547" transform="translate(9 6)" fill="#f2f7f5">
                                    <path d="M 46 90.49987030029297 C 39.99187850952148 90.49987030029297 34.16426849365234 89.32350921630859 28.67905426025391 87.00345611572266 C 23.38019943237305 84.76224517822266 18.62104034423828 81.55341339111328 14.53374671936035 77.46613311767578 C 10.44646644592285 73.37885284423828 7.237639904022217 68.61969757080078 4.996413230895996 63.32085418701172 C 2.676359891891479 57.83565521240234 1.5 52.008056640625 1.5 45.99993515014648 C 1.5 39.99181365966797 2.676359891891479 34.16421508789062 4.996413230895996 28.67901420593262 C 7.237639904022217 23.38017463684082 10.44646644592285 18.62101554870605 14.53374671936035 14.53373527526855 C 18.62104034423828 10.44645500183105 23.38019943237305 7.23762845993042 28.67905426025391 4.996415138244629 C 34.16426849365234 2.676361799240112 39.99187850952148 1.500001788139343 46 1.500001788139343 C 52.00812149047852 1.500001788139343 57.83573150634766 2.676361799240112 63.32094573974609 4.996415138244629 C 68.61979675292969 7.23762845993042 73.37895965576172 10.44645500183105 77.46625518798828 14.53373527526855 C 81.55353546142578 18.62101554870605 84.76235961914062 23.38017463684082 87.00358581542969 28.67901420593262 C 89.32363891601562 34.16421508789062 90.5 39.99181365966797 90.5 45.99993515014648 C 90.5 52.008056640625 89.32363891601562 57.83565521240234 87.00358581542969 63.32085418701172 C 84.76235961914062 68.61969757080078 81.55353546142578 73.37885284423828 77.46625518798828 77.46613311767578 C 73.37895965576172 81.55341339111328 68.61979675292969 84.76224517822266 63.32094573974609 87.00345611572266 C 57.83573150634766 89.32350921630859 52.00812149047852 90.49987030029297 46 90.49987030029297 Z" stroke="none"/>
                                    <path d="M 46 2.999992370605469 C 40.1937141418457 2.999992370605469 34.56269836425781 4.136489868164062 29.26337051391602 6.377906799316406 C 24.14332580566406 8.543502807617188 19.54441070556641 11.64437866210938 15.59439849853516 15.59437561035156 C 11.64440155029297 19.54439544677734 8.54351806640625 24.14329528808594 6.377914428710938 29.26333618164062 C 4.136497497558594 34.56264877319336 3 40.19366455078125 3 45.99993515014648 C 3 51.80620574951172 4.136497497558594 57.43720626831055 6.377914428710938 62.73651885986328 C 8.54351806640625 67.8565673828125 11.64440155029297 72.45545959472656 15.59439849853516 76.40547943115234 C 19.54441070556641 80.35547637939453 24.14332580566406 83.45635223388672 29.26337051391602 85.6219482421875 C 34.56269836425781 87.86336517333984 40.1937141418457 88.99986267089844 46 88.99986267089844 C 51.8062858581543 88.99986267089844 57.43730163574219 87.86336517333984 62.73661422729492 85.6219482421875 C 67.85667419433594 83.45635223388672 72.45557403564453 80.35547637939453 76.40558624267578 76.40547943115234 C 80.35559844970703 72.45545959472656 83.45647430419922 67.8565673828125 85.6220703125 62.73651885986328 C 87.86350250244141 57.43720626831055 89 51.80620574951172 89 45.99993515014648 C 89 40.19366455078125 87.86350250244141 34.56264877319336 85.6220703125 29.26333618164062 C 83.45647430419922 24.14329528808594 80.35559844970703 19.54439544677734 76.40558624267578 15.59437561035156 C 72.45557403564453 11.64437866210938 67.85667419433594 8.543502807617188 62.73661422729492 6.377906799316406 C 57.43730163574219 4.136489868164062 51.8062858581543 2.999992370605469 46 2.999992370605469 M 46 -7.62939453125e-06 C 71.40509033203125 -7.62939453125e-06 92 20.59486389160156 92 45.99993515014648 C 92 71.40499114990234 71.40509033203125 91.99986267089844 46 91.99986267089844 C 20.59490203857422 91.99986267089844 0 71.40499114990234 0 45.99993515014648 C 0 20.59486389160156 20.59490203857422 -7.62939453125e-06 46 -7.62939453125e-06 Z" stroke="none" fill="#88bba9"/>
                                  </g>
                                </g>
                              </g>
                            </g>
                          </g>
                        </g>
                      </g>
                    </g>
                  </g>
                </g>
              </g>
            </g>
          </g>
        </g>
      </g>
    </g>
    <g id="mejores-practicas" transform="translate(-459.001 1098.001)">
      <g id="Grupo_1200246" data-name="Grupo 1200246" transform="translate(8.794 8.935)">
        <g id="Grupo_1200240" data-name="Grupo 1200240" transform="translate(3.343 0)">
          <path id="Trazado_1043986" data-name="Trazado 1043986" d="M54.871,17.538a8.662,8.662,0,0,1,2.536,1.051l1.648-.732L61,19.8l-.732,1.647a8.656,8.656,0,0,1,1.051,2.536L63,24.63v2.746l-1.681.647a8.66,8.66,0,0,1-1.051,2.535L61,32.206l-1.942,1.942-1.647-.731a8.656,8.656,0,0,1-2.536,1.051l-.647,1.681H51.478l-.647-1.681A8.661,8.661,0,0,1,48.3,33.416l-1.648.732-1.942-1.942.732-1.647a8.658,8.658,0,0,1-1.051-2.536L42.7,27.376V24.63l1.681-.647a8.657,8.657,0,0,1,1.051-2.536L44.706,19.8l1.942-1.942,1.648.732a8.66,8.66,0,0,1,2.536-1.051l.647-1.681h2.746Z" transform="translate(-42.705 -15.857)" fill="#ffe177" fill-rule="evenodd"/>
          <path id="Trazado_1043987" data-name="Trazado 1043987" d="M75.559,33.417l-1.648.732-.254-.254,1.545-.686Q75.379,33.317,75.559,33.417Zm6.576-15.878a8.661,8.661,0,0,1,2.536,1.051L84.2,18.8a11.416,11.416,0,0,0-2.892-1.259l-.647-1.681h.825Zm2.536,15.878a8.656,8.656,0,0,1-2.536,1.051l-.647,1.681h-.825l.647-1.681A11.422,11.422,0,0,0,84.2,33.209ZM73.658,18.111l.254-.254,1.648.732q-.181.1-.357.208Zm12.089,0,.571-.254L88.26,19.8l-.732,1.647a8.656,8.656,0,0,1,1.051,2.536l1.681.647v2.746l-1.681.647a8.66,8.66,0,0,1-1.051,2.535l.732,1.648-1.942,1.942-.571-.254,1.688-1.688L86.7,30.559a8.659,8.659,0,0,0,1.051-2.535l1.681-.647V24.63l-1.681-.647A8.656,8.656,0,0,0,86.7,21.447l.732-1.647Z" transform="translate(-69.969 -15.857)" fill="#ffd064" fill-rule="evenodd"/>
          <circle id="Elipse_12128" data-name="Elipse 12128" cx="4.789" cy="4.789" r="4.789" transform="translate(3.403 9.476) rotate(-39.358)" fill="#eceff1"/>
          <path id="Trazado_1043988" data-name="Trazado 1043988" d="M92.443,60.807a4.789,4.789,0,1,0,0,9.578q.192,0,.381-.015a4.789,4.789,0,0,1,0-9.548Q92.636,60.807,92.443,60.807Z" transform="translate(-82.297 -55.45)" fill="#d1d1d6" fill-rule="evenodd"/>
        </g>
        <g id="Grupo_1200241" data-name="Grupo 1200241" transform="translate(34.299 0.016)">
          <path id="Trazado_1043989" data-name="Trazado 1043989" d="M303.06,15.992h17.472a.582.582,0,0,1,.426.176l4.389,4.389a.582.582,0,0,1,.177.426v24.3a.6.6,0,0,1-.6.6H303.06a.6.6,0,0,1-.6-.6V16.595A.6.6,0,0,1,303.06,15.992Z" transform="translate(-302.457 -15.992)" fill="#eceff1" fill-rule="evenodd"/>
          <path id="Trazado_1043990" data-name="Trazado 1043990" d="M303.06,15.992h1.7v29.9h-1.7a.6.6,0,0,1-.6-.6V16.595a.6.6,0,0,1,.6-.6Z" transform="translate(-302.457 -15.992)" fill="#d1d1d6" fill-rule="evenodd"/>
          <path id="Trazado_1043991" data-name="Trazado 1043991" d="M456.213,16.431a.6.6,0,0,1,.177.124l4.389,4.389a.6.6,0,0,1,.124.176h-4.389a.3.3,0,0,1-.3-.3Z" transform="translate(-437.889 -16.379)" fill="#a79ba7" fill-rule="evenodd"/>
        </g>
        <g id="Grupo_1200242" data-name="Grupo 1200242" transform="translate(46.155 24.482)">
          <circle id="Elipse_12129" data-name="Elipse 12129" cx="5.542" cy="5.542" r="5.542" transform="translate(0 11.083) rotate(-88.568)" fill="#8ac9fe"/>
          <path id="Trazado_1043992" data-name="Trazado 1043992" d="M445.1,222.582a5.542,5.542,0,1,1-.6,11.051,5.542,5.542,0,0,0,0-11.019A5.621,5.621,0,0,1,445.1,222.582Z" transform="translate(-439.432 -222.428)" fill="#60b7ff" fill-rule="evenodd"/>
        </g>
        <g id="Grupo_1200243" data-name="Grupo 1200243" transform="translate(0.161 25.958)">
          <path id="Trazado_1043993" data-name="Trazado 1043993" d="M16.958,233.674H41.708a.956.956,0,0,1,.953.953v4.458a.956.956,0,0,1-.953.953H16.958a.956.956,0,0,1-.953-.953v-4.458A.956.956,0,0,1,16.958,233.674Z" transform="translate(-16.005 -233.674)" fill="#c2ed56" fill-rule="evenodd"/>
          <path id="Trazado_1043994" data-name="Trazado 1043994" d="M41.469,233.674h.238a.956.956,0,0,1,.953.953v4.458a.956.956,0,0,1-.953.953H16.958a.956.956,0,0,1-.953-.953v-.238H40.516a.956.956,0,0,0,.953-.953Z" transform="translate(-16.005 -233.674)" fill="#b7e546" fill-rule="evenodd"/>
        </g>
        <g id="Grupo_1200244" data-name="Grupo 1200244" transform="translate(0.161 38.407)">
          <path id="Trazado_1043995" data-name="Trazado 1043995" d="M16.958,338.131H41.708a.956.956,0,0,1,.953.953v4.458a.956.956,0,0,1-.953.953H16.958a.956.956,0,0,1-.953-.953v-4.458A.956.956,0,0,1,16.958,338.131Z" transform="translate(-16.005 -338.131)" fill="#c2ed56" fill-rule="evenodd"/>
          <path id="Trazado_1043996" data-name="Trazado 1043996" d="M41.469,338.131h.238a.956.956,0,0,1,.953.953v4.458a.956.956,0,0,1-.953.953H16.958a.956.956,0,0,1-.953-.953V343.3H40.516a.956.956,0,0,0,.953-.953Z" transform="translate(-16.005 -338.131)" fill="#b7e546" fill-rule="evenodd"/>
        </g>
        <g id="Grupo_1200245" data-name="Grupo 1200245" transform="translate(0 50.802)">
          <path id="Trazado_1043997" data-name="Trazado 1043997" d="M15.605,442.137H40.355a.956.956,0,0,1,.953.953v4.458a.956.956,0,0,1-.953.953H15.605a.956.956,0,0,1-.953-.953V443.09a.956.956,0,0,1,.953-.953Z" transform="translate(-14.652 -442.137)" fill="#c2ed56" fill-rule="evenodd"/>
          <path id="Trazado_1043998" data-name="Trazado 1043998" d="M40.116,442.137h.238a.956.956,0,0,1,.953.953v4.458a.956.956,0,0,1-.953.953H15.605a.956.956,0,0,1-.953-.953v-.238H39.163a.956.956,0,0,0,.953-.953Z" transform="translate(-14.652 -442.137)" fill="#b7e546" fill-rule="evenodd"/>
        </g>
      </g>
      <path id="Trazado_1043999" data-name="Trazado 1043999" d="M21.835,62.974a.954.954,0,0,1,.954-.954h8.29a.953.953,0,1,1,0,1.907h-8.29a.953.953,0,0,1-.954-.953Zm-9.3,0a.954.954,0,0,1,.954-.954h5.063a.953.953,0,1,1,0,1.907H13.487a.953.953,0,0,1-.954-.953Zm19.5-12.448a.953.953,0,0,1-.954.953H13.487a.953.953,0,1,1,0-1.907H31.078A.953.953,0,0,1,32.031,50.526Zm0-12.449a.953.953,0,0,1-.954.953h-8.29a.953.953,0,1,1,0-1.907h8.29A.953.953,0,0,1,32.031,38.077Zm-12.529,0a.953.953,0,0,1-.954.953H13.487a.953.953,0,1,1,0-1.907h5.063A.953.953,0,0,1,19.5,38.077Zm44.2-.066-2.755,3.4a.951.951,0,0,1-.692.353H60.2a.955.955,0,0,1-.673-.279L57.6,39.561a.953.953,0,0,1,1.348-1.348l1.181,1.181,2.09-2.581a.953.953,0,1,1,1.482,1.2ZM18.454,19.083a3.828,3.828,0,1,1,3.829,3.828A3.833,3.833,0,0,1,18.454,19.083Zm9.564,0a5.735,5.735,0,1,0-5.735,5.734A5.743,5.743,0,0,0,28.018,19.083Zm18.828-4.9a.954.954,0,0,1,.954-.954h9.8a.953.953,0,1,1,0,1.907H47.8A.953.953,0,0,1,46.846,14.181Zm0,16.093a.953.953,0,0,1,.954-.953H61.451a.953.953,0,0,1,0,1.907H47.8A.954.954,0,0,1,46.846,30.274Zm0-4.023A.954.954,0,0,1,47.8,25.3H61.451a.953.953,0,0,1,0,1.907H47.8A.954.954,0,0,1,46.846,26.251Zm0-4.023a.954.954,0,0,1,.954-.954H61.451a.953.953,0,0,1,0,1.907H47.8A.953.953,0,0,1,46.846,22.228Zm0-4.024a.954.954,0,0,1,.954-.954H61.451a.954.954,0,0,1,0,1.907H47.8A.954.954,0,0,1,46.846,18.2ZM60.617,43.7a4.588,4.588,0,1,0-4.588-4.588A4.593,4.593,0,0,0,60.617,43.7ZM36.564,62.02H53.673V39.8H43.7a1.558,1.558,0,0,1-1.557-1.557V20.036H33.366v.417a.954.954,0,0,1-.611.89l-1.225.471a9.558,9.558,0,0,1-.778,1.874l.534,1.2a.954.954,0,0,1-.2,1.06L29.15,27.888a.955.955,0,0,1-1.061.2l-1.2-.534a9.572,9.572,0,0,1-1.874.777l-.471,1.225a.953.953,0,0,1-.89.611h-.417v3.776H35.61a.953.953,0,0,1,.954.953v6.364a.953.953,0,0,1-.954.953H23.236v4.178H35.61a.953.953,0,0,1,.954.953v6.364a.953.953,0,0,1-.954.954H23.236v4.177H35.61a.953.953,0,0,1,.954.953V62.02ZM34.657,65.2V60.745H9.908V65.2ZM9.908,48.3v4.457H34.657V48.3Zm0-12.449v4.457H34.657V35.848Zm10.578-9.242a.956.956,0,0,1,.67.585l.411,1.068H23l.41-1.068a.956.956,0,0,1,.67-.585,7.663,7.663,0,0,0,2.252-.933.953.953,0,0,1,.887-.059l1.046.464,1.013-1.013-.465-1.046a.956.956,0,0,1,.06-.887,7.661,7.661,0,0,0,.934-2.253.948.948,0,0,1,.586-.668l1.067-.412V18.366l-1.067-.411a.955.955,0,0,1-.586-.67,7.674,7.674,0,0,0-.934-2.253.954.954,0,0,1-.06-.886l.465-1.046-1.013-1.013-1.046.464a.954.954,0,0,1-.887-.059,7.679,7.679,0,0,0-2.252-.933.952.952,0,0,1-.669-.585L23,9.906H21.566l-.411,1.067a.956.956,0,0,1-.67.585,7.671,7.671,0,0,0-2.252.933.954.954,0,0,1-.887.059L16.3,12.087,15.287,13.1l.465,1.046a.953.953,0,0,1-.06.886,7.731,7.731,0,0,0-.934,2.253.954.954,0,0,1-.585.67l-1.067.411V19.8l1.067.412a.95.95,0,0,1,.585.668,7.693,7.693,0,0,0,.934,2.253.956.956,0,0,1,.06.888l-.465,1.046L16.3,26.077l1.046-.465a.956.956,0,0,1,.887.059,7.705,7.705,0,0,0,2.252.934Zm23.56-16.7V37.895H54.239A6.453,6.453,0,0,1,55.4,35.251H47.8a.953.953,0,1,1,0-1.907h9.842a6.479,6.479,0,0,1,7.563,1.177V14.648H61.718a1.255,1.255,0,0,1-1.255-1.255V9.906ZM62.37,11.254l1.488,1.487H62.37Zm4.742,2.69a1.526,1.526,0,0,0-.455-1.1L62.268,8.454A1.527,1.527,0,0,0,61.168,8H43.7a1.558,1.558,0,0,0-1.557,1.555v8.575H33.366v-.418a.953.953,0,0,0-.611-.889L31.53,16.35a9.553,9.553,0,0,0-.778-1.873l.534-1.2a.955.955,0,0,0-.2-1.061L29.15,10.276a.951.951,0,0,0-1.061-.2l-1.2.532a9.548,9.548,0,0,0-1.874-.775l-.471-1.227a.954.954,0,0,0-.89-.61H20.911a.954.954,0,0,0-.889.61L19.55,9.836a9.521,9.521,0,0,0-1.874.775l-1.2-.532a.951.951,0,0,0-1.061.2l-1.939,1.939a.951.951,0,0,0-.2,1.061l.533,1.2a9.552,9.552,0,0,0-.777,1.873l-1.226.472a.952.952,0,0,0-.61.889v2.742a.953.953,0,0,0,.61.89l1.226.471a9.563,9.563,0,0,0,.777,1.875l-.533,1.2a.953.953,0,0,0,.2,1.062l1.939,1.937a.955.955,0,0,0,1.061.2l1.2-.534a9.527,9.527,0,0,0,1.874.777l.472,1.225a.953.953,0,0,0,.889.611h.418v3.776H8.954A.953.953,0,0,0,8,34.895v6.364a.953.953,0,0,0,.953.953H21.33v4.178H8.954A.953.953,0,0,0,8,47.344v6.364a.953.953,0,0,0,.953.954H21.33v4.177H8.954A.953.953,0,0,0,8,59.792v6.365a.953.953,0,0,0,.953.954H35.61a.953.953,0,0,0,.954-.954v-2.23H54.626a.953.953,0,0,0,.954-.953V43.209a6.492,6.492,0,0,0,11.533-4.094V13.944Z" transform="translate(0 0)" fill-rule="evenodd"/>
    </g>
  </g>
</svg>
